<svg xmlns="http://www.w3.org/2000/svg" width="940" height="490" viewBox="0 0 940 490" role="img">
<rect width="100%%" height="100%%" fill="#0f172a"/>
<style>text{font-family:system-ui,sans-serif;fill:#e2e8f0}.title{font-size:22px;font-weight:700}.sub{font-size:13px;fill:#94a3b8}.label{font-size:13px}.value{font-size:12px;font-weight:650}.grid{stroke:#334155;stroke-width:1}</style>
<text class="title" x="24" y="34">Scheduler/IRQ event rate</text>
<text class="sub" x="24" y="57">Legacy counts timer callbacks; DMA counts completed-block publications.</text>
<line class="grid" x1="245.0" y1="75" x2="245.0" y2="462"/>
<text class="sub" text-anchor="middle" x="245.0" y="480">0</text>
<line class="grid" x1="401.2" y1="75" x2="401.2" y2="462"/>
<text class="sub" text-anchor="middle" x="401.2" y="480">13.3</text>
<line class="grid" x1="557.5" y1="75" x2="557.5" y2="462"/>
<text class="sub" text-anchor="middle" x="557.5" y="480">26.7</text>
<line class="grid" x1="713.8" y1="75" x2="713.8" y2="462"/>
<text class="sub" text-anchor="middle" x="713.8" y="480">40</text>
<line class="grid" x1="870.0" y1="75" x2="870.0" y2="462"/>
<text class="sub" text-anchor="middle" x="870.0" y="480">53.3</text>
<text class="label" x="24" y="100">F072 legacy thermistor</text>
<rect x="245" y="82" width="625.00" height="24" rx="3" fill="#14b8a6"/>
<text class="value" x="877.00" y="99">53.33 events/s</text>
<text class="label" x="24" y="154">F072 DMA 1 kscan/s</text>
<rect x="245" y="136" width="183.11" height="24" rx="3" fill="#14b8a6"/>
<text class="value" x="435.11" y="153">15.63 events/s</text>
<text class="label" x="24" y="208">F072 DMA thermistor</text>
<rect x="245" y="190" width="39.06" height="24" rx="3" fill="#14b8a6"/>
<text class="value" x="291.06" y="207">3.333 events/s</text>
<text class="label" x="24" y="262">dma_1ksps_thermistor</text>
<rect x="245" y="244" width="183.11" height="24" rx="3" fill="#14b8a6"/>
<text class="value" x="435.11" y="261">15.62 events/s</text>
<text class="label" x="24" y="316">RP2040 migrated thermistor</text>
<rect x="245" y="298" width="156.25" height="24" rx="3" fill="#14b8a6"/>
<text class="value" x="408.25" y="315">13.33 events/s</text>
<text class="label" x="24" y="370">H723 DMA HW-OSR16</text>
<rect x="245" y="352" width="183.11" height="24" rx="3" fill="#14b8a6"/>
<text class="value" x="435.11" y="369">15.62 events/s</text>
<text class="label" x="24" y="424">H723 DMA + solver load</text>
<rect x="245" y="406" width="183.11" height="24" rx="3" fill="#14b8a6"/>
<text class="value" x="435.11" y="423">15.62 events/s</text>
</svg>
