<svg xmlns="http://www.w3.org/2000/svg" width="940" height="490" viewBox="0 0 940 490" role="img">
<rect width="100%%" height="100%%" fill="#0f172a"/>
<style>text{font-family:system-ui,sans-serif;fill:#e2e8f0}.title{font-size:22px;font-weight:700}.sub{font-size:13px;fill:#94a3b8}.label{font-size:13px}.value{font-size:12px;font-weight:650}.grid{stroke:#334155;stroke-width:1}</style>
<text class="title" x="24" y="34">Measured firmware CPU slices</text>
<text class="sub" x="24" y="57">Legacy task/report work was not instrumented; DMA task work includes filtering and message enqueue.</text>
<line class="grid" x1="245.0" y1="75" x2="245.0" y2="462"/>
<text class="sub" text-anchor="middle" x="245.0" y="480">0</text>
<line class="grid" x1="401.2" y1="75" x2="401.2" y2="462"/>
<text class="sub" text-anchor="middle" x="401.2" y="480">0.456</text>
<line class="grid" x1="557.5" y1="75" x2="557.5" y2="462"/>
<text class="sub" text-anchor="middle" x="557.5" y="480">0.913</text>
<line class="grid" x1="713.8" y1="75" x2="713.8" y2="462"/>
<text class="sub" text-anchor="middle" x="713.8" y="480">1.37</text>
<line class="grid" x1="870.0" y1="75" x2="870.0" y2="462"/>
<text class="sub" text-anchor="middle" x="870.0" y="480">1.83</text>
<text class="label" x="24" y="100">F072 legacy thermistor</text>
<rect x="245" y="82" width="2.67" height="24" rx="3" fill="#14b8a6"/>
<text class="value" x="254.67" y="99">0.007799 % CPU</text>
<text class="label" x="24" y="154">F072 DMA 1 kscan/s</text>
<rect x="245" y="136" width="15.79" height="24" rx="3" fill="#14b8a6"/>
<rect x="260.79" y="136" width="609.21" height="24" rx="3" fill="#f59e0b"/>
<text class="value" x="877.00" y="153">1.825 % CPU</text>
<text class="label" x="24" y="208">F072 DMA thermistor</text>
<rect x="245" y="190" width="3.36" height="24" rx="3" fill="#14b8a6"/>
<rect x="248.36" y="190" width="23.91" height="24" rx="3" fill="#f59e0b"/>
<text class="value" x="279.27" y="207">0.07965 % CPU</text>
<text class="label" x="24" y="262">dma_1ksps_thermistor</text>
<rect x="245" y="244" width="2.56" height="24" rx="3" fill="#14b8a6"/>
<rect x="247.56" y="244" width="31.21" height="24" rx="3" fill="#f59e0b"/>
<text class="value" x="285.77" y="261">0.09864 % CPU</text>
<text class="label" x="24" y="316">RP2040 migrated thermistor</text>
<rect x="245" y="298" width="2.32" height="24" rx="3" fill="#14b8a6"/>
<rect x="247.32" y="298" width="75.63" height="24" rx="3" fill="#f59e0b"/>
<text class="value" x="329.96" y="315">0.2277 % CPU</text>
<text class="label" x="24" y="370">H723 DMA HW-OSR16</text>
<rect x="245" y="352" width="0.28" height="24" rx="3" fill="#14b8a6"/>
<rect x="245.28" y="352" width="11.23" height="24" rx="3" fill="#f59e0b"/>
<text class="value" x="263.51" y="369">0.03362 % CPU</text>
<text class="label" x="24" y="424">H723 DMA + solver load</text>
<rect x="245" y="406" width="0.26" height="24" rx="3" fill="#14b8a6"/>
<rect x="245.26" y="406" width="11.10" height="24" rx="3" fill="#f59e0b"/>
<text class="value" x="263.36" y="423">0.03317 % CPU</text>
<rect x="640" y="43" width="12" height="12" fill="#14b8a6"/>
<text class="sub" x="658" y="54">IRQ/publication</text>
<rect x="775" y="43" width="12" height="12" fill="#f59e0b"/>
<text class="sub" x="793" y="54">task/deferred work</text>
</svg>
