<?xml version="1.0" encoding="utf-8" standalone="no"?>
<!DOCTYPE svg PUBLIC "-//W3C//DTD SVG 1.1//EN"
  "http://www.w3.org/Graphics/SVG/1.1/DTD/svg11.dtd">
<svg xmlns:xlink="http://www.w3.org/1999/xlink" width="648pt" height="403.2pt" viewBox="0 0 648 403.2" xmlns="http://www.w3.org/2000/svg" version="1.1">
 <metadata>
  <rdf:RDF xmlns:dc="http://purl.org/dc/elements/1.1/" xmlns:cc="http://creativecommons.org/ns#" xmlns:rdf="http://www.w3.org/1999/02/22-rdf-syntax-ns#">
   <cc:Work>
    <dc:type rdf:resource="http://purl.org/dc/dcmitype/StillImage"/>
    <dc:format>image/svg+xml</dc:format>
    <dc:creator>
     <cc:Agent>
      <dc:title>Helix</dc:title>
     </cc:Agent>
    </dc:creator>
   </cc:Work>
  </rdf:RDF>
 </metadata>
 <defs>
  <style type="text/css">*{stroke-linejoin: round; stroke-linecap: butt}</style>
 </defs>
 <g id="figure_1">
  <g id="patch_1">
   <path d="M 0 403.2
L 648 403.2
L 648 0
L 0 0
z
" style="fill: #ffffff"/>
  </g>
  <g id="axes_1">
   <g id="patch_2">
    <path d="M 51.562344 237.130632
L 637.2 237.130632
L 637.2 26.16
L 51.562344 26.16
z
" style="fill: #ffffff"/>
   </g>
   <g id="matplotlib.axis_1">
    <g id="xtick_1">
     <g id="line2d_1">
      <path d="M 78.179818 237.130632
L 78.179818 26.16
" clip-path="url(#p61a6893238)" style="fill: none; stroke: #b0b0b0; stroke-opacity: 0.25; stroke-width: 0.8; stroke-linecap: square"/>
     </g>
     <g id="line2d_2">
      <defs>
       <path id="m58caa6953d" d="M 0 0
L 0 3.5
" style="stroke: #000000; stroke-width: 0.8"/>
      </defs>
      <g>
       <use xlink:href="#m58caa6953d" x="78.179818" y="237.130632" style="stroke: #000000; stroke-width: 0.8"/>
      </g>
     </g>
    </g>
    <g id="xtick_2">
     <g id="line2d_3">
      <path d="M 200.316267 237.130632
L 200.316267 26.16
" clip-path="url(#p61a6893238)" style="fill: none; stroke: #b0b0b0; stroke-opacity: 0.25; stroke-width: 0.8; stroke-linecap: square"/>
     </g>
     <g id="line2d_4">
      <g>
       <use xlink:href="#m58caa6953d" x="200.316267" y="237.130632" style="stroke: #000000; stroke-width: 0.8"/>
      </g>
     </g>
    </g>
    <g id="xtick_3">
     <g id="line2d_5">
      <path d="M 322.452716 237.130632
L 322.452716 26.16
" clip-path="url(#p61a6893238)" style="fill: none; stroke: #b0b0b0; stroke-opacity: 0.25; stroke-width: 0.8; stroke-linecap: square"/>
     </g>
     <g id="line2d_6">
      <g>
       <use xlink:href="#m58caa6953d" x="322.452716" y="237.130632" style="stroke: #000000; stroke-width: 0.8"/>
      </g>
     </g>
    </g>
    <g id="xtick_4">
     <g id="line2d_7">
      <path d="M 444.589165 237.130632
L 444.589165 26.16
" clip-path="url(#p61a6893238)" style="fill: none; stroke: #b0b0b0; stroke-opacity: 0.25; stroke-width: 0.8; stroke-linecap: square"/>
     </g>
     <g id="line2d_8">
      <g>
       <use xlink:href="#m58caa6953d" x="444.589165" y="237.130632" style="stroke: #000000; stroke-width: 0.8"/>
      </g>
     </g>
    </g>
    <g id="xtick_5">
     <g id="line2d_9">
      <path d="M 566.725614 237.130632
L 566.725614 26.16
" clip-path="url(#p61a6893238)" style="fill: none; stroke: #b0b0b0; stroke-opacity: 0.25; stroke-width: 0.8; stroke-linecap: square"/>
     </g>
     <g id="line2d_10">
      <g>
       <use xlink:href="#m58caa6953d" x="566.725614" y="237.130632" style="stroke: #000000; stroke-width: 0.8"/>
      </g>
     </g>
    </g>
   </g>
   <g id="matplotlib.axis_2">
    <g id="ytick_1">
     <g id="line2d_11">
      <path d="M 51.562344 236.537433
L 637.2 236.537433
" clip-path="url(#p61a6893238)" style="fill: none; stroke: #b0b0b0; stroke-opacity: 0.25; stroke-width: 0.8; stroke-linecap: square"/>
     </g>
     <g id="line2d_12">
      <defs>
       <path id="m819eea0a45" d="M 0 0
L -3.5 0
" style="stroke: #000000; stroke-width: 0.8"/>
      </defs>
      <g>
       <use xlink:href="#m819eea0a45" x="51.562344" y="236.537433" style="stroke: #000000; stroke-width: 0.8"/>
      </g>
     </g>
     <g id="text_1">
      <!-- 25 -->
      <g transform="translate(31.837344 240.336261) scale(0.1 -0.1)">
       <defs>
        <path id="DejaVuSans-15" d="M 1228 531
L 3431 531
L 3431 0
L 469 0
L 469 531
Q 828 903 1448 1529
Q 2069 2156 2228 2338
Q 2531 2678 2651 2914
Q 2772 3150 2772 3378
Q 2772 3750 2511 3984
Q 2250 4219 1831 4219
Q 1534 4219 1204 4116
Q 875 4013 500 3803
L 500 4441
Q 881 4594 1212 4672
Q 1544 4750 1819 4750
Q 2544 4750 2975 4387
Q 3406 4025 3406 3419
Q 3406 3131 3298 2873
Q 3191 2616 2906 2266
Q 2828 2175 2409 1742
Q 1991 1309 1228 531
z
" transform="scale(0.015625)"/>
        <path id="DejaVuSans-18" d="M 691 4666
L 3169 4666
L 3169 4134
L 1269 4134
L 1269 2991
Q 1406 3038 1543 3061
Q 1681 3084 1819 3084
Q 2600 3084 3056 2656
Q 3513 2228 3513 1497
Q 3513 744 3044 326
Q 2575 -91 1722 -91
Q 1428 -91 1123 -41
Q 819 9 494 109
L 494 744
Q 775 591 1075 516
Q 1375 441 1709 441
Q 2250 441 2565 725
Q 2881 1009 2881 1497
Q 2881 1984 2565 2268
Q 2250 2553 1709 2553
Q 1456 2553 1204 2497
Q 953 2441 691 2322
L 691 4666
z
" transform="scale(0.015625)"/>
       </defs>
       <use xlink:href="#DejaVuSans-15"/>
       <use xlink:href="#DejaVuSans-18" transform="translate(63.625 0)"/>
      </g>
     </g>
    </g>
    <g id="ytick_2">
     <g id="line2d_13">
      <path d="M 51.562344 208.423759
L 637.2 208.423759
" clip-path="url(#p61a6893238)" style="fill: none; stroke: #b0b0b0; stroke-opacity: 0.25; stroke-width: 0.8; stroke-linecap: square"/>
     </g>
     <g id="line2d_14">
      <g>
       <use xlink:href="#m819eea0a45" x="51.562344" y="208.423759" style="stroke: #000000; stroke-width: 0.8"/>
      </g>
     </g>
     <g id="text_2">
      <!-- 30 -->
      <g transform="translate(31.837344 212.222587) scale(0.1 -0.1)">
       <defs>
        <path id="DejaVuSans-16" d="M 2597 2516
Q 3050 2419 3304 2112
Q 3559 1806 3559 1356
Q 3559 666 3084 287
Q 2609 -91 1734 -91
Q 1441 -91 1130 -33
Q 819 25 488 141
L 488 750
Q 750 597 1062 519
Q 1375 441 1716 441
Q 2309 441 2620 675
Q 2931 909 2931 1356
Q 2931 1769 2642 2001
Q 2353 2234 1838 2234
L 1294 2234
L 1294 2753
L 1863 2753
Q 2328 2753 2575 2939
Q 2822 3125 2822 3475
Q 2822 3834 2567 4026
Q 2313 4219 1838 4219
Q 1578 4219 1281 4162
Q 984 4106 628 3988
L 628 4550
Q 988 4650 1302 4700
Q 1616 4750 1894 4750
Q 2613 4750 3031 4423
Q 3450 4097 3450 3541
Q 3450 3153 3228 2886
Q 3006 2619 2597 2516
z
" transform="scale(0.015625)"/>
        <path id="DejaVuSans-13" d="M 2034 4250
Q 1547 4250 1301 3770
Q 1056 3291 1056 2328
Q 1056 1369 1301 889
Q 1547 409 2034 409
Q 2525 409 2770 889
Q 3016 1369 3016 2328
Q 3016 3291 2770 3770
Q 2525 4250 2034 4250
z
M 2034 4750
Q 2819 4750 3233 4129
Q 3647 3509 3647 2328
Q 3647 1150 3233 529
Q 2819 -91 2034 -91
Q 1250 -91 836 529
Q 422 1150 422 2328
Q 422 3509 836 4129
Q 1250 4750 2034 4750
z
" transform="scale(0.015625)"/>
       </defs>
       <use xlink:href="#DejaVuSans-16"/>
       <use xlink:href="#DejaVuSans-13" transform="translate(63.625 0)"/>
      </g>
     </g>
    </g>
    <g id="ytick_3">
     <g id="line2d_15">
      <path d="M 51.562344 180.310085
L 637.2 180.310085
" clip-path="url(#p61a6893238)" style="fill: none; stroke: #b0b0b0; stroke-opacity: 0.25; stroke-width: 0.8; stroke-linecap: square"/>
     </g>
     <g id="line2d_16">
      <g>
       <use xlink:href="#m819eea0a45" x="51.562344" y="180.310085" style="stroke: #000000; stroke-width: 0.8"/>
      </g>
     </g>
     <g id="text_3">
      <!-- 35 -->
      <g transform="translate(31.837344 184.108913) scale(0.1 -0.1)">
       <use xlink:href="#DejaVuSans-16"/>
       <use xlink:href="#DejaVuSans-18" transform="translate(63.625 0)"/>
      </g>
     </g>
    </g>
    <g id="ytick_4">
     <g id="line2d_17">
      <path d="M 51.562344 152.196411
L 637.2 152.196411
" clip-path="url(#p61a6893238)" style="fill: none; stroke: #b0b0b0; stroke-opacity: 0.25; stroke-width: 0.8; stroke-linecap: square"/>
     </g>
     <g id="line2d_18">
      <g>
       <use xlink:href="#m819eea0a45" x="51.562344" y="152.196411" style="stroke: #000000; stroke-width: 0.8"/>
      </g>
     </g>
     <g id="text_4">
      <!-- 40 -->
      <g transform="translate(31.837344 155.99524) scale(0.1 -0.1)">
       <defs>
        <path id="DejaVuSans-17" d="M 2419 4116
L 825 1625
L 2419 1625
L 2419 4116
z
M 2253 4666
L 3047 4666
L 3047 1625
L 3713 1625
L 3713 1100
L 3047 1100
L 3047 0
L 2419 0
L 2419 1100
L 313 1100
L 313 1709
L 2253 4666
z
" transform="scale(0.015625)"/>
       </defs>
       <use xlink:href="#DejaVuSans-17"/>
       <use xlink:href="#DejaVuSans-13" transform="translate(63.625 0)"/>
      </g>
     </g>
    </g>
    <g id="ytick_5">
     <g id="line2d_19">
      <path d="M 51.562344 124.082738
L 637.2 124.082738
" clip-path="url(#p61a6893238)" style="fill: none; stroke: #b0b0b0; stroke-opacity: 0.25; stroke-width: 0.8; stroke-linecap: square"/>
     </g>
     <g id="line2d_20">
      <g>
       <use xlink:href="#m819eea0a45" x="51.562344" y="124.082738" style="stroke: #000000; stroke-width: 0.8"/>
      </g>
     </g>
     <g id="text_5">
      <!-- 45 -->
      <g transform="translate(31.837344 127.881566) scale(0.1 -0.1)">
       <use xlink:href="#DejaVuSans-17"/>
       <use xlink:href="#DejaVuSans-18" transform="translate(63.625 0)"/>
      </g>
     </g>
    </g>
    <g id="ytick_6">
     <g id="line2d_21">
      <path d="M 51.562344 95.969064
L 637.2 95.969064
" clip-path="url(#p61a6893238)" style="fill: none; stroke: #b0b0b0; stroke-opacity: 0.25; stroke-width: 0.8; stroke-linecap: square"/>
     </g>
     <g id="line2d_22">
      <g>
       <use xlink:href="#m819eea0a45" x="51.562344" y="95.969064" style="stroke: #000000; stroke-width: 0.8"/>
      </g>
     </g>
     <g id="text_6">
      <!-- 50 -->
      <g transform="translate(31.837344 99.767892) scale(0.1 -0.1)">
       <use xlink:href="#DejaVuSans-18"/>
       <use xlink:href="#DejaVuSans-13" transform="translate(63.625 0)"/>
      </g>
     </g>
    </g>
    <g id="ytick_7">
     <g id="line2d_23">
      <path d="M 51.562344 67.85539
L 637.2 67.85539
" clip-path="url(#p61a6893238)" style="fill: none; stroke: #b0b0b0; stroke-opacity: 0.25; stroke-width: 0.8; stroke-linecap: square"/>
     </g>
     <g id="line2d_24">
      <g>
       <use xlink:href="#m819eea0a45" x="51.562344" y="67.85539" style="stroke: #000000; stroke-width: 0.8"/>
      </g>
     </g>
     <g id="text_7">
      <!-- 55 -->
      <g transform="translate(31.837344 71.654218) scale(0.1 -0.1)">
       <use xlink:href="#DejaVuSans-18"/>
       <use xlink:href="#DejaVuSans-18" transform="translate(63.625 0)"/>
      </g>
     </g>
    </g>
    <g id="ytick_8">
     <g id="line2d_25">
      <path d="M 51.562344 39.741716
L 637.2 39.741716
" clip-path="url(#p61a6893238)" style="fill: none; stroke: #b0b0b0; stroke-opacity: 0.25; stroke-width: 0.8; stroke-linecap: square"/>
     </g>
     <g id="line2d_26">
      <g>
       <use xlink:href="#m819eea0a45" x="51.562344" y="39.741716" style="stroke: #000000; stroke-width: 0.8"/>
      </g>
     </g>
     <g id="text_8">
      <!-- 60 -->
      <g transform="translate(31.837344 43.540544) scale(0.1 -0.1)">
       <defs>
        <path id="DejaVuSans-19" d="M 2113 2584
Q 1688 2584 1439 2293
Q 1191 2003 1191 1497
Q 1191 994 1439 701
Q 1688 409 2113 409
Q 2538 409 2786 701
Q 3034 994 3034 1497
Q 3034 2003 2786 2293
Q 2538 2584 2113 2584
z
M 3366 4563
L 3366 3988
Q 3128 4100 2886 4159
Q 2644 4219 2406 4219
Q 1781 4219 1451 3797
Q 1122 3375 1075 2522
Q 1259 2794 1537 2939
Q 1816 3084 2150 3084
Q 2853 3084 3261 2657
Q 3669 2231 3669 1497
Q 3669 778 3244 343
Q 2819 -91 2113 -91
Q 1303 -91 875 529
Q 447 1150 447 2328
Q 447 3434 972 4092
Q 1497 4750 2381 4750
Q 2619 4750 2861 4703
Q 3103 4656 3366 4563
z
" transform="scale(0.015625)"/>
       </defs>
       <use xlink:href="#DejaVuSans-19"/>
       <use xlink:href="#DejaVuSans-13" transform="translate(63.625 0)"/>
      </g>
     </g>
    </g>
    <g id="text_9">
     <!-- Temperature (C) -->
     <g transform="translate(25.435 172.300003) rotate(-90) scale(0.1 -0.1)">
      <defs>
       <path id="DejaVuSans-37" d="M -19 4666
L 3928 4666
L 3928 4134
L 2272 4134
L 2272 0
L 1638 0
L 1638 4134
L -19 4134
L -19 4666
z
" transform="scale(0.015625)"/>
       <path id="DejaVuSans-48" d="M 3597 1894
L 3597 1613
L 953 1613
Q 991 1019 1311 708
Q 1631 397 2203 397
Q 2534 397 2845 478
Q 3156 559 3463 722
L 3463 178
Q 3153 47 2828 -22
Q 2503 -91 2169 -91
Q 1331 -91 842 396
Q 353 884 353 1716
Q 353 2575 817 3079
Q 1281 3584 2069 3584
Q 2775 3584 3186 3129
Q 3597 2675 3597 1894
z
M 3022 2063
Q 3016 2534 2758 2815
Q 2500 3097 2075 3097
Q 1594 3097 1305 2825
Q 1016 2553 972 2059
L 3022 2063
z
" transform="scale(0.015625)"/>
       <path id="DejaVuSans-50" d="M 3328 2828
Q 3544 3216 3844 3400
Q 4144 3584 4550 3584
Q 5097 3584 5394 3201
Q 5691 2819 5691 2113
L 5691 0
L 5113 0
L 5113 2094
Q 5113 2597 4934 2840
Q 4756 3084 4391 3084
Q 3944 3084 3684 2787
Q 3425 2491 3425 1978
L 3425 0
L 2847 0
L 2847 2094
Q 2847 2600 2669 2842
Q 2491 3084 2119 3084
Q 1678 3084 1418 2786
Q 1159 2488 1159 1978
L 1159 0
L 581 0
L 581 3500
L 1159 3500
L 1159 2956
Q 1356 3278 1631 3431
Q 1906 3584 2284 3584
Q 2666 3584 2933 3390
Q 3200 3197 3328 2828
z
" transform="scale(0.015625)"/>
       <path id="DejaVuSans-53" d="M 1159 525
L 1159 -1331
L 581 -1331
L 581 3500
L 1159 3500
L 1159 2969
Q 1341 3281 1617 3432
Q 1894 3584 2278 3584
Q 2916 3584 3314 3078
Q 3713 2572 3713 1747
Q 3713 922 3314 415
Q 2916 -91 2278 -91
Q 1894 -91 1617 61
Q 1341 213 1159 525
z
M 3116 1747
Q 3116 2381 2855 2742
Q 2594 3103 2138 3103
Q 1681 3103 1420 2742
Q 1159 2381 1159 1747
Q 1159 1113 1420 752
Q 1681 391 2138 391
Q 2594 391 2855 752
Q 3116 1113 3116 1747
z
" transform="scale(0.015625)"/>
       <path id="DejaVuSans-55" d="M 2631 2963
Q 2534 3019 2420 3045
Q 2306 3072 2169 3072
Q 1681 3072 1420 2755
Q 1159 2438 1159 1844
L 1159 0
L 581 0
L 581 3500
L 1159 3500
L 1159 2956
Q 1341 3275 1631 3429
Q 1922 3584 2338 3584
Q 2397 3584 2469 3576
Q 2541 3569 2628 3553
L 2631 2963
z
" transform="scale(0.015625)"/>
       <path id="DejaVuSans-44" d="M 2194 1759
Q 1497 1759 1228 1600
Q 959 1441 959 1056
Q 959 750 1161 570
Q 1363 391 1709 391
Q 2188 391 2477 730
Q 2766 1069 2766 1631
L 2766 1759
L 2194 1759
z
M 3341 1997
L 3341 0
L 2766 0
L 2766 531
Q 2569 213 2275 61
Q 1981 -91 1556 -91
Q 1019 -91 701 211
Q 384 513 384 1019
Q 384 1609 779 1909
Q 1175 2209 1959 2209
L 2766 2209
L 2766 2266
Q 2766 2663 2505 2880
Q 2244 3097 1772 3097
Q 1472 3097 1187 3025
Q 903 2953 641 2809
L 641 3341
Q 956 3463 1253 3523
Q 1550 3584 1831 3584
Q 2591 3584 2966 3190
Q 3341 2797 3341 1997
z
" transform="scale(0.015625)"/>
       <path id="DejaVuSans-57" d="M 1172 4494
L 1172 3500
L 2356 3500
L 2356 3053
L 1172 3053
L 1172 1153
Q 1172 725 1289 603
Q 1406 481 1766 481
L 2356 481
L 2356 0
L 1766 0
Q 1100 0 847 248
Q 594 497 594 1153
L 594 3053
L 172 3053
L 172 3500
L 594 3500
L 594 4494
L 1172 4494
z
" transform="scale(0.015625)"/>
       <path id="DejaVuSans-58" d="M 544 1381
L 544 3500
L 1119 3500
L 1119 1403
Q 1119 906 1312 657
Q 1506 409 1894 409
Q 2359 409 2629 706
Q 2900 1003 2900 1516
L 2900 3500
L 3475 3500
L 3475 0
L 2900 0
L 2900 538
Q 2691 219 2414 64
Q 2138 -91 1772 -91
Q 1169 -91 856 284
Q 544 659 544 1381
z
M 1991 3584
L 1991 3584
z
" transform="scale(0.015625)"/>
       <path id="DejaVuSans-3" transform="scale(0.015625)"/>
       <path id="DejaVuSans-b" d="M 1984 4856
Q 1566 4138 1362 3434
Q 1159 2731 1159 2009
Q 1159 1288 1364 580
Q 1569 -128 1984 -844
L 1484 -844
Q 1016 -109 783 600
Q 550 1309 550 2009
Q 550 2706 781 3412
Q 1013 4119 1484 4856
L 1984 4856
z
" transform="scale(0.015625)"/>
       <path id="DejaVuSans-26" d="M 4122 4306
L 4122 3641
Q 3803 3938 3442 4084
Q 3081 4231 2675 4231
Q 1875 4231 1450 3742
Q 1025 3253 1025 2328
Q 1025 1406 1450 917
Q 1875 428 2675 428
Q 3081 428 3442 575
Q 3803 722 4122 1019
L 4122 359
Q 3791 134 3420 21
Q 3050 -91 2638 -91
Q 1578 -91 968 557
Q 359 1206 359 2328
Q 359 3453 968 4101
Q 1578 4750 2638 4750
Q 3056 4750 3426 4639
Q 3797 4528 4122 4306
z
" transform="scale(0.015625)"/>
       <path id="DejaVuSans-c" d="M 513 4856
L 1013 4856
Q 1481 4119 1714 3412
Q 1947 2706 1947 2009
Q 1947 1309 1714 600
Q 1481 -109 1013 -844
L 513 -844
Q 928 -128 1133 580
Q 1338 1288 1338 2009
Q 1338 2731 1133 3434
Q 928 4138 513 4856
z
" transform="scale(0.015625)"/>
      </defs>
      <use xlink:href="#DejaVuSans-37"/>
      <use xlink:href="#DejaVuSans-48" transform="translate(44.09375 0)"/>
      <use xlink:href="#DejaVuSans-50" transform="translate(105.625 0)"/>
      <use xlink:href="#DejaVuSans-53" transform="translate(203.03125 0)"/>
      <use xlink:href="#DejaVuSans-48" transform="translate(266.515625 0)"/>
      <use xlink:href="#DejaVuSans-55" transform="translate(328.046875 0)"/>
      <use xlink:href="#DejaVuSans-44" transform="translate(369.15625 0)"/>
      <use xlink:href="#DejaVuSans-57" transform="translate(430.4375 0)"/>
      <use xlink:href="#DejaVuSans-58" transform="translate(469.640625 0)"/>
      <use xlink:href="#DejaVuSans-55" transform="translate(533.015625 0)"/>
      <use xlink:href="#DejaVuSans-48" transform="translate(571.921875 0)"/>
      <use xlink:href="#DejaVuSans-3" transform="translate(633.453125 0)"/>
      <use xlink:href="#DejaVuSans-b" transform="translate(665.234375 0)"/>
      <use xlink:href="#DejaVuSans-26" transform="translate(704.25 0)"/>
      <use xlink:href="#DejaVuSans-c" transform="translate(774.078125 0)"/>
     </g>
    </g>
   </g>
   <g id="line2d_27">
    <path d="M 78.182237 227.48483
L 81.847042 227.541058
L 85.521299 225.854237
L 87.358176 224.054962
L 89.193045 222.705506
L 91.02834 220.175275
L 92.864812 218.263545
L 94.69994 215.452178
L 96.534405 213.765357
L 98.372093 210.785308
L 100.208451 208.704896
L 102.04484 205.612392
L 103.87922 203.307071
L 105.716465 200.214566
L 107.552862 198.190382
L 109.387274 194.985423
L 111.221365 193.017466
L 113.05569 189.643825
L 114.889552 187.394731
L 116.725165 184.358454
L 118.559756 182.221815
L 120.397396 179.073084
L 122.235697 177.217581
L 124.071307 174.125077
L 125.908193 172.044665
L 127.746292 169.064616
L 129.583295 167.209113
L 131.419765 164.453973
L 133.255042 162.598471
L 135.08995 159.730876
L 136.923976 157.931601
L 138.760739 155.232688
L 140.594966 153.320958
L 142.429769 150.622046
L 144.267052 149.04768
L 146.10359 146.517449
L 147.938685 144.718174
L 149.775353 142.412853
L 151.611867 140.726033
L 153.447854 137.970892
L 155.284593 136.508981
L 157.122296 134.034978
L 158.959112 132.573067
L 160.794487 130.380201
L 162.628517 128.805835
L 164.462868 126.669196
L 166.299569 125.263512
L 168.135407 123.126873
L 169.969844 121.721189
L 171.807364 119.697004
L 173.642078 118.347548
L 175.476192 116.379591
L 177.310696 115.086362
L 179.145703 113.118405
L 180.979723 111.93763
L 182.816351 110.138355
L 184.653566 108.845126
L 186.487821 107.045851
L 188.324242 105.977532
L 190.160705 104.234484
L 191.998073 103.109937
L 193.832246 101.591798
L 195.667956 100.523479
L 197.502487 99.00534
L 199.340829 98.049476
L 201.175051 96.700019
L 203.009532 95.800382
L 204.843786 94.507153
L 206.680288 94.001106
L 210.35052 93.326378
L 214.021676 91.470876
L 215.856825 90.121419
L 217.693322 89.165555
L 219.527493 87.928553
L 221.364798 86.972688
L 223.200073 85.791914
L 225.036032 85.117186
L 226.870226 84.105093
L 228.706684 83.31791
L 230.543882 82.249591
L 232.380373 81.518635
L 234.215742 80.394088
L 236.053153 79.775587
L 237.889843 78.819723
L 239.725938 78.201222
L 241.56237 77.301584
L 245.234406 75.839673
L 247.068371 75.446082
L 248.904412 74.433989
L 250.738806 73.815489
L 254.410038 72.072441
L 256.244023 71.566395
L 258.080934 70.891667
L 259.91799 70.441848
L 261.751929 69.54221
L 263.588247 69.092391
L 265.422385 68.192754
L 272.765549 65.999887
L 274.60087 65.606296
L 276.43406 64.931568
L 278.270502 64.481749
L 280.104963 63.694566
L 291.118293 61.051881
L 292.955273 60.714517
L 302.137074 58.296741
L 303.971925 58.015604
L 307.640333 57.284648
L 309.477303 56.666148
L 314.98316 55.597828
L 322.329222 54.192144
L 324.165087 53.742325
L 326.002066 53.517416
L 331.507773 52.561551
L 338.85219 51.605686
L 340.689568 51.32455
L 342.525909 50.818503
L 344.360673 50.481139
L 346.195356 50.312457
L 349.868532 49.750184
L 351.703085 49.637729
L 353.540387 49.356592
L 355.377537 49.18791
L 360.886014 48.119591
L 364.557938 47.725999
L 370.067691 47.332408
L 373.738914 46.826362
L 375.574626 46.320316
L 379.246732 45.926724
L 381.083854 45.758042
L 384.754318 45.701815
L 386.591993 45.701815
L 390.265187 45.251996
L 395.776582 44.239904
L 397.612135 44.071222
L 403.118703 44.014994
L 406.792607 43.67763
L 408.630731 43.340266
L 414.135675 43.115357
L 415.971433 43.002902
L 417.806151 42.777993
L 419.642871 42.384401
L 426.984067 41.99081
L 430.657152 41.878355
L 432.493304 41.597218
L 434.329691 41.484764
L 436.163896 41.259854
L 445.347688 40.92249
L 447.183389 40.641353
L 449.01977 40.528899
L 450.854547 40.303989
L 454.527822 40.191535
L 456.364054 40.303989
L 458.199423 40.191535
L 460.034373 40.191535
L 469.213028 39.404352
L 478.395596 39.348124
L 485.73789 38.673396
L 489.411271 38.673396
L 491.247377 38.842078
L 494.918161 38.673396
L 496.755639 38.504714
L 498.591963 38.16735
L 502.263174 37.998668
L 505.932549 38.16735
L 509.603641 38.336032
L 511.441949 38.223577
L 513.278235 37.942441
L 515.114434 37.829986
L 518.78944 37.436395
L 522.461662 37.380167
L 526.133683 37.548849
L 527.970163 37.492622
L 529.805645 37.267713
L 533.475852 37.042803
L 537.148098 37.099031
L 538.982964 37.155258
L 544.491023 36.874121
L 553.667902 36.649212
L 555.503107 36.649212
L 557.339342 36.536757
L 570.192173 36.48053
L 579.371561 36.25562
L 588.552241 36.25562
L 592.221735 35.974484
L 594.055674 35.974484
L 597.728421 36.199393
L 599.564912 36.199393
L 606.910102 35.805802
L 608.745644 35.862029
L 610.580107 36.030711
L 610.580107 36.030711
" clip-path="url(#p61a6893238)" style="fill: none; stroke: #1f77b4; stroke-width: 1.35; stroke-linecap: square"/>
   </g>
   <g id="line2d_28">
    <path d="M 78.182306 207.580349
L 80.012641 207.749031
L 81.849946 207.467894
L 83.684382 206.793166
L 85.522973 205.44371
L 87.359126 204.37539
L 89.194282 202.182524
L 91.031337 200.720613
L 92.868891 197.965473
L 94.70512 196.053743
L 96.539448 193.298603
L 98.376498 191.218191
L 100.21334 188.181914
L 102.049164 186.101502
L 103.886001 183.065225
L 105.723232 180.872359
L 107.560702 177.6674
L 109.396754 175.305851
L 111.231923 172.325802
L 113.069563 170.24539
L 114.903915 166.984204
L 116.740817 164.847565
L 118.578094 162.036197
L 120.412958 159.787103
L 122.248048 156.807054
L 124.082724 154.726642
L 125.917128 151.690365
L 127.751464 149.89109
L 129.587761 146.854813
L 131.421913 144.943084
L 133.257436 142.131716
L 135.091579 140.276214
L 136.927119 137.408619
L 138.761327 135.609344
L 140.595915 133.135341
L 142.430544 131.167383
L 144.265469 128.69338
L 146.100507 127.062787
L 147.935093 124.588784
L 149.770993 122.901963
L 151.605145 120.484187
L 153.439609 118.909822
L 155.274734 116.548273
L 157.109531 115.142589
L 158.94468 112.893495
L 160.779924 111.31913
L 162.615137 109.126263
L 164.450033 107.664352
L 166.284764 105.58394
L 168.11907 104.234484
L 169.956267 102.266527
L 171.790809 100.91707
L 173.62719 99.00534
L 175.461991 97.712111
L 177.296931 95.856609
L 180.965735 94.057334
L 182.800627 93.776197
L 186.474993 91.976922
L 188.309927 90.515011
L 190.144719 89.390464
L 191.979124 87.703644
L 193.813972 86.691551
L 195.651042 85.342095
L 201.156723 82.69941
L 202.991566 81.406181
L 204.827805 80.675225
L 206.665075 79.494451
L 208.500127 78.707268
L 210.334684 77.470266
L 212.169213 76.683083
L 214.004038 75.727218
L 219.508693 73.478125
L 221.343273 72.52226
L 223.177805 71.791304
L 225.014129 70.835439
L 232.35391 68.024072
L 236.026636 66.618388
L 237.86207 66.224797
L 239.697253 65.437614
L 241.531905 64.87534
L 243.365984 64.03193
L 247.035989 62.738701
L 248.872734 62.457564
L 254.38142 60.658289
L 256.21745 60.20847
L 258.052707 59.533742
L 265.398625 57.67824
L 267.232897 56.947284
L 292.931617 51.549459
L 294.766722 51.32455
L 296.601686 50.874731
L 298.437902 50.649821
L 300.274833 50.25623
L 302.109779 50.031321
L 303.947188 49.637729
L 305.782102 49.469047
L 309.451966 48.794319
L 314.958674 47.838454
L 322.306585 46.826362
L 325.980322 46.151634
L 335.163608 45.251996
L 336.999232 44.970859
L 338.835793 44.858405
L 344.343239 44.071222
L 346.181365 43.958767
L 348.016219 43.733858
L 353.52573 43.340266
L 355.360523 43.171584
L 357.196474 42.890447
L 360.868524 42.553083
L 362.706078 42.271947
L 373.726383 41.597218
L 377.396782 41.1474
L 379.233854 41.034945
L 381.071329 40.810035
L 382.907293 40.753808
L 384.742578 40.585126
L 386.576919 40.528899
L 392.083914 40.07908
L 395.756419 39.910398
L 397.592877 39.685489
L 401.263871 39.516806
L 403.097311 39.460579
L 404.933464 39.291897
L 412.281366 39.066988
L 415.957832 38.673396
L 428.811189 38.223577
L 430.648636 38.111123
L 432.485632 38.111123
L 434.321626 37.998668
L 436.156849 37.998668
L 439.83138 37.717531
L 445.340601 37.492622
L 447.176779 37.380167
L 449.013668 37.492622
L 458.194501 37.155258
L 461.869747 36.986576
L 469.211032 36.986576
L 471.04672 36.761666
L 472.883694 36.649212
L 476.554456 36.705439
L 480.228347 36.649212
L 487.572775 36.48053
L 494.920851 36.424302
L 502.267621 36.25562
L 504.105156 36.311848
L 505.940327 36.25562
L 507.776304 36.368075
L 509.611843 36.368075
L 511.449223 36.199393
L 518.795999 36.030711
L 522.470616 36.086938
L 524.307674 36.086938
L 527.977553 35.918256
L 529.814298 35.862029
L 533.483882 35.918256
L 538.99145 35.749574
L 544.498027 35.862029
L 550.003308 35.862029
L 551.83962 35.749574
L 555.509038 35.749574
L 555.509038 35.749574
" clip-path="url(#p61a6893238)" style="fill: none; stroke: #ff7f0e; stroke-width: 1.35; stroke-linecap: square"/>
   </g>
   <g id="line2d_29">
    <path d="M 51.562344 39.741716
L 637.2 39.741716
" clip-path="url(#p61a6893238)" style="fill: none; stroke-dasharray: 2.96,1.28; stroke-dashoffset: 0; stroke: #333333; stroke-width: 0.8"/>
   </g>
   <g id="patch_3">
    <path d="M 51.562344 237.130632
L 51.562344 26.16
" style="fill: none; stroke: #000000; stroke-width: 0.8; stroke-linejoin: miter; stroke-linecap: square"/>
   </g>
   <g id="patch_4">
    <path d="M 637.2 237.130632
L 637.2 26.16
" style="fill: none; stroke: #000000; stroke-width: 0.8; stroke-linejoin: miter; stroke-linecap: square"/>
   </g>
   <g id="patch_5">
    <path d="M 51.562344 237.130632
L 637.2 237.130632
" style="fill: none; stroke: #000000; stroke-width: 0.8; stroke-linejoin: miter; stroke-linecap: square"/>
   </g>
   <g id="patch_6">
    <path d="M 51.562344 26.16
L 637.2 26.16
" style="fill: none; stroke: #000000; stroke-width: 0.8; stroke-linejoin: miter; stroke-linecap: square"/>
   </g>
   <g id="text_10">
    <!-- Bed heater 60 C step: host PID vs MCU PID -->
    <g transform="translate(215.693359 20.16) scale(0.12 -0.12)">
     <defs>
      <path id="DejaVuSans-25" d="M 1259 2228
L 1259 519
L 2272 519
Q 2781 519 3026 730
Q 3272 941 3272 1375
Q 3272 1813 3026 2020
Q 2781 2228 2272 2228
L 1259 2228
z
M 1259 4147
L 1259 2741
L 2194 2741
Q 2656 2741 2882 2914
Q 3109 3088 3109 3444
Q 3109 3797 2882 3972
Q 2656 4147 2194 4147
L 1259 4147
z
M 628 4666
L 2241 4666
Q 2963 4666 3353 4366
Q 3744 4066 3744 3513
Q 3744 3084 3544 2831
Q 3344 2578 2956 2516
Q 3422 2416 3680 2098
Q 3938 1781 3938 1306
Q 3938 681 3513 340
Q 3088 0 2303 0
L 628 0
L 628 4666
z
" transform="scale(0.015625)"/>
      <path id="DejaVuSans-47" d="M 2906 2969
L 2906 4863
L 3481 4863
L 3481 0
L 2906 0
L 2906 525
Q 2725 213 2448 61
Q 2172 -91 1784 -91
Q 1150 -91 751 415
Q 353 922 353 1747
Q 353 2572 751 3078
Q 1150 3584 1784 3584
Q 2172 3584 2448 3432
Q 2725 3281 2906 2969
z
M 947 1747
Q 947 1113 1208 752
Q 1469 391 1925 391
Q 2381 391 2643 752
Q 2906 1113 2906 1747
Q 2906 2381 2643 2742
Q 2381 3103 1925 3103
Q 1469 3103 1208 2742
Q 947 2381 947 1747
z
" transform="scale(0.015625)"/>
      <path id="DejaVuSans-4b" d="M 3513 2113
L 3513 0
L 2938 0
L 2938 2094
Q 2938 2591 2744 2837
Q 2550 3084 2163 3084
Q 1697 3084 1428 2787
Q 1159 2491 1159 1978
L 1159 0
L 581 0
L 581 4863
L 1159 4863
L 1159 2956
Q 1366 3272 1645 3428
Q 1925 3584 2291 3584
Q 2894 3584 3203 3211
Q 3513 2838 3513 2113
z
" transform="scale(0.015625)"/>
      <path id="DejaVuSans-56" d="M 2834 3397
L 2834 2853
Q 2591 2978 2328 3040
Q 2066 3103 1784 3103
Q 1356 3103 1142 2972
Q 928 2841 928 2578
Q 928 2378 1081 2264
Q 1234 2150 1697 2047
L 1894 2003
Q 2506 1872 2764 1633
Q 3022 1394 3022 966
Q 3022 478 2636 193
Q 2250 -91 1575 -91
Q 1294 -91 989 -36
Q 684 19 347 128
L 347 722
Q 666 556 975 473
Q 1284 391 1588 391
Q 1994 391 2212 530
Q 2431 669 2431 922
Q 2431 1156 2273 1281
Q 2116 1406 1581 1522
L 1381 1569
Q 847 1681 609 1914
Q 372 2147 372 2553
Q 372 3047 722 3315
Q 1072 3584 1716 3584
Q 2034 3584 2315 3537
Q 2597 3491 2834 3397
z
" transform="scale(0.015625)"/>
      <path id="DejaVuSans-1d" d="M 750 794
L 1409 794
L 1409 0
L 750 0
L 750 794
z
M 750 3309
L 1409 3309
L 1409 2516
L 750 2516
L 750 3309
z
" transform="scale(0.015625)"/>
      <path id="DejaVuSans-52" d="M 1959 3097
Q 1497 3097 1228 2736
Q 959 2375 959 1747
Q 959 1119 1226 758
Q 1494 397 1959 397
Q 2419 397 2687 759
Q 2956 1122 2956 1747
Q 2956 2369 2687 2733
Q 2419 3097 1959 3097
z
M 1959 3584
Q 2709 3584 3137 3096
Q 3566 2609 3566 1747
Q 3566 888 3137 398
Q 2709 -91 1959 -91
Q 1206 -91 779 398
Q 353 888 353 1747
Q 353 2609 779 3096
Q 1206 3584 1959 3584
z
" transform="scale(0.015625)"/>
      <path id="DejaVuSans-33" d="M 1259 4147
L 1259 2394
L 2053 2394
Q 2494 2394 2734 2622
Q 2975 2850 2975 3272
Q 2975 3691 2734 3919
Q 2494 4147 2053 4147
L 1259 4147
z
M 628 4666
L 2053 4666
Q 2838 4666 3239 4311
Q 3641 3956 3641 3272
Q 3641 2581 3239 2228
Q 2838 1875 2053 1875
L 1259 1875
L 1259 0
L 628 0
L 628 4666
z
" transform="scale(0.015625)"/>
      <path id="DejaVuSans-2c" d="M 628 4666
L 1259 4666
L 1259 0
L 628 0
L 628 4666
z
" transform="scale(0.015625)"/>
      <path id="DejaVuSans-27" d="M 1259 4147
L 1259 519
L 2022 519
Q 2988 519 3436 956
Q 3884 1394 3884 2338
Q 3884 3275 3436 3711
Q 2988 4147 2022 4147
L 1259 4147
z
M 628 4666
L 1925 4666
Q 3281 4666 3915 4102
Q 4550 3538 4550 2338
Q 4550 1131 3912 565
Q 3275 0 1925 0
L 628 0
L 628 4666
z
" transform="scale(0.015625)"/>
      <path id="DejaVuSans-59" d="M 191 3500
L 800 3500
L 1894 563
L 2988 3500
L 3597 3500
L 2284 0
L 1503 0
L 191 3500
z
" transform="scale(0.015625)"/>
      <path id="DejaVuSans-30" d="M 628 4666
L 1569 4666
L 2759 1491
L 3956 4666
L 4897 4666
L 4897 0
L 4281 0
L 4281 4097
L 3078 897
L 2444 897
L 1241 4097
L 1241 0
L 628 0
L 628 4666
z
" transform="scale(0.015625)"/>
      <path id="DejaVuSans-38" d="M 556 4666
L 1191 4666
L 1191 1831
Q 1191 1081 1462 751
Q 1734 422 2344 422
Q 2950 422 3222 751
Q 3494 1081 3494 1831
L 3494 4666
L 4128 4666
L 4128 1753
Q 4128 841 3676 375
Q 3225 -91 2344 -91
Q 1459 -91 1007 375
Q 556 841 556 1753
L 556 4666
z
" transform="scale(0.015625)"/>
     </defs>
     <use xlink:href="#DejaVuSans-25"/>
     <use xlink:href="#DejaVuSans-48" transform="translate(68.609375 0)"/>
     <use xlink:href="#DejaVuSans-47" transform="translate(130.140625 0)"/>
     <use xlink:href="#DejaVuSans-3" transform="translate(193.625 0)"/>
     <use xlink:href="#DejaVuSans-4b" transform="translate(225.40625 0)"/>
     <use xlink:href="#DejaVuSans-48" transform="translate(288.78125 0)"/>
     <use xlink:href="#DejaVuSans-44" transform="translate(350.3125 0)"/>
     <use xlink:href="#DejaVuSans-57" transform="translate(411.59375 0)"/>
     <use xlink:href="#DejaVuSans-48" transform="translate(450.796875 0)"/>
     <use xlink:href="#DejaVuSans-55" transform="translate(512.328125 0)"/>
     <use xlink:href="#DejaVuSans-3" transform="translate(553.4375 0)"/>
     <use xlink:href="#DejaVuSans-19" transform="translate(585.21875 0)"/>
     <use xlink:href="#DejaVuSans-13" transform="translate(648.84375 0)"/>
     <use xlink:href="#DejaVuSans-3" transform="translate(712.46875 0)"/>
     <use xlink:href="#DejaVuSans-26" transform="translate(744.25 0)"/>
     <use xlink:href="#DejaVuSans-3" transform="translate(814.078125 0)"/>
     <use xlink:href="#DejaVuSans-56" transform="translate(845.859375 0)"/>
     <use xlink:href="#DejaVuSans-57" transform="translate(897.953125 0)"/>
     <use xlink:href="#DejaVuSans-48" transform="translate(937.15625 0)"/>
     <use xlink:href="#DejaVuSans-53" transform="translate(998.6875 0)"/>
     <use xlink:href="#DejaVuSans-1d" transform="translate(1062.171875 0)"/>
     <use xlink:href="#DejaVuSans-3" transform="translate(1095.859375 0)"/>
     <use xlink:href="#DejaVuSans-4b" transform="translate(1127.640625 0)"/>
     <use xlink:href="#DejaVuSans-52" transform="translate(1191.015625 0)"/>
     <use xlink:href="#DejaVuSans-56" transform="translate(1252.203125 0)"/>
     <use xlink:href="#DejaVuSans-57" transform="translate(1304.296875 0)"/>
     <use xlink:href="#DejaVuSans-3" transform="translate(1343.5 0)"/>
     <use xlink:href="#DejaVuSans-33" transform="translate(1375.28125 0)"/>
     <use xlink:href="#DejaVuSans-2c" transform="translate(1435.578125 0)"/>
     <use xlink:href="#DejaVuSans-27" transform="translate(1465.078125 0)"/>
     <use xlink:href="#DejaVuSans-3" transform="translate(1542.078125 0)"/>
     <use xlink:href="#DejaVuSans-59" transform="translate(1573.859375 0)"/>
     <use xlink:href="#DejaVuSans-56" transform="translate(1633.046875 0)"/>
     <use xlink:href="#DejaVuSans-3" transform="translate(1685.140625 0)"/>
     <use xlink:href="#DejaVuSans-30" transform="translate(1716.921875 0)"/>
     <use xlink:href="#DejaVuSans-26" transform="translate(1803.203125 0)"/>
     <use xlink:href="#DejaVuSans-38" transform="translate(1873.03125 0)"/>
     <use xlink:href="#DejaVuSans-3" transform="translate(1946.21875 0)"/>
     <use xlink:href="#DejaVuSans-33" transform="translate(1978 0)"/>
     <use xlink:href="#DejaVuSans-2c" transform="translate(2038.296875 0)"/>
     <use xlink:href="#DejaVuSans-27" transform="translate(2067.796875 0)"/>
    </g>
   </g>
   <g id="legend_1">
    <g id="patch_7">
     <path d="M 509.725 232.130632
L 630.2 232.130632
Q 632.2 232.130632 632.2 230.130632
L 632.2 186.128288
Q 632.2 184.128288 630.2 184.128288
L 509.725 184.128288
Q 507.725 184.128288 507.725 186.128288
L 507.725 230.130632
Q 507.725 232.130632 509.725 232.130632
z
" style="fill: #ffffff; opacity: 0.8; stroke: #cccccc; stroke-linejoin: miter"/>
    </g>
    <g id="line2d_30">
     <path d="M 511.725 192.226725
L 521.725 192.226725
L 531.725 192.226725
" style="fill: none; stroke: #1f77b4; stroke-width: 1.35; stroke-linecap: square"/>
    </g>
    <g id="text_11">
     <!-- legacy host -->
     <g transform="translate(539.725 195.726725) scale(0.1 -0.1)">
      <defs>
       <path id="DejaVuSans-4f" d="M 603 4863
L 1178 4863
L 1178 0
L 603 0
L 603 4863
z
" transform="scale(0.015625)"/>
       <path id="DejaVuSans-4a" d="M 2906 1791
Q 2906 2416 2648 2759
Q 2391 3103 1925 3103
Q 1463 3103 1205 2759
Q 947 2416 947 1791
Q 947 1169 1205 825
Q 1463 481 1925 481
Q 2391 481 2648 825
Q 2906 1169 2906 1791
z
M 3481 434
Q 3481 -459 3084 -895
Q 2688 -1331 1869 -1331
Q 1566 -1331 1297 -1286
Q 1028 -1241 775 -1147
L 775 -588
Q 1028 -725 1275 -790
Q 1522 -856 1778 -856
Q 2344 -856 2625 -561
Q 2906 -266 2906 331
L 2906 616
Q 2728 306 2450 153
Q 2172 0 1784 0
Q 1141 0 747 490
Q 353 981 353 1791
Q 353 2603 747 3093
Q 1141 3584 1784 3584
Q 2172 3584 2450 3431
Q 2728 3278 2906 2969
L 2906 3500
L 3481 3500
L 3481 434
z
" transform="scale(0.015625)"/>
       <path id="DejaVuSans-46" d="M 3122 3366
L 3122 2828
Q 2878 2963 2633 3030
Q 2388 3097 2138 3097
Q 1578 3097 1268 2742
Q 959 2388 959 1747
Q 959 1106 1268 751
Q 1578 397 2138 397
Q 2388 397 2633 464
Q 2878 531 3122 666
L 3122 134
Q 2881 22 2623 -34
Q 2366 -91 2075 -91
Q 1284 -91 818 406
Q 353 903 353 1747
Q 353 2603 823 3093
Q 1294 3584 2113 3584
Q 2378 3584 2631 3529
Q 2884 3475 3122 3366
z
" transform="scale(0.015625)"/>
       <path id="DejaVuSans-5c" d="M 2059 -325
Q 1816 -950 1584 -1140
Q 1353 -1331 966 -1331
L 506 -1331
L 506 -850
L 844 -850
Q 1081 -850 1212 -737
Q 1344 -625 1503 -206
L 1606 56
L 191 3500
L 800 3500
L 1894 763
L 2988 3500
L 3597 3500
L 2059 -325
z
" transform="scale(0.015625)"/>
      </defs>
      <use xlink:href="#DejaVuSans-4f"/>
      <use xlink:href="#DejaVuSans-48" transform="translate(27.78125 0)"/>
      <use xlink:href="#DejaVuSans-4a" transform="translate(89.3125 0)"/>
      <use xlink:href="#DejaVuSans-44" transform="translate(152.796875 0)"/>
      <use xlink:href="#DejaVuSans-46" transform="translate(214.078125 0)"/>
      <use xlink:href="#DejaVuSans-5c" transform="translate(269.0625 0)"/>
      <use xlink:href="#DejaVuSans-3" transform="translate(328.25 0)"/>
      <use xlink:href="#DejaVuSans-4b" transform="translate(360.03125 0)"/>
      <use xlink:href="#DejaVuSans-52" transform="translate(423.40625 0)"/>
      <use xlink:href="#DejaVuSans-56" transform="translate(484.59375 0)"/>
      <use xlink:href="#DejaVuSans-57" transform="translate(536.6875 0)"/>
     </g>
    </g>
    <g id="line2d_31">
     <path d="M 511.725 207.227507
L 521.725 207.227507
L 531.725 207.227507
" style="fill: none; stroke: #ff7f0e; stroke-width: 1.35; stroke-linecap: square"/>
    </g>
    <g id="text_12">
     <!-- MCU autonomous -->
     <g transform="translate(539.725 210.727507) scale(0.1 -0.1)">
      <defs>
       <path id="DejaVuSans-51" d="M 3513 2113
L 3513 0
L 2938 0
L 2938 2094
Q 2938 2591 2744 2837
Q 2550 3084 2163 3084
Q 1697 3084 1428 2787
Q 1159 2491 1159 1978
L 1159 0
L 581 0
L 581 3500
L 1159 3500
L 1159 2956
Q 1366 3272 1645 3428
Q 1925 3584 2291 3584
Q 2894 3584 3203 3211
Q 3513 2838 3513 2113
z
" transform="scale(0.015625)"/>
      </defs>
      <use xlink:href="#DejaVuSans-30"/>
      <use xlink:href="#DejaVuSans-26" transform="translate(86.28125 0)"/>
      <use xlink:href="#DejaVuSans-38" transform="translate(156.109375 0)"/>
      <use xlink:href="#DejaVuSans-3" transform="translate(229.296875 0)"/>
      <use xlink:href="#DejaVuSans-44" transform="translate(261.078125 0)"/>
      <use xlink:href="#DejaVuSans-58" transform="translate(322.359375 0)"/>
      <use xlink:href="#DejaVuSans-57" transform="translate(385.734375 0)"/>
      <use xlink:href="#DejaVuSans-52" transform="translate(424.9375 0)"/>
      <use xlink:href="#DejaVuSans-51" transform="translate(486.125 0)"/>
      <use xlink:href="#DejaVuSans-52" transform="translate(549.5 0)"/>
      <use xlink:href="#DejaVuSans-50" transform="translate(610.6875 0)"/>
      <use xlink:href="#DejaVuSans-52" transform="translate(708.09375 0)"/>
      <use xlink:href="#DejaVuSans-58" transform="translate(769.28125 0)"/>
      <use xlink:href="#DejaVuSans-56" transform="translate(832.65625 0)"/>
     </g>
    </g>
    <g id="line2d_32">
     <path d="M 511.725 222.228288
L 521.725 222.228288
L 531.725 222.228288
" style="fill: none; stroke-dasharray: 2.96,1.28; stroke-dashoffset: 0; stroke: #333333; stroke-width: 0.8"/>
    </g>
    <g id="text_13">
     <!-- target -->
     <g transform="translate(539.725 225.728288) scale(0.1 -0.1)">
      <use xlink:href="#DejaVuSans-57"/>
      <use xlink:href="#DejaVuSans-44" transform="translate(39.203125 0)"/>
      <use xlink:href="#DejaVuSans-55" transform="translate(100.484375 0)"/>
      <use xlink:href="#DejaVuSans-4a" transform="translate(139.84375 0)"/>
      <use xlink:href="#DejaVuSans-48" transform="translate(203.328125 0)"/>
      <use xlink:href="#DejaVuSans-57" transform="translate(264.859375 0)"/>
     </g>
    </g>
   </g>
  </g>
  <g id="axes_2">
   <g id="patch_8">
    <path d="M 51.562344 361.077656
L 637.2 361.077656
L 637.2 255.59234
L 51.562344 255.59234
z
" style="fill: #ffffff"/>
   </g>
   <g id="matplotlib.axis_3">
    <g id="xtick_6">
     <g id="line2d_33">
      <path d="M 78.179818 361.077656
L 78.179818 255.59234
" clip-path="url(#pbcce144fd7)" style="fill: none; stroke: #b0b0b0; stroke-opacity: 0.25; stroke-width: 0.8; stroke-linecap: square"/>
     </g>
     <g id="line2d_34">
      <g>
       <use xlink:href="#m58caa6953d" x="78.179818" y="361.077656" style="stroke: #000000; stroke-width: 0.8"/>
      </g>
     </g>
     <g id="text_14">
      <!-- 0 -->
      <g transform="translate(74.998568 375.675313) scale(0.1 -0.1)">
       <use xlink:href="#DejaVuSans-13"/>
      </g>
     </g>
    </g>
    <g id="xtick_7">
     <g id="line2d_35">
      <path d="M 200.316267 361.077656
L 200.316267 255.59234
" clip-path="url(#pbcce144fd7)" style="fill: none; stroke: #b0b0b0; stroke-opacity: 0.25; stroke-width: 0.8; stroke-linecap: square"/>
     </g>
     <g id="line2d_36">
      <g>
       <use xlink:href="#m58caa6953d" x="200.316267" y="361.077656" style="stroke: #000000; stroke-width: 0.8"/>
      </g>
     </g>
     <g id="text_15">
      <!-- 50 -->
      <g transform="translate(193.953767 375.675313) scale(0.1 -0.1)">
       <use xlink:href="#DejaVuSans-18"/>
       <use xlink:href="#DejaVuSans-13" transform="translate(63.625 0)"/>
      </g>
     </g>
    </g>
    <g id="xtick_8">
     <g id="line2d_37">
      <path d="M 322.452716 361.077656
L 322.452716 255.59234
" clip-path="url(#pbcce144fd7)" style="fill: none; stroke: #b0b0b0; stroke-opacity: 0.25; stroke-width: 0.8; stroke-linecap: square"/>
     </g>
     <g id="line2d_38">
      <g>
       <use xlink:href="#m58caa6953d" x="322.452716" y="361.077656" style="stroke: #000000; stroke-width: 0.8"/>
      </g>
     </g>
     <g id="text_16">
      <!-- 100 -->
      <g transform="translate(312.908966 375.675313) scale(0.1 -0.1)">
       <defs>
        <path id="DejaVuSans-14" d="M 794 531
L 1825 531
L 1825 4091
L 703 3866
L 703 4441
L 1819 4666
L 2450 4666
L 2450 531
L 3481 531
L 3481 0
L 794 0
L 794 531
z
" transform="scale(0.015625)"/>
       </defs>
       <use xlink:href="#DejaVuSans-14"/>
       <use xlink:href="#DejaVuSans-13" transform="translate(63.625 0)"/>
       <use xlink:href="#DejaVuSans-13" transform="translate(127.25 0)"/>
      </g>
     </g>
    </g>
    <g id="xtick_9">
     <g id="line2d_39">
      <path d="M 444.589165 361.077656
L 444.589165 255.59234
" clip-path="url(#pbcce144fd7)" style="fill: none; stroke: #b0b0b0; stroke-opacity: 0.25; stroke-width: 0.8; stroke-linecap: square"/>
     </g>
     <g id="line2d_40">
      <g>
       <use xlink:href="#m58caa6953d" x="444.589165" y="361.077656" style="stroke: #000000; stroke-width: 0.8"/>
      </g>
     </g>
     <g id="text_17">
      <!-- 150 -->
      <g transform="translate(435.045415 375.675313) scale(0.1 -0.1)">
       <use xlink:href="#DejaVuSans-14"/>
       <use xlink:href="#DejaVuSans-18" transform="translate(63.625 0)"/>
       <use xlink:href="#DejaVuSans-13" transform="translate(127.25 0)"/>
      </g>
     </g>
    </g>
    <g id="xtick_10">
     <g id="line2d_41">
      <path d="M 566.725614 361.077656
L 566.725614 255.59234
" clip-path="url(#pbcce144fd7)" style="fill: none; stroke: #b0b0b0; stroke-opacity: 0.25; stroke-width: 0.8; stroke-linecap: square"/>
     </g>
     <g id="line2d_42">
      <g>
       <use xlink:href="#m58caa6953d" x="566.725614" y="361.077656" style="stroke: #000000; stroke-width: 0.8"/>
      </g>
     </g>
     <g id="text_18">
      <!-- 200 -->
      <g transform="translate(557.181864 375.675313) scale(0.1 -0.1)">
       <use xlink:href="#DejaVuSans-15"/>
       <use xlink:href="#DejaVuSans-13" transform="translate(63.625 0)"/>
       <use xlink:href="#DejaVuSans-13" transform="translate(127.25 0)"/>
      </g>
     </g>
    </g>
    <g id="text_19">
     <!-- Elapsed time (s) -->
     <g transform="translate(303.758516 389.676094) scale(0.1 -0.1)">
      <defs>
       <path id="DejaVuSans-28" d="M 628 4666
L 3578 4666
L 3578 4134
L 1259 4134
L 1259 2753
L 3481 2753
L 3481 2222
L 1259 2222
L 1259 531
L 3634 531
L 3634 0
L 628 0
L 628 4666
z
" transform="scale(0.015625)"/>
       <path id="DejaVuSans-4c" d="M 603 3500
L 1178 3500
L 1178 0
L 603 0
L 603 3500
z
M 603 4863
L 1178 4863
L 1178 4134
L 603 4134
L 603 4863
z
" transform="scale(0.015625)"/>
      </defs>
      <use xlink:href="#DejaVuSans-28"/>
      <use xlink:href="#DejaVuSans-4f" transform="translate(63.1875 0)"/>
      <use xlink:href="#DejaVuSans-44" transform="translate(90.96875 0)"/>
      <use xlink:href="#DejaVuSans-53" transform="translate(152.25 0)"/>
      <use xlink:href="#DejaVuSans-56" transform="translate(215.734375 0)"/>
      <use xlink:href="#DejaVuSans-48" transform="translate(267.828125 0)"/>
      <use xlink:href="#DejaVuSans-47" transform="translate(329.359375 0)"/>
      <use xlink:href="#DejaVuSans-3" transform="translate(392.84375 0)"/>
      <use xlink:href="#DejaVuSans-57" transform="translate(424.625 0)"/>
      <use xlink:href="#DejaVuSans-4c" transform="translate(463.828125 0)"/>
      <use xlink:href="#DejaVuSans-50" transform="translate(491.609375 0)"/>
      <use xlink:href="#DejaVuSans-48" transform="translate(589.015625 0)"/>
      <use xlink:href="#DejaVuSans-3" transform="translate(650.546875 0)"/>
      <use xlink:href="#DejaVuSans-b" transform="translate(682.328125 0)"/>
      <use xlink:href="#DejaVuSans-56" transform="translate(721.34375 0)"/>
      <use xlink:href="#DejaVuSans-c" transform="translate(773.4375 0)"/>
     </g>
    </g>
   </g>
   <g id="matplotlib.axis_4">
    <g id="ytick_9">
     <g id="line2d_43">
      <path d="M 51.562344 359.049092
L 637.2 359.049092
" clip-path="url(#pbcce144fd7)" style="fill: none; stroke: #b0b0b0; stroke-opacity: 0.25; stroke-width: 0.8; stroke-linecap: square"/>
     </g>
     <g id="line2d_44">
      <g>
       <use xlink:href="#m819eea0a45" x="51.562344" y="359.049092" style="stroke: #000000; stroke-width: 0.8"/>
      </g>
     </g>
     <g id="text_20">
      <!-- 0 -->
      <g transform="translate(38.199844 362.847921) scale(0.1 -0.1)">
       <use xlink:href="#DejaVuSans-13"/>
      </g>
     </g>
    </g>
    <g id="ytick_10">
     <g id="line2d_45">
      <path d="M 51.562344 333.692045
L 637.2 333.692045
" clip-path="url(#pbcce144fd7)" style="fill: none; stroke: #b0b0b0; stroke-opacity: 0.25; stroke-width: 0.8; stroke-linecap: square"/>
     </g>
     <g id="line2d_46">
      <g>
       <use xlink:href="#m819eea0a45" x="51.562344" y="333.692045" style="stroke: #000000; stroke-width: 0.8"/>
      </g>
     </g>
     <g id="text_21">
      <!-- 25 -->
      <g transform="translate(31.837344 337.490874) scale(0.1 -0.1)">
       <use xlink:href="#DejaVuSans-15"/>
       <use xlink:href="#DejaVuSans-18" transform="translate(63.625 0)"/>
      </g>
     </g>
    </g>
    <g id="ytick_11">
     <g id="line2d_47">
      <path d="M 51.562344 308.334998
L 637.2 308.334998
" clip-path="url(#pbcce144fd7)" style="fill: none; stroke: #b0b0b0; stroke-opacity: 0.25; stroke-width: 0.8; stroke-linecap: square"/>
     </g>
     <g id="line2d_48">
      <g>
       <use xlink:href="#m819eea0a45" x="51.562344" y="308.334998" style="stroke: #000000; stroke-width: 0.8"/>
      </g>
     </g>
     <g id="text_22">
      <!-- 50 -->
      <g transform="translate(31.837344 312.133826) scale(0.1 -0.1)">
       <use xlink:href="#DejaVuSans-18"/>
       <use xlink:href="#DejaVuSans-13" transform="translate(63.625 0)"/>
      </g>
     </g>
    </g>
    <g id="ytick_12">
     <g id="line2d_49">
      <path d="M 51.562344 282.977951
L 637.2 282.977951
" clip-path="url(#pbcce144fd7)" style="fill: none; stroke: #b0b0b0; stroke-opacity: 0.25; stroke-width: 0.8; stroke-linecap: square"/>
     </g>
     <g id="line2d_50">
      <g>
       <use xlink:href="#m819eea0a45" x="51.562344" y="282.977951" style="stroke: #000000; stroke-width: 0.8"/>
      </g>
     </g>
     <g id="text_23">
      <!-- 75 -->
      <g transform="translate(31.837344 286.776779) scale(0.1 -0.1)">
       <defs>
        <path id="DejaVuSans-1a" d="M 525 4666
L 3525 4666
L 3525 4397
L 1831 0
L 1172 0
L 2766 4134
L 525 4134
L 525 4666
z
" transform="scale(0.015625)"/>
       </defs>
       <use xlink:href="#DejaVuSans-1a"/>
       <use xlink:href="#DejaVuSans-18" transform="translate(63.625 0)"/>
      </g>
     </g>
    </g>
    <g id="ytick_13">
     <g id="line2d_51">
      <path d="M 51.562344 257.620904
L 637.2 257.620904
" clip-path="url(#pbcce144fd7)" style="fill: none; stroke: #b0b0b0; stroke-opacity: 0.25; stroke-width: 0.8; stroke-linecap: square"/>
     </g>
     <g id="line2d_52">
      <g>
       <use xlink:href="#m819eea0a45" x="51.562344" y="257.620904" style="stroke: #000000; stroke-width: 0.8"/>
      </g>
     </g>
     <g id="text_24">
      <!-- 100 -->
      <g transform="translate(25.474844 261.419732) scale(0.1 -0.1)">
       <use xlink:href="#DejaVuSans-14"/>
       <use xlink:href="#DejaVuSans-13" transform="translate(63.625 0)"/>
       <use xlink:href="#DejaVuSans-13" transform="translate(127.25 0)"/>
      </g>
     </g>
    </g>
    <g id="text_25">
     <!-- Duty (%) -->
     <g transform="translate(19.0725 330.514686) rotate(-90) scale(0.1 -0.1)">
      <defs>
       <path id="DejaVuSans-8" d="M 4653 2053
Q 4381 2053 4226 1822
Q 4072 1591 4072 1178
Q 4072 772 4226 539
Q 4381 306 4653 306
Q 4919 306 5073 539
Q 5228 772 5228 1178
Q 5228 1588 5073 1820
Q 4919 2053 4653 2053
z
M 4653 2450
Q 5147 2450 5437 2106
Q 5728 1763 5728 1178
Q 5728 594 5436 251
Q 5144 -91 4653 -91
Q 4153 -91 3862 251
Q 3572 594 3572 1178
Q 3572 1766 3864 2108
Q 4156 2450 4653 2450
z
M 1428 4353
Q 1159 4353 1004 4120
Q 850 3888 850 3481
Q 850 3069 1003 2837
Q 1156 2606 1428 2606
Q 1700 2606 1854 2837
Q 2009 3069 2009 3481
Q 2009 3884 1853 4118
Q 1697 4353 1428 4353
z
M 4250 4750
L 4750 4750
L 1831 -91
L 1331 -91
L 4250 4750
z
M 1428 4750
Q 1922 4750 2215 4408
Q 2509 4066 2509 3481
Q 2509 2891 2217 2550
Q 1925 2209 1428 2209
Q 931 2209 642 2551
Q 353 2894 353 3481
Q 353 4063 643 4406
Q 934 4750 1428 4750
z
" transform="scale(0.015625)"/>
      </defs>
      <use xlink:href="#DejaVuSans-27"/>
      <use xlink:href="#DejaVuSans-58" transform="translate(77 0)"/>
      <use xlink:href="#DejaVuSans-57" transform="translate(140.375 0)"/>
      <use xlink:href="#DejaVuSans-5c" transform="translate(179.578125 0)"/>
      <use xlink:href="#DejaVuSans-3" transform="translate(238.765625 0)"/>
      <use xlink:href="#DejaVuSans-b" transform="translate(270.546875 0)"/>
      <use xlink:href="#DejaVuSans-8" transform="translate(309.5625 0)"/>
      <use xlink:href="#DejaVuSans-c" transform="translate(404.578125 0)"/>
     </g>
    </g>
   </g>
   <g id="line2d_53">
    <path d="M 78.182237 257.620904
L 197.502487 257.620904
L 199.340829 268.469139
L 201.175051 264.935386
L 203.009532 257.620904
L 214.021676 257.620904
L 215.856825 271.863663
L 217.693322 268.004678
L 219.527493 257.620904
L 221.364798 267.932665
L 223.200073 267.576554
L 225.036032 257.620904
L 226.870226 257.620904
L 228.706684 266.447398
L 230.543882 257.620904
L 232.380373 264.991436
L 234.215742 297.985255
L 236.053153 268.169264
L 237.889843 261.968199
L 239.725938 261.968199
L 241.56237 257.620904
L 243.396749 279.553956
L 245.234406 257.620904
L 247.068371 257.620904
L 248.904412 265.528533
L 250.738806 260.954052
L 252.57463 260.336749
L 254.410038 257.620904
L 256.244023 264.858544
L 258.080934 257.620904
L 259.91799 265.86687
L 261.751929 291.970749
L 263.588247 267.99677
L 265.422385 270.145744
L 267.259427 269.412952
L 269.095543 257.620904
L 270.930384 257.620904
L 272.765549 267.04516
L 274.60087 264.63617
L 276.43406 278.023198
L 278.270502 262.998265
L 280.104963 294.274675
L 281.941876 272.254966
L 283.776185 257.620904
L 285.611281 263.736924
L 287.445749 258.574342
L 289.282161 265.45023
L 291.118293 257.620904
L 292.955273 272.032041
L 294.792879 273.491771
L 296.630153 279.971251
L 298.465353 298.272929
L 300.30219 271.50619
L 302.137074 275.801004
L 303.971925 274.250774
L 305.805682 262.659692
L 309.477303 299.934685
L 311.31266 288.167846
L 313.14792 270.252305
L 314.98316 273.964051
L 316.820398 271.392506
L 318.657169 288.332381
L 320.49411 272.109954
L 322.329222 270.990933
L 324.165087 279.976958
L 326.002066 281.025925
L 327.837575 298.985563
L 329.67313 278.173956
L 331.507773 267.481311
L 333.344446 270.690926
L 335.181944 257.620904
L 337.017538 275.886734
L 338.85219 276.989016
L 340.689568 276.453822
L 342.525909 274.872519
L 344.360673 271.272655
L 346.195356 257.620904
L 348.032655 297.798215
L 349.868532 278.583225
L 351.703085 271.468554
L 353.540387 291.501649
L 355.377537 273.469457
L 357.213429 284.286455
L 359.048811 283.59418
L 360.886014 294.33976
L 362.720992 276.677558
L 364.557938 257.620904
L 366.394063 275.590432
L 368.229996 258.527487
L 371.902682 295.298872
L 373.738914 296.33349
L 375.574626 301.549261
L 377.411251 277.479458
L 379.246732 260.011799
L 381.083854 269.775426
L 384.754318 269.775426
L 386.591993 264.537677
L 388.428971 295.056413
L 390.265187 297.228146
L 392.102318 312.266552
L 393.940859 296.104614
L 395.776582 300.142678
L 397.612135 283.722443
L 399.446678 281.582632
L 401.281562 260.067853
L 403.118703 283.389778
L 404.954601 285.306542
L 406.792607 295.286368
L 408.630731 288.363778
L 410.46447 279.780321
L 412.301059 269.212251
L 414.135675 265.202719
L 417.806151 307.353595
L 419.642871 298.038982
L 421.476985 291.036827
L 423.312267 292.765586
L 425.148689 263.624051
L 426.984067 259.042712
L 428.818688 281.383126
L 430.657152 294.418309
L 432.493304 317.783901
L 434.329691 288.124144
L 436.163896 288.429861
L 438.002102 283.02501
L 439.838588 296.711403
L 441.67481 292.524269
L 443.509294 285.434693
L 445.347688 285.434693
L 447.183389 301.151906
L 449.01977 294.93606
L 450.854547 298.032602
L 452.691527 289.527785
L 454.527822 305.932177
L 456.364054 263.563761
L 458.199423 289.762225
L 460.034373 284.189691
L 461.870335 294.894954
L 463.706413 299.183556
L 465.541118 306.268228
L 467.376712 299.632725
L 469.213028 305.46096
L 471.048818 281.782674
L 474.722512 281.782674
L 476.560363 284.071215
L 478.395596 279.191832
L 480.230085 309.191585
L 482.06509 302.293584
L 483.902226 321.697283
L 485.73789 287.081311
L 487.576159 261.219738
L 489.411271 264.102493
L 491.247377 270.504672
L 493.083603 298.533672
L 494.918161 310.291779
L 496.755639 294.193096
L 498.591963 312.089136
L 500.428027 305.612147
L 502.263174 297.928336
L 504.098137 274.887657
L 505.932549 263.675018
L 507.768646 271.559262
L 509.603641 278.007626
L 511.441949 318.634412
L 513.278235 317.954661
L 515.114434 304.723017
L 516.952139 305.481973
L 518.78944 294.240755
L 520.626203 288.639496
L 522.461662 308.497768
L 524.296306 298.615149
L 526.133683 278.5445
L 527.970163 300.241855
L 529.805645 325.212774
L 531.640412 314.254937
L 533.475852 327.237545
L 535.311997 303.232021
L 537.148098 283.627769
L 538.982964 286.266586
L 540.819059 308.305238
L 542.655514 297.761162
L 544.491023 314.547218
L 546.325442 308.342423
L 548.160331 307.853498
L 549.997068 302.720509
L 551.832946 302.720509
L 553.667902 315.99679
L 555.503107 289.986798
L 557.339342 311.63707
L 559.175147 305.370285
L 561.009588 306.445073
L 562.84708 284.564308
L 564.683975 309.246867
L 566.519631 285.695867
L 568.356923 305.014091
L 570.192173 305.014091
L 572.028158 318.49309
L 573.864002 314.716447
L 575.70079 288.674789
L 577.53687 309.684839
L 579.371561 304.4972
L 581.207582 307.7646
L 583.044948 312.44823
L 584.879674 312.184349
L 586.715927 310.693135
L 588.552241 310.693135
L 590.38699 316.463554
L 592.221735 327.367656
L 594.055674 303.235228
L 595.891695 312.335195
L 597.728421 300.701611
L 599.564912 300.701611
L 601.401281 320.220029
L 603.238667 312.263494
L 605.072786 336.410769
L 608.745644 292.518146
L 610.580107 284.874382
L 610.580107 284.874382
" clip-path="url(#pbcce144fd7)" style="fill: none; stroke: #1f77b4; stroke-linecap: square"/>
   </g>
   <g id="line2d_54">
    <path d="M 78.182306 359.049092
L 80.012641 257.620904
L 168.11907 257.620904
L 169.956267 272.474133
L 171.790809 258.144025
L 173.62719 258.144025
L 175.461991 260.016736
L 177.296931 279.256132
L 179.130902 257.620904
L 184.637794 257.620904
L 186.474993 257.914966
L 188.309927 257.914966
L 190.144719 268.72252
L 191.979124 282.308186
L 193.813972 263.842638
L 195.651042 263.842638
L 197.487215 272.848675
L 199.322254 257.620904
L 202.991566 257.620904
L 204.827805 275.07426
L 206.665075 275.798581
L 208.500127 270.630828
L 210.334684 270.630828
L 212.169213 287.503798
L 214.004038 257.620904
L 215.839213 279.285538
L 217.674251 279.285538
L 219.508693 259.49052
L 221.343273 269.315287
L 223.177805 277.107931
L 225.014129 277.107931
L 226.848575 270.999179
L 228.683284 278.455974
L 230.518288 260.649743
L 232.35391 260.649743
L 234.189957 257.620904
L 236.026636 269.242546
L 237.86207 262.918664
L 239.697253 262.918664
L 241.531905 268.337144
L 243.365984 272.557708
L 245.200405 287.126161
L 247.035989 287.126161
L 248.872734 276.652909
L 250.710155 276.589453
L 252.544604 292.871204
L 254.38142 266.438122
L 256.21745 266.438122
L 258.052707 277.129599
L 259.88995 271.231334
L 261.726743 257.620904
L 265.398625 257.620904
L 267.232897 295.410972
L 269.068694 285.19928
L 270.904404 285.19928
L 272.74116 270.308907
L 274.576403 266.173466
L 276.411854 271.113709
L 278.246674 271.113709
L 280.081523 279.864376
L 281.915854 285.57537
L 283.750601 272.042326
L 285.587593 272.042326
L 287.422544 273.334651
L 289.25766 284.176254
L 291.095524 278.256321
L 292.931617 278.256321
L 294.766722 272.351865
L 296.601686 288.319433
L 298.437902 281.203132
L 300.274833 281.203132
L 302.109779 275.359036
L 303.947188 277.887969
L 305.782102 272.085661
L 307.616673 272.085661
L 309.451966 284.844858
L 311.286685 282.404143
L 313.121903 293.973163
L 314.958674 293.973163
L 316.793791 269.700663
L 318.630646 282.408786
L 320.468606 280.481906
L 322.306585 280.481906
L 324.143068 292.115929
L 325.980322 292.332606
L 327.817733 290.462991
L 329.65436 290.462991
L 331.490326 275.085094
L 333.325544 291.688765
L 335.163608 293.645052
L 336.999232 293.645052
L 338.835793 291.824962
L 340.671226 287.42177
L 342.50625 286.886268
L 344.343239 286.886268
L 346.181365 302.398814
L 348.016219 284.530676
L 349.85354 289.083995
L 351.689662 289.083995
L 353.52573 277.586169
L 355.360523 294.341514
L 357.196474 295.132387
L 359.032696 295.132387
L 360.868524 299.70273
L 362.706078 289.16757
L 364.541312 276.479567
L 366.37855 276.479567
L 368.214163 270.075205
L 370.051642 279.697225
L 371.88894 284.317094
L 373.726383 284.317094
L 375.561584 290.20143
L 377.396782 287.279382
L 379.233854 290.678121
L 381.071329 290.678121
L 382.907293 295.342873
L 384.742578 280.195583
L 386.576919 291.179574
L 388.411597 291.179574
L 390.248199 297.125818
L 392.083914 300.557057
L 393.918218 289.231026
L 395.756419 289.231026
L 397.592877 280.423094
L 399.429072 301.179231
L 401.263871 289.876415
L 403.097311 289.876415
L 404.933464 286.117064
L 406.770161 294.634029
L 408.607464 288.372055
L 410.44521 288.372055
L 412.281366 283.371453
L 414.118891 302.942055
L 415.957832 308.968779
L 417.795898 308.968779
L 419.631818 302.734664
L 421.466756 294.011855
L 423.303481 290.300483
L 425.139932 290.300483
L 426.976243 284.080297
L 428.811189 293.922089
L 430.648636 290.224646
L 432.485632 290.224646
L 434.321626 282.761661
L 436.156849 293.878754
L 437.993881 306.227812
L 439.83138 306.227812
L 441.667664 316.071152
L 443.503334 288.858031
L 445.340601 298.713753
L 447.176779 298.713753
L 449.013668 311.107694
L 450.84839 293.939114
L 452.686056 289.025182
L 454.523484 289.025182
L 456.359577 300.170134
L 458.194501 308.829487
L 460.032054 303.931032
L 461.869747 303.931032
L 463.705316 299.035673
L 465.541111 296.700202
L 467.375868 296.833303
L 469.211032 296.833303
L 471.04672 296.966405
L 472.883694 301.878789
L 474.718764 295.743726
L 476.554456 295.743726
L 478.390877 295.889209
L 480.228347 312.119886
L 482.065583 296.234345
L 483.901647 296.234345
L 485.737973 306.138045
L 487.572775 300.061795
L 489.409561 300.221208
L 491.247285 300.221208
L 493.084073 300.379072
L 494.920851 315.368498
L 496.758236 309.248912
L 498.596002 309.248912
L 500.43249 305.700048
L 502.267621 284.810809
L 504.105156 302.268808
L 505.940327 302.268808
L 507.776304 287.714285
L 509.611843 307.682645
L 511.449223 306.593068
L 513.286643 306.593068
L 515.123093 312.805515
L 516.958445 310.470044
L 518.795999 309.3913
L 520.633329 309.3913
L 522.470616 309.629645
L 524.307674 308.550902
L 526.141886 323.529493
L 527.977553 323.529493
L 529.814298 298.922692
L 531.649174 297.851687
L 533.483882 298.038958
L 535.319565 298.038958
L 537.156344 298.285041
L 538.99145 310.762558
L 540.826573 312.209653
L 542.661556 312.209653
L 546.332119 312.655389
L 548.168229 296.78842
L 550.003308 296.78842
L 551.83962 300.807784
L 553.674534 309.516663
L 555.509038 308.453397
L 555.509038 308.453397
" clip-path="url(#pbcce144fd7)" style="fill: none; stroke: #ff7f0e; stroke-linecap: square"/>
   </g>
   <g id="patch_9">
    <path d="M 51.562344 361.077656
L 51.562344 255.59234
" style="fill: none; stroke: #000000; stroke-width: 0.8; stroke-linejoin: miter; stroke-linecap: square"/>
   </g>
   <g id="patch_10">
    <path d="M 637.2 361.077656
L 637.2 255.59234
" style="fill: none; stroke: #000000; stroke-width: 0.8; stroke-linejoin: miter; stroke-linecap: square"/>
   </g>
   <g id="patch_11">
    <path d="M 51.562344 361.077656
L 637.2 361.077656
" style="fill: none; stroke: #000000; stroke-width: 0.8; stroke-linejoin: miter; stroke-linecap: square"/>
   </g>
   <g id="patch_12">
    <path d="M 51.562344 255.59234
L 637.2 255.59234
" style="fill: none; stroke: #000000; stroke-width: 0.8; stroke-linejoin: miter; stroke-linecap: square"/>
   </g>
  </g>
 </g>
 <defs>
  <clipPath id="p61a6893238">
   <rect x="51.562344" y="26.16" width="585.637656" height="210.970632"/>
  </clipPath>
  <clipPath id="pbcce144fd7">
   <rect x="51.562344" y="255.59234" width="585.637656" height="105.485316"/>
  </clipPath>
 </defs>
</svg>
