<svg xmlns="http://www.w3.org/2000/svg" width="920" height="570" viewBox="0 0 920 570">
<rect width="100%" height="100%" fill="#fff"/>
<style>text{font-family:system-ui,sans-serif;fill:#17202a}.axis{stroke:#5d6d7e;stroke-width:1}.grid{stroke:#d5d8dc;stroke-width:1}.raw{fill:none;stroke:#2471a3;stroke-width:1.5}.fit{fill:none;stroke:#c0392b;stroke-width:2}.power{fill:none;stroke:#7d3c98;stroke-width:1.5}</style>
<text x="460" y="25" text-anchor="middle" font-size="18" font-weight="600">Hotend thermal response - 200 C, 30 s period</text>
<rect x="405.86" y="48" width="490.14" height="322" fill="#eaf2f8"/>
<line class="axis" x1="78" y1="370" x2="896" y2="370"/>
<line class="axis" x1="78" y1="48" x2="78" y2="370"/>
<line class="axis" x1="78" y1="522" x2="896" y2="522"/>
<line class="axis" x1="78" y1="414" x2="78" y2="522"/>
<line class="grid" x1="78" y1="48.00" x2="896" y2="48.00"/>
<text x="70" y="52.00" text-anchor="end" font-size="12">201.24</text>
<line class="grid" x1="78" y1="128.50" x2="896" y2="128.50"/>
<text x="70" y="132.50" text-anchor="end" font-size="12">199.52</text>
<line class="grid" x1="78" y1="209.00" x2="896" y2="209.00"/>
<text x="70" y="213.00" text-anchor="end" font-size="12">197.79</text>
<line class="grid" x1="78" y1="289.50" x2="896" y2="289.50"/>
<text x="70" y="293.50" text-anchor="end" font-size="12">196.07</text>
<line class="grid" x1="78" y1="370.00" x2="896" y2="370.00"/>
<text x="70" y="374.00" text-anchor="end" font-size="12">194.34</text>
<line class="grid" x1="78.00" y1="48" x2="78.00" y2="370"/>
<text x="78.00" y="550" text-anchor="middle" font-size="12">0</text>
<line class="grid" x1="241.60" y1="48" x2="241.60" y2="370"/>
<text x="241.60" y="550" text-anchor="middle" font-size="12">30</text>
<line class="grid" x1="405.20" y1="48" x2="405.20" y2="370"/>
<text x="405.20" y="550" text-anchor="middle" font-size="12">60</text>
<line class="grid" x1="568.80" y1="48" x2="568.80" y2="370"/>
<text x="568.80" y="550" text-anchor="middle" font-size="12">90</text>
<line class="grid" x1="732.40" y1="48" x2="732.40" y2="370"/>
<text x="732.40" y="550" text-anchor="middle" font-size="12">120</text>
<line class="grid" x1="896.00" y1="48" x2="896.00" y2="370"/>
<text x="896.00" y="550" text-anchor="middle" font-size="12">150</text>
<polyline class="raw" points="78.00,70.21 79.64,72.76 81.28,75.31 82.92,78.58 84.56,81.12 86.20,82.93 87.84,85.83 89.47,87.28 91.11,89.09 92.75,92.35 94.39,93.07 96.03,94.51 97.67,96.32 99.31,98.48 100.95,99.20 102.59,99.92 104.23,101.36 105.87,102.80 107.51,104.60 109.15,104.96 110.79,106.04 112.42,106.75 114.06,107.83 115.70,108.55 117.34,109.63 118.98,110.34 120.62,111.06 122.26,111.42 123.90,111.78 125.54,113.21 127.18,113.21 128.82,113.57 130.46,114.28 132.10,113.93 133.74,114.64 135.37,113.93 137.01,115.00 138.65,116.07 140.29,116.07 141.93,116.07 143.57,117.15 145.21,117.86 146.85,118.22 148.49,118.93 150.13,119.65 151.77,120.72 153.41,121.08 155.05,122.86 156.69,123.22 158.32,124.64 159.96,125.36 161.60,127.14 163.24,127.14 164.88,128.56 166.52,129.63 168.16,131.41 169.80,131.76 171.44,133.89 173.08,135.31 174.72,137.09 176.36,138.86 178.00,139.92 179.64,142.05 181.27,143.46 182.91,144.87 184.55,146.64 186.19,148.76 187.83,150.17 189.47,152.99 191.11,155.45 192.75,157.21 194.39,160.03 196.03,161.78 197.67,164.59 199.31,167.74 200.95,170.19 202.59,173.34 204.22,175.08 205.86,178.57 207.50,180.31 209.14,183.10 210.78,185.53 212.42,187.27 214.06,190.04 215.70,192.82 217.34,195.59 218.98,197.66 220.62,199.39 222.26,202.15 223.90,204.22 225.54,206.98 227.17,208.70 228.81,210.77 230.45,213.17 232.09,215.23 233.73,216.61 235.37,219.35 237.01,220.03 238.65,222.43 240.29,223.80 241.93,225.51 243.57,226.88 245.21,228.24 246.85,229.95 248.49,229.61 250.12,231.65 251.76,231.99 253.40,233.70 255.04,233.70 256.68,234.72 258.32,235.74 259.96,236.08 261.60,236.08 263.24,237.10 264.88,238.46 266.52,237.44 268.16,237.78 269.80,237.78 271.43,237.44 273.07,237.44 274.71,237.10 276.35,236.42 277.99,236.42 279.63,236.08 281.27,234.38 282.91,234.04 284.55,234.04 286.19,233.36 287.83,232.34 289.47,231.65 291.11,230.63 292.75,230.29 294.38,228.58 296.02,228.58 297.66,227.90 299.30,226.88 300.94,226.88 302.58,225.85 304.22,225.17 305.86,223.46 307.50,223.46 309.14,223.11 310.78,222.77 312.42,221.06 314.06,220.03 315.70,220.03 317.33,219.69 318.97,219.35 320.61,218.66 322.25,219.01 323.89,219.01 325.53,219.01 327.17,219.01 328.81,220.03 330.45,220.38 332.09,220.03 333.73,220.72 335.37,222.09 337.01,222.43 338.65,222.77 340.28,224.48 341.92,224.83 343.56,226.53 345.20,227.90 346.84,228.92 348.48,229.95 350.12,230.97 351.76,233.36 353.40,234.72 355.04,235.40 356.68,238.46 358.32,239.14 359.96,240.84 361.60,242.88 363.23,244.57 364.87,245.93 366.51,247.62 368.15,249.32 369.79,251.68 371.43,253.37 373.07,254.39 374.71,256.41 376.35,258.44 377.99,260.80 379.63,262.82 381.27,264.16 382.91,266.85 384.55,268.53 386.18,269.54 387.82,270.88 389.46,272.56 391.10,274.57 392.74,276.24 394.38,277.24 396.02,278.25 397.66,280.25 399.30,281.92 400.94,282.26 402.58,283.26 404.22,284.26 405.86,285.59 407.49,285.93 409.13,286.93 410.77,287.93 412.41,288.26 414.05,289.26 415.69,289.59 417.33,289.92 418.97,290.26 420.61,289.92 422.25,289.92 423.89,290.26 425.53,289.59 427.17,289.59 428.81,288.26 430.44,287.93 432.08,287.59 433.72,286.93 435.36,286.26 437.00,285.59 438.64,285.93 440.28,283.93 441.92,283.93 443.56,282.59 445.20,281.26 446.84,279.92 448.48,280.25 450.12,278.58 451.76,277.24 453.39,276.58 455.03,274.23 456.67,274.23 458.31,273.23 459.95,272.22 461.59,270.54 463.23,269.54 464.87,268.19 466.51,267.52 468.15,266.52 469.79,265.84 471.43,264.16 473.07,263.83 474.71,263.49 476.34,262.14 477.98,262.14 479.62,261.13 481.26,261.47 482.90,259.79 484.54,259.11 486.18,259.11 487.82,259.11 489.46,258.10 491.10,258.44 492.74,257.76 494.38,257.76 496.02,258.44 497.66,258.77 499.29,259.45 500.93,259.45 502.57,259.79 504.21,260.12 505.85,260.46 507.49,261.47 509.13,262.48 510.77,263.15 512.41,263.83 514.05,265.84 515.69,266.85 517.33,268.19 518.97,269.20 520.61,270.88 522.24,272.22 523.88,274.23 525.52,275.91 527.16,277.58 528.80,278.58 530.44,280.92 532.08,281.92 533.72,283.93 535.36,285.59 537.00,287.59 538.64,289.26 540.28,291.25 541.92,293.58 543.56,294.25 545.19,295.57 546.83,297.90 548.47,299.22 550.11,301.54 551.75,302.87 553.39,304.19 555.03,305.84 556.67,307.17 558.31,308.16 559.95,309.48 561.59,310.47 563.23,312.78 564.87,314.09 566.51,314.75 568.14,315.41 569.78,316.07 571.42,316.73 573.06,317.06 574.70,318.05 576.34,318.70 577.98,318.70 579.62,319.03 581.26,319.36 582.90,319.36 584.54,318.70 586.18,320.02 587.82,320.02 589.45,320.02 591.09,319.03 592.73,318.05 594.37,317.72 596.01,318.05 597.65,318.05 599.29,316.40 600.93,315.08 602.57,314.75 604.21,313.77 605.85,313.11 607.49,312.45 609.13,310.80 610.77,309.48 612.40,308.82 614.04,308.16 615.68,306.17 617.32,304.52 618.96,303.53 620.60,303.20 622.24,301.21 623.88,299.89 625.52,298.56 627.16,297.23 628.80,296.90 630.44,294.91 632.08,294.25 633.72,292.58 635.35,291.25 636.99,290.59 638.63,289.92 640.27,288.92 641.91,288.59 643.55,287.93 645.19,286.26 646.83,286.26 648.47,285.93 650.11,285.26 651.75,285.26 653.39,283.59 655.03,284.26 656.67,283.26 658.30,283.59 659.94,283.59 661.58,284.26 663.22,284.26 664.86,285.26 666.50,283.59 668.14,285.26 669.78,285.93 671.42,285.93 673.06,286.93 674.70,287.59 676.34,288.92 677.98,289.59 679.62,290.92 681.25,291.92 682.89,292.92 684.53,294.25 686.17,295.57 687.81,296.90 689.45,297.57 691.09,299.55 692.73,299.89 694.37,302.20 696.01,303.86 697.65,305.18 699.29,306.84 700.93,307.83 702.57,310.47 704.20,312.45 705.84,313.44 707.48,316.07 709.12,317.72 710.76,319.36 712.40,320.68 714.04,322.32 715.68,323.63 717.32,325.27 718.96,325.60 720.60,328.55 722.24,328.55 723.88,330.51 725.52,331.82 727.15,332.47 728.79,333.46 730.43,334.11 732.07,336.07 733.71,336.39 735.35,336.72 736.99,337.05 738.63,337.70 740.27,338.68 741.91,339.00 743.55,339.66 745.19,339.00 746.83,339.33 748.46,339.33 750.10,339.00 751.74,338.35 753.38,339.00 755.02,338.35 756.66,337.05 758.30,335.74 759.94,335.42 761.58,334.76 763.22,334.44 764.86,333.78 766.50,332.47 768.14,332.47 769.78,330.18 771.41,329.53 773.05,327.89 774.69,327.24 776.33,325.27 777.97,324.61 779.61,323.96 781.25,322.32 782.89,321.00 784.53,320.02 786.17,318.70 787.81,317.39 789.45,315.08 791.09,314.09 792.73,313.44 794.36,312.12 796.00,310.47 797.64,309.81 799.28,308.82 800.92,306.84 802.56,305.51 804.20,304.52 805.84,303.86 807.48,303.53 809.12,303.20 810.76,301.54 812.40,300.88 814.04,300.88 815.68,300.22 817.31,300.22 818.95,299.89 820.59,299.22 822.23,299.89 823.87,300.55 825.51,300.22 827.15,299.89 828.79,300.88 830.43,300.55 832.07,301.21 833.71,301.54 835.35,302.20 836.99,302.87 838.63,303.86 840.26,303.86 841.90,305.18 843.54,306.84 845.18,307.17 846.82,308.49 848.46,310.14 850.10,311.13 851.74,312.45 853.38,314.09 855.02,315.41 856.66,316.07 858.30,318.05 859.94,320.35 861.58,321.00 863.21,321.99 864.85,323.63 866.49,325.60 868.13,327.24 869.77,329.20 871.41,330.51 873.05,332.47 874.69,333.13 876.33,334.76 877.97,336.39 879.61,337.70 881.25,339.00 882.89,340.31 884.53,341.94 886.16,342.59 887.80,342.91 889.44,344.87 891.08,345.52 892.72,346.49 894.36,347.79 896.00,347.47"/>
<polyline class="fit" points="405.86,291.78 407.49,292.50 409.13,293.14 410.77,293.69 412.41,294.15 414.05,294.52 415.69,294.80 417.33,294.99 418.97,295.09 420.61,295.10 422.25,295.03 423.89,294.86 425.53,294.61 427.17,294.28 428.81,293.86 430.44,293.36 432.08,292.79 433.72,292.14 435.36,291.42 437.00,290.63 438.64,289.79 440.28,288.88 441.92,287.92 443.56,286.91 445.20,285.85 446.84,284.75 448.48,283.62 450.12,282.46 451.76,281.28 453.39,280.08 455.03,278.86 456.67,277.64 458.31,276.42 459.95,275.20 461.59,273.99 463.23,272.79 464.87,271.62 466.51,270.47 468.15,269.36 469.79,268.28 471.43,267.24 473.07,266.25 474.71,265.31 476.34,264.43 477.98,263.61 479.62,262.85 481.26,262.16 482.90,261.54 484.54,261.00 486.18,260.54 487.82,260.16 489.46,259.86 491.10,259.64 492.74,259.52 494.38,259.48 496.02,259.53 497.66,259.67 499.29,259.90 500.93,260.22 502.57,260.63 504.21,261.13 505.85,261.71 507.49,262.39 509.13,263.14 510.77,263.98 512.41,264.90 514.05,265.90 515.69,266.97 517.33,268.11 518.97,269.31 520.61,270.58 522.24,271.91 523.88,273.29 525.52,274.73 527.16,276.20 528.80,277.72 530.44,279.27 532.08,280.85 533.72,282.46 535.36,284.08 537.00,285.72 538.64,287.36 540.28,289.01 541.92,290.65 543.56,292.28 545.19,293.90 546.83,295.49 548.47,297.06 550.11,298.60 551.75,300.10 553.39,301.56 555.03,302.97 556.67,304.33 558.31,305.63 559.95,306.87 561.59,308.05 563.23,309.16 564.87,310.20 566.51,311.16 568.14,312.05 569.78,312.85 571.42,313.57 573.06,314.21 574.70,314.76 576.34,315.22 577.98,315.59 579.62,315.87 581.26,316.06 582.90,316.16 584.54,316.17 586.18,316.09 587.82,315.93 589.45,315.68 591.09,315.34 592.73,314.92 594.37,314.43 596.01,313.85 597.65,313.20 599.29,312.48 600.93,311.70 602.57,310.85 604.21,309.94 605.85,308.98 607.49,307.97 609.13,306.91 610.77,305.82 612.40,304.69 614.04,303.53 615.68,302.34 617.32,301.14 618.96,299.93 620.60,298.70 622.24,297.48 623.88,296.26 625.52,295.05 627.16,293.86 628.80,292.68 630.44,291.53 632.08,290.42 633.72,289.34 635.35,288.30 636.99,287.31 638.63,286.37 640.27,285.49 641.91,284.67 643.55,283.91 645.19,283.23 646.83,282.61 648.47,282.07 650.11,281.60 651.75,281.22 653.39,280.92 655.03,280.71 656.67,280.58 658.30,280.54 659.94,280.59 661.58,280.73 663.22,280.96 664.86,281.29 666.50,281.70 668.14,282.19 669.78,282.78 671.42,283.45 673.06,284.21 674.70,285.05 676.34,285.97 677.98,286.97 679.62,288.04 681.25,289.18 682.89,290.38 684.53,291.65 686.17,292.98 687.81,294.36 689.45,295.80 691.09,297.27 692.73,298.79 694.37,300.34 696.01,301.92 697.65,303.53 699.29,305.15 700.93,306.79 702.57,308.43 704.20,310.08 705.84,311.72 707.48,313.35 709.12,314.97 710.76,316.56 712.40,318.13 714.04,319.67 715.68,321.17 717.32,322.63 718.96,324.04 720.60,325.40 722.24,326.70 723.88,327.94 725.52,329.12 727.15,330.23 728.79,331.27 730.43,332.23 732.07,333.12 733.71,333.92 735.35,334.64 736.99,335.27 738.63,335.82 740.27,336.28 741.91,336.65 743.55,336.93 745.19,337.13 746.83,337.23 748.46,337.24 750.10,337.16 751.74,336.99 753.38,336.74 755.02,336.41 756.66,335.99 758.30,335.49 759.94,334.92 761.58,334.27 763.22,333.55 764.86,332.76 766.50,331.91 768.14,331.01 769.78,330.04 771.41,329.03 773.05,327.98 774.69,326.88 776.33,325.75 777.97,324.59 779.61,323.41 781.25,322.20 782.89,320.99 784.53,319.77 786.17,318.54 787.81,317.32 789.45,316.11 791.09,314.92 792.73,313.75 794.36,312.60 796.00,311.48 797.64,310.40 799.28,309.37 800.92,308.38 802.56,307.44 804.20,306.56 805.84,305.74 807.48,304.98 809.12,304.29 810.76,303.67 812.40,303.13 814.04,302.67 815.68,302.29 817.31,301.99 818.95,301.78 820.59,301.65 822.23,301.61 823.87,301.66 825.51,301.80 827.15,302.03 828.79,302.35 830.43,302.76 832.07,303.26 833.71,303.85 835.35,304.52 836.99,305.28 838.63,306.12 840.26,307.04 841.90,308.03 843.54,309.10 845.18,310.25 846.82,311.45 848.46,312.72 850.10,314.05 851.74,315.43 853.38,316.87 855.02,318.34 856.66,319.86 858.30,321.41 859.94,322.99 861.58,324.60 863.21,326.22 864.85,327.86 866.49,329.50 868.13,331.15 869.77,332.79 871.41,334.42 873.05,336.04 874.69,337.63 876.33,339.20 877.97,340.74 879.61,342.24 881.25,343.70 882.89,345.11 884.53,346.47 886.16,347.77 887.80,349.01 889.44,350.19 891.08,351.30 892.72,352.34 894.36,353.30 896.00,354.18"/>
<polyline class="power" points="78.00,468.00 79.64,465.39 81.28,462.79 82.92,460.22 84.56,457.67 86.20,455.16 87.84,452.71 89.47,450.31 91.11,447.99 92.75,445.74 94.39,443.58 96.03,441.52 97.67,439.56 99.31,437.72 100.95,435.99 102.59,434.39 104.23,432.93 105.87,431.60 107.51,430.41 109.15,429.38 110.79,428.49 112.42,427.77 114.06,427.20 115.70,426.79 117.34,426.54 118.98,426.46 120.62,426.54 122.26,426.79 123.90,427.20 125.54,427.77 127.18,428.50 128.82,429.38 130.46,430.42 132.10,431.60 133.74,432.93 135.37,434.40 137.01,436.00 138.65,437.72 140.29,439.57 141.93,441.52 143.57,443.59 145.21,445.75 146.85,447.99 148.49,450.32 150.13,452.71 151.77,455.17 153.41,457.67 155.05,460.22 156.69,462.80 158.32,465.40 159.96,468.00 161.60,470.61 163.24,473.21 164.88,475.79 166.52,478.33 168.16,480.84 169.80,483.30 171.44,485.69 173.08,488.02 174.72,490.26 176.36,492.42 178.00,494.48 179.64,496.44 181.27,498.28 182.91,500.01 184.55,501.61 186.19,503.07 187.83,504.40 189.47,505.59 191.11,506.62 192.75,507.51 194.39,508.23 196.03,508.80 197.67,509.21 199.31,509.46 200.95,509.54 202.59,509.46 204.22,509.21 205.86,508.80 207.50,508.23 209.14,507.50 210.78,506.62 212.42,505.58 214.06,504.40 215.70,503.07 217.34,501.60 218.98,500.00 220.62,498.28 222.26,496.43 223.90,494.47 225.54,492.41 227.17,490.25 228.81,488.01 230.45,485.68 232.09,483.28 233.73,480.83 235.37,478.32 237.01,475.78 238.65,473.20 240.29,470.60 241.93,467.99 243.57,465.38 245.21,462.79 246.85,460.21 248.49,457.66 250.12,455.16 251.76,452.70 253.40,450.31 255.04,447.98 256.68,445.74 258.32,443.58 259.96,441.52 261.60,439.56 263.24,437.71 264.88,435.99 266.52,434.39 268.16,432.92 269.80,431.60 271.43,430.41 273.07,429.38 274.71,428.49 276.35,427.76 277.99,427.20 279.63,426.79 281.27,426.54 282.91,426.46 284.55,426.54 286.19,426.79 287.83,427.20 289.47,427.77 291.11,428.50 292.75,429.38 294.38,430.42 296.02,431.60 297.66,432.93 299.30,434.40 300.94,436.00 302.58,437.73 304.22,439.57 305.86,441.53 307.50,443.59 309.14,445.75 310.78,448.00 312.42,450.32 314.06,452.72 315.70,455.17 317.33,457.68 318.97,460.23 320.61,462.80 322.25,465.40 323.89,468.01 325.53,470.62 327.17,473.22 328.81,475.79 330.45,478.34 332.09,480.85 333.73,483.30 335.37,485.70 337.01,488.02 338.65,490.27 340.28,492.43 341.92,494.49 343.56,496.44 345.20,498.29 346.84,500.01 348.48,501.61 350.12,503.08 351.76,504.41 353.40,505.59 355.04,506.63 356.68,507.51 358.32,508.24 359.96,508.81 361.60,509.21 363.23,509.46 364.87,509.54 366.51,509.46 368.15,509.21 369.79,508.80 371.43,508.23 373.07,507.50 374.71,506.62 376.35,505.58 377.99,504.39 379.63,503.06 381.27,501.60 382.91,500.00 384.55,498.27 386.18,496.43 387.82,494.47 389.46,492.40 391.10,490.25 392.74,488.00 394.38,485.67 396.02,483.28 397.66,480.82 399.30,478.32 400.94,475.77 402.58,473.19 404.22,470.59 405.86,467.99 407.49,465.38 409.13,462.78 410.77,460.20 412.41,457.66 414.05,455.15 415.69,452.69 417.33,450.30 418.97,447.98 420.61,445.73 422.25,443.57 423.89,441.51 425.53,439.55 427.17,437.71 428.81,435.98 430.44,434.39 432.08,432.92 433.72,431.59 435.36,430.41 437.00,429.37 438.64,428.49 440.28,427.76 441.92,427.19 443.56,426.79 445.20,426.54 446.84,426.46 448.48,426.54 450.12,426.79 451.76,427.20 453.39,427.77 455.03,428.50 456.67,429.38 458.31,430.42 459.95,431.61 461.59,432.94 463.23,434.40 464.87,436.00 466.51,437.73 468.15,439.58 469.79,441.54 471.43,443.60 473.07,445.76 474.71,448.00 476.34,450.33 477.98,452.73 479.62,455.18 481.26,457.69 482.90,460.23 484.54,462.81 486.18,465.41 487.82,468.02 489.46,470.63 491.10,473.22 492.74,475.80 494.38,478.35 496.02,480.85 497.66,483.31 499.29,485.70 500.93,488.03 502.57,490.27 504.21,492.43 505.85,494.49 507.49,496.45 509.13,498.29 510.77,500.02 512.41,501.62 514.05,503.08 515.69,504.41 517.33,505.59 518.97,506.63 520.61,507.51 522.24,508.24 523.88,508.81 525.52,509.21 527.16,509.46 528.80,509.54 530.44,509.46 532.08,509.21 533.72,508.80 535.36,508.23 537.00,507.50 538.64,506.61 540.28,505.58 541.92,504.39 543.56,503.06 545.19,501.59 546.83,499.99 548.47,498.27 550.11,496.42 551.75,494.46 553.39,492.40 555.03,490.24 556.67,487.99 558.31,485.67 559.95,483.27 561.59,480.82 563.23,478.31 564.87,475.76 566.51,473.18 568.14,470.59 569.78,467.98 571.42,465.37 573.06,462.77 574.70,460.19 576.34,457.65 577.98,455.14 579.62,452.69 581.26,450.29 582.90,447.97 584.54,445.72 586.18,443.57 587.82,441.51 589.45,439.55 591.09,437.70 592.73,435.98 594.37,434.38 596.01,432.92 597.65,431.59 599.29,430.41 600.93,429.37 602.57,428.49 604.21,427.76 605.85,427.19 607.49,426.79 609.13,426.54 610.77,426.46 612.40,426.54 614.04,426.79 615.68,427.20 617.32,427.77 618.96,428.50 620.60,429.39 622.24,430.43 623.88,431.61 625.52,432.94 627.16,434.41 628.80,436.01 630.44,437.74 632.08,439.58 633.72,441.54 635.35,443.60 636.99,445.76 638.63,448.01 640.27,450.34 641.91,452.73 643.55,455.19 645.19,457.69 646.83,460.24 648.47,462.82 650.11,465.42 651.75,468.03 653.39,470.63 655.03,473.23 656.67,475.81 658.30,478.36 659.94,480.86 661.58,483.32 663.22,485.71 664.86,488.03 666.50,490.28 668.14,492.44 669.78,494.50 671.42,496.45 673.06,498.30 674.70,500.02 676.34,501.62 677.98,503.09 679.62,504.41 681.25,505.60 682.89,506.63 684.53,507.51 686.17,508.24 687.81,508.81 689.45,509.21 691.09,509.46 692.73,509.54 694.37,509.45 696.01,509.21 697.65,508.80 699.29,508.23 700.93,507.50 702.57,506.61 704.20,505.57 705.84,504.39 707.48,503.06 709.12,501.59 710.76,499.99 712.40,498.26 714.04,496.41 715.68,494.46 717.32,492.39 718.96,490.23 720.60,487.99 722.24,485.66 723.88,483.26 725.52,480.81 727.15,478.30 728.79,475.76 730.43,473.18 732.07,470.58 733.71,467.97 735.35,465.36 736.99,462.76 738.63,460.19 740.27,457.64 741.91,455.14 743.55,452.68 745.19,450.29 746.83,447.96 748.46,445.72 750.10,443.56 751.74,441.50 753.38,439.54 755.02,437.70 756.66,435.98 758.30,434.38 759.94,432.91 761.58,431.59 763.22,430.40 764.86,429.37 766.50,428.49 768.14,427.76 769.78,427.19 771.41,426.79 773.05,426.54 774.69,426.46 776.33,426.55 777.97,426.79 779.61,427.20 781.25,427.77 782.89,428.50 784.53,429.39 786.17,430.43 787.81,431.61 789.45,432.94 791.09,434.41 792.73,436.01 794.36,437.74 796.00,439.59 797.64,441.55 799.28,443.61 800.92,445.77 802.56,448.02 804.20,450.34 805.84,452.74 807.48,455.19 809.12,457.70 810.76,460.25 812.40,462.83 814.04,465.42 815.68,468.03 817.31,470.64 818.95,473.24 820.59,475.82 822.23,478.36 823.87,480.87 825.51,483.32 827.15,485.72 828.79,488.04 830.43,490.29 832.07,492.44 833.71,494.50 835.35,496.46 836.99,498.30 838.63,500.03 840.26,501.63 841.90,503.09 843.54,504.42 845.18,505.60 846.82,506.63 848.46,507.52 850.10,508.24 851.74,508.81 853.38,509.22 855.02,509.46 856.66,509.54 858.30,509.45 859.94,509.21 861.58,508.80 863.21,508.22 864.85,507.49 866.49,506.61 868.13,505.57 869.77,504.38 871.41,503.05 873.05,501.58 874.69,499.98 876.33,498.26 877.97,496.41 879.61,494.45 881.25,492.39 882.89,490.23 884.53,487.98 886.16,485.65 887.80,483.26 889.44,480.80 891.08,478.30 892.72,475.75 894.36,473.17 896.00,470.57"/>
<text x="20" y="209" transform="rotate(-90 20 209)" text-anchor="middle" font-size="13">Temperature (C)</text>
<text x="20" y="468" transform="rotate(-90 20 468)" text-anchor="middle" font-size="13">PWM duty</text>
<text x="487" y="568" text-anchor="middle" font-size="13">Time (s)</text>
<line x1="78" y1="35" x2="103" y2="35" class="raw"/><text x="109" y="39" font-size="12">temperature</text>
<line x1="203" y1="35" x2="228" y2="35" class="fit"/><text x="234" y="39" font-size="12">detrended fit</text>
<text x="378" y="39" font-size="12">shaded = measured</text>
</svg>
