<svg xmlns="http://www.w3.org/2000/svg" width="920" height="570" viewBox="0 0 920 570">
<rect width="100%" height="100%" fill="#fff"/>
<style>text{font-family:system-ui,sans-serif;fill:#17202a}.axis{stroke:#5d6d7e;stroke-width:1}.grid{stroke:#d5d8dc;stroke-width:1}.raw{fill:none;stroke:#2471a3;stroke-width:1.5}.fit{fill:none;stroke:#c0392b;stroke-width:2}.power{fill:none;stroke:#7d3c98;stroke-width:1.5}</style>
<text x="460" y="25" text-anchor="middle" font-size="18" font-weight="600">Hotend thermal response - 260 C, 60 s period</text>
<rect x="351.12" y="48" width="544.88" height="322" fill="#eaf2f8"/>
<line class="axis" x1="78" y1="370" x2="896" y2="370"/>
<line class="axis" x1="78" y1="48" x2="78" y2="370"/>
<line class="axis" x1="78" y1="522" x2="896" y2="522"/>
<line class="axis" x1="78" y1="414" x2="78" y2="522"/>
<line class="grid" x1="78" y1="48.00" x2="896" y2="48.00"/>
<text x="70" y="52.00" text-anchor="end" font-size="12">262.61</text>
<line class="grid" x1="78" y1="128.50" x2="896" y2="128.50"/>
<text x="70" y="132.50" text-anchor="end" font-size="12">261.85</text>
<line class="grid" x1="78" y1="209.00" x2="896" y2="209.00"/>
<text x="70" y="213.00" text-anchor="end" font-size="12">261.09</text>
<line class="grid" x1="78" y1="289.50" x2="896" y2="289.50"/>
<text x="70" y="293.50" text-anchor="end" font-size="12">260.32</text>
<line class="grid" x1="78" y1="370.00" x2="896" y2="370.00"/>
<text x="70" y="374.00" text-anchor="end" font-size="12">259.56</text>
<line class="grid" x1="78.00" y1="48" x2="78.00" y2="370"/>
<text x="78.00" y="550" text-anchor="middle" font-size="12">0</text>
<line class="grid" x1="241.60" y1="48" x2="241.60" y2="370"/>
<text x="241.60" y="550" text-anchor="middle" font-size="12">36</text>
<line class="grid" x1="405.20" y1="48" x2="405.20" y2="370"/>
<text x="405.20" y="550" text-anchor="middle" font-size="12">72</text>
<line class="grid" x1="568.80" y1="48" x2="568.80" y2="370"/>
<text x="568.80" y="550" text-anchor="middle" font-size="12">108</text>
<line class="grid" x1="732.40" y1="48" x2="732.40" y2="370"/>
<text x="732.40" y="550" text-anchor="middle" font-size="12">144</text>
<line class="grid" x1="896.00" y1="48" x2="896.00" y2="370"/>
<text x="896.00" y="550" text-anchor="middle" font-size="12">180</text>
<polyline class="raw" points="78.00,327.31 79.37,324.74 80.73,340.12 82.10,332.44 83.46,347.79 84.83,342.68 86.19,340.12 87.56,342.68 88.92,340.12 90.29,345.24 91.66,337.56 93.02,337.56 94.39,337.56 95.75,335.00 97.12,340.12 98.48,337.56 99.85,340.12 101.22,342.68 102.58,342.68 103.95,340.12 105.31,342.68 106.68,337.56 108.04,335.00 109.41,337.56 110.77,327.31 112.14,327.31 113.51,324.74 114.87,322.17 116.24,324.74 117.60,319.61 118.97,314.47 120.33,314.47 121.70,311.89 123.07,306.75 124.43,306.75 125.80,301.60 127.16,299.02 128.53,301.60 129.89,293.86 131.26,291.28 132.62,286.11 133.99,283.53 135.36,280.94 136.72,275.77 138.09,275.77 139.45,273.18 140.82,275.77 142.18,268.00 143.55,268.00 144.91,265.40 146.28,262.81 147.65,255.02 149.01,255.02 150.38,252.42 151.74,247.22 153.11,247.22 154.47,239.41 155.84,239.41 157.21,239.41 158.57,236.81 159.94,236.81 161.30,231.59 162.67,226.37 164.03,226.37 165.40,221.15 166.76,218.53 168.13,215.92 169.50,213.30 170.86,208.06 172.23,213.30 173.59,213.30 174.96,213.30 176.32,208.06 177.69,200.20 179.06,202.82 180.42,192.33 181.79,187.07 183.15,189.70 184.52,189.70 185.88,187.07 187.25,187.07 188.61,181.81 189.98,179.18 191.35,173.91 192.71,176.54 194.08,176.54 195.44,173.91 196.81,173.91 198.17,173.91 199.54,168.64 200.90,168.64 202.27,163.36 203.64,173.91 205.00,163.36 206.37,160.72 207.73,160.72 209.10,155.43 210.46,168.64 211.83,166.00 213.20,158.08 214.56,158.08 215.93,155.43 217.29,158.08 218.66,160.72 220.02,166.00 221.39,160.72 222.75,155.43 224.12,163.36 225.49,160.72 226.85,166.00 228.22,163.36 229.58,158.08 230.95,160.72 232.31,166.00 233.68,155.43 235.05,163.36 236.41,171.27 237.78,163.36 239.14,173.91 240.51,173.91 241.87,168.64 243.24,176.54 244.60,171.27 245.97,173.91 247.34,171.27 248.70,179.18 250.07,168.64 251.43,173.91 252.80,181.81 254.16,184.44 255.53,184.44 256.89,181.81 258.26,179.18 259.63,192.33 260.99,189.70 262.36,194.95 263.72,197.58 265.09,194.95 266.45,200.20 267.82,200.20 269.19,205.44 270.55,213.30 271.92,215.92 273.28,210.68 274.65,223.76 276.01,223.76 277.38,218.53 278.74,223.76 280.11,228.98 281.48,236.81 282.84,236.81 284.21,231.59 285.57,239.41 286.94,244.62 288.30,247.22 289.67,249.82 291.04,249.82 292.40,255.02 293.77,257.62 295.13,260.22 296.50,262.81 297.86,260.22 299.23,262.81 300.59,265.40 301.96,273.18 303.33,270.59 304.69,275.77 306.06,278.36 307.42,280.94 308.79,283.53 310.15,286.11 311.52,291.28 312.88,299.02 314.25,296.44 315.62,299.02 316.98,299.02 318.35,306.75 319.71,306.75 321.08,301.60 322.44,304.17 323.81,309.32 325.18,314.47 326.54,317.04 327.91,314.47 329.27,311.89 330.64,317.04 332.00,319.61 333.37,324.74 334.73,317.04 336.10,322.17 337.47,322.17 338.83,322.17 340.20,324.74 341.56,319.61 342.93,324.74 344.29,327.31 345.66,327.31 347.03,329.87 348.39,324.74 349.76,329.87 351.12,327.31 352.49,324.74 353.85,324.74 355.22,329.87 356.58,329.87 357.95,324.74 359.32,329.87 360.68,324.74 362.05,327.31 363.41,327.31 364.78,322.17 366.14,324.74 367.51,327.31 368.87,324.74 370.24,322.17 371.61,317.04 372.97,319.61 374.34,319.61 375.70,314.47 377.07,317.04 378.43,309.32 379.80,314.47 381.17,309.32 382.53,314.47 383.90,309.32 385.26,301.60 386.63,301.60 387.99,301.60 389.36,291.28 390.72,291.28 392.09,286.11 393.46,291.28 394.82,286.11 396.19,286.11 397.55,283.53 398.92,278.36 400.28,273.18 401.65,275.77 403.02,278.36 404.38,270.59 405.75,270.59 407.11,260.22 408.48,260.22 409.84,260.22 411.21,257.62 412.57,252.42 413.94,249.82 415.31,242.02 416.67,239.41 418.04,242.02 419.40,239.41 420.77,236.81 422.13,239.41 423.50,228.98 424.86,228.98 426.23,226.37 427.60,215.92 428.96,218.53 430.33,215.92 431.69,205.44 433.06,205.44 434.42,200.20 435.79,189.70 437.16,194.95 438.52,187.07 439.89,189.70 441.25,192.33 442.62,184.44 443.98,176.54 445.35,173.91 446.71,173.91 448.08,166.00 449.45,171.27 450.81,171.27 452.18,163.36 453.54,168.64 454.91,152.79 456.27,155.43 457.64,152.79 459.01,150.14 460.37,144.85 461.74,150.14 463.10,144.85 464.47,136.90 465.83,147.50 467.20,139.55 468.56,139.55 469.93,131.59 471.30,139.55 472.66,126.28 474.03,128.94 475.39,136.90 476.76,128.94 478.12,134.25 479.49,131.59 480.85,126.28 482.22,128.94 483.59,128.94 484.95,128.94 486.32,126.28 487.68,126.28 489.05,120.96 490.41,123.62 491.78,126.28 493.15,128.94 494.51,126.28 495.88,126.28 497.24,128.94 498.61,131.59 499.97,139.55 501.34,128.94 502.70,123.62 504.07,126.28 505.44,134.25 506.80,123.62 508.17,123.62 509.53,123.62 510.90,134.25 512.26,131.59 513.63,134.25 515.00,134.25 516.36,131.59 517.73,139.55 519.09,136.90 520.46,142.20 521.82,139.55 523.19,139.55 524.55,144.85 525.92,150.14 527.29,147.50 528.65,150.14 530.02,155.43 531.38,150.14 532.75,155.43 534.11,158.08 535.48,166.00 536.84,168.64 538.21,168.64 539.58,168.64 540.94,168.64 542.31,166.00 543.67,173.91 545.04,176.54 546.40,184.44 547.77,189.70 549.14,181.81 550.50,192.33 551.87,194.95 553.23,194.95 554.60,200.20 555.96,192.33 557.33,202.82 558.69,205.44 560.06,205.44 561.43,215.92 562.79,213.30 564.16,215.92 565.52,213.30 566.89,221.15 568.25,218.53 569.62,221.15 570.98,223.76 572.35,231.59 573.72,234.20 575.08,228.98 576.45,226.37 577.81,236.81 579.18,236.81 580.54,236.81 581.91,236.81 583.28,239.41 584.64,239.41 586.01,247.22 587.37,249.82 588.74,247.22 590.10,252.42 591.47,255.02 592.83,247.22 594.20,255.02 595.57,255.02 596.93,257.62 598.30,257.62 599.66,260.22 601.03,265.40 602.39,262.81 603.76,262.81 605.13,262.81 606.49,265.40 607.86,273.18 609.22,270.59 610.59,273.18 611.95,268.00 613.32,270.59 614.68,268.00 616.05,270.59 617.42,273.18 618.78,273.18 620.15,270.59 621.51,273.18 622.88,275.77 624.24,270.59 625.61,270.59 626.97,270.59 628.34,273.18 629.71,268.00 631.07,270.59 632.44,265.40 633.80,265.40 635.17,270.59 636.53,260.22 637.90,257.62 639.27,262.81 640.63,265.40 642.00,268.00 643.36,265.40 644.73,262.81 646.09,262.81 647.46,249.82 648.82,257.62 650.19,255.02 651.56,257.62 652.92,252.42 654.29,252.42 655.65,257.62 657.02,249.82 658.38,247.22 659.75,252.42 661.12,242.02 662.48,239.41 663.85,239.41 665.21,242.02 666.58,234.20 667.94,234.20 669.31,231.59 670.67,231.59 672.04,231.59 673.41,228.98 674.77,223.76 676.14,223.76 677.50,218.53 678.87,218.53 680.23,218.53 681.60,213.30 682.96,215.92 684.33,208.06 685.70,205.44 687.06,202.82 688.43,202.82 689.79,194.95 691.16,194.95 692.52,189.70 693.89,181.81 695.26,176.54 696.62,176.54 697.99,173.91 699.35,171.27 700.72,163.36 702.08,160.72 703.45,158.08 704.81,155.43 706.18,152.79 707.55,152.79 708.91,152.79 710.28,142.20 711.64,139.55 713.01,139.55 714.37,134.25 715.74,136.90 717.11,128.94 718.47,128.94 719.84,131.59 721.20,128.94 722.57,128.94 723.93,120.96 725.30,115.64 726.66,120.96 728.03,112.98 729.40,107.65 730.76,107.65 732.13,104.98 733.49,102.32 734.86,99.65 736.22,94.31 737.59,94.31 738.95,96.98 740.32,83.61 741.69,88.96 743.05,86.28 744.42,80.93 745.78,83.61 747.15,80.93 748.51,78.25 749.88,83.61 751.25,83.61 752.61,80.93 753.98,78.25 755.34,80.93 756.71,75.57 758.07,72.89 759.44,72.89 760.80,72.89 762.17,70.21 763.54,72.89 764.90,78.25 766.27,83.61 767.63,75.57 769.00,75.57 770.36,70.21 771.73,70.21 773.10,72.89 774.46,70.21 775.83,78.25 777.19,75.57 778.56,78.25 779.92,78.25 781.29,78.25 782.65,80.93 784.02,78.25 785.39,80.93 786.75,80.93 788.12,86.28 789.48,88.96 790.85,91.63 792.21,86.28 793.58,88.96 794.94,96.98 796.31,96.98 797.68,96.98 799.04,102.32 800.41,96.98 801.77,102.32 803.14,104.98 804.50,96.98 805.87,107.65 807.24,112.98 808.60,115.64 809.97,110.32 811.33,115.64 812.70,115.64 814.06,118.30 815.43,123.62 816.79,126.28 818.16,128.94 819.53,134.25 820.89,139.55 822.26,142.20 823.62,147.50 824.99,155.43 826.35,150.14 827.72,158.08 829.09,158.08 830.45,163.36 831.82,158.08 833.18,163.36 834.55,160.72 835.91,179.18 837.28,176.54 838.64,179.18 840.01,179.18 841.38,187.07 842.74,184.44 844.11,189.70 845.47,192.33 846.84,197.58 848.20,197.58 849.57,200.20 850.93,208.06 852.30,208.06 853.67,210.68 855.03,208.06 856.40,218.53 857.76,210.68 859.13,221.15 860.49,221.15 861.86,226.37 863.23,228.98 864.59,223.76 865.96,226.37 867.32,234.20 868.69,228.98 870.05,234.20 871.42,236.81 872.78,242.02 874.15,236.81 875.52,242.02 876.88,244.62 878.25,249.82 879.61,244.62 880.98,242.02 882.34,247.22 883.71,244.62 885.08,249.82 886.44,244.62 887.81,252.42 889.17,249.82 890.54,249.82 891.90,249.82 893.27,242.02 894.63,249.82 896.00,252.42"/>
<polyline class="fit" points="351.12,327.68 352.49,327.59 353.85,327.41 355.22,327.13 356.58,326.77 357.95,326.32 359.32,325.78 360.68,325.15 362.05,324.43 363.41,323.62 364.78,322.72 366.14,321.74 367.51,320.67 368.87,319.51 370.24,318.27 371.61,316.95 372.97,315.55 374.34,314.06 375.70,312.49 377.07,310.84 378.43,309.12 379.80,307.32 381.17,305.45 382.53,303.50 383.90,301.48 385.26,299.40 386.63,297.24 387.99,295.02 389.36,292.74 390.72,290.40 392.09,287.99 393.46,285.53 394.82,283.01 396.19,280.45 397.55,277.83 398.92,275.16 400.28,272.45 401.65,269.69 403.02,266.89 404.38,264.06 405.75,261.19 407.11,258.28 408.48,255.35 409.84,252.39 411.21,249.40 412.57,246.39 413.94,243.36 415.31,240.32 416.67,237.26 418.04,234.19 419.40,231.11 420.77,228.03 422.13,224.94 423.50,221.86 424.86,218.77 426.23,215.70 427.60,212.63 428.96,209.57 430.33,206.53 431.69,203.50 433.06,200.50 434.42,197.51 435.79,194.56 437.16,191.63 438.52,188.73 439.89,185.86 441.25,183.03 442.62,180.24 443.98,177.49 445.35,174.78 446.71,172.12 448.08,169.51 449.45,166.95 450.81,164.44 452.18,161.98 453.54,159.59 454.91,157.25 456.27,154.98 457.64,152.77 459.01,150.62 460.37,148.55 461.74,146.54 463.10,144.60 464.47,142.74 465.83,140.95 467.20,139.23 468.56,137.60 469.93,136.04 471.30,134.57 472.66,133.17 474.03,131.86 475.39,130.63 476.76,129.49 478.12,128.43 479.49,127.46 480.85,126.58 482.22,125.78 483.59,125.07 484.95,124.45 486.32,123.92 487.68,123.48 489.05,123.13 490.41,122.87 491.78,122.70 493.15,122.62 494.51,122.63 495.88,122.73 497.24,122.92 498.61,123.20 499.97,123.56 501.34,124.02 502.70,124.56 504.07,125.19 505.44,125.90 506.80,126.70 508.17,127.58 509.53,128.54 510.90,129.58 512.26,130.71 513.63,131.91 515.00,133.19 516.36,134.55 517.73,135.98 519.09,137.49 520.46,139.06 521.82,140.71 523.19,142.42 524.55,144.19 525.92,146.04 527.29,147.94 528.65,149.90 530.02,151.92 531.38,153.99 532.75,156.12 534.11,158.29 535.48,160.52 536.84,162.79 538.21,165.10 539.58,167.46 540.94,169.85 542.31,172.28 543.67,174.74 545.04,177.23 546.40,179.75 547.77,182.29 549.14,184.86 550.50,187.45 551.87,190.05 553.23,192.66 554.60,195.29 555.96,197.93 557.33,200.57 558.69,203.21 560.06,205.85 561.43,208.49 562.79,211.13 564.16,213.75 565.52,216.37 566.89,218.97 568.25,221.55 569.62,224.11 570.98,226.66 572.35,229.17 573.72,231.66 575.08,234.11 576.45,236.54 577.81,238.92 579.18,241.27 580.54,243.58 581.91,245.85 583.28,248.06 584.64,250.23 586.01,252.35 587.37,254.42 588.74,256.43 590.10,258.38 591.47,260.28 592.83,262.11 594.20,263.88 595.57,265.58 596.93,267.21 598.30,268.78 599.66,270.27 601.03,271.69 602.39,273.04 603.76,274.31 605.13,275.50 606.49,276.61 607.86,277.65 609.22,278.60 610.59,279.47 611.95,280.25 613.32,280.95 614.68,281.57 616.05,282.10 617.42,282.54 618.78,282.89 620.15,283.16 621.51,283.33 622.88,283.42 624.24,283.42 625.61,283.32 626.97,283.14 628.34,282.87 629.71,282.51 631.07,282.05 632.44,281.51 633.80,280.88 635.17,280.16 636.53,279.35 637.90,278.45 639.27,277.47 640.63,276.40 642.00,275.24 643.36,274.00 644.73,272.68 646.09,271.27 647.46,269.79 648.82,268.22 650.19,266.57 651.56,264.85 652.92,263.05 654.29,261.17 655.65,259.23 657.02,257.21 658.38,255.12 659.75,252.97 661.12,250.75 662.48,248.46 663.85,246.12 665.21,243.72 666.58,241.25 667.94,238.74 669.31,236.17 670.67,233.55 672.04,230.88 673.41,228.17 674.77,225.41 676.14,222.61 677.50,219.78 678.87,216.91 680.23,214.00 681.60,211.07 682.96,208.11 684.33,205.12 685.70,202.11 687.06,199.08 688.43,196.04 689.79,192.98 691.16,189.91 692.52,186.83 693.89,183.75 695.26,180.66 696.62,177.58 697.99,174.49 699.35,171.42 700.72,168.35 702.08,165.29 703.45,162.25 704.81,159.22 706.18,156.22 707.55,153.24 708.91,150.28 710.28,147.35 711.64,144.45 713.01,141.58 714.37,138.75 715.74,135.96 717.11,133.21 718.47,130.50 719.84,127.84 721.20,125.23 722.57,122.67 723.93,120.16 725.30,117.71 726.66,115.31 728.03,112.98 729.40,110.70 730.76,108.49 732.13,106.35 733.49,104.27 734.86,102.26 736.22,100.33 737.59,98.46 738.95,96.68 740.32,94.96 741.69,93.33 743.05,91.77 744.42,90.30 745.78,88.90 747.15,87.59 748.51,86.36 749.88,85.22 751.25,84.16 752.61,83.19 753.98,82.31 755.34,81.51 756.71,80.80 758.07,80.19 759.44,79.66 760.80,79.22 762.17,78.87 763.54,78.61 764.90,78.44 766.27,78.36 767.63,78.37 769.00,78.47 770.36,78.66 771.73,78.94 773.10,79.30 774.46,79.76 775.83,80.30 777.19,80.93 778.56,81.64 779.92,82.44 781.29,83.32 782.65,84.28 784.02,85.33 785.39,86.45 786.75,87.66 788.12,88.94 789.48,90.30 790.85,91.73 792.21,93.23 793.58,94.81 794.94,96.45 796.31,98.16 797.68,99.94 799.04,101.78 800.41,103.69 801.77,105.65 803.14,107.67 804.50,109.74 805.87,111.87 807.24,114.04 808.60,116.27 809.97,118.54 811.33,120.85 812.70,123.21 814.06,125.60 815.43,128.03 816.79,130.49 818.16,132.98 819.53,135.50 820.89,138.05 822.26,140.61 823.62,143.20 824.99,145.80 826.35,148.42 827.72,151.04 829.09,153.68 830.45,156.32 831.82,158.96 833.18,161.61 834.55,164.25 835.91,166.88 837.28,169.51 838.64,172.12 840.01,174.72 841.38,177.30 842.74,179.87 844.11,182.41 845.47,184.92 846.84,187.41 848.20,189.87 849.57,192.29 850.93,194.68 852.30,197.02 853.67,199.33 855.03,201.60 856.40,203.81 857.76,205.98 859.13,208.10 860.49,210.17 861.86,212.18 863.23,214.13 864.59,216.02 865.96,217.86 867.32,219.62 868.69,221.32 870.05,222.96 871.42,224.52 872.78,226.02 874.15,227.44 875.52,228.78 876.88,230.05 878.25,231.24 879.61,232.36 880.98,233.39 882.34,234.34 883.71,235.21 885.08,236.00 886.44,236.70 887.81,237.31 889.17,237.84 890.54,238.28 891.90,238.63 893.27,238.90 894.63,239.07 896.00,239.16"/>
<polyline class="power" points="78.00,468.00 79.37,466.70 80.73,465.39 82.10,464.09 83.46,462.79 84.83,461.50 86.19,460.22 87.56,458.94 88.92,457.67 90.29,456.41 91.66,455.16 93.02,453.93 94.39,452.71 95.75,451.50 97.12,450.31 98.48,449.14 99.85,447.99 101.22,446.85 102.58,445.74 103.95,444.65 105.31,443.58 106.68,442.54 108.04,441.52 109.41,440.53 110.77,439.56 112.14,438.63 113.51,437.72 114.87,436.84 116.24,435.99 117.60,435.18 118.97,434.39 120.33,433.64 121.70,432.93 123.07,432.25 124.43,431.60 125.80,430.99 127.16,430.41 128.53,429.88 129.89,429.38 131.26,428.92 132.62,428.49 133.99,428.11 135.36,427.77 136.72,427.46 138.09,427.20 139.45,426.97 140.82,426.79 142.18,426.65 143.55,426.54 144.91,426.48 146.28,426.46 147.65,426.48 149.01,426.54 150.38,426.65 151.74,426.79 153.11,426.97 154.47,427.20 155.84,427.46 157.21,427.77 158.57,428.11 159.94,428.50 161.30,428.92 162.67,429.38 164.03,429.88 165.40,430.42 166.76,430.99 168.13,431.60 169.50,432.25 170.86,432.93 172.23,433.65 173.59,434.40 174.96,435.18 176.32,436.00 177.69,436.84 179.06,437.72 180.42,438.63 181.79,439.57 183.15,440.53 184.52,441.52 185.88,442.54 187.25,443.59 188.61,444.65 189.98,445.75 191.35,446.86 192.71,447.99 194.08,449.14 195.44,450.32 196.81,451.51 198.17,452.71 199.54,453.93 200.90,455.17 202.27,456.41 203.64,457.67 205.00,458.94 206.37,460.22 207.73,461.51 209.10,462.80 210.46,464.09 211.83,465.40 213.20,466.70 214.56,468.00 215.93,469.31 217.29,470.61 218.66,471.91 220.02,473.21 221.39,474.50 222.75,475.79 224.12,477.07 225.49,478.33 226.85,479.59 228.22,480.84 229.58,482.07 230.95,483.30 232.31,484.50 233.68,485.69 235.05,486.86 236.41,488.02 237.78,489.15 239.14,490.26 240.51,491.35 241.87,492.42 243.24,493.46 244.60,494.48 245.97,495.47 247.34,496.44 248.70,497.38 250.07,498.28 251.43,499.16 252.80,500.01 254.16,500.82 255.53,501.61 256.89,502.36 258.26,503.07 259.63,503.76 260.99,504.40 262.36,505.01 263.72,505.59 265.09,506.12 266.45,506.62 267.82,507.08 269.19,507.51 270.55,507.89 271.92,508.23 273.28,508.54 274.65,508.80 276.01,509.03 277.38,509.21 278.74,509.35 280.11,509.46 281.48,509.52 282.84,509.54 284.21,509.52 285.57,509.46 286.94,509.35 288.30,509.21 289.67,509.03 291.04,508.80 292.40,508.54 293.77,508.23 295.13,507.89 296.50,507.50 297.86,507.08 299.23,506.62 300.59,506.12 301.96,505.58 303.33,505.01 304.69,504.40 306.06,503.75 307.42,503.07 308.79,502.35 310.15,501.60 311.52,500.82 312.88,500.00 314.25,499.15 315.62,498.28 316.98,497.37 318.35,496.43 319.71,495.47 321.08,494.47 322.44,493.45 323.81,492.41 325.18,491.34 326.54,490.25 327.91,489.14 329.27,488.01 330.64,486.85 332.00,485.68 333.37,484.49 334.73,483.28 336.10,482.06 337.47,480.83 338.83,479.58 340.20,478.32 341.56,477.05 342.93,475.78 344.29,474.49 345.66,473.20 347.03,471.90 348.39,470.60 349.76,469.30 351.12,467.99 352.49,466.69 353.85,465.38 355.22,464.08 356.58,462.79 357.95,461.49 359.32,460.21 360.68,458.93 362.05,457.66 363.41,456.40 364.78,455.16 366.14,453.92 367.51,452.70 368.87,451.50 370.24,450.31 371.61,449.13 372.97,447.98 374.34,446.85 375.70,445.74 377.07,444.65 378.43,443.58 379.80,442.53 381.17,441.52 382.53,440.52 383.90,439.56 385.26,438.62 386.63,437.71 387.99,436.84 389.36,435.99 390.72,435.17 392.09,434.39 393.46,433.64 394.82,432.92 396.19,432.24 397.55,431.60 398.92,430.99 400.28,430.41 401.65,429.87 403.02,429.38 404.38,428.91 405.75,428.49 407.11,428.11 408.48,427.76 409.84,427.46 411.21,427.20 412.57,426.97 413.94,426.79 415.31,426.65 416.67,426.54 418.04,426.48 419.40,426.46 420.77,426.48 422.13,426.54 423.50,426.65 424.86,426.79 426.23,426.97 427.60,427.20 428.96,427.46 430.33,427.77 431.69,428.11 433.06,428.50 434.42,428.92 435.79,429.38 437.16,429.88 438.52,430.42 439.89,430.99 441.25,431.60 442.62,432.25 443.98,432.93 445.35,433.65 446.71,434.40 448.08,435.18 449.45,436.00 450.81,436.85 452.18,437.73 453.54,438.64 454.91,439.57 456.27,440.54 457.64,441.53 459.01,442.55 460.37,443.59 461.74,444.66 463.10,445.75 464.47,446.86 465.83,448.00 467.20,449.15 468.56,450.32 469.93,451.51 471.30,452.72 472.66,453.94 474.03,455.17 475.39,456.42 476.76,457.68 478.12,458.95 479.49,460.23 480.85,461.51 482.22,462.80 483.59,464.10 484.95,465.40 486.32,466.71 487.68,468.01 489.05,469.32 490.41,470.62 491.78,471.92 493.15,473.22 494.51,474.51 495.88,475.79 497.24,477.07 498.61,478.34 499.97,479.60 501.34,480.85 502.70,482.08 504.07,483.30 505.44,484.51 506.80,485.70 508.17,486.87 509.53,488.02 510.90,489.15 512.26,490.27 513.63,491.36 515.00,492.43 516.36,493.47 517.73,494.49 519.09,495.48 520.46,496.44 521.82,497.38 523.19,498.29 524.55,499.17 525.92,500.01 527.29,500.83 528.65,501.61 530.02,502.36 531.38,503.08 532.75,503.76 534.11,504.41 535.48,505.02 536.84,505.59 538.21,506.13 539.58,506.63 540.94,507.09 542.31,507.51 543.67,507.89 545.04,508.24 546.40,508.54 547.77,508.81 549.14,509.03 550.50,509.21 551.87,509.36 553.23,509.46 554.60,509.52 555.96,509.54 557.33,509.52 558.69,509.46 560.06,509.35 561.43,509.21 562.79,509.03 564.16,508.80 565.52,508.54 566.89,508.23 568.25,507.89 569.62,507.50 570.98,507.08 572.35,506.62 573.72,506.12 575.08,505.58 576.45,505.00 577.81,504.39 579.18,503.75 580.54,503.06 581.91,502.35 583.28,501.60 584.64,500.81 586.01,500.00 587.37,499.15 588.74,498.27 590.10,497.36 591.47,496.43 592.83,495.46 594.20,494.47 595.57,493.45 596.93,492.40 598.30,491.34 599.66,490.25 601.03,489.13 602.39,488.00 603.76,486.85 605.13,485.67 606.49,484.48 607.86,483.28 609.22,482.06 610.59,480.82 611.95,479.58 613.32,478.32 614.68,477.05 616.05,475.77 617.42,474.48 618.78,473.19 620.15,471.89 621.51,470.59 622.88,469.29 624.24,467.99 625.61,466.68 626.97,465.38 628.34,464.08 629.71,462.78 631.07,461.49 632.44,460.20 633.80,458.92 635.17,457.66 636.53,456.40 637.90,455.15 639.27,453.92 640.63,452.69 642.00,451.49 643.36,450.30 644.73,449.13 646.09,447.98 647.46,446.84 648.82,445.73 650.19,444.64 651.56,443.57 652.92,442.53 654.29,441.51 655.65,440.52 657.02,439.55 658.38,438.62 659.75,437.71 661.12,436.83 662.48,435.98 663.85,435.17 665.21,434.39 666.58,433.64 667.94,432.92 669.31,432.24 670.67,431.59 672.04,430.98 673.41,430.41 674.77,429.87 676.14,429.37 677.50,428.91 678.87,428.49 680.23,428.11 681.60,427.76 682.96,427.46 684.33,427.19 685.70,426.97 687.06,426.79 688.43,426.64 689.79,426.54 691.16,426.48 692.52,426.46 693.89,426.48 695.26,426.54 696.62,426.65 697.99,426.79 699.35,426.98 700.72,427.20 702.08,427.47 703.45,427.77 704.81,428.12 706.18,428.50 707.55,428.92 708.91,429.38 710.28,429.88 711.64,430.42 713.01,431.00 714.37,431.61 715.74,432.25 717.11,432.94 718.47,433.65 719.84,434.40 721.20,435.19 722.57,436.01 723.93,436.85 725.30,437.73 726.66,438.64 728.03,439.58 729.40,440.54 730.76,441.54 732.13,442.55 733.49,443.60 734.86,444.67 736.22,445.76 737.59,446.87 738.95,448.00 740.32,449.16 741.69,450.33 743.05,451.52 744.42,452.73 745.78,453.95 747.15,455.18 748.51,456.43 749.88,457.69 751.25,458.96 752.61,460.23 753.98,461.52 755.34,462.81 756.71,464.11 758.07,465.41 759.44,466.71 760.80,468.02 762.17,469.32 763.54,470.63 764.90,471.93 766.27,473.22 767.63,474.52 769.00,475.80 770.36,477.08 771.73,478.35 773.10,479.61 774.46,480.85 775.83,482.09 777.19,483.31 778.56,484.51 779.92,485.70 781.29,486.87 782.65,488.03 784.02,489.16 785.39,490.27 786.75,491.36 788.12,492.43 789.48,493.47 790.85,494.49 792.21,495.48 793.58,496.45 794.94,497.39 796.31,498.29 797.68,499.17 799.04,500.02 800.41,500.83 801.77,501.62 803.14,502.37 804.50,503.08 805.87,503.76 807.24,504.41 808.60,505.02 809.97,505.59 811.33,506.13 812.70,506.63 814.06,507.09 815.43,507.51 816.79,507.89 818.16,508.24 819.53,508.54 820.89,508.81 822.26,509.03 823.62,509.21 824.99,509.36 826.35,509.46 827.72,509.52 829.09,509.54 830.45,509.52 831.82,509.46 833.18,509.35 834.55,509.21 835.91,509.02 837.28,508.80 838.64,508.53 840.01,508.23 841.38,507.88 842.74,507.50 844.11,507.08 845.47,506.61 846.84,506.11 848.20,505.58 849.57,505.00 850.93,504.39 852.30,503.74 853.67,503.06 855.03,502.34 856.40,501.59 857.76,500.81 859.13,499.99 860.49,499.14 861.86,498.27 863.23,497.36 864.59,496.42 865.96,495.45 867.32,494.46 868.69,493.44 870.05,492.40 871.42,491.33 872.78,490.24 874.15,489.13 875.52,487.99 876.88,486.84 878.25,485.67 879.61,484.48 880.98,483.27 882.34,482.05 883.71,480.82 885.08,479.57 886.44,478.31 887.81,477.04 889.17,475.76 890.54,474.48 891.90,473.18 893.27,471.89 894.63,470.59 896.00,469.28"/>
<text x="20" y="209" transform="rotate(-90 20 209)" text-anchor="middle" font-size="13">Temperature (C)</text>
<text x="20" y="468" transform="rotate(-90 20 468)" text-anchor="middle" font-size="13">PWM duty</text>
<text x="487" y="568" text-anchor="middle" font-size="13">Time (s)</text>
<line x1="78" y1="35" x2="103" y2="35" class="raw"/><text x="109" y="39" font-size="12">temperature</text>
<line x1="203" y1="35" x2="228" y2="35" class="fit"/><text x="234" y="39" font-size="12">detrended fit</text>
<text x="378" y="39" font-size="12">shaded = measured</text>
</svg>
