<?xml version="1.0" encoding="utf-8" standalone="no"?>
<!DOCTYPE svg PUBLIC "-//W3C//DTD SVG 1.1//EN"
  "http://www.w3.org/Graphics/SVG/1.1/DTD/svg11.dtd">
<svg xmlns:xlink="http://www.w3.org/1999/xlink" width="648pt" height="403.2pt" viewBox="0 0 648 403.2" xmlns="http://www.w3.org/2000/svg" version="1.1">
 <metadata>
  <rdf:RDF xmlns:dc="http://purl.org/dc/elements/1.1/" xmlns:cc="http://creativecommons.org/ns#" xmlns:rdf="http://www.w3.org/1999/02/22-rdf-syntax-ns#">
   <cc:Work>
    <dc:type rdf:resource="http://purl.org/dc/dcmitype/StillImage"/>
    <dc:format>image/svg+xml</dc:format>
    <dc:creator>
     <cc:Agent>
      <dc:title>Helix</dc:title>
     </cc:Agent>
    </dc:creator>
   </cc:Work>
  </rdf:RDF>
 </metadata>
 <defs>
  <style type="text/css">*{stroke-linejoin: round; stroke-linecap: butt}</style>
 </defs>
 <g id="figure_1">
  <g id="patch_1">
   <path d="M 0 403.2
L 648 403.2
L 648 0
L 0 0
z
" style="fill: #ffffff"/>
  </g>
  <g id="axes_1">
   <g id="patch_2">
    <path d="M 51.562344 238.578706
L 637.2 238.578706
L 637.2 26.16
L 51.562344 26.16
z
" style="fill: #ffffff"/>
   </g>
   <g id="matplotlib.axis_1">
    <g id="xtick_1">
     <g id="line2d_1">
      <path d="M 78.179649 238.578706
L 78.179649 26.16
" clip-path="url(#p29c9882062)" style="fill: none; stroke: #b0b0b0; stroke-opacity: 0.25; stroke-width: 0.8; stroke-linecap: square"/>
     </g>
     <g id="line2d_2">
      <defs>
       <path id="mc198b4002f" d="M 0 0
L 0 3.5
" style="stroke: #000000; stroke-width: 0.8"/>
      </defs>
      <g>
       <use xlink:href="#mc198b4002f" x="78.179649" y="238.578706" style="stroke: #000000; stroke-width: 0.8"/>
      </g>
     </g>
    </g>
    <g id="xtick_2">
     <g id="line2d_3">
      <path d="M 195.692796 238.578706
L 195.692796 26.16
" clip-path="url(#p29c9882062)" style="fill: none; stroke: #b0b0b0; stroke-opacity: 0.25; stroke-width: 0.8; stroke-linecap: square"/>
     </g>
     <g id="line2d_4">
      <g>
       <use xlink:href="#mc198b4002f" x="195.692796" y="238.578706" style="stroke: #000000; stroke-width: 0.8"/>
      </g>
     </g>
    </g>
    <g id="xtick_3">
     <g id="line2d_5">
      <path d="M 313.205943 238.578706
L 313.205943 26.16
" clip-path="url(#p29c9882062)" style="fill: none; stroke: #b0b0b0; stroke-opacity: 0.25; stroke-width: 0.8; stroke-linecap: square"/>
     </g>
     <g id="line2d_6">
      <g>
       <use xlink:href="#mc198b4002f" x="313.205943" y="238.578706" style="stroke: #000000; stroke-width: 0.8"/>
      </g>
     </g>
    </g>
    <g id="xtick_4">
     <g id="line2d_7">
      <path d="M 430.71909 238.578706
L 430.71909 26.16
" clip-path="url(#p29c9882062)" style="fill: none; stroke: #b0b0b0; stroke-opacity: 0.25; stroke-width: 0.8; stroke-linecap: square"/>
     </g>
     <g id="line2d_8">
      <g>
       <use xlink:href="#mc198b4002f" x="430.71909" y="238.578706" style="stroke: #000000; stroke-width: 0.8"/>
      </g>
     </g>
    </g>
    <g id="xtick_5">
     <g id="line2d_9">
      <path d="M 548.232237 238.578706
L 548.232237 26.16
" clip-path="url(#p29c9882062)" style="fill: none; stroke: #b0b0b0; stroke-opacity: 0.25; stroke-width: 0.8; stroke-linecap: square"/>
     </g>
     <g id="line2d_10">
      <g>
       <use xlink:href="#mc198b4002f" x="548.232237" y="238.578706" style="stroke: #000000; stroke-width: 0.8"/>
      </g>
     </g>
    </g>
   </g>
   <g id="matplotlib.axis_2">
    <g id="ytick_1">
     <g id="line2d_11">
      <path d="M 51.562344 223.447986
L 637.2 223.447986
" clip-path="url(#p29c9882062)" style="fill: none; stroke: #b0b0b0; stroke-opacity: 0.25; stroke-width: 0.8; stroke-linecap: square"/>
     </g>
     <g id="line2d_12">
      <defs>
       <path id="m2d3274dbf5" d="M 0 0
L -3.5 0
" style="stroke: #000000; stroke-width: 0.8"/>
      </defs>
      <g>
       <use xlink:href="#m2d3274dbf5" x="51.562344" y="223.447986" style="stroke: #000000; stroke-width: 0.8"/>
      </g>
     </g>
     <g id="text_1">
      <!-- 120 -->
      <g transform="translate(25.474844 227.246814) scale(0.1 -0.1)">
       <defs>
        <path id="DejaVuSans-14" d="M 794 531
L 1825 531
L 1825 4091
L 703 3866
L 703 4441
L 1819 4666
L 2450 4666
L 2450 531
L 3481 531
L 3481 0
L 794 0
L 794 531
z
" transform="scale(0.015625)"/>
        <path id="DejaVuSans-15" d="M 1228 531
L 3431 531
L 3431 0
L 469 0
L 469 531
Q 828 903 1448 1529
Q 2069 2156 2228 2338
Q 2531 2678 2651 2914
Q 2772 3150 2772 3378
Q 2772 3750 2511 3984
Q 2250 4219 1831 4219
Q 1534 4219 1204 4116
Q 875 4013 500 3803
L 500 4441
Q 881 4594 1212 4672
Q 1544 4750 1819 4750
Q 2544 4750 2975 4387
Q 3406 4025 3406 3419
Q 3406 3131 3298 2873
Q 3191 2616 2906 2266
Q 2828 2175 2409 1742
Q 1991 1309 1228 531
z
" transform="scale(0.015625)"/>
        <path id="DejaVuSans-13" d="M 2034 4250
Q 1547 4250 1301 3770
Q 1056 3291 1056 2328
Q 1056 1369 1301 889
Q 1547 409 2034 409
Q 2525 409 2770 889
Q 3016 1369 3016 2328
Q 3016 3291 2770 3770
Q 2525 4250 2034 4250
z
M 2034 4750
Q 2819 4750 3233 4129
Q 3647 3509 3647 2328
Q 3647 1150 3233 529
Q 2819 -91 2034 -91
Q 1250 -91 836 529
Q 422 1150 422 2328
Q 422 3509 836 4129
Q 1250 4750 2034 4750
z
" transform="scale(0.015625)"/>
       </defs>
       <use xlink:href="#DejaVuSans-14"/>
       <use xlink:href="#DejaVuSans-15" transform="translate(63.625 0)"/>
       <use xlink:href="#DejaVuSans-13" transform="translate(127.25 0)"/>
      </g>
     </g>
    </g>
    <g id="ytick_2">
     <g id="line2d_13">
      <path d="M 51.562344 196.9331
L 637.2 196.9331
" clip-path="url(#p29c9882062)" style="fill: none; stroke: #b0b0b0; stroke-opacity: 0.25; stroke-width: 0.8; stroke-linecap: square"/>
     </g>
     <g id="line2d_14">
      <g>
       <use xlink:href="#m2d3274dbf5" x="51.562344" y="196.9331" style="stroke: #000000; stroke-width: 0.8"/>
      </g>
     </g>
     <g id="text_2">
      <!-- 140 -->
      <g transform="translate(25.474844 200.731928) scale(0.1 -0.1)">
       <defs>
        <path id="DejaVuSans-17" d="M 2419 4116
L 825 1625
L 2419 1625
L 2419 4116
z
M 2253 4666
L 3047 4666
L 3047 1625
L 3713 1625
L 3713 1100
L 3047 1100
L 3047 0
L 2419 0
L 2419 1100
L 313 1100
L 313 1709
L 2253 4666
z
" transform="scale(0.015625)"/>
       </defs>
       <use xlink:href="#DejaVuSans-14"/>
       <use xlink:href="#DejaVuSans-17" transform="translate(63.625 0)"/>
       <use xlink:href="#DejaVuSans-13" transform="translate(127.25 0)"/>
      </g>
     </g>
    </g>
    <g id="ytick_3">
     <g id="line2d_15">
      <path d="M 51.562344 170.418214
L 637.2 170.418214
" clip-path="url(#p29c9882062)" style="fill: none; stroke: #b0b0b0; stroke-opacity: 0.25; stroke-width: 0.8; stroke-linecap: square"/>
     </g>
     <g id="line2d_16">
      <g>
       <use xlink:href="#m2d3274dbf5" x="51.562344" y="170.418214" style="stroke: #000000; stroke-width: 0.8"/>
      </g>
     </g>
     <g id="text_3">
      <!-- 160 -->
      <g transform="translate(25.474844 174.217042) scale(0.1 -0.1)">
       <defs>
        <path id="DejaVuSans-19" d="M 2113 2584
Q 1688 2584 1439 2293
Q 1191 2003 1191 1497
Q 1191 994 1439 701
Q 1688 409 2113 409
Q 2538 409 2786 701
Q 3034 994 3034 1497
Q 3034 2003 2786 2293
Q 2538 2584 2113 2584
z
M 3366 4563
L 3366 3988
Q 3128 4100 2886 4159
Q 2644 4219 2406 4219
Q 1781 4219 1451 3797
Q 1122 3375 1075 2522
Q 1259 2794 1537 2939
Q 1816 3084 2150 3084
Q 2853 3084 3261 2657
Q 3669 2231 3669 1497
Q 3669 778 3244 343
Q 2819 -91 2113 -91
Q 1303 -91 875 529
Q 447 1150 447 2328
Q 447 3434 972 4092
Q 1497 4750 2381 4750
Q 2619 4750 2861 4703
Q 3103 4656 3366 4563
z
" transform="scale(0.015625)"/>
       </defs>
       <use xlink:href="#DejaVuSans-14"/>
       <use xlink:href="#DejaVuSans-19" transform="translate(63.625 0)"/>
       <use xlink:href="#DejaVuSans-13" transform="translate(127.25 0)"/>
      </g>
     </g>
    </g>
    <g id="ytick_4">
     <g id="line2d_17">
      <path d="M 51.562344 143.903328
L 637.2 143.903328
" clip-path="url(#p29c9882062)" style="fill: none; stroke: #b0b0b0; stroke-opacity: 0.25; stroke-width: 0.8; stroke-linecap: square"/>
     </g>
     <g id="line2d_18">
      <g>
       <use xlink:href="#m2d3274dbf5" x="51.562344" y="143.903328" style="stroke: #000000; stroke-width: 0.8"/>
      </g>
     </g>
     <g id="text_4">
      <!-- 180 -->
      <g transform="translate(25.474844 147.702156) scale(0.1 -0.1)">
       <defs>
        <path id="DejaVuSans-1b" d="M 2034 2216
Q 1584 2216 1326 1975
Q 1069 1734 1069 1313
Q 1069 891 1326 650
Q 1584 409 2034 409
Q 2484 409 2743 651
Q 3003 894 3003 1313
Q 3003 1734 2745 1975
Q 2488 2216 2034 2216
z
M 1403 2484
Q 997 2584 770 2862
Q 544 3141 544 3541
Q 544 4100 942 4425
Q 1341 4750 2034 4750
Q 2731 4750 3128 4425
Q 3525 4100 3525 3541
Q 3525 3141 3298 2862
Q 3072 2584 2669 2484
Q 3125 2378 3379 2068
Q 3634 1759 3634 1313
Q 3634 634 3220 271
Q 2806 -91 2034 -91
Q 1263 -91 848 271
Q 434 634 434 1313
Q 434 1759 690 2068
Q 947 2378 1403 2484
z
M 1172 3481
Q 1172 3119 1398 2916
Q 1625 2713 2034 2713
Q 2441 2713 2670 2916
Q 2900 3119 2900 3481
Q 2900 3844 2670 4047
Q 2441 4250 2034 4250
Q 1625 4250 1398 4047
Q 1172 3844 1172 3481
z
" transform="scale(0.015625)"/>
       </defs>
       <use xlink:href="#DejaVuSans-14"/>
       <use xlink:href="#DejaVuSans-1b" transform="translate(63.625 0)"/>
       <use xlink:href="#DejaVuSans-13" transform="translate(127.25 0)"/>
      </g>
     </g>
    </g>
    <g id="ytick_5">
     <g id="line2d_19">
      <path d="M 51.562344 117.388442
L 637.2 117.388442
" clip-path="url(#p29c9882062)" style="fill: none; stroke: #b0b0b0; stroke-opacity: 0.25; stroke-width: 0.8; stroke-linecap: square"/>
     </g>
     <g id="line2d_20">
      <g>
       <use xlink:href="#m2d3274dbf5" x="51.562344" y="117.388442" style="stroke: #000000; stroke-width: 0.8"/>
      </g>
     </g>
     <g id="text_5">
      <!-- 200 -->
      <g transform="translate(25.474844 121.187271) scale(0.1 -0.1)">
       <use xlink:href="#DejaVuSans-15"/>
       <use xlink:href="#DejaVuSans-13" transform="translate(63.625 0)"/>
       <use xlink:href="#DejaVuSans-13" transform="translate(127.25 0)"/>
      </g>
     </g>
    </g>
    <g id="ytick_6">
     <g id="line2d_21">
      <path d="M 51.562344 90.873556
L 637.2 90.873556
" clip-path="url(#p29c9882062)" style="fill: none; stroke: #b0b0b0; stroke-opacity: 0.25; stroke-width: 0.8; stroke-linecap: square"/>
     </g>
     <g id="line2d_22">
      <g>
       <use xlink:href="#m2d3274dbf5" x="51.562344" y="90.873556" style="stroke: #000000; stroke-width: 0.8"/>
      </g>
     </g>
     <g id="text_6">
      <!-- 220 -->
      <g transform="translate(25.474844 94.672385) scale(0.1 -0.1)">
       <use xlink:href="#DejaVuSans-15"/>
       <use xlink:href="#DejaVuSans-15" transform="translate(63.625 0)"/>
       <use xlink:href="#DejaVuSans-13" transform="translate(127.25 0)"/>
      </g>
     </g>
    </g>
    <g id="ytick_7">
     <g id="line2d_23">
      <path d="M 51.562344 64.35867
L 637.2 64.35867
" clip-path="url(#p29c9882062)" style="fill: none; stroke: #b0b0b0; stroke-opacity: 0.25; stroke-width: 0.8; stroke-linecap: square"/>
     </g>
     <g id="line2d_24">
      <g>
       <use xlink:href="#m2d3274dbf5" x="51.562344" y="64.35867" style="stroke: #000000; stroke-width: 0.8"/>
      </g>
     </g>
     <g id="text_7">
      <!-- 240 -->
      <g transform="translate(25.474844 68.157499) scale(0.1 -0.1)">
       <use xlink:href="#DejaVuSans-15"/>
       <use xlink:href="#DejaVuSans-17" transform="translate(63.625 0)"/>
       <use xlink:href="#DejaVuSans-13" transform="translate(127.25 0)"/>
      </g>
     </g>
    </g>
    <g id="ytick_8">
     <g id="line2d_25">
      <path d="M 51.562344 37.843785
L 637.2 37.843785
" clip-path="url(#p29c9882062)" style="fill: none; stroke: #b0b0b0; stroke-opacity: 0.25; stroke-width: 0.8; stroke-linecap: square"/>
     </g>
     <g id="line2d_26">
      <g>
       <use xlink:href="#m2d3274dbf5" x="51.562344" y="37.843785" style="stroke: #000000; stroke-width: 0.8"/>
      </g>
     </g>
     <g id="text_8">
      <!-- 260 -->
      <g transform="translate(25.474844 41.642613) scale(0.1 -0.1)">
       <use xlink:href="#DejaVuSans-15"/>
       <use xlink:href="#DejaVuSans-19" transform="translate(63.625 0)"/>
       <use xlink:href="#DejaVuSans-13" transform="translate(127.25 0)"/>
      </g>
     </g>
    </g>
    <g id="text_9">
     <!-- Temperature (C) -->
     <g transform="translate(19.0725 173.02404) rotate(-90) scale(0.1 -0.1)">
      <defs>
       <path id="DejaVuSans-37" d="M -19 4666
L 3928 4666
L 3928 4134
L 2272 4134
L 2272 0
L 1638 0
L 1638 4134
L -19 4134
L -19 4666
z
" transform="scale(0.015625)"/>
       <path id="DejaVuSans-48" d="M 3597 1894
L 3597 1613
L 953 1613
Q 991 1019 1311 708
Q 1631 397 2203 397
Q 2534 397 2845 478
Q 3156 559 3463 722
L 3463 178
Q 3153 47 2828 -22
Q 2503 -91 2169 -91
Q 1331 -91 842 396
Q 353 884 353 1716
Q 353 2575 817 3079
Q 1281 3584 2069 3584
Q 2775 3584 3186 3129
Q 3597 2675 3597 1894
z
M 3022 2063
Q 3016 2534 2758 2815
Q 2500 3097 2075 3097
Q 1594 3097 1305 2825
Q 1016 2553 972 2059
L 3022 2063
z
" transform="scale(0.015625)"/>
       <path id="DejaVuSans-50" d="M 3328 2828
Q 3544 3216 3844 3400
Q 4144 3584 4550 3584
Q 5097 3584 5394 3201
Q 5691 2819 5691 2113
L 5691 0
L 5113 0
L 5113 2094
Q 5113 2597 4934 2840
Q 4756 3084 4391 3084
Q 3944 3084 3684 2787
Q 3425 2491 3425 1978
L 3425 0
L 2847 0
L 2847 2094
Q 2847 2600 2669 2842
Q 2491 3084 2119 3084
Q 1678 3084 1418 2786
Q 1159 2488 1159 1978
L 1159 0
L 581 0
L 581 3500
L 1159 3500
L 1159 2956
Q 1356 3278 1631 3431
Q 1906 3584 2284 3584
Q 2666 3584 2933 3390
Q 3200 3197 3328 2828
z
" transform="scale(0.015625)"/>
       <path id="DejaVuSans-53" d="M 1159 525
L 1159 -1331
L 581 -1331
L 581 3500
L 1159 3500
L 1159 2969
Q 1341 3281 1617 3432
Q 1894 3584 2278 3584
Q 2916 3584 3314 3078
Q 3713 2572 3713 1747
Q 3713 922 3314 415
Q 2916 -91 2278 -91
Q 1894 -91 1617 61
Q 1341 213 1159 525
z
M 3116 1747
Q 3116 2381 2855 2742
Q 2594 3103 2138 3103
Q 1681 3103 1420 2742
Q 1159 2381 1159 1747
Q 1159 1113 1420 752
Q 1681 391 2138 391
Q 2594 391 2855 752
Q 3116 1113 3116 1747
z
" transform="scale(0.015625)"/>
       <path id="DejaVuSans-55" d="M 2631 2963
Q 2534 3019 2420 3045
Q 2306 3072 2169 3072
Q 1681 3072 1420 2755
Q 1159 2438 1159 1844
L 1159 0
L 581 0
L 581 3500
L 1159 3500
L 1159 2956
Q 1341 3275 1631 3429
Q 1922 3584 2338 3584
Q 2397 3584 2469 3576
Q 2541 3569 2628 3553
L 2631 2963
z
" transform="scale(0.015625)"/>
       <path id="DejaVuSans-44" d="M 2194 1759
Q 1497 1759 1228 1600
Q 959 1441 959 1056
Q 959 750 1161 570
Q 1363 391 1709 391
Q 2188 391 2477 730
Q 2766 1069 2766 1631
L 2766 1759
L 2194 1759
z
M 3341 1997
L 3341 0
L 2766 0
L 2766 531
Q 2569 213 2275 61
Q 1981 -91 1556 -91
Q 1019 -91 701 211
Q 384 513 384 1019
Q 384 1609 779 1909
Q 1175 2209 1959 2209
L 2766 2209
L 2766 2266
Q 2766 2663 2505 2880
Q 2244 3097 1772 3097
Q 1472 3097 1187 3025
Q 903 2953 641 2809
L 641 3341
Q 956 3463 1253 3523
Q 1550 3584 1831 3584
Q 2591 3584 2966 3190
Q 3341 2797 3341 1997
z
" transform="scale(0.015625)"/>
       <path id="DejaVuSans-57" d="M 1172 4494
L 1172 3500
L 2356 3500
L 2356 3053
L 1172 3053
L 1172 1153
Q 1172 725 1289 603
Q 1406 481 1766 481
L 2356 481
L 2356 0
L 1766 0
Q 1100 0 847 248
Q 594 497 594 1153
L 594 3053
L 172 3053
L 172 3500
L 594 3500
L 594 4494
L 1172 4494
z
" transform="scale(0.015625)"/>
       <path id="DejaVuSans-58" d="M 544 1381
L 544 3500
L 1119 3500
L 1119 1403
Q 1119 906 1312 657
Q 1506 409 1894 409
Q 2359 409 2629 706
Q 2900 1003 2900 1516
L 2900 3500
L 3475 3500
L 3475 0
L 2900 0
L 2900 538
Q 2691 219 2414 64
Q 2138 -91 1772 -91
Q 1169 -91 856 284
Q 544 659 544 1381
z
M 1991 3584
L 1991 3584
z
" transform="scale(0.015625)"/>
       <path id="DejaVuSans-3" transform="scale(0.015625)"/>
       <path id="DejaVuSans-b" d="M 1984 4856
Q 1566 4138 1362 3434
Q 1159 2731 1159 2009
Q 1159 1288 1364 580
Q 1569 -128 1984 -844
L 1484 -844
Q 1016 -109 783 600
Q 550 1309 550 2009
Q 550 2706 781 3412
Q 1013 4119 1484 4856
L 1984 4856
z
" transform="scale(0.015625)"/>
       <path id="DejaVuSans-26" d="M 4122 4306
L 4122 3641
Q 3803 3938 3442 4084
Q 3081 4231 2675 4231
Q 1875 4231 1450 3742
Q 1025 3253 1025 2328
Q 1025 1406 1450 917
Q 1875 428 2675 428
Q 3081 428 3442 575
Q 3803 722 4122 1019
L 4122 359
Q 3791 134 3420 21
Q 3050 -91 2638 -91
Q 1578 -91 968 557
Q 359 1206 359 2328
Q 359 3453 968 4101
Q 1578 4750 2638 4750
Q 3056 4750 3426 4639
Q 3797 4528 4122 4306
z
" transform="scale(0.015625)"/>
       <path id="DejaVuSans-c" d="M 513 4856
L 1013 4856
Q 1481 4119 1714 3412
Q 1947 2706 1947 2009
Q 1947 1309 1714 600
Q 1481 -109 1013 -844
L 513 -844
Q 928 -128 1133 580
Q 1338 1288 1338 2009
Q 1338 2731 1133 3434
Q 928 4138 513 4856
z
" transform="scale(0.015625)"/>
      </defs>
      <use xlink:href="#DejaVuSans-37"/>
      <use xlink:href="#DejaVuSans-48" transform="translate(44.09375 0)"/>
      <use xlink:href="#DejaVuSans-50" transform="translate(105.625 0)"/>
      <use xlink:href="#DejaVuSans-53" transform="translate(203.03125 0)"/>
      <use xlink:href="#DejaVuSans-48" transform="translate(266.515625 0)"/>
      <use xlink:href="#DejaVuSans-55" transform="translate(328.046875 0)"/>
      <use xlink:href="#DejaVuSans-44" transform="translate(369.15625 0)"/>
      <use xlink:href="#DejaVuSans-57" transform="translate(430.4375 0)"/>
      <use xlink:href="#DejaVuSans-58" transform="translate(469.640625 0)"/>
      <use xlink:href="#DejaVuSans-55" transform="translate(533.015625 0)"/>
      <use xlink:href="#DejaVuSans-48" transform="translate(571.921875 0)"/>
      <use xlink:href="#DejaVuSans-3" transform="translate(633.453125 0)"/>
      <use xlink:href="#DejaVuSans-b" transform="translate(665.234375 0)"/>
      <use xlink:href="#DejaVuSans-26" transform="translate(704.25 0)"/>
      <use xlink:href="#DejaVuSans-c" transform="translate(774.078125 0)"/>
     </g>
    </g>
   </g>
   <g id="line2d_27">
    <path d="M 78.182237 227.8362
L 79.474647 228.565359
L 80.651444 228.92331
L 81.829417 228.843766
L 83.005811 228.167636
L 84.183767 226.961209
L 85.362394 226.192277
L 86.540255 224.429037
L 87.718147 222.413906
L 88.895915 221.340053
L 91.252088 216.752978
L 92.428792 215.559808
L 95.962671 208.215184
L 97.140917 206.982242
L 99.494726 202.076988
L 100.672661 200.857303
L 103.029091 196.031594
L 104.205814 194.838424
L 106.562081 190.158547
L 107.739871 189.005149
L 110.096425 184.471104
L 111.275214 183.344221
L 113.629547 178.94275
L 114.80685 177.85564
L 117.163142 173.586743
L 118.34027 172.539405
L 120.695621 168.41634
L 121.873341 167.408775
L 124.231021 163.405027
L 125.410109 162.410719
L 127.766821 158.526288
L 128.944407 157.571752
L 131.299732 153.819896
L 132.47611 152.891875
L 134.831474 149.23282
L 136.009046 148.331314
L 138.36203 144.804834
L 139.540344 143.943101
L 141.898168 140.535938
L 143.075636 139.687461
L 145.431768 136.359843
L 146.608677 135.537882
L 148.965197 132.303066
L 150.142914 131.494362
L 152.497418 128.365605
L 153.673336 127.596673
L 156.02669 124.560719
L 157.204345 123.805045
L 159.558346 120.848635
L 160.73501 120.132733
L 163.088516 117.229353
L 164.266133 116.513451
L 166.622212 113.716131
L 167.80078 113.026744
L 170.156597 110.29571
L 171.334349 109.632838
L 173.688396 107.007865
L 174.864208 106.35825
L 177.218428 103.812821
L 178.3963 103.176464
L 180.750061 100.684064
L 181.925973 100.060964
L 184.282241 97.621595
L 185.459893 97.011753
L 187.814013 94.651928
L 188.992263 94.0686
L 191.346619 91.73529
L 192.524309 91.151963
L 194.878938 88.871683
L 196.055406 88.301612
L 198.409795 86.114134
L 199.587329 85.570579
L 201.94307 83.383101
L 203.119179 82.879318
L 205.475433 80.771385
L 206.652901 80.267602
L 210.186535 77.258162
L 211.364529 76.75438
L 213.718239 74.858565
L 214.897288 74.36804
L 217.251283 72.49874
L 218.429115 72.021473
L 220.783513 70.16543
L 221.962374 69.688163
L 224.316439 67.871893
L 225.494357 67.434397
L 227.851404 65.6579
L 229.030264 65.233662
L 231.38411 63.470422
L 232.561962 63.046184
L 234.91865 61.349231
L 236.097328 60.951508
L 238.451247 59.267812
L 239.629211 58.856832
L 241.985746 57.252681
L 243.163182 56.868215
L 245.519267 55.343609
L 246.696571 54.972401
L 249.05097 53.540597
L 250.22996 53.182646
L 252.586715 51.724327
L 253.764911 51.339861
L 256.120098 49.84177
L 257.297252 49.497077
L 259.653648 48.158075
L 260.831415 47.853154
L 263.185411 46.514152
L 264.364157 46.195974
L 266.720236 44.936516
L 267.898081 44.60508
L 270.253575 43.372138
L 271.430368 43.106989
L 273.783893 42.006622
L 274.961434 41.75473
L 277.317631 40.773679
L 278.493848 40.535045
L 280.848825 39.633539
L 282.026322 39.42142
L 284.382344 38.718776
L 285.562115 38.506657
L 287.915993 37.857042
L 289.093132 37.724468
L 291.448823 37.2472
L 293.804535 36.929021
L 294.982758 36.716902
L 305.580552 35.89494
L 309.114167 35.828653
L 312.645269 35.89494
L 340.908653 37.273714
L 345.621495 37.525606
L 356.222839 37.750982
L 372.706092 38.016131
L 379.772244 38.016131
L 384.483862 38.016131
L 392.728367 38.002874
L 397.439068 38.029389
L 402.149955 37.910072
L 409.217239 37.883557
L 413.927461 37.843785
L 417.460186 37.870299
L 423.348011 37.830527
L 433.945665 37.81727
L 437.478971 37.830527
L 448.076777 37.843785
L 610.580107 37.857042
L 610.580107 37.857042
" clip-path="url(#p29c9882062)" style="fill: none; stroke: #1f77b4; stroke-width: 1.35; stroke-linecap: square"/>
   </g>
   <g id="line2d_28">
    <path d="M 51.562344 37.843785
L 637.2 37.843785
" clip-path="url(#p29c9882062)" style="fill: none; stroke-dasharray: 2.96,1.28; stroke-dashoffset: 0; stroke: #333333; stroke-width: 0.8"/>
   </g>
   <g id="patch_3">
    <path d="M 51.562344 238.578706
L 51.562344 26.16
" style="fill: none; stroke: #000000; stroke-width: 0.8; stroke-linejoin: miter; stroke-linecap: square"/>
   </g>
   <g id="patch_4">
    <path d="M 637.2 238.578706
L 637.2 26.16
" style="fill: none; stroke: #000000; stroke-width: 0.8; stroke-linejoin: miter; stroke-linecap: square"/>
   </g>
   <g id="patch_5">
    <path d="M 51.562344 238.578706
L 637.2 238.578706
" style="fill: none; stroke: #000000; stroke-width: 0.8; stroke-linejoin: miter; stroke-linecap: square"/>
   </g>
   <g id="patch_6">
    <path d="M 51.562344 26.16
L 637.2 26.16
" style="fill: none; stroke: #000000; stroke-width: 0.8; stroke-linejoin: miter; stroke-linecap: square"/>
   </g>
   <g id="text_10">
    <!-- Hotend-260C-Helix-MCU-symmetric-TL -->
    <g transform="translate(228.929922 20.16) scale(0.12 -0.12)">
     <defs>
      <path id="DejaVuSans-2b" d="M 628 4666
L 1259 4666
L 1259 2753
L 3553 2753
L 3553 4666
L 4184 4666
L 4184 0
L 3553 0
L 3553 2222
L 1259 2222
L 1259 0
L 628 0
L 628 4666
z
" transform="scale(0.015625)"/>
      <path id="DejaVuSans-52" d="M 1959 3097
Q 1497 3097 1228 2736
Q 959 2375 959 1747
Q 959 1119 1226 758
Q 1494 397 1959 397
Q 2419 397 2687 759
Q 2956 1122 2956 1747
Q 2956 2369 2687 2733
Q 2419 3097 1959 3097
z
M 1959 3584
Q 2709 3584 3137 3096
Q 3566 2609 3566 1747
Q 3566 888 3137 398
Q 2709 -91 1959 -91
Q 1206 -91 779 398
Q 353 888 353 1747
Q 353 2609 779 3096
Q 1206 3584 1959 3584
z
" transform="scale(0.015625)"/>
      <path id="DejaVuSans-51" d="M 3513 2113
L 3513 0
L 2938 0
L 2938 2094
Q 2938 2591 2744 2837
Q 2550 3084 2163 3084
Q 1697 3084 1428 2787
Q 1159 2491 1159 1978
L 1159 0
L 581 0
L 581 3500
L 1159 3500
L 1159 2956
Q 1366 3272 1645 3428
Q 1925 3584 2291 3584
Q 2894 3584 3203 3211
Q 3513 2838 3513 2113
z
" transform="scale(0.015625)"/>
      <path id="DejaVuSans-47" d="M 2906 2969
L 2906 4863
L 3481 4863
L 3481 0
L 2906 0
L 2906 525
Q 2725 213 2448 61
Q 2172 -91 1784 -91
Q 1150 -91 751 415
Q 353 922 353 1747
Q 353 2572 751 3078
Q 1150 3584 1784 3584
Q 2172 3584 2448 3432
Q 2725 3281 2906 2969
z
M 947 1747
Q 947 1113 1208 752
Q 1469 391 1925 391
Q 2381 391 2643 752
Q 2906 1113 2906 1747
Q 2906 2381 2643 2742
Q 2381 3103 1925 3103
Q 1469 3103 1208 2742
Q 947 2381 947 1747
z
" transform="scale(0.015625)"/>
      <path id="DejaVuSans-10" d="M 313 2009
L 1997 2009
L 1997 1497
L 313 1497
L 313 2009
z
" transform="scale(0.015625)"/>
      <path id="DejaVuSans-4f" d="M 603 4863
L 1178 4863
L 1178 0
L 603 0
L 603 4863
z
" transform="scale(0.015625)"/>
      <path id="DejaVuSans-4c" d="M 603 3500
L 1178 3500
L 1178 0
L 603 0
L 603 3500
z
M 603 4863
L 1178 4863
L 1178 4134
L 603 4134
L 603 4863
z
" transform="scale(0.015625)"/>
      <path id="DejaVuSans-5b" d="M 3513 3500
L 2247 1797
L 3578 0
L 2900 0
L 1881 1375
L 863 0
L 184 0
L 1544 1831
L 300 3500
L 978 3500
L 1906 2253
L 2834 3500
L 3513 3500
z
" transform="scale(0.015625)"/>
      <path id="DejaVuSans-30" d="M 628 4666
L 1569 4666
L 2759 1491
L 3956 4666
L 4897 4666
L 4897 0
L 4281 0
L 4281 4097
L 3078 897
L 2444 897
L 1241 4097
L 1241 0
L 628 0
L 628 4666
z
" transform="scale(0.015625)"/>
      <path id="DejaVuSans-38" d="M 556 4666
L 1191 4666
L 1191 1831
Q 1191 1081 1462 751
Q 1734 422 2344 422
Q 2950 422 3222 751
Q 3494 1081 3494 1831
L 3494 4666
L 4128 4666
L 4128 1753
Q 4128 841 3676 375
Q 3225 -91 2344 -91
Q 1459 -91 1007 375
Q 556 841 556 1753
L 556 4666
z
" transform="scale(0.015625)"/>
      <path id="DejaVuSans-56" d="M 2834 3397
L 2834 2853
Q 2591 2978 2328 3040
Q 2066 3103 1784 3103
Q 1356 3103 1142 2972
Q 928 2841 928 2578
Q 928 2378 1081 2264
Q 1234 2150 1697 2047
L 1894 2003
Q 2506 1872 2764 1633
Q 3022 1394 3022 966
Q 3022 478 2636 193
Q 2250 -91 1575 -91
Q 1294 -91 989 -36
Q 684 19 347 128
L 347 722
Q 666 556 975 473
Q 1284 391 1588 391
Q 1994 391 2212 530
Q 2431 669 2431 922
Q 2431 1156 2273 1281
Q 2116 1406 1581 1522
L 1381 1569
Q 847 1681 609 1914
Q 372 2147 372 2553
Q 372 3047 722 3315
Q 1072 3584 1716 3584
Q 2034 3584 2315 3537
Q 2597 3491 2834 3397
z
" transform="scale(0.015625)"/>
      <path id="DejaVuSans-5c" d="M 2059 -325
Q 1816 -950 1584 -1140
Q 1353 -1331 966 -1331
L 506 -1331
L 506 -850
L 844 -850
Q 1081 -850 1212 -737
Q 1344 -625 1503 -206
L 1606 56
L 191 3500
L 800 3500
L 1894 763
L 2988 3500
L 3597 3500
L 2059 -325
z
" transform="scale(0.015625)"/>
      <path id="DejaVuSans-46" d="M 3122 3366
L 3122 2828
Q 2878 2963 2633 3030
Q 2388 3097 2138 3097
Q 1578 3097 1268 2742
Q 959 2388 959 1747
Q 959 1106 1268 751
Q 1578 397 2138 397
Q 2388 397 2633 464
Q 2878 531 3122 666
L 3122 134
Q 2881 22 2623 -34
Q 2366 -91 2075 -91
Q 1284 -91 818 406
Q 353 903 353 1747
Q 353 2603 823 3093
Q 1294 3584 2113 3584
Q 2378 3584 2631 3529
Q 2884 3475 3122 3366
z
" transform="scale(0.015625)"/>
      <path id="DejaVuSans-2f" d="M 628 4666
L 1259 4666
L 1259 531
L 3531 531
L 3531 0
L 628 0
L 628 4666
z
" transform="scale(0.015625)"/>
     </defs>
     <use xlink:href="#DejaVuSans-2b"/>
     <use xlink:href="#DejaVuSans-52" transform="translate(75.203125 0)"/>
     <use xlink:href="#DejaVuSans-57" transform="translate(136.390625 0)"/>
     <use xlink:href="#DejaVuSans-48" transform="translate(175.59375 0)"/>
     <use xlink:href="#DejaVuSans-51" transform="translate(237.125 0)"/>
     <use xlink:href="#DejaVuSans-47" transform="translate(300.5 0)"/>
     <use xlink:href="#DejaVuSans-10" transform="translate(363.984375 0)"/>
     <use xlink:href="#DejaVuSans-15" transform="translate(400.0625 0)"/>
     <use xlink:href="#DejaVuSans-19" transform="translate(463.6875 0)"/>
     <use xlink:href="#DejaVuSans-13" transform="translate(527.3125 0)"/>
     <use xlink:href="#DejaVuSans-26" transform="translate(590.9375 0)"/>
     <use xlink:href="#DejaVuSans-10" transform="translate(660.765625 0)"/>
     <use xlink:href="#DejaVuSans-2b" transform="translate(696.84375 0)"/>
     <use xlink:href="#DejaVuSans-48" transform="translate(772.046875 0)"/>
     <use xlink:href="#DejaVuSans-4f" transform="translate(833.578125 0)"/>
     <use xlink:href="#DejaVuSans-4c" transform="translate(861.359375 0)"/>
     <use xlink:href="#DejaVuSans-5b" transform="translate(889.140625 0)"/>
     <use xlink:href="#DejaVuSans-10" transform="translate(948.328125 0)"/>
     <use xlink:href="#DejaVuSans-30" transform="translate(984.40625 0)"/>
     <use xlink:href="#DejaVuSans-26" transform="translate(1070.6875 0)"/>
     <use xlink:href="#DejaVuSans-38" transform="translate(1140.515625 0)"/>
     <use xlink:href="#DejaVuSans-10" transform="translate(1213.703125 0)"/>
     <use xlink:href="#DejaVuSans-56" transform="translate(1249.78125 0)"/>
     <use xlink:href="#DejaVuSans-5c" transform="translate(1301.875 0)"/>
     <use xlink:href="#DejaVuSans-50" transform="translate(1361.0625 0)"/>
     <use xlink:href="#DejaVuSans-50" transform="translate(1458.46875 0)"/>
     <use xlink:href="#DejaVuSans-48" transform="translate(1555.875 0)"/>
     <use xlink:href="#DejaVuSans-57" transform="translate(1617.40625 0)"/>
     <use xlink:href="#DejaVuSans-55" transform="translate(1656.609375 0)"/>
     <use xlink:href="#DejaVuSans-4c" transform="translate(1697.71875 0)"/>
     <use xlink:href="#DejaVuSans-46" transform="translate(1725.5 0)"/>
     <use xlink:href="#DejaVuSans-10" transform="translate(1780.484375 0)"/>
     <use xlink:href="#DejaVuSans-37" transform="translate(1807.390625 0)"/>
     <use xlink:href="#DejaVuSans-2f" transform="translate(1868.46875 0)"/>
    </g>
   </g>
   <g id="legend_1">
    <g id="patch_7">
     <path d="M 556.182813 233.578706
L 630.2 233.578706
Q 632.2 233.578706 632.2 231.578706
L 632.2 202.577143
Q 632.2 200.577143 630.2 200.577143
L 556.182813 200.577143
Q 554.182813 200.577143 554.182813 202.577143
L 554.182813 231.578706
Q 554.182813 233.578706 556.182813 233.578706
z
" style="fill: #ffffff; opacity: 0.8; stroke: #cccccc; stroke-linejoin: miter"/>
    </g>
    <g id="line2d_29">
     <path d="M 558.182813 208.675581
L 568.182813 208.675581
L 578.182813 208.675581
" style="fill: none; stroke: #1f77b4; stroke-width: 1.35; stroke-linecap: square"/>
    </g>
    <g id="text_11">
     <!-- MCU260 -->
     <g transform="translate(586.182813 212.175581) scale(0.1 -0.1)">
      <use xlink:href="#DejaVuSans-30"/>
      <use xlink:href="#DejaVuSans-26" transform="translate(86.28125 0)"/>
      <use xlink:href="#DejaVuSans-38" transform="translate(156.109375 0)"/>
      <use xlink:href="#DejaVuSans-15" transform="translate(229.296875 0)"/>
      <use xlink:href="#DejaVuSans-19" transform="translate(292.921875 0)"/>
      <use xlink:href="#DejaVuSans-13" transform="translate(356.546875 0)"/>
     </g>
    </g>
    <g id="line2d_30">
     <path d="M 558.182813 223.676362
L 568.182813 223.676362
L 578.182813 223.676362
" style="fill: none; stroke-dasharray: 2.96,1.28; stroke-dashoffset: 0; stroke: #333333; stroke-width: 0.8"/>
    </g>
    <g id="text_12">
     <!-- target -->
     <g transform="translate(586.182813 227.176362) scale(0.1 -0.1)">
      <defs>
       <path id="DejaVuSans-4a" d="M 2906 1791
Q 2906 2416 2648 2759
Q 2391 3103 1925 3103
Q 1463 3103 1205 2759
Q 947 2416 947 1791
Q 947 1169 1205 825
Q 1463 481 1925 481
Q 2391 481 2648 825
Q 2906 1169 2906 1791
z
M 3481 434
Q 3481 -459 3084 -895
Q 2688 -1331 1869 -1331
Q 1566 -1331 1297 -1286
Q 1028 -1241 775 -1147
L 775 -588
Q 1028 -725 1275 -790
Q 1522 -856 1778 -856
Q 2344 -856 2625 -561
Q 2906 -266 2906 331
L 2906 616
Q 2728 306 2450 153
Q 2172 0 1784 0
Q 1141 0 747 490
Q 353 981 353 1791
Q 353 2603 747 3093
Q 1141 3584 1784 3584
Q 2172 3584 2450 3431
Q 2728 3278 2906 2969
L 2906 3500
L 3481 3500
L 3481 434
z
" transform="scale(0.015625)"/>
      </defs>
      <use xlink:href="#DejaVuSans-57"/>
      <use xlink:href="#DejaVuSans-44" transform="translate(39.203125 0)"/>
      <use xlink:href="#DejaVuSans-55" transform="translate(100.484375 0)"/>
      <use xlink:href="#DejaVuSans-4a" transform="translate(139.84375 0)"/>
      <use xlink:href="#DejaVuSans-48" transform="translate(203.328125 0)"/>
      <use xlink:href="#DejaVuSans-57" transform="translate(264.859375 0)"/>
     </g>
    </g>
   </g>
  </g>
  <g id="axes_2">
   <g id="patch_8">
    <path d="M 51.562344 361.077656
L 637.2 361.077656
L 637.2 254.868303
L 51.562344 254.868303
z
" style="fill: #ffffff"/>
   </g>
   <g id="matplotlib.axis_3">
    <g id="xtick_6">
     <g id="line2d_31">
      <path d="M 78.179649 361.077656
L 78.179649 254.868303
" clip-path="url(#pad5036e345)" style="fill: none; stroke: #b0b0b0; stroke-opacity: 0.25; stroke-width: 0.8; stroke-linecap: square"/>
     </g>
     <g id="line2d_32">
      <g>
       <use xlink:href="#mc198b4002f" x="78.179649" y="361.077656" style="stroke: #000000; stroke-width: 0.8"/>
      </g>
     </g>
     <g id="text_13">
      <!-- 0 -->
      <g transform="translate(74.998399 375.675313) scale(0.1 -0.1)">
       <use xlink:href="#DejaVuSans-13"/>
      </g>
     </g>
    </g>
    <g id="xtick_7">
     <g id="line2d_33">
      <path d="M 195.692796 361.077656
L 195.692796 254.868303
" clip-path="url(#pad5036e345)" style="fill: none; stroke: #b0b0b0; stroke-opacity: 0.25; stroke-width: 0.8; stroke-linecap: square"/>
     </g>
     <g id="line2d_34">
      <g>
       <use xlink:href="#mc198b4002f" x="195.692796" y="361.077656" style="stroke: #000000; stroke-width: 0.8"/>
      </g>
     </g>
     <g id="text_14">
      <!-- 50 -->
      <g transform="translate(189.330296 375.675313) scale(0.1 -0.1)">
       <defs>
        <path id="DejaVuSans-18" d="M 691 4666
L 3169 4666
L 3169 4134
L 1269 4134
L 1269 2991
Q 1406 3038 1543 3061
Q 1681 3084 1819 3084
Q 2600 3084 3056 2656
Q 3513 2228 3513 1497
Q 3513 744 3044 326
Q 2575 -91 1722 -91
Q 1428 -91 1123 -41
Q 819 9 494 109
L 494 744
Q 775 591 1075 516
Q 1375 441 1709 441
Q 2250 441 2565 725
Q 2881 1009 2881 1497
Q 2881 1984 2565 2268
Q 2250 2553 1709 2553
Q 1456 2553 1204 2497
Q 953 2441 691 2322
L 691 4666
z
" transform="scale(0.015625)"/>
       </defs>
       <use xlink:href="#DejaVuSans-18"/>
       <use xlink:href="#DejaVuSans-13" transform="translate(63.625 0)"/>
      </g>
     </g>
    </g>
    <g id="xtick_8">
     <g id="line2d_35">
      <path d="M 313.205943 361.077656
L 313.205943 254.868303
" clip-path="url(#pad5036e345)" style="fill: none; stroke: #b0b0b0; stroke-opacity: 0.25; stroke-width: 0.8; stroke-linecap: square"/>
     </g>
     <g id="line2d_36">
      <g>
       <use xlink:href="#mc198b4002f" x="313.205943" y="361.077656" style="stroke: #000000; stroke-width: 0.8"/>
      </g>
     </g>
     <g id="text_15">
      <!-- 100 -->
      <g transform="translate(303.662193 375.675313) scale(0.1 -0.1)">
       <use xlink:href="#DejaVuSans-14"/>
       <use xlink:href="#DejaVuSans-13" transform="translate(63.625 0)"/>
       <use xlink:href="#DejaVuSans-13" transform="translate(127.25 0)"/>
      </g>
     </g>
    </g>
    <g id="xtick_9">
     <g id="line2d_37">
      <path d="M 430.71909 361.077656
L 430.71909 254.868303
" clip-path="url(#pad5036e345)" style="fill: none; stroke: #b0b0b0; stroke-opacity: 0.25; stroke-width: 0.8; stroke-linecap: square"/>
     </g>
     <g id="line2d_38">
      <g>
       <use xlink:href="#mc198b4002f" x="430.71909" y="361.077656" style="stroke: #000000; stroke-width: 0.8"/>
      </g>
     </g>
     <g id="text_16">
      <!-- 150 -->
      <g transform="translate(421.17534 375.675313) scale(0.1 -0.1)">
       <use xlink:href="#DejaVuSans-14"/>
       <use xlink:href="#DejaVuSans-18" transform="translate(63.625 0)"/>
       <use xlink:href="#DejaVuSans-13" transform="translate(127.25 0)"/>
      </g>
     </g>
    </g>
    <g id="xtick_10">
     <g id="line2d_39">
      <path d="M 548.232237 361.077656
L 548.232237 254.868303
" clip-path="url(#pad5036e345)" style="fill: none; stroke: #b0b0b0; stroke-opacity: 0.25; stroke-width: 0.8; stroke-linecap: square"/>
     </g>
     <g id="line2d_40">
      <g>
       <use xlink:href="#mc198b4002f" x="548.232237" y="361.077656" style="stroke: #000000; stroke-width: 0.8"/>
      </g>
     </g>
     <g id="text_17">
      <!-- 200 -->
      <g transform="translate(538.688487 375.675313) scale(0.1 -0.1)">
       <use xlink:href="#DejaVuSans-15"/>
       <use xlink:href="#DejaVuSans-13" transform="translate(63.625 0)"/>
       <use xlink:href="#DejaVuSans-13" transform="translate(127.25 0)"/>
      </g>
     </g>
    </g>
    <g id="text_18">
     <!-- Elapsed time (s) -->
     <g transform="translate(303.758516 389.676094) scale(0.1 -0.1)">
      <defs>
       <path id="DejaVuSans-28" d="M 628 4666
L 3578 4666
L 3578 4134
L 1259 4134
L 1259 2753
L 3481 2753
L 3481 2222
L 1259 2222
L 1259 531
L 3634 531
L 3634 0
L 628 0
L 628 4666
z
" transform="scale(0.015625)"/>
      </defs>
      <use xlink:href="#DejaVuSans-28"/>
      <use xlink:href="#DejaVuSans-4f" transform="translate(63.1875 0)"/>
      <use xlink:href="#DejaVuSans-44" transform="translate(90.96875 0)"/>
      <use xlink:href="#DejaVuSans-53" transform="translate(152.25 0)"/>
      <use xlink:href="#DejaVuSans-56" transform="translate(215.734375 0)"/>
      <use xlink:href="#DejaVuSans-48" transform="translate(267.828125 0)"/>
      <use xlink:href="#DejaVuSans-47" transform="translate(329.359375 0)"/>
      <use xlink:href="#DejaVuSans-3" transform="translate(392.84375 0)"/>
      <use xlink:href="#DejaVuSans-57" transform="translate(424.625 0)"/>
      <use xlink:href="#DejaVuSans-4c" transform="translate(463.828125 0)"/>
      <use xlink:href="#DejaVuSans-50" transform="translate(491.609375 0)"/>
      <use xlink:href="#DejaVuSans-48" transform="translate(589.015625 0)"/>
      <use xlink:href="#DejaVuSans-3" transform="translate(650.546875 0)"/>
      <use xlink:href="#DejaVuSans-b" transform="translate(682.328125 0)"/>
      <use xlink:href="#DejaVuSans-56" transform="translate(721.34375 0)"/>
      <use xlink:href="#DejaVuSans-c" transform="translate(773.4375 0)"/>
     </g>
    </g>
   </g>
   <g id="matplotlib.axis_4">
    <g id="ytick_9">
     <g id="line2d_41">
      <path d="M 51.562344 359.035169
L 637.2 359.035169
" clip-path="url(#pad5036e345)" style="fill: none; stroke: #b0b0b0; stroke-opacity: 0.25; stroke-width: 0.8; stroke-linecap: square"/>
     </g>
     <g id="line2d_42">
      <g>
       <use xlink:href="#m2d3274dbf5" x="51.562344" y="359.035169" style="stroke: #000000; stroke-width: 0.8"/>
      </g>
     </g>
     <g id="text_19">
      <!-- 0 -->
      <g transform="translate(38.199844 362.833997) scale(0.1 -0.1)">
       <use xlink:href="#DejaVuSans-13"/>
      </g>
     </g>
    </g>
    <g id="ytick_10">
     <g id="line2d_43">
      <path d="M 51.562344 333.504074
L 637.2 333.504074
" clip-path="url(#pad5036e345)" style="fill: none; stroke: #b0b0b0; stroke-opacity: 0.25; stroke-width: 0.8; stroke-linecap: square"/>
     </g>
     <g id="line2d_44">
      <g>
       <use xlink:href="#m2d3274dbf5" x="51.562344" y="333.504074" style="stroke: #000000; stroke-width: 0.8"/>
      </g>
     </g>
     <g id="text_20">
      <!-- 25 -->
      <g transform="translate(31.837344 337.302902) scale(0.1 -0.1)">
       <use xlink:href="#DejaVuSans-15"/>
       <use xlink:href="#DejaVuSans-18" transform="translate(63.625 0)"/>
      </g>
     </g>
    </g>
    <g id="ytick_11">
     <g id="line2d_45">
      <path d="M 51.562344 307.97298
L 637.2 307.97298
" clip-path="url(#pad5036e345)" style="fill: none; stroke: #b0b0b0; stroke-opacity: 0.25; stroke-width: 0.8; stroke-linecap: square"/>
     </g>
     <g id="line2d_46">
      <g>
       <use xlink:href="#m2d3274dbf5" x="51.562344" y="307.97298" style="stroke: #000000; stroke-width: 0.8"/>
      </g>
     </g>
     <g id="text_21">
      <!-- 50 -->
      <g transform="translate(31.837344 311.771808) scale(0.1 -0.1)">
       <use xlink:href="#DejaVuSans-18"/>
       <use xlink:href="#DejaVuSans-13" transform="translate(63.625 0)"/>
      </g>
     </g>
    </g>
    <g id="ytick_12">
     <g id="line2d_47">
      <path d="M 51.562344 282.441885
L 637.2 282.441885
" clip-path="url(#pad5036e345)" style="fill: none; stroke: #b0b0b0; stroke-opacity: 0.25; stroke-width: 0.8; stroke-linecap: square"/>
     </g>
     <g id="line2d_48">
      <g>
       <use xlink:href="#m2d3274dbf5" x="51.562344" y="282.441885" style="stroke: #000000; stroke-width: 0.8"/>
      </g>
     </g>
     <g id="text_22">
      <!-- 75 -->
      <g transform="translate(31.837344 286.240713) scale(0.1 -0.1)">
       <defs>
        <path id="DejaVuSans-1a" d="M 525 4666
L 3525 4666
L 3525 4397
L 1831 0
L 1172 0
L 2766 4134
L 525 4134
L 525 4666
z
" transform="scale(0.015625)"/>
       </defs>
       <use xlink:href="#DejaVuSans-1a"/>
       <use xlink:href="#DejaVuSans-18" transform="translate(63.625 0)"/>
      </g>
     </g>
    </g>
    <g id="ytick_13">
     <g id="line2d_49">
      <path d="M 51.562344 256.910791
L 637.2 256.910791
" clip-path="url(#pad5036e345)" style="fill: none; stroke: #b0b0b0; stroke-opacity: 0.25; stroke-width: 0.8; stroke-linecap: square"/>
     </g>
     <g id="line2d_50">
      <g>
       <use xlink:href="#m2d3274dbf5" x="51.562344" y="256.910791" style="stroke: #000000; stroke-width: 0.8"/>
      </g>
     </g>
     <g id="text_23">
      <!-- 100 -->
      <g transform="translate(25.474844 260.709619) scale(0.1 -0.1)">
       <use xlink:href="#DejaVuSans-14"/>
       <use xlink:href="#DejaVuSans-13" transform="translate(63.625 0)"/>
       <use xlink:href="#DejaVuSans-13" transform="translate(127.25 0)"/>
      </g>
     </g>
    </g>
    <g id="text_24">
     <!-- Duty (%) -->
     <g transform="translate(19.0725 330.152667) rotate(-90) scale(0.1 -0.1)">
      <defs>
       <path id="DejaVuSans-27" d="M 1259 4147
L 1259 519
L 2022 519
Q 2988 519 3436 956
Q 3884 1394 3884 2338
Q 3884 3275 3436 3711
Q 2988 4147 2022 4147
L 1259 4147
z
M 628 4666
L 1925 4666
Q 3281 4666 3915 4102
Q 4550 3538 4550 2338
Q 4550 1131 3912 565
Q 3275 0 1925 0
L 628 0
L 628 4666
z
" transform="scale(0.015625)"/>
       <path id="DejaVuSans-8" d="M 4653 2053
Q 4381 2053 4226 1822
Q 4072 1591 4072 1178
Q 4072 772 4226 539
Q 4381 306 4653 306
Q 4919 306 5073 539
Q 5228 772 5228 1178
Q 5228 1588 5073 1820
Q 4919 2053 4653 2053
z
M 4653 2450
Q 5147 2450 5437 2106
Q 5728 1763 5728 1178
Q 5728 594 5436 251
Q 5144 -91 4653 -91
Q 4153 -91 3862 251
Q 3572 594 3572 1178
Q 3572 1766 3864 2108
Q 4156 2450 4653 2450
z
M 1428 4353
Q 1159 4353 1004 4120
Q 850 3888 850 3481
Q 850 3069 1003 2837
Q 1156 2606 1428 2606
Q 1700 2606 1854 2837
Q 2009 3069 2009 3481
Q 2009 3884 1853 4118
Q 1697 4353 1428 4353
z
M 4250 4750
L 4750 4750
L 1831 -91
L 1331 -91
L 4250 4750
z
M 1428 4750
Q 1922 4750 2215 4408
Q 2509 4066 2509 3481
Q 2509 2891 2217 2550
Q 1925 2209 1428 2209
Q 931 2209 642 2551
Q 353 2894 353 3481
Q 353 4063 643 4406
Q 934 4750 1428 4750
z
" transform="scale(0.015625)"/>
      </defs>
      <use xlink:href="#DejaVuSans-27"/>
      <use xlink:href="#DejaVuSans-58" transform="translate(77 0)"/>
      <use xlink:href="#DejaVuSans-57" transform="translate(140.375 0)"/>
      <use xlink:href="#DejaVuSans-5c" transform="translate(179.578125 0)"/>
      <use xlink:href="#DejaVuSans-3" transform="translate(238.765625 0)"/>
      <use xlink:href="#DejaVuSans-b" transform="translate(270.546875 0)"/>
      <use xlink:href="#DejaVuSans-8" transform="translate(309.5625 0)"/>
      <use xlink:href="#DejaVuSans-c" transform="translate(404.578125 0)"/>
     </g>
    </g>
   </g>
   <g id="line2d_51">
    <path d="M 78.182237 359.035169
L 79.474647 256.910791
L 238.451247 256.910791
L 239.629211 259.19061
L 240.808075 259.19061
L 241.985746 258.397426
L 243.163182 258.397426
L 244.340847 259.530324
L 247.87324 259.595773
L 249.05097 259.212427
L 250.22996 259.212427
L 251.408046 258.503392
L 252.586715 258.503392
L 253.764911 260.025869
L 254.941439 260.025869
L 256.120098 258.91323
L 257.297252 258.91323
L 258.474883 257.52321
L 259.653648 257.52321
L 260.831415 258.673249
L 262.007469 258.673249
L 263.185411 262.120248
L 264.364157 262.120248
L 265.541498 261.93325
L 266.720236 261.93325
L 267.898081 264.281636
L 269.076133 264.281636
L 270.253575 265.029628
L 271.430368 265.029628
L 272.608097 266.118893
L 273.783893 266.118893
L 274.961434 266.866885
L 276.139872 266.866885
L 277.317631 269.11398
L 278.493848 269.11398
L 279.671675 271.897136
L 280.848825 271.897136
L 282.026322 273.534929
L 283.204863 273.534929
L 284.382344 273.840359
L 285.562115 273.840359
L 286.739322 277.038028
L 287.915993 277.038028
L 289.093132 277.689405
L 290.271324 277.689405
L 291.448823 279.218115
L 292.627029 279.218115
L 293.804535 281.025764
L 294.982758 281.025764
L 296.160177 282.990803
L 297.338106 282.990803
L 298.515301 283.685813
L 299.69173 283.685813
L 300.869343 285.445154
L 302.047726 285.445154
L 303.225263 286.099648
L 304.403136 286.099648
L 305.580552 287.899505
L 306.758274 287.899505
L 307.93575 288.013262
L 309.114167 288.013262
L 310.292169 288.952928
L 311.467708 288.952928
L 312.645269 287.759256
L 313.822598 287.759256
L 315.00009 289.021494
L 316.177572 289.021494
L 317.355494 287.897947
L 318.531117 287.897947
L 319.708958 289.501456
L 320.887251 289.501456
L 322.064847 289.778837
L 323.243239 289.778837
L 324.420761 290.858751
L 325.598557 290.858751
L 326.776493 291.048866
L 327.954741 291.048866
L 329.132346 290.478521
L 330.308378 290.478521
L 331.485873 290.316456
L 332.663956 290.316456
L 333.841348 289.306666
L 335.019218 289.306666
L 336.196738 289.710271
L 337.375056 289.710271
L 338.552526 288.605423
L 339.73061 288.605423
L 340.908653 287.37591
L 342.087693 287.37591
L 343.265512 289.241217
L 344.443768 289.241217
L 345.621495 288.521274
L 346.799261 288.521274
L 347.977331 289.588722
L 351.511261 289.579372
L 352.688965 289.024611
L 353.865306 289.024611
L 355.043202 289.325366
L 356.222839 289.325366
L 357.400951 288.189352
L 358.576371 288.189352
L 359.753972 287.22787
L 363.286922 287.268386
L 364.46466 288.09897
L 365.642714 288.09897
L 366.820679 287.910413
L 367.9965 287.910413
L 369.174294 287.293319
L 370.352469 287.293319
L 371.53021 285.895508
L 372.706092 285.895508
L 373.883563 286.900623
L 375.061309 286.900623
L 376.238631 287.642382
L 377.416605 287.642382
L 378.593889 287.400843
L 379.772244 287.400843
L 380.950019 287.807564
L 384.483862 287.724973
L 385.661723 287.495901
L 386.839961 287.495901
L 388.017977 288.621006
L 389.195867 288.621006
L 390.373463 286.333395
L 391.551346 286.333395
L 392.728367 286.592076
L 393.906225 286.592076
L 395.084106 286.250804
L 396.262 286.250804
L 397.439068 286.871015
L 398.617071 286.871015
L 399.794687 288.373234
L 400.972584 288.373234
L 402.149955 288.631914
L 403.327948 288.631914
L 404.505298 287.583166
L 410.395039 287.59875
L 411.572367 287.90418
L 412.750174 287.90418
L 413.927461 285.876808
L 415.105298 285.876808
L 416.282449 288.153511
L 417.460186 288.153511
L 418.63744 286.39417
L 419.815489 286.39417
L 420.992511 287.416426
L 422.170726 287.416426
L 423.348011 288.938903
L 424.526322 288.938903
L 425.703772 289.819353
L 426.881621 289.819353
L 428.059147 287.91353
L 429.23462 287.91353
L 430.411858 287.483434
L 431.589626 287.483434
L 432.767833 287.266828
L 433.945665 287.266828
L 435.123525 287.058013
L 436.301201 287.058013
L 437.478971 289.230309
L 438.656382 289.230309
L 439.834276 286.713625
L 441.011826 286.713625
L 442.189587 288.105203
L 443.367026 288.105203
L 444.544889 289.150834
L 445.721238 289.150834
L 446.899164 287.354094
L 450.432464 287.421101
L 451.610298 287.603424
L 452.788262 287.603424
L 453.965863 287.433568
L 455.143562 287.433568
L 456.321333 286.691808
L 457.499214 286.691808
L 458.67666 287.23722
L 459.854363 287.23722
L 461.031976 288.201819
L 464.565607 288.142603
L 465.743117 288.002354
L 466.920122 288.002354
L 468.097956 287.717182
L 469.275718 287.717182
L 470.453623 288.591398
L 471.629311 288.591398
L 472.807278 288.002354
L 473.98509 288.002354
L 475.163105 287.757698
L 476.340889 287.757698
L 477.517821 288.968511
L 478.693007 288.968511
L 479.86974 288.251685
L 481.046985 288.251685
L 482.225832 287.17177
L 485.760633 287.078271
L 488.114987 287.059571
L 489.291257 288.251685
L 490.468459 288.251685
L 491.647257 287.282411
L 492.824818 287.282411
L 494.002017 288.76593
L 495.179495 288.76593
L 496.35598 288.088061
L 497.533595 288.088061
L 498.710096 288.723855
L 499.885899 288.723855
L 501.062686 286.765049
L 504.597284 286.738558
L 505.77566 287.332277
L 509.309874 287.266828
L 510.48635 287.656407
L 511.663973 287.656407
L 512.840738 288.764371
L 514.01817 288.764371
L 515.197245 288.21896
L 516.374904 288.21896
L 517.552088 288.722297
L 518.729678 288.722297
L 519.906699 286.919323
L 521.084624 286.919323
L 522.26296 287.212287
L 523.440401 287.212287
L 524.618962 288.557115
L 525.796661 288.557115
L 526.975201 287.139046
L 528.155012 287.139046
L 529.333629 288.208052
L 530.511 288.208052
L 531.689685 287.687574
L 532.86702 287.687574
L 534.04392 288.45115
L 537.576816 288.474524
L 538.753446 289.157068
L 539.932232 289.157068
L 541.109276 288.24701
L 542.287076 288.24701
L 543.463411 289.057335
L 544.643462 289.057335
L 545.819542 288.434008
L 546.997323 288.434008
L 548.176317 287.832497
L 551.710916 287.899505
L 552.887656 286.86634
L 554.065566 286.86634
L 555.244053 287.629916
L 556.421604 287.629916
L 557.600513 287.936905
L 558.778553 287.936905
L 559.954853 287.167095
L 561.132971 287.167095
L 562.309417 289.964276
L 563.487115 289.964276
L 564.666132 288.119228
L 565.843621 288.119228
L 567.022711 288.367
L 568.200246 288.367
L 569.376399 288.670872
L 570.553739 288.670872
L 571.732559 288.996561
L 572.91026 288.996561
L 574.086727 288.232985
L 575.263982 288.232985
L 576.442984 287.492784
L 577.620697 287.492784
L 578.797647 287.802889
L 579.973194 287.802889
L 581.150089 286.232105
L 582.327603 286.232105
L 583.504265 288.211169
L 584.681923 288.211169
L 585.859006 287.869897
L 587.036239 287.869897
L 588.212803 288.315576
L 589.390568 288.315576
L 590.567216 287.735882
L 591.744482 287.735882
L 592.921208 287.380585
L 594.098505 287.380585
L 595.275124 288.161302
L 596.452656 288.161302
L 597.629062 288.875012
L 598.806323 288.875012
L 599.985049 288.331159
L 601.162601 288.331159
L 602.339336 287.550442
L 603.516948 287.550442
L 604.693975 287.72809
L 605.869071 287.72809
L 607.045982 288.155069
L 608.223532 288.155069
L 609.402536 288.039754
L 610.580107 288.039754
L 610.580107 288.039754
" clip-path="url(#pad5036e345)" style="fill: none; stroke: #1f77b4; stroke-linecap: square"/>
   </g>
   <g id="patch_9">
    <path d="M 51.562344 361.077656
L 51.562344 254.868303
" style="fill: none; stroke: #000000; stroke-width: 0.8; stroke-linejoin: miter; stroke-linecap: square"/>
   </g>
   <g id="patch_10">
    <path d="M 637.2 361.077656
L 637.2 254.868303
" style="fill: none; stroke: #000000; stroke-width: 0.8; stroke-linejoin: miter; stroke-linecap: square"/>
   </g>
   <g id="patch_11">
    <path d="M 51.562344 361.077656
L 637.2 361.077656
" style="fill: none; stroke: #000000; stroke-width: 0.8; stroke-linejoin: miter; stroke-linecap: square"/>
   </g>
   <g id="patch_12">
    <path d="M 51.562344 254.868303
L 637.2 254.868303
" style="fill: none; stroke: #000000; stroke-width: 0.8; stroke-linejoin: miter; stroke-linecap: square"/>
   </g>
  </g>
 </g>
 <defs>
  <clipPath id="p29c9882062">
   <rect x="51.562344" y="26.16" width="585.637656" height="212.418706"/>
  </clipPath>
  <clipPath id="pad5036e345">
   <rect x="51.562344" y="254.868303" width="585.637656" height="106.209353"/>
  </clipPath>
 </defs>
</svg>
