<svg xmlns="http://www.w3.org/2000/svg" width="920" height="570" viewBox="0 0 920 570">
<rect width="100%" height="100%" fill="#fff"/>
<style>text{font-family:system-ui,sans-serif;fill:#17202a}.axis{stroke:#5d6d7e;stroke-width:1}.grid{stroke:#d5d8dc;stroke-width:1}.raw{fill:none;stroke:#2471a3;stroke-width:1.5}.fit{fill:none;stroke:#c0392b;stroke-width:2}.power{fill:none;stroke:#7d3c98;stroke-width:1.5}</style>
<text x="460" y="25" text-anchor="middle" font-size="18" font-weight="600">Hotend thermal response - 100 C, 30 s period</text>
<rect x="405.86" y="48" width="490.14" height="322" fill="#eaf2f8"/>
<line class="axis" x1="78" y1="370" x2="896" y2="370"/>
<line class="axis" x1="78" y1="48" x2="78" y2="370"/>
<line class="axis" x1="78" y1="522" x2="896" y2="522"/>
<line class="axis" x1="78" y1="414" x2="78" y2="522"/>
<line class="grid" x1="78" y1="48.00" x2="896" y2="48.00"/>
<text x="70" y="52.00" text-anchor="end" font-size="12">105.49</text>
<line class="grid" x1="78" y1="128.50" x2="896" y2="128.50"/>
<text x="70" y="132.50" text-anchor="end" font-size="12">103.97</text>
<line class="grid" x1="78" y1="209.00" x2="896" y2="209.00"/>
<text x="70" y="213.00" text-anchor="end" font-size="12">102.46</text>
<line class="grid" x1="78" y1="289.50" x2="896" y2="289.50"/>
<text x="70" y="293.50" text-anchor="end" font-size="12">100.94</text>
<line class="grid" x1="78" y1="370.00" x2="896" y2="370.00"/>
<text x="70" y="374.00" text-anchor="end" font-size="12">99.42</text>
<line class="grid" x1="78.00" y1="48" x2="78.00" y2="370"/>
<text x="78.00" y="550" text-anchor="middle" font-size="12">0</text>
<line class="grid" x1="241.60" y1="48" x2="241.60" y2="370"/>
<text x="241.60" y="550" text-anchor="middle" font-size="12">30</text>
<line class="grid" x1="405.20" y1="48" x2="405.20" y2="370"/>
<text x="405.20" y="550" text-anchor="middle" font-size="12">60</text>
<line class="grid" x1="568.80" y1="48" x2="568.80" y2="370"/>
<text x="568.80" y="550" text-anchor="middle" font-size="12">90</text>
<line class="grid" x1="732.40" y1="48" x2="732.40" y2="370"/>
<text x="732.40" y="550" text-anchor="middle" font-size="12">120</text>
<line class="grid" x1="896.00" y1="48" x2="896.00" y2="370"/>
<text x="896.00" y="550" text-anchor="middle" font-size="12">150</text>
<polyline class="raw" points="78.00,347.79 79.64,347.12 81.28,346.34 82.92,345.56 84.56,344.55 86.20,343.32 87.84,342.21 89.47,341.09 91.11,339.86 92.75,338.63 94.39,337.07 96.03,335.61 97.67,333.71 99.31,332.04 100.95,330.36 102.59,328.46 104.23,326.34 105.87,324.22 107.51,322.10 109.15,320.20 110.79,317.63 112.42,315.40 114.06,313.16 115.70,310.82 117.34,308.36 118.98,305.68 120.62,303.34 122.26,300.55 123.90,297.87 125.54,295.08 127.18,292.73 128.82,290.16 130.46,287.48 132.10,284.92 133.74,282.35 135.37,279.90 137.01,277.33 138.65,274.54 140.29,272.20 141.93,269.63 143.57,267.40 145.21,265.05 146.85,262.94 148.49,260.59 150.13,258.47 151.77,256.69 153.41,254.68 155.05,252.89 156.69,251.00 158.32,249.21 159.96,247.43 161.60,246.09 163.24,244.75 164.88,243.64 166.52,242.41 168.16,241.63 169.80,240.40 171.44,239.96 173.08,239.06 174.72,238.84 176.36,238.06 178.00,237.61 179.64,237.28 181.27,237.50 182.91,237.17 184.55,237.50 186.19,237.50 187.83,237.61 189.47,237.95 191.11,238.28 192.75,238.84 194.39,239.29 196.03,239.96 197.67,240.74 199.31,241.41 200.95,242.30 202.59,243.08 204.22,244.19 205.86,245.20 207.50,245.87 209.14,246.65 210.78,247.65 212.42,248.54 214.06,249.55 215.70,250.33 217.34,251.22 218.98,252.45 220.62,253.45 222.26,254.12 223.90,254.90 225.54,255.57 227.17,256.35 228.81,256.91 230.45,257.80 232.09,258.47 233.73,258.70 235.37,259.36 237.01,259.48 238.65,259.70 240.29,259.70 241.93,259.48 243.57,259.70 245.21,259.36 246.85,259.03 248.48,258.58 250.12,258.25 251.76,257.58 253.40,256.46 255.04,255.79 256.68,255.01 258.32,253.68 259.96,252.67 261.60,251.67 263.24,250.22 264.88,248.66 266.52,247.09 268.16,245.64 269.80,243.52 271.43,241.74 273.07,240.18 274.71,238.06 276.35,236.39 277.99,234.16 279.63,232.15 281.27,229.92 282.91,227.57 284.55,225.34 286.19,223.11 287.83,220.99 289.47,218.88 291.11,216.31 292.75,214.08 294.38,211.85 296.02,209.62 297.66,207.39 299.30,204.94 300.94,202.59 302.58,200.48 304.22,198.02 305.86,196.13 307.50,194.01 309.14,192.00 310.78,189.77 312.42,187.99 314.06,186.43 315.70,184.75 317.33,182.86 318.97,181.52 320.61,179.74 322.25,178.29 323.89,177.06 325.53,175.94 327.17,174.61 328.81,173.83 330.45,173.16 332.09,172.49 333.73,171.26 335.37,171.04 337.01,170.26 338.65,170.15 340.28,169.92 341.92,169.70 343.56,169.92 345.20,170.04 346.84,170.26 348.48,170.59 350.12,170.93 351.76,171.37 353.40,172.04 355.04,172.82 356.68,173.27 358.32,173.83 359.96,174.83 361.60,175.50 363.23,176.73 364.87,177.62 366.51,178.62 368.15,179.85 369.79,181.19 371.43,182.19 373.07,183.75 374.71,184.64 376.35,185.65 377.99,186.76 379.63,188.43 381.27,189.66 382.91,190.78 384.55,191.67 386.18,193.12 387.82,194.01 389.46,195.01 391.10,196.02 392.74,196.80 394.38,197.69 396.02,198.47 397.66,199.03 399.30,199.81 400.94,200.25 402.58,200.59 404.22,200.81 405.86,201.26 407.49,201.37 409.13,201.48 410.77,201.48 412.41,201.37 414.05,201.03 415.69,200.70 417.33,200.14 418.97,199.47 420.61,199.03 422.25,198.25 423.89,197.24 425.53,196.24 427.17,195.12 428.81,194.12 430.44,192.67 432.08,191.33 433.72,189.77 435.36,188.43 437.00,186.54 438.64,184.98 440.28,183.30 441.92,181.19 443.56,179.62 445.20,177.51 446.84,175.83 448.48,173.71 450.12,171.71 451.76,169.70 453.39,167.92 455.03,165.46 456.67,163.23 458.31,161.11 459.95,159.11 461.59,156.88 463.23,154.98 464.87,152.75 466.51,150.86 468.15,149.07 469.79,147.18 471.43,145.28 473.07,143.50 474.71,141.82 476.34,140.15 477.98,138.70 479.62,136.69 481.26,135.47 482.90,134.02 484.54,133.01 486.18,131.56 487.82,130.56 489.46,129.78 491.10,128.89 492.74,127.99 494.38,127.10 496.02,126.88 497.66,126.54 499.29,125.99 500.93,125.88 502.57,125.32 504.21,125.10 505.85,125.21 507.49,125.32 509.13,125.54 510.77,125.88 512.41,126.43 514.05,126.54 515.69,127.21 517.33,127.88 518.97,128.78 520.61,129.44 522.24,130.34 523.88,131.68 525.52,132.57 527.16,133.46 528.80,134.46 530.44,135.80 532.08,137.14 533.72,138.37 535.36,139.93 537.00,141.04 538.64,142.49 540.28,143.50 541.92,144.83 543.56,146.06 545.19,147.62 546.83,148.85 548.47,149.96 550.11,151.30 551.75,152.53 553.39,153.64 555.03,154.76 556.67,155.65 558.31,156.77 559.95,157.77 561.59,158.44 563.23,159.11 564.87,159.89 566.51,160.67 568.14,161.11 569.78,161.45 571.42,161.67 573.06,161.90 574.70,162.01 576.34,161.90 577.98,161.67 579.62,161.56 581.26,161.23 582.90,160.67 584.54,160.22 586.18,159.44 587.82,158.88 589.45,157.77 591.09,157.21 592.73,156.21 594.37,155.09 596.01,153.76 597.65,152.53 599.29,150.97 600.93,149.52 602.57,147.96 604.21,146.17 605.85,144.61 607.49,142.49 609.13,140.82 610.77,139.04 612.40,137.03 614.04,135.13 615.68,133.01 617.32,130.89 618.96,129.22 620.60,126.99 622.24,124.98 623.88,123.09 625.52,121.08 627.16,119.07 628.80,117.29 630.44,115.39 632.08,113.61 633.72,111.82 635.35,110.15 636.99,108.59 638.63,106.91 640.27,105.35 641.91,103.90 643.55,102.34 645.19,101.11 646.83,99.89 648.47,98.66 650.11,97.66 651.75,96.43 653.39,95.54 655.03,94.64 656.67,93.97 658.30,93.53 659.94,92.86 661.58,92.19 663.22,92.30 664.86,91.97 666.50,91.85 668.14,91.85 669.78,92.08 671.42,92.41 673.06,92.97 674.70,93.30 676.34,93.75 677.98,94.42 679.62,95.42 681.25,96.09 682.89,96.99 684.53,97.99 686.17,99.22 687.81,100.11 689.45,101.56 691.09,102.56 692.73,103.79 694.37,105.35 696.01,106.58 697.65,107.58 699.29,108.92 700.93,110.37 702.57,112.05 704.20,113.27 705.84,114.72 707.48,116.17 709.12,117.85 710.76,119.18 712.40,120.75 714.04,122.08 715.68,123.76 717.32,124.76 718.96,125.99 720.60,127.33 722.24,128.33 723.88,129.44 725.51,130.00 727.15,131.01 728.79,131.68 730.43,132.34 732.07,132.68 733.71,133.35 735.35,133.68 736.99,134.02 738.63,134.35 740.27,134.35 741.91,134.13 743.55,134.24 745.19,133.91 746.83,133.79 748.46,133.24 750.10,132.57 751.74,131.90 753.38,131.12 755.02,130.67 756.66,129.44 758.30,128.55 759.94,127.21 761.58,126.54 763.22,124.65 764.86,123.53 766.50,122.31 768.14,120.75 769.78,119.18 771.41,117.62 773.05,116.17 774.69,114.28 776.33,112.60 777.97,110.93 779.61,108.92 781.25,107.03 782.89,105.35 784.53,103.57 786.17,101.23 787.81,99.55 789.45,97.77 791.09,95.76 792.73,94.09 794.36,92.52 796.00,90.63 797.64,88.95 799.28,87.06 800.92,85.49 802.56,83.93 804.20,82.48 805.84,80.81 807.48,79.69 809.12,78.35 810.76,76.90 812.40,76.34 814.04,75.01 815.68,74.11 817.31,73.11 818.95,72.55 820.59,71.88 822.23,71.55 823.87,71.10 825.51,70.99 827.15,70.21 828.79,70.43 830.43,70.54 832.07,70.65 833.71,70.99 835.35,71.43 836.99,71.99 838.63,72.55 840.26,73.55 841.90,74.56 843.54,75.12 845.18,76.23 846.82,77.01 848.46,78.02 850.10,79.58 851.74,81.14 853.38,82.37 855.02,83.60 856.66,84.94 858.30,86.50 859.94,87.95 861.58,89.62 863.21,91.07 864.85,92.86 866.49,94.09 868.13,95.42 869.77,97.21 871.41,98.66 873.05,100.22 874.69,101.56 876.33,103.23 877.97,104.57 879.61,105.80 881.25,107.36 882.89,108.59 884.53,109.48 886.16,111.04 887.80,112.16 889.44,113.16 891.08,113.72 892.72,114.83 894.36,115.39 896.00,116.17"/>
<polyline class="fit" points="405.86,192.94 407.49,193.28 409.13,193.51 410.77,193.64 412.41,193.66 414.05,193.58 415.69,193.39 417.33,193.08 418.97,192.67 420.61,192.16 422.25,191.53 423.89,190.80 425.53,189.97 427.17,189.04 428.81,188.00 430.44,186.88 432.08,185.65 433.72,184.34 435.36,182.95 437.00,181.47 438.64,179.92 440.28,178.30 441.92,176.61 443.56,174.86 445.20,173.06 446.84,171.21 448.48,169.32 450.12,167.39 451.76,165.44 453.39,163.46 455.03,161.47 456.67,159.46 458.31,157.46 459.95,155.46 461.59,153.47 463.23,151.50 464.87,149.55 466.51,147.64 468.15,145.76 469.79,143.93 471.43,142.15 473.07,140.42 474.71,138.76 476.34,137.17 477.98,135.64 479.62,134.20 481.26,132.83 482.90,131.55 484.54,130.37 486.18,129.27 487.82,128.28 489.46,127.38 491.10,126.59 492.74,125.90 494.38,125.32 496.02,124.84 497.66,124.47 499.29,124.21 500.93,124.06 502.57,124.02 504.21,124.08 505.85,124.25 507.49,124.52 509.13,124.89 510.77,125.36 512.41,125.93 514.05,126.59 515.69,127.34 517.33,128.18 518.97,129.09 520.61,130.08 522.24,131.14 523.88,132.27 525.52,133.46 527.16,134.70 528.80,135.98 530.44,137.32 532.08,138.68 533.72,140.08 535.36,141.49 537.00,142.93 538.64,144.37 540.28,145.81 541.92,147.25 543.56,148.68 545.19,150.09 546.83,151.47 548.47,152.82 550.11,154.14 551.75,155.41 553.39,156.63 555.03,157.79 556.67,158.90 558.31,159.93 559.95,160.89 561.59,161.78 563.23,162.58 564.87,163.30 566.51,163.92 568.14,164.45 569.78,164.89 571.42,165.22 573.06,165.46 574.70,165.59 576.34,165.61 577.98,165.52 579.62,165.33 581.26,165.03 582.90,164.62 584.54,164.10 586.18,163.48 587.82,162.75 589.45,161.91 591.09,160.98 592.73,159.95 594.37,158.82 596.01,157.59 597.65,156.28 599.29,154.89 600.93,153.41 602.57,151.86 604.21,150.24 605.85,148.55 607.49,146.80 609.13,145.00 610.77,143.15 612.40,141.26 614.04,139.33 615.68,137.38 617.32,135.40 618.96,133.41 620.60,131.40 622.24,129.40 623.88,127.40 625.52,125.41 627.16,123.44 628.80,121.49 630.44,119.58 632.08,117.70 633.72,115.87 635.35,114.09 636.99,112.36 638.63,110.70 640.27,109.11 641.91,107.58 643.55,106.14 645.19,104.77 646.83,103.50 648.47,102.31 650.11,101.22 651.75,100.22 653.39,99.32 655.03,98.53 656.67,97.84 658.30,97.26 659.94,96.78 661.58,96.41 663.22,96.16 664.86,96.00 666.50,95.96 668.14,96.02 669.78,96.19 671.42,96.46 673.06,96.84 674.70,97.31 676.34,97.88 677.98,98.54 679.62,99.29 681.25,100.12 682.89,101.04 684.53,102.03 686.17,103.09 687.81,104.22 689.45,105.40 691.09,106.64 692.73,107.93 694.37,109.26 696.01,110.63 697.65,112.02 699.29,113.44 700.93,114.87 702.57,116.32 704.20,117.76 705.84,119.20 707.48,120.63 709.12,122.03 710.76,123.42 712.40,124.77 714.04,126.09 715.68,127.36 717.32,128.58 718.96,129.74 720.60,130.84 722.24,131.88 723.88,132.84 725.51,133.72 727.15,134.53 728.79,135.24 730.43,135.87 732.07,136.40 733.71,136.84 735.35,137.17 736.99,137.40 738.63,137.53 740.27,137.55 741.91,137.47 743.55,137.27 745.19,136.97 746.83,136.56 748.46,136.04 750.10,135.42 751.74,134.69 753.38,133.86 755.02,132.92 756.66,131.89 758.30,130.76 759.94,129.54 761.58,128.22 763.22,126.83 764.86,125.35 766.50,123.80 768.14,122.18 769.78,120.49 771.41,118.74 773.05,116.94 774.69,115.09 776.33,113.20 777.97,111.27 779.61,109.32 781.25,107.34 782.89,105.34 784.53,103.34 786.17,101.34 787.81,99.34 789.45,97.35 791.09,95.38 792.73,93.43 794.36,91.52 796.00,89.64 797.64,87.81 799.28,86.03 800.92,84.30 802.56,82.64 804.20,81.05 805.84,79.52 807.48,78.08 809.12,76.71 810.76,75.44 812.40,74.25 814.04,73.16 815.68,72.16 817.31,71.27 818.95,70.47 820.59,69.78 822.23,69.20 823.87,68.73 825.51,68.36 827.15,68.10 828.79,67.95 830.43,67.90 832.07,67.97 833.71,68.14 835.35,68.41 836.99,68.78 838.63,69.26 840.26,69.82 841.90,70.49 843.54,71.24 845.18,72.07 846.82,72.99 848.46,73.98 850.10,75.04 851.74,76.17 853.38,77.35 855.02,78.59 856.66,79.88 858.30,81.21 859.94,82.58 861.58,83.97 863.21,85.39 864.85,86.82 866.49,88.26 868.13,89.71 869.77,91.15 871.41,92.57 873.05,93.98 874.69,95.37 876.33,96.72 877.97,98.04 879.61,99.31 881.25,100.53 882.89,101.69 884.53,102.79 886.16,103.83 887.80,104.79 889.44,105.67 891.08,106.47 892.72,107.19 894.36,107.82 896.00,108.35"/>
<polyline class="power" points="78.00,468.00 79.64,465.39 81.28,462.79 82.92,460.22 84.56,457.67 86.20,455.16 87.84,452.71 89.47,450.31 91.11,447.99 92.75,445.74 94.39,443.58 96.03,441.52 97.67,439.56 99.31,437.72 100.95,435.99 102.59,434.39 104.23,432.93 105.87,431.60 107.51,430.41 109.15,429.38 110.79,428.49 112.42,427.77 114.06,427.20 115.70,426.79 117.34,426.54 118.98,426.46 120.62,426.54 122.26,426.79 123.90,427.20 125.54,427.77 127.18,428.50 128.82,429.38 130.46,430.42 132.10,431.60 133.74,432.93 135.37,434.40 137.01,436.00 138.65,437.72 140.29,439.57 141.93,441.52 143.57,443.59 145.21,445.75 146.85,447.99 148.49,450.32 150.13,452.71 151.77,455.17 153.41,457.67 155.05,460.22 156.69,462.80 158.32,465.40 159.96,468.00 161.60,470.61 163.24,473.21 164.88,475.79 166.52,478.33 168.16,480.84 169.80,483.30 171.44,485.69 173.08,488.01 174.72,490.26 176.36,492.42 178.00,494.48 179.64,496.44 181.27,498.28 182.91,500.01 184.55,501.61 186.19,503.07 187.83,504.40 189.47,505.59 191.11,506.62 192.75,507.51 194.39,508.23 196.03,508.80 197.67,509.21 199.31,509.46 200.95,509.54 202.59,509.46 204.22,509.21 205.86,508.80 207.50,508.23 209.14,507.50 210.78,506.62 212.42,505.58 214.06,504.40 215.70,503.07 217.34,501.60 218.98,500.00 220.62,498.28 222.26,496.43 223.90,494.47 225.54,492.41 227.17,490.25 228.81,488.01 230.45,485.68 232.09,483.29 233.73,480.83 235.37,478.32 237.01,475.78 238.65,473.20 240.29,470.60 241.93,467.99 243.57,465.38 245.21,462.79 246.85,460.21 248.48,457.66 250.12,455.16 251.76,452.70 253.40,450.31 255.04,447.98 256.68,445.74 258.32,443.58 259.96,441.52 261.60,439.56 263.24,437.71 264.88,435.99 266.52,434.39 268.16,432.92 269.80,431.60 271.43,430.41 273.07,429.38 274.71,428.49 276.35,427.76 277.99,427.20 279.63,426.79 281.27,426.54 282.91,426.46 284.55,426.54 286.19,426.79 287.83,427.20 289.47,427.77 291.11,428.50 292.75,429.38 294.38,430.42 296.02,431.60 297.66,432.93 299.30,434.40 300.94,436.00 302.58,437.73 304.22,439.57 305.86,441.53 307.50,443.59 309.14,445.75 310.78,448.00 312.42,450.32 314.06,452.72 315.70,455.17 317.33,457.68 318.97,460.23 320.61,462.80 322.25,465.40 323.89,468.01 325.53,470.62 327.17,473.22 328.81,475.79 330.45,478.34 332.09,480.85 333.73,483.30 335.37,485.70 337.01,488.02 338.65,490.27 340.28,492.42 341.92,494.49 343.56,496.44 345.20,498.29 346.84,500.01 348.48,501.61 350.12,503.08 351.76,504.41 353.40,505.59 355.04,506.63 356.68,507.51 358.32,508.24 359.96,508.80 361.60,509.21 363.23,509.46 364.87,509.54 366.51,509.46 368.15,509.21 369.79,508.80 371.43,508.23 373.07,507.50 374.71,506.62 376.35,505.58 377.99,504.39 379.63,503.07 381.27,501.60 382.91,500.00 384.55,498.27 386.18,496.43 387.82,494.47 389.46,492.40 391.10,490.25 392.74,488.00 394.38,485.67 396.02,483.28 397.66,480.82 399.30,478.32 400.94,475.77 402.58,473.19 404.22,470.59 405.86,467.99 407.49,465.38 409.13,462.78 410.77,460.20 412.41,457.66 414.05,455.15 415.69,452.70 417.33,450.30 418.97,447.98 420.61,445.73 422.25,443.57 423.89,441.51 425.53,439.55 427.17,437.71 428.81,435.98 430.44,434.39 432.08,432.92 433.72,431.59 435.36,430.41 437.00,429.37 438.64,428.49 440.28,427.76 441.92,427.19 443.56,426.79 445.20,426.54 446.84,426.46 448.48,426.54 450.12,426.79 451.76,427.20 453.39,427.77 455.03,428.50 456.67,429.38 458.31,430.42 459.95,431.61 461.59,432.94 463.23,434.40 464.87,436.00 466.51,437.73 468.15,439.58 469.79,441.54 471.43,443.60 473.07,445.76 474.71,448.00 476.34,450.33 477.98,452.72 479.62,455.18 481.26,457.69 482.90,460.23 484.54,462.81 486.18,465.41 487.82,468.02 489.46,470.63 491.10,473.22 492.74,475.80 494.38,478.35 496.02,480.85 497.66,483.31 499.29,485.70 500.93,488.03 502.57,490.27 504.21,492.43 505.85,494.49 507.49,496.45 509.13,498.29 510.77,500.02 512.41,501.62 514.05,503.08 515.69,504.41 517.33,505.59 518.97,506.63 520.61,507.51 522.24,508.24 523.88,508.81 525.52,509.21 527.16,509.46 528.80,509.54 530.44,509.46 532.08,509.21 533.72,508.80 535.36,508.23 537.00,507.50 538.64,506.61 540.28,505.58 541.92,504.39 543.56,503.06 545.19,501.59 546.83,499.99 548.47,498.27 550.11,496.42 551.75,494.46 553.39,492.40 555.03,490.24 556.67,487.99 558.31,485.67 559.95,483.27 561.59,480.82 563.23,478.31 564.87,475.76 566.51,473.19 568.14,470.59 569.78,467.98 571.42,465.37 573.06,462.77 574.70,460.20 576.34,457.65 577.98,455.14 579.62,452.69 581.26,450.29 582.90,447.97 584.54,445.72 586.18,443.57 587.82,441.51 589.45,439.55 591.09,437.70 592.73,435.98 594.37,434.38 596.01,432.92 597.65,431.59 599.29,430.41 600.93,429.37 602.57,428.49 604.21,427.76 605.85,427.19 607.49,426.79 609.13,426.54 610.77,426.46 612.40,426.54 614.04,426.79 615.68,427.20 617.32,427.77 618.96,428.50 620.60,429.39 622.24,430.42 623.88,431.61 625.52,432.94 627.16,434.41 628.80,436.01 630.44,437.74 632.08,439.58 633.72,441.54 635.35,443.60 636.99,445.76 638.63,448.01 640.27,450.34 641.91,452.73 643.55,455.19 645.19,457.69 646.83,460.24 648.47,462.82 650.11,465.42 651.75,468.02 653.39,470.63 655.03,473.23 656.67,475.81 658.30,478.35 659.94,480.86 661.58,483.31 663.22,485.71 664.86,488.03 666.50,490.28 668.14,492.44 669.78,494.50 671.42,496.45 673.06,498.30 674.70,500.02 676.34,501.62 677.98,503.09 679.62,504.41 681.25,505.60 682.89,506.63 684.53,507.51 686.17,508.24 687.81,508.81 689.45,509.21 691.09,509.46 692.73,509.54 694.37,509.45 696.01,509.21 697.65,508.80 699.29,508.23 700.93,507.50 702.57,506.61 704.20,505.57 705.84,504.39 707.48,503.06 709.12,501.59 710.76,499.99 712.40,498.26 714.04,496.41 715.68,494.46 717.32,492.39 718.96,490.23 720.60,487.99 722.24,485.66 723.88,483.27 725.51,480.81 727.15,478.30 728.79,475.76 730.43,473.18 732.07,470.58 733.71,467.97 735.35,465.36 736.99,462.77 738.63,460.19 740.27,457.64 741.91,455.14 743.55,452.68 745.19,450.29 746.83,447.96 748.46,445.72 750.10,443.56 751.74,441.50 753.38,439.54 755.02,437.70 756.66,435.98 758.30,434.38 759.94,432.91 761.58,431.59 763.22,430.40 764.86,429.37 766.50,428.49 768.14,427.76 769.78,427.19 771.41,426.79 773.05,426.54 774.69,426.46 776.33,426.55 777.97,426.79 779.61,427.20 781.25,427.77 782.89,428.50 784.53,429.39 786.17,430.43 787.81,431.61 789.45,432.94 791.09,434.41 792.73,436.01 794.36,437.74 796.00,439.59 797.64,441.55 799.28,443.61 800.92,445.77 802.56,448.02 804.20,450.34 805.84,452.74 807.48,455.19 809.12,457.70 810.76,460.25 812.40,462.83 814.04,465.42 815.68,468.03 817.31,470.64 818.95,473.24 820.59,475.82 822.23,478.36 823.87,480.87 825.51,483.32 827.15,485.72 828.79,488.04 830.43,490.28 832.07,492.44 833.71,494.50 835.35,496.46 836.99,498.30 838.63,500.03 840.26,501.62 841.90,503.09 843.54,504.42 845.18,505.60 846.82,506.63 848.46,507.52 850.10,508.24 851.74,508.81 853.38,509.22 855.02,509.46 856.66,509.54 858.30,509.45 859.94,509.21 861.58,508.80 863.21,508.22 864.85,507.49 866.49,506.61 868.13,505.57 869.77,504.38 871.41,503.05 873.05,501.59 874.69,499.98 876.33,498.26 877.97,496.41 879.61,494.45 881.25,492.39 882.89,490.23 884.53,487.98 886.16,485.65 887.80,483.26 889.44,480.80 891.08,478.30 892.72,475.75 894.36,473.17 896.00,470.57"/>
<text x="20" y="209" transform="rotate(-90 20 209)" text-anchor="middle" font-size="13">Temperature (C)</text>
<text x="20" y="468" transform="rotate(-90 20 468)" text-anchor="middle" font-size="13">PWM duty</text>
<text x="487" y="568" text-anchor="middle" font-size="13">Time (s)</text>
<line x1="78" y1="35" x2="103" y2="35" class="raw"/><text x="109" y="39" font-size="12">temperature</text>
<line x1="203" y1="35" x2="228" y2="35" class="fit"/><text x="234" y="39" font-size="12">detrended fit</text>
<text x="378" y="39" font-size="12">shaded = measured</text>
</svg>
