<?xml version="1.0" encoding="utf-8" standalone="no"?>
<!DOCTYPE svg PUBLIC "-//W3C//DTD SVG 1.1//EN"
  "http://www.w3.org/Graphics/SVG/1.1/DTD/svg11.dtd">
<svg xmlns:xlink="http://www.w3.org/1999/xlink" width="648pt" height="403.2pt" viewBox="0 0 648 403.2" xmlns="http://www.w3.org/2000/svg" version="1.1">
 <metadata>
  <rdf:RDF xmlns:dc="http://purl.org/dc/elements/1.1/" xmlns:cc="http://creativecommons.org/ns#" xmlns:rdf="http://www.w3.org/1999/02/22-rdf-syntax-ns#">
   <cc:Work>
    <dc:type rdf:resource="http://purl.org/dc/dcmitype/StillImage"/>
    <dc:format>image/svg+xml</dc:format>
    <dc:creator>
     <cc:Agent>
      <dc:title>Helix</dc:title>
     </cc:Agent>
    </dc:creator>
   </cc:Work>
  </rdf:RDF>
 </metadata>
 <defs>
  <style type="text/css">*{stroke-linejoin: round; stroke-linecap: butt}</style>
 </defs>
 <g id="figure_1">
  <g id="patch_1">
   <path d="M 0 403.2
L 648 403.2
L 648 0
L 0 0
z
" style="fill: #ffffff"/>
  </g>
  <g id="axes_1">
   <g id="patch_2">
    <path d="M 51.562344 238.402841
L 637.2 238.402841
L 637.2 26.16
L 51.562344 26.16
z
" style="fill: #ffffff"/>
   </g>
   <g id="matplotlib.axis_1">
    <g id="xtick_1">
     <g id="line2d_1">
      <path d="M 78.179683 238.402841
L 78.179683 26.16
" clip-path="url(#p8ed6a0bb0c)" style="fill: none; stroke: #b0b0b0; stroke-opacity: 0.25; stroke-width: 0.8; stroke-linecap: square"/>
     </g>
     <g id="line2d_2">
      <defs>
       <path id="m359a4fff0d" d="M 0 0
L 0 3.5
" style="stroke: #000000; stroke-width: 0.8"/>
      </defs>
      <g>
       <use xlink:href="#m359a4fff0d" x="78.179683" y="238.402841" style="stroke: #000000; stroke-width: 0.8"/>
      </g>
     </g>
    </g>
    <g id="xtick_2">
     <g id="line2d_3">
      <path d="M 194.134347 238.402841
L 194.134347 26.16
" clip-path="url(#p8ed6a0bb0c)" style="fill: none; stroke: #b0b0b0; stroke-opacity: 0.25; stroke-width: 0.8; stroke-linecap: square"/>
     </g>
     <g id="line2d_4">
      <g>
       <use xlink:href="#m359a4fff0d" x="194.134347" y="238.402841" style="stroke: #000000; stroke-width: 0.8"/>
      </g>
     </g>
    </g>
    <g id="xtick_3">
     <g id="line2d_5">
      <path d="M 310.08901 238.402841
L 310.08901 26.16
" clip-path="url(#p8ed6a0bb0c)" style="fill: none; stroke: #b0b0b0; stroke-opacity: 0.25; stroke-width: 0.8; stroke-linecap: square"/>
     </g>
     <g id="line2d_6">
      <g>
       <use xlink:href="#m359a4fff0d" x="310.08901" y="238.402841" style="stroke: #000000; stroke-width: 0.8"/>
      </g>
     </g>
    </g>
    <g id="xtick_4">
     <g id="line2d_7">
      <path d="M 426.043674 238.402841
L 426.043674 26.16
" clip-path="url(#p8ed6a0bb0c)" style="fill: none; stroke: #b0b0b0; stroke-opacity: 0.25; stroke-width: 0.8; stroke-linecap: square"/>
     </g>
     <g id="line2d_8">
      <g>
       <use xlink:href="#m359a4fff0d" x="426.043674" y="238.402841" style="stroke: #000000; stroke-width: 0.8"/>
      </g>
     </g>
    </g>
    <g id="xtick_5">
     <g id="line2d_9">
      <path d="M 541.998337 238.402841
L 541.998337 26.16
" clip-path="url(#p8ed6a0bb0c)" style="fill: none; stroke: #b0b0b0; stroke-opacity: 0.25; stroke-width: 0.8; stroke-linecap: square"/>
     </g>
     <g id="line2d_10">
      <g>
       <use xlink:href="#m359a4fff0d" x="541.998337" y="238.402841" style="stroke: #000000; stroke-width: 0.8"/>
      </g>
     </g>
    </g>
   </g>
   <g id="matplotlib.axis_2">
    <g id="ytick_1">
     <g id="line2d_11">
      <path d="M 51.562344 235.653504
L 637.2 235.653504
" clip-path="url(#p8ed6a0bb0c)" style="fill: none; stroke: #b0b0b0; stroke-opacity: 0.25; stroke-width: 0.8; stroke-linecap: square"/>
     </g>
     <g id="line2d_12">
      <defs>
       <path id="m5b71783edc" d="M 0 0
L -3.5 0
" style="stroke: #000000; stroke-width: 0.8"/>
      </defs>
      <g>
       <use xlink:href="#m5b71783edc" x="51.562344" y="235.653504" style="stroke: #000000; stroke-width: 0.8"/>
      </g>
     </g>
     <g id="text_1">
      <!-- 100 -->
      <g transform="translate(25.474844 239.452332) scale(0.1 -0.1)">
       <defs>
        <path id="DejaVuSans-14" d="M 794 531
L 1825 531
L 1825 4091
L 703 3866
L 703 4441
L 1819 4666
L 2450 4666
L 2450 531
L 3481 531
L 3481 0
L 794 0
L 794 531
z
" transform="scale(0.015625)"/>
        <path id="DejaVuSans-13" d="M 2034 4250
Q 1547 4250 1301 3770
Q 1056 3291 1056 2328
Q 1056 1369 1301 889
Q 1547 409 2034 409
Q 2525 409 2770 889
Q 3016 1369 3016 2328
Q 3016 3291 2770 3770
Q 2525 4250 2034 4250
z
M 2034 4750
Q 2819 4750 3233 4129
Q 3647 3509 3647 2328
Q 3647 1150 3233 529
Q 2819 -91 2034 -91
Q 1250 -91 836 529
Q 422 1150 422 2328
Q 422 3509 836 4129
Q 1250 4750 2034 4750
z
" transform="scale(0.015625)"/>
       </defs>
       <use xlink:href="#DejaVuSans-14"/>
       <use xlink:href="#DejaVuSans-13" transform="translate(63.625 0)"/>
       <use xlink:href="#DejaVuSans-13" transform="translate(127.25 0)"/>
      </g>
     </g>
    </g>
    <g id="ytick_2">
     <g id="line2d_13">
      <path d="M 51.562344 210.929255
L 637.2 210.929255
" clip-path="url(#p8ed6a0bb0c)" style="fill: none; stroke: #b0b0b0; stroke-opacity: 0.25; stroke-width: 0.8; stroke-linecap: square"/>
     </g>
     <g id="line2d_14">
      <g>
       <use xlink:href="#m5b71783edc" x="51.562344" y="210.929255" style="stroke: #000000; stroke-width: 0.8"/>
      </g>
     </g>
     <g id="text_2">
      <!-- 120 -->
      <g transform="translate(25.474844 214.728084) scale(0.1 -0.1)">
       <defs>
        <path id="DejaVuSans-15" d="M 1228 531
L 3431 531
L 3431 0
L 469 0
L 469 531
Q 828 903 1448 1529
Q 2069 2156 2228 2338
Q 2531 2678 2651 2914
Q 2772 3150 2772 3378
Q 2772 3750 2511 3984
Q 2250 4219 1831 4219
Q 1534 4219 1204 4116
Q 875 4013 500 3803
L 500 4441
Q 881 4594 1212 4672
Q 1544 4750 1819 4750
Q 2544 4750 2975 4387
Q 3406 4025 3406 3419
Q 3406 3131 3298 2873
Q 3191 2616 2906 2266
Q 2828 2175 2409 1742
Q 1991 1309 1228 531
z
" transform="scale(0.015625)"/>
       </defs>
       <use xlink:href="#DejaVuSans-14"/>
       <use xlink:href="#DejaVuSans-15" transform="translate(63.625 0)"/>
       <use xlink:href="#DejaVuSans-13" transform="translate(127.25 0)"/>
      </g>
     </g>
    </g>
    <g id="ytick_3">
     <g id="line2d_15">
      <path d="M 51.562344 186.205007
L 637.2 186.205007
" clip-path="url(#p8ed6a0bb0c)" style="fill: none; stroke: #b0b0b0; stroke-opacity: 0.25; stroke-width: 0.8; stroke-linecap: square"/>
     </g>
     <g id="line2d_16">
      <g>
       <use xlink:href="#m5b71783edc" x="51.562344" y="186.205007" style="stroke: #000000; stroke-width: 0.8"/>
      </g>
     </g>
     <g id="text_3">
      <!-- 140 -->
      <g transform="translate(25.474844 190.003835) scale(0.1 -0.1)">
       <defs>
        <path id="DejaVuSans-17" d="M 2419 4116
L 825 1625
L 2419 1625
L 2419 4116
z
M 2253 4666
L 3047 4666
L 3047 1625
L 3713 1625
L 3713 1100
L 3047 1100
L 3047 0
L 2419 0
L 2419 1100
L 313 1100
L 313 1709
L 2253 4666
z
" transform="scale(0.015625)"/>
       </defs>
       <use xlink:href="#DejaVuSans-14"/>
       <use xlink:href="#DejaVuSans-17" transform="translate(63.625 0)"/>
       <use xlink:href="#DejaVuSans-13" transform="translate(127.25 0)"/>
      </g>
     </g>
    </g>
    <g id="ytick_4">
     <g id="line2d_17">
      <path d="M 51.562344 161.480758
L 637.2 161.480758
" clip-path="url(#p8ed6a0bb0c)" style="fill: none; stroke: #b0b0b0; stroke-opacity: 0.25; stroke-width: 0.8; stroke-linecap: square"/>
     </g>
     <g id="line2d_18">
      <g>
       <use xlink:href="#m5b71783edc" x="51.562344" y="161.480758" style="stroke: #000000; stroke-width: 0.8"/>
      </g>
     </g>
     <g id="text_4">
      <!-- 160 -->
      <g transform="translate(25.474844 165.279586) scale(0.1 -0.1)">
       <defs>
        <path id="DejaVuSans-19" d="M 2113 2584
Q 1688 2584 1439 2293
Q 1191 2003 1191 1497
Q 1191 994 1439 701
Q 1688 409 2113 409
Q 2538 409 2786 701
Q 3034 994 3034 1497
Q 3034 2003 2786 2293
Q 2538 2584 2113 2584
z
M 3366 4563
L 3366 3988
Q 3128 4100 2886 4159
Q 2644 4219 2406 4219
Q 1781 4219 1451 3797
Q 1122 3375 1075 2522
Q 1259 2794 1537 2939
Q 1816 3084 2150 3084
Q 2853 3084 3261 2657
Q 3669 2231 3669 1497
Q 3669 778 3244 343
Q 2819 -91 2113 -91
Q 1303 -91 875 529
Q 447 1150 447 2328
Q 447 3434 972 4092
Q 1497 4750 2381 4750
Q 2619 4750 2861 4703
Q 3103 4656 3366 4563
z
" transform="scale(0.015625)"/>
       </defs>
       <use xlink:href="#DejaVuSans-14"/>
       <use xlink:href="#DejaVuSans-19" transform="translate(63.625 0)"/>
       <use xlink:href="#DejaVuSans-13" transform="translate(127.25 0)"/>
      </g>
     </g>
    </g>
    <g id="ytick_5">
     <g id="line2d_19">
      <path d="M 51.562344 136.756509
L 637.2 136.756509
" clip-path="url(#p8ed6a0bb0c)" style="fill: none; stroke: #b0b0b0; stroke-opacity: 0.25; stroke-width: 0.8; stroke-linecap: square"/>
     </g>
     <g id="line2d_20">
      <g>
       <use xlink:href="#m5b71783edc" x="51.562344" y="136.756509" style="stroke: #000000; stroke-width: 0.8"/>
      </g>
     </g>
     <g id="text_5">
      <!-- 180 -->
      <g transform="translate(25.474844 140.555337) scale(0.1 -0.1)">
       <defs>
        <path id="DejaVuSans-1b" d="M 2034 2216
Q 1584 2216 1326 1975
Q 1069 1734 1069 1313
Q 1069 891 1326 650
Q 1584 409 2034 409
Q 2484 409 2743 651
Q 3003 894 3003 1313
Q 3003 1734 2745 1975
Q 2488 2216 2034 2216
z
M 1403 2484
Q 997 2584 770 2862
Q 544 3141 544 3541
Q 544 4100 942 4425
Q 1341 4750 2034 4750
Q 2731 4750 3128 4425
Q 3525 4100 3525 3541
Q 3525 3141 3298 2862
Q 3072 2584 2669 2484
Q 3125 2378 3379 2068
Q 3634 1759 3634 1313
Q 3634 634 3220 271
Q 2806 -91 2034 -91
Q 1263 -91 848 271
Q 434 634 434 1313
Q 434 1759 690 2068
Q 947 2378 1403 2484
z
M 1172 3481
Q 1172 3119 1398 2916
Q 1625 2713 2034 2713
Q 2441 2713 2670 2916
Q 2900 3119 2900 3481
Q 2900 3844 2670 4047
Q 2441 4250 2034 4250
Q 1625 4250 1398 4047
Q 1172 3844 1172 3481
z
" transform="scale(0.015625)"/>
       </defs>
       <use xlink:href="#DejaVuSans-14"/>
       <use xlink:href="#DejaVuSans-1b" transform="translate(63.625 0)"/>
       <use xlink:href="#DejaVuSans-13" transform="translate(127.25 0)"/>
      </g>
     </g>
    </g>
    <g id="ytick_6">
     <g id="line2d_21">
      <path d="M 51.562344 112.032261
L 637.2 112.032261
" clip-path="url(#p8ed6a0bb0c)" style="fill: none; stroke: #b0b0b0; stroke-opacity: 0.25; stroke-width: 0.8; stroke-linecap: square"/>
     </g>
     <g id="line2d_22">
      <g>
       <use xlink:href="#m5b71783edc" x="51.562344" y="112.032261" style="stroke: #000000; stroke-width: 0.8"/>
      </g>
     </g>
     <g id="text_6">
      <!-- 200 -->
      <g transform="translate(25.474844 115.831089) scale(0.1 -0.1)">
       <use xlink:href="#DejaVuSans-15"/>
       <use xlink:href="#DejaVuSans-13" transform="translate(63.625 0)"/>
       <use xlink:href="#DejaVuSans-13" transform="translate(127.25 0)"/>
      </g>
     </g>
    </g>
    <g id="ytick_7">
     <g id="line2d_23">
      <path d="M 51.562344 87.308012
L 637.2 87.308012
" clip-path="url(#p8ed6a0bb0c)" style="fill: none; stroke: #b0b0b0; stroke-opacity: 0.25; stroke-width: 0.8; stroke-linecap: square"/>
     </g>
     <g id="line2d_24">
      <g>
       <use xlink:href="#m5b71783edc" x="51.562344" y="87.308012" style="stroke: #000000; stroke-width: 0.8"/>
      </g>
     </g>
     <g id="text_7">
      <!-- 220 -->
      <g transform="translate(25.474844 91.10684) scale(0.1 -0.1)">
       <use xlink:href="#DejaVuSans-15"/>
       <use xlink:href="#DejaVuSans-15" transform="translate(63.625 0)"/>
       <use xlink:href="#DejaVuSans-13" transform="translate(127.25 0)"/>
      </g>
     </g>
    </g>
    <g id="ytick_8">
     <g id="line2d_25">
      <path d="M 51.562344 62.583763
L 637.2 62.583763
" clip-path="url(#p8ed6a0bb0c)" style="fill: none; stroke: #b0b0b0; stroke-opacity: 0.25; stroke-width: 0.8; stroke-linecap: square"/>
     </g>
     <g id="line2d_26">
      <g>
       <use xlink:href="#m5b71783edc" x="51.562344" y="62.583763" style="stroke: #000000; stroke-width: 0.8"/>
      </g>
     </g>
     <g id="text_8">
      <!-- 240 -->
      <g transform="translate(25.474844 66.382591) scale(0.1 -0.1)">
       <use xlink:href="#DejaVuSans-15"/>
       <use xlink:href="#DejaVuSans-17" transform="translate(63.625 0)"/>
       <use xlink:href="#DejaVuSans-13" transform="translate(127.25 0)"/>
      </g>
     </g>
    </g>
    <g id="ytick_9">
     <g id="line2d_27">
      <path d="M 51.562344 37.859514
L 637.2 37.859514
" clip-path="url(#p8ed6a0bb0c)" style="fill: none; stroke: #b0b0b0; stroke-opacity: 0.25; stroke-width: 0.8; stroke-linecap: square"/>
     </g>
     <g id="line2d_28">
      <g>
       <use xlink:href="#m5b71783edc" x="51.562344" y="37.859514" style="stroke: #000000; stroke-width: 0.8"/>
      </g>
     </g>
     <g id="text_9">
      <!-- 260 -->
      <g transform="translate(25.474844 41.658343) scale(0.1 -0.1)">
       <use xlink:href="#DejaVuSans-15"/>
       <use xlink:href="#DejaVuSans-19" transform="translate(63.625 0)"/>
       <use xlink:href="#DejaVuSans-13" transform="translate(127.25 0)"/>
      </g>
     </g>
    </g>
    <g id="text_10">
     <!-- Temperature (C) -->
     <g transform="translate(19.0725 172.936108) rotate(-90) scale(0.1 -0.1)">
      <defs>
       <path id="DejaVuSans-37" d="M -19 4666
L 3928 4666
L 3928 4134
L 2272 4134
L 2272 0
L 1638 0
L 1638 4134
L -19 4134
L -19 4666
z
" transform="scale(0.015625)"/>
       <path id="DejaVuSans-48" d="M 3597 1894
L 3597 1613
L 953 1613
Q 991 1019 1311 708
Q 1631 397 2203 397
Q 2534 397 2845 478
Q 3156 559 3463 722
L 3463 178
Q 3153 47 2828 -22
Q 2503 -91 2169 -91
Q 1331 -91 842 396
Q 353 884 353 1716
Q 353 2575 817 3079
Q 1281 3584 2069 3584
Q 2775 3584 3186 3129
Q 3597 2675 3597 1894
z
M 3022 2063
Q 3016 2534 2758 2815
Q 2500 3097 2075 3097
Q 1594 3097 1305 2825
Q 1016 2553 972 2059
L 3022 2063
z
" transform="scale(0.015625)"/>
       <path id="DejaVuSans-50" d="M 3328 2828
Q 3544 3216 3844 3400
Q 4144 3584 4550 3584
Q 5097 3584 5394 3201
Q 5691 2819 5691 2113
L 5691 0
L 5113 0
L 5113 2094
Q 5113 2597 4934 2840
Q 4756 3084 4391 3084
Q 3944 3084 3684 2787
Q 3425 2491 3425 1978
L 3425 0
L 2847 0
L 2847 2094
Q 2847 2600 2669 2842
Q 2491 3084 2119 3084
Q 1678 3084 1418 2786
Q 1159 2488 1159 1978
L 1159 0
L 581 0
L 581 3500
L 1159 3500
L 1159 2956
Q 1356 3278 1631 3431
Q 1906 3584 2284 3584
Q 2666 3584 2933 3390
Q 3200 3197 3328 2828
z
" transform="scale(0.015625)"/>
       <path id="DejaVuSans-53" d="M 1159 525
L 1159 -1331
L 581 -1331
L 581 3500
L 1159 3500
L 1159 2969
Q 1341 3281 1617 3432
Q 1894 3584 2278 3584
Q 2916 3584 3314 3078
Q 3713 2572 3713 1747
Q 3713 922 3314 415
Q 2916 -91 2278 -91
Q 1894 -91 1617 61
Q 1341 213 1159 525
z
M 3116 1747
Q 3116 2381 2855 2742
Q 2594 3103 2138 3103
Q 1681 3103 1420 2742
Q 1159 2381 1159 1747
Q 1159 1113 1420 752
Q 1681 391 2138 391
Q 2594 391 2855 752
Q 3116 1113 3116 1747
z
" transform="scale(0.015625)"/>
       <path id="DejaVuSans-55" d="M 2631 2963
Q 2534 3019 2420 3045
Q 2306 3072 2169 3072
Q 1681 3072 1420 2755
Q 1159 2438 1159 1844
L 1159 0
L 581 0
L 581 3500
L 1159 3500
L 1159 2956
Q 1341 3275 1631 3429
Q 1922 3584 2338 3584
Q 2397 3584 2469 3576
Q 2541 3569 2628 3553
L 2631 2963
z
" transform="scale(0.015625)"/>
       <path id="DejaVuSans-44" d="M 2194 1759
Q 1497 1759 1228 1600
Q 959 1441 959 1056
Q 959 750 1161 570
Q 1363 391 1709 391
Q 2188 391 2477 730
Q 2766 1069 2766 1631
L 2766 1759
L 2194 1759
z
M 3341 1997
L 3341 0
L 2766 0
L 2766 531
Q 2569 213 2275 61
Q 1981 -91 1556 -91
Q 1019 -91 701 211
Q 384 513 384 1019
Q 384 1609 779 1909
Q 1175 2209 1959 2209
L 2766 2209
L 2766 2266
Q 2766 2663 2505 2880
Q 2244 3097 1772 3097
Q 1472 3097 1187 3025
Q 903 2953 641 2809
L 641 3341
Q 956 3463 1253 3523
Q 1550 3584 1831 3584
Q 2591 3584 2966 3190
Q 3341 2797 3341 1997
z
" transform="scale(0.015625)"/>
       <path id="DejaVuSans-57" d="M 1172 4494
L 1172 3500
L 2356 3500
L 2356 3053
L 1172 3053
L 1172 1153
Q 1172 725 1289 603
Q 1406 481 1766 481
L 2356 481
L 2356 0
L 1766 0
Q 1100 0 847 248
Q 594 497 594 1153
L 594 3053
L 172 3053
L 172 3500
L 594 3500
L 594 4494
L 1172 4494
z
" transform="scale(0.015625)"/>
       <path id="DejaVuSans-58" d="M 544 1381
L 544 3500
L 1119 3500
L 1119 1403
Q 1119 906 1312 657
Q 1506 409 1894 409
Q 2359 409 2629 706
Q 2900 1003 2900 1516
L 2900 3500
L 3475 3500
L 3475 0
L 2900 0
L 2900 538
Q 2691 219 2414 64
Q 2138 -91 1772 -91
Q 1169 -91 856 284
Q 544 659 544 1381
z
M 1991 3584
L 1991 3584
z
" transform="scale(0.015625)"/>
       <path id="DejaVuSans-3" transform="scale(0.015625)"/>
       <path id="DejaVuSans-b" d="M 1984 4856
Q 1566 4138 1362 3434
Q 1159 2731 1159 2009
Q 1159 1288 1364 580
Q 1569 -128 1984 -844
L 1484 -844
Q 1016 -109 783 600
Q 550 1309 550 2009
Q 550 2706 781 3412
Q 1013 4119 1484 4856
L 1984 4856
z
" transform="scale(0.015625)"/>
       <path id="DejaVuSans-26" d="M 4122 4306
L 4122 3641
Q 3803 3938 3442 4084
Q 3081 4231 2675 4231
Q 1875 4231 1450 3742
Q 1025 3253 1025 2328
Q 1025 1406 1450 917
Q 1875 428 2675 428
Q 3081 428 3442 575
Q 3803 722 4122 1019
L 4122 359
Q 3791 134 3420 21
Q 3050 -91 2638 -91
Q 1578 -91 968 557
Q 359 1206 359 2328
Q 359 3453 968 4101
Q 1578 4750 2638 4750
Q 3056 4750 3426 4639
Q 3797 4528 4122 4306
z
" transform="scale(0.015625)"/>
       <path id="DejaVuSans-c" d="M 513 4856
L 1013 4856
Q 1481 4119 1714 3412
Q 1947 2706 1947 2009
Q 1947 1309 1714 600
Q 1481 -109 1013 -844
L 513 -844
Q 928 -128 1133 580
Q 1338 1288 1338 2009
Q 1338 2731 1133 3434
Q 928 4138 513 4856
z
" transform="scale(0.015625)"/>
      </defs>
      <use xlink:href="#DejaVuSans-37"/>
      <use xlink:href="#DejaVuSans-48" transform="translate(44.09375 0)"/>
      <use xlink:href="#DejaVuSans-50" transform="translate(105.625 0)"/>
      <use xlink:href="#DejaVuSans-53" transform="translate(203.03125 0)"/>
      <use xlink:href="#DejaVuSans-48" transform="translate(266.515625 0)"/>
      <use xlink:href="#DejaVuSans-55" transform="translate(328.046875 0)"/>
      <use xlink:href="#DejaVuSans-44" transform="translate(369.15625 0)"/>
      <use xlink:href="#DejaVuSans-57" transform="translate(430.4375 0)"/>
      <use xlink:href="#DejaVuSans-58" transform="translate(469.640625 0)"/>
      <use xlink:href="#DejaVuSans-55" transform="translate(533.015625 0)"/>
      <use xlink:href="#DejaVuSans-48" transform="translate(571.921875 0)"/>
      <use xlink:href="#DejaVuSans-3" transform="translate(633.453125 0)"/>
      <use xlink:href="#DejaVuSans-b" transform="translate(665.234375 0)"/>
      <use xlink:href="#DejaVuSans-26" transform="translate(704.25 0)"/>
      <use xlink:href="#DejaVuSans-c" transform="translate(774.078125 0)"/>
     </g>
    </g>
   </g>
   <g id="line2d_29">
    <path d="M 78.182237 215.021119
L 79.457507 215.701035
L 80.618697 216.034813
L 81.781047 215.96064
L 82.94184 215.330172
L 84.104174 214.205218
L 85.267169 213.488215
L 86.429409 211.844053
L 87.59168 209.96501
L 88.753828 208.963678
L 91.078753 204.686383
L 92.239852 203.573791
L 95.726863 196.725175
L 96.889483 195.575497
L 99.212075 191.001511
L 100.374389 189.864196
L 102.699567 185.364382
L 103.860684 184.251791
L 106.185701 179.887961
L 107.347871 178.812456
L 109.673172 174.58461
L 110.836328 173.533829
L 113.159437 169.429604
L 114.321127 168.41591
L 116.646169 164.435306
L 117.807686 163.458698
L 120.1318 159.614077
L 121.2939 158.674556
L 123.620313 154.941194
L 124.783763 154.014035
L 127.10922 150.391932
L 128.271189 149.50186
L 130.595277 146.003378
L 131.756054 145.13803
L 134.08018 141.726083
L 135.242135 140.885459
L 137.563913 137.597134
L 138.7266 136.793596
L 141.053154 133.61653
L 142.215007 132.825354
L 144.539891 129.722461
L 145.701191 128.956009
L 148.026459 125.93965
L 149.188557 125.185561
L 151.511834 122.2681
L 152.672157 121.551096
L 154.994301 118.72017
L 156.156337 118.015529
L 158.479119 115.258775
L 159.640178 114.59122
L 161.962472 111.883915
L 163.124471 111.21636
L 165.449303 108.607952
L 166.61224 107.965122
L 168.936814 105.418524
L 170.098946 104.800418
L 172.421773 102.352717
L 173.581992 101.746973
L 175.90499 99.373445
L 177.067241 98.780063
L 179.389786 96.455984
L 180.550102 95.874964
L 182.875121 93.600333
L 184.037155 93.031675
L 186.360053 90.831217
L 187.522678 90.287284
L 189.84581 88.11155
L 191.007881 87.567617
L 193.331282 85.441331
L 194.492148 84.90976
L 196.815312 82.870009
L 197.977229 82.363162
L 200.301728 80.323412
L 201.46224 79.853651
L 203.787244 77.888073
L 204.949096 77.418312
L 208.435867 74.61211
L 209.598238 74.142349
L 211.920733 72.374566
L 213.084145 71.917167
L 215.406921 70.174108
L 216.569132 69.729071
L 218.892305 67.998374
L 220.055533 67.553337
L 222.378377 65.859726
L 223.540673 65.451776
L 225.866461 63.795251
L 227.029686 63.399663
L 229.352316 61.755501
L 230.514546 61.359913
L 232.839979 59.777561
L 234.003026 59.406697
L 236.325726 57.836707
L 237.488068 57.453482
L 239.813351 55.957665
L 240.975171 55.599163
L 243.300009 54.177519
L 244.4617 53.831379
L 246.784874 52.49627
L 247.948227 52.162492
L 250.273727 50.802659
L 251.436297 50.444157
L 253.760249 49.047237
L 254.921792 48.725822
L 257.246936 47.477247
L 258.409084 47.192918
L 260.731861 45.944344
L 261.894974 45.647653
L 264.219806 44.473251
L 265.38203 44.164198
L 267.706285 43.01452
L 268.867472 42.767278
L 271.189784 41.741222
L 272.351707 41.506341
L 274.676656 40.591544
L 275.837274 40.369026
L 278.161019 39.528401
L 279.3229 39.330607
L 281.647676 38.675415
L 282.811801 38.477621
L 285.134461 37.871877
L 286.295989 37.748255
L 288.620438 37.303219
L 290.944907 37.006528
L 293.269309 36.722199
L 296.754025 36.413146
L 301.402948 36.079369
L 307.213879 35.968109
L 311.859363 36.091731
L 333.937587 37.130149
L 342.074661 37.562824
L 352.535408 37.77298
L 369.961911 38.032584
L 375.772495 38.020222
L 380.421627 38.020222
L 388.556791 38.00786
L 393.205018 38.032584
L 397.853429 37.921325
L 404.826985 37.896601
L 409.474738 37.859514
L 412.960612 37.884239
L 418.770352 37.847152
L 429.227457 37.83479
L 432.713903 37.847152
L 443.17116 37.859514
L 603.519336 37.871877
L 603.519336 37.871877
" clip-path="url(#p8ed6a0bb0c)" style="fill: none; stroke: #1f77b4; stroke-width: 1.35; stroke-linecap: square"/>
   </g>
   <g id="line2d_30">
    <path d="M 78.182344 227.815917
L 79.45735 228.47111
L 80.620504 228.755439
L 81.780684 228.64418
L 82.941794 227.939539
L 84.103766 226.715688
L 85.265242 225.961599
L 86.427312 224.206177
L 87.588568 222.215875
L 88.748472 221.128008
L 91.073599 216.566384
L 92.236181 215.391982
L 94.559026 210.620202
L 95.721126 209.421076
L 98.045811 204.624572
L 99.208597 203.437808
L 101.532183 198.703114
L 102.694411 197.541075
L 105.01895 192.91764
L 106.181745 191.780325
L 108.507048 187.305236
L 109.669478 186.192645
L 111.994882 181.853539
L 113.156063 180.778034
L 115.479301 176.574912
L 116.641603 175.548856
L 118.965023 171.469354
L 120.128116 170.468022
L 123.614842 164.571289
L 124.777493 163.607043
L 127.100665 159.824233
L 128.262901 158.897074
L 130.588022 155.225523
L 131.749213 154.323088
L 134.074376 150.750434
L 135.23653 149.885085
L 137.56187 146.448415
L 138.724293 145.595428
L 141.048701 142.23293
L 142.211147 141.404668
L 144.536059 138.153429
L 145.69689 137.349891
L 148.01974 134.222274
L 149.181819 133.44346
L 151.50748 130.377653
L 152.669097 129.611201
L 154.993888 126.619567
L 156.155569 125.87784
L 158.479486 122.985103
L 159.640325 122.2681
L 161.962963 119.449535
L 163.124986 118.757256
L 165.450207 116.000503
L 166.610869 115.320586
L 168.935402 112.625643
L 170.097183 111.958088
L 172.422706 109.337317
L 173.585341 108.694487
L 175.911976 106.147889
L 177.074037 105.505059
L 179.398249 103.032634
L 180.561111 102.42689
L 182.88656 100.041
L 184.048769 99.447618
L 186.373882 97.111177
L 187.536882 96.530157
L 189.862284 94.230802
L 191.024766 93.662144
L 193.350299 91.436961
L 194.513195 90.893028
L 196.835957 88.717294
L 197.998008 88.173361
L 200.320601 86.034713
L 201.484373 85.515504
L 203.810068 83.451029
L 204.972081 82.93182
L 207.297224 80.929156
L 208.457598 80.434671
L 210.780465 78.481455
L 211.94235 77.999332
L 214.26531 76.120289
L 215.425745 75.650529
L 217.751544 73.808572
L 218.914047 73.363536
L 221.239202 71.558665
L 222.402673 71.125991
L 224.726617 69.345845
L 225.889086 68.913171
L 229.372538 66.354211
L 230.534826 65.946261
L 232.860958 64.302098
L 234.024491 63.894148
L 236.348361 62.249986
L 237.510536 61.854398
L 239.833555 60.284408
L 240.997537 59.88882
L 243.322921 58.343555
L 244.484972 57.960329
L 246.807774 56.415063
L 247.972326 56.056562
L 250.297235 54.585469
L 251.460114 54.202243
L 253.78508 52.768236
L 254.948642 52.422097
L 257.271975 51.09935
L 258.434078 50.728486
L 260.758852 49.29448
L 261.921554 48.935978
L 264.247052 47.613231
L 265.409411 47.291815
L 267.733957 46.092689
L 268.894353 45.795998
L 271.217811 44.535062
L 272.380232 44.226009
L 274.704919 43.026882
L 275.867587 42.742554
L 278.19309 41.679411
L 279.355079 41.432168
L 281.678124 40.467923
L 282.841568 40.22068
L 285.166116 39.342969
L 286.328113 39.132813
L 288.65293 38.391086
L 289.81353 38.230378
L 292.137612 37.66172
L 293.299579 37.525737
L 295.622775 37.068339
L 297.948793 36.771648
L 299.110946 36.573854
L 301.435955 36.351335
L 306.084553 35.955747
L 314.219464 35.869212
L 320.02609 36.017558
L 325.835135 36.301887
L 332.808637 36.709837
L 340.942119 37.117787
L 347.91406 37.439202
L 359.535121 37.83479
L 363.020469 37.921325
L 373.477307 38.057308
L 407.178358 37.958411
L 433.909048 37.785342
L 489.699364 37.884239
L 497.834798 37.884239
L 501.317179 37.83479
L 508.295627 37.896601
L 610.580107 37.83479
L 610.580107 37.83479
" clip-path="url(#p8ed6a0bb0c)" style="fill: none; stroke: #ff7f0e; stroke-width: 1.35; stroke-linecap: square"/>
   </g>
   <g id="line2d_31">
    <path d="M 51.562344 37.859514
L 637.2 37.859514
" clip-path="url(#p8ed6a0bb0c)" style="fill: none; stroke-dasharray: 2.96,1.28; stroke-dashoffset: 0; stroke: #333333; stroke-width: 0.8"/>
   </g>
   <g id="patch_3">
    <path d="M 51.562344 238.402841
L 51.562344 26.16
" style="fill: none; stroke: #000000; stroke-width: 0.8; stroke-linejoin: miter; stroke-linecap: square"/>
   </g>
   <g id="patch_4">
    <path d="M 637.2 238.402841
L 637.2 26.16
" style="fill: none; stroke: #000000; stroke-width: 0.8; stroke-linejoin: miter; stroke-linecap: square"/>
   </g>
   <g id="patch_5">
    <path d="M 51.562344 238.402841
L 637.2 238.402841
" style="fill: none; stroke: #000000; stroke-width: 0.8; stroke-linejoin: miter; stroke-linecap: square"/>
   </g>
   <g id="patch_6">
    <path d="M 51.562344 26.16
L 637.2 26.16
" style="fill: none; stroke: #000000; stroke-width: 0.8; stroke-linejoin: miter; stroke-linecap: square"/>
   </g>
   <g id="text_11">
    <!-- Hotend-260C-MCU-vs-host-same-gains -->
    <g transform="translate(228.267109 20.16) scale(0.12 -0.12)">
     <defs>
      <path id="DejaVuSans-2b" d="M 628 4666
L 1259 4666
L 1259 2753
L 3553 2753
L 3553 4666
L 4184 4666
L 4184 0
L 3553 0
L 3553 2222
L 1259 2222
L 1259 0
L 628 0
L 628 4666
z
" transform="scale(0.015625)"/>
      <path id="DejaVuSans-52" d="M 1959 3097
Q 1497 3097 1228 2736
Q 959 2375 959 1747
Q 959 1119 1226 758
Q 1494 397 1959 397
Q 2419 397 2687 759
Q 2956 1122 2956 1747
Q 2956 2369 2687 2733
Q 2419 3097 1959 3097
z
M 1959 3584
Q 2709 3584 3137 3096
Q 3566 2609 3566 1747
Q 3566 888 3137 398
Q 2709 -91 1959 -91
Q 1206 -91 779 398
Q 353 888 353 1747
Q 353 2609 779 3096
Q 1206 3584 1959 3584
z
" transform="scale(0.015625)"/>
      <path id="DejaVuSans-51" d="M 3513 2113
L 3513 0
L 2938 0
L 2938 2094
Q 2938 2591 2744 2837
Q 2550 3084 2163 3084
Q 1697 3084 1428 2787
Q 1159 2491 1159 1978
L 1159 0
L 581 0
L 581 3500
L 1159 3500
L 1159 2956
Q 1366 3272 1645 3428
Q 1925 3584 2291 3584
Q 2894 3584 3203 3211
Q 3513 2838 3513 2113
z
" transform="scale(0.015625)"/>
      <path id="DejaVuSans-47" d="M 2906 2969
L 2906 4863
L 3481 4863
L 3481 0
L 2906 0
L 2906 525
Q 2725 213 2448 61
Q 2172 -91 1784 -91
Q 1150 -91 751 415
Q 353 922 353 1747
Q 353 2572 751 3078
Q 1150 3584 1784 3584
Q 2172 3584 2448 3432
Q 2725 3281 2906 2969
z
M 947 1747
Q 947 1113 1208 752
Q 1469 391 1925 391
Q 2381 391 2643 752
Q 2906 1113 2906 1747
Q 2906 2381 2643 2742
Q 2381 3103 1925 3103
Q 1469 3103 1208 2742
Q 947 2381 947 1747
z
" transform="scale(0.015625)"/>
      <path id="DejaVuSans-10" d="M 313 2009
L 1997 2009
L 1997 1497
L 313 1497
L 313 2009
z
" transform="scale(0.015625)"/>
      <path id="DejaVuSans-30" d="M 628 4666
L 1569 4666
L 2759 1491
L 3956 4666
L 4897 4666
L 4897 0
L 4281 0
L 4281 4097
L 3078 897
L 2444 897
L 1241 4097
L 1241 0
L 628 0
L 628 4666
z
" transform="scale(0.015625)"/>
      <path id="DejaVuSans-38" d="M 556 4666
L 1191 4666
L 1191 1831
Q 1191 1081 1462 751
Q 1734 422 2344 422
Q 2950 422 3222 751
Q 3494 1081 3494 1831
L 3494 4666
L 4128 4666
L 4128 1753
Q 4128 841 3676 375
Q 3225 -91 2344 -91
Q 1459 -91 1007 375
Q 556 841 556 1753
L 556 4666
z
" transform="scale(0.015625)"/>
      <path id="DejaVuSans-59" d="M 191 3500
L 800 3500
L 1894 563
L 2988 3500
L 3597 3500
L 2284 0
L 1503 0
L 191 3500
z
" transform="scale(0.015625)"/>
      <path id="DejaVuSans-56" d="M 2834 3397
L 2834 2853
Q 2591 2978 2328 3040
Q 2066 3103 1784 3103
Q 1356 3103 1142 2972
Q 928 2841 928 2578
Q 928 2378 1081 2264
Q 1234 2150 1697 2047
L 1894 2003
Q 2506 1872 2764 1633
Q 3022 1394 3022 966
Q 3022 478 2636 193
Q 2250 -91 1575 -91
Q 1294 -91 989 -36
Q 684 19 347 128
L 347 722
Q 666 556 975 473
Q 1284 391 1588 391
Q 1994 391 2212 530
Q 2431 669 2431 922
Q 2431 1156 2273 1281
Q 2116 1406 1581 1522
L 1381 1569
Q 847 1681 609 1914
Q 372 2147 372 2553
Q 372 3047 722 3315
Q 1072 3584 1716 3584
Q 2034 3584 2315 3537
Q 2597 3491 2834 3397
z
" transform="scale(0.015625)"/>
      <path id="DejaVuSans-4b" d="M 3513 2113
L 3513 0
L 2938 0
L 2938 2094
Q 2938 2591 2744 2837
Q 2550 3084 2163 3084
Q 1697 3084 1428 2787
Q 1159 2491 1159 1978
L 1159 0
L 581 0
L 581 4863
L 1159 4863
L 1159 2956
Q 1366 3272 1645 3428
Q 1925 3584 2291 3584
Q 2894 3584 3203 3211
Q 3513 2838 3513 2113
z
" transform="scale(0.015625)"/>
      <path id="DejaVuSans-4a" d="M 2906 1791
Q 2906 2416 2648 2759
Q 2391 3103 1925 3103
Q 1463 3103 1205 2759
Q 947 2416 947 1791
Q 947 1169 1205 825
Q 1463 481 1925 481
Q 2391 481 2648 825
Q 2906 1169 2906 1791
z
M 3481 434
Q 3481 -459 3084 -895
Q 2688 -1331 1869 -1331
Q 1566 -1331 1297 -1286
Q 1028 -1241 775 -1147
L 775 -588
Q 1028 -725 1275 -790
Q 1522 -856 1778 -856
Q 2344 -856 2625 -561
Q 2906 -266 2906 331
L 2906 616
Q 2728 306 2450 153
Q 2172 0 1784 0
Q 1141 0 747 490
Q 353 981 353 1791
Q 353 2603 747 3093
Q 1141 3584 1784 3584
Q 2172 3584 2450 3431
Q 2728 3278 2906 2969
L 2906 3500
L 3481 3500
L 3481 434
z
" transform="scale(0.015625)"/>
      <path id="DejaVuSans-4c" d="M 603 3500
L 1178 3500
L 1178 0
L 603 0
L 603 3500
z
M 603 4863
L 1178 4863
L 1178 4134
L 603 4134
L 603 4863
z
" transform="scale(0.015625)"/>
     </defs>
     <use xlink:href="#DejaVuSans-2b"/>
     <use xlink:href="#DejaVuSans-52" transform="translate(75.203125 0)"/>
     <use xlink:href="#DejaVuSans-57" transform="translate(136.390625 0)"/>
     <use xlink:href="#DejaVuSans-48" transform="translate(175.59375 0)"/>
     <use xlink:href="#DejaVuSans-51" transform="translate(237.125 0)"/>
     <use xlink:href="#DejaVuSans-47" transform="translate(300.5 0)"/>
     <use xlink:href="#DejaVuSans-10" transform="translate(363.984375 0)"/>
     <use xlink:href="#DejaVuSans-15" transform="translate(400.0625 0)"/>
     <use xlink:href="#DejaVuSans-19" transform="translate(463.6875 0)"/>
     <use xlink:href="#DejaVuSans-13" transform="translate(527.3125 0)"/>
     <use xlink:href="#DejaVuSans-26" transform="translate(590.9375 0)"/>
     <use xlink:href="#DejaVuSans-10" transform="translate(660.765625 0)"/>
     <use xlink:href="#DejaVuSans-30" transform="translate(696.84375 0)"/>
     <use xlink:href="#DejaVuSans-26" transform="translate(783.125 0)"/>
     <use xlink:href="#DejaVuSans-38" transform="translate(852.953125 0)"/>
     <use xlink:href="#DejaVuSans-10" transform="translate(926.140625 0)"/>
     <use xlink:href="#DejaVuSans-59" transform="translate(959.53125 0)"/>
     <use xlink:href="#DejaVuSans-56" transform="translate(1018.71875 0)"/>
     <use xlink:href="#DejaVuSans-10" transform="translate(1070.8125 0)"/>
     <use xlink:href="#DejaVuSans-4b" transform="translate(1106.890625 0)"/>
     <use xlink:href="#DejaVuSans-52" transform="translate(1170.265625 0)"/>
     <use xlink:href="#DejaVuSans-56" transform="translate(1231.453125 0)"/>
     <use xlink:href="#DejaVuSans-57" transform="translate(1283.546875 0)"/>
     <use xlink:href="#DejaVuSans-10" transform="translate(1322.75 0)"/>
     <use xlink:href="#DejaVuSans-56" transform="translate(1358.828125 0)"/>
     <use xlink:href="#DejaVuSans-44" transform="translate(1410.921875 0)"/>
     <use xlink:href="#DejaVuSans-50" transform="translate(1472.203125 0)"/>
     <use xlink:href="#DejaVuSans-48" transform="translate(1569.609375 0)"/>
     <use xlink:href="#DejaVuSans-10" transform="translate(1631.140625 0)"/>
     <use xlink:href="#DejaVuSans-4a" transform="translate(1667.21875 0)"/>
     <use xlink:href="#DejaVuSans-44" transform="translate(1730.703125 0)"/>
     <use xlink:href="#DejaVuSans-4c" transform="translate(1791.984375 0)"/>
     <use xlink:href="#DejaVuSans-51" transform="translate(1819.765625 0)"/>
     <use xlink:href="#DejaVuSans-56" transform="translate(1883.140625 0)"/>
    </g>
   </g>
   <g id="legend_1">
    <g id="patch_7">
     <path d="M 567.79375 233.402841
L 630.2 233.402841
Q 632.2 233.402841 632.2 231.402841
L 632.2 187.400497
Q 632.2 185.400497 630.2 185.400497
L 567.79375 185.400497
Q 565.79375 185.400497 565.79375 187.400497
L 565.79375 231.402841
Q 565.79375 233.402841 567.79375 233.402841
z
" style="fill: #ffffff; opacity: 0.8; stroke: #cccccc; stroke-linejoin: miter"/>
    </g>
    <g id="line2d_32">
     <path d="M 569.79375 193.498934
L 579.79375 193.498934
L 589.79375 193.498934
" style="fill: none; stroke: #1f77b4; stroke-width: 1.35; stroke-linecap: square"/>
    </g>
    <g id="text_12">
     <!-- MCU -->
     <g transform="translate(597.79375 196.998934) scale(0.1 -0.1)">
      <use xlink:href="#DejaVuSans-30"/>
      <use xlink:href="#DejaVuSans-26" transform="translate(86.28125 0)"/>
      <use xlink:href="#DejaVuSans-38" transform="translate(156.109375 0)"/>
     </g>
    </g>
    <g id="line2d_33">
     <path d="M 569.79375 208.499716
L 579.79375 208.499716
L 589.79375 208.499716
" style="fill: none; stroke: #ff7f0e; stroke-width: 1.35; stroke-linecap: square"/>
    </g>
    <g id="text_13">
     <!-- Host -->
     <g transform="translate(597.79375 211.999716) scale(0.1 -0.1)">
      <use xlink:href="#DejaVuSans-2b"/>
      <use xlink:href="#DejaVuSans-52" transform="translate(75.203125 0)"/>
      <use xlink:href="#DejaVuSans-56" transform="translate(136.390625 0)"/>
      <use xlink:href="#DejaVuSans-57" transform="translate(188.484375 0)"/>
     </g>
    </g>
    <g id="line2d_34">
     <path d="M 569.79375 223.500497
L 579.79375 223.500497
L 589.79375 223.500497
" style="fill: none; stroke-dasharray: 2.96,1.28; stroke-dashoffset: 0; stroke: #333333; stroke-width: 0.8"/>
    </g>
    <g id="text_14">
     <!-- target -->
     <g transform="translate(597.79375 227.000497) scale(0.1 -0.1)">
      <use xlink:href="#DejaVuSans-57"/>
      <use xlink:href="#DejaVuSans-44" transform="translate(39.203125 0)"/>
      <use xlink:href="#DejaVuSans-55" transform="translate(100.484375 0)"/>
      <use xlink:href="#DejaVuSans-4a" transform="translate(139.84375 0)"/>
      <use xlink:href="#DejaVuSans-48" transform="translate(203.328125 0)"/>
      <use xlink:href="#DejaVuSans-57" transform="translate(264.859375 0)"/>
     </g>
    </g>
   </g>
  </g>
  <g id="axes_2">
   <g id="patch_8">
    <path d="M 51.562344 361.077656
L 637.2 361.077656
L 637.2 254.956236
L 51.562344 254.956236
z
" style="fill: #ffffff"/>
   </g>
   <g id="matplotlib.axis_3">
    <g id="xtick_6">
     <g id="line2d_35">
      <path d="M 78.179683 361.077656
L 78.179683 254.956236
" clip-path="url(#pd7709520b1)" style="fill: none; stroke: #b0b0b0; stroke-opacity: 0.25; stroke-width: 0.8; stroke-linecap: square"/>
     </g>
     <g id="line2d_36">
      <g>
       <use xlink:href="#m359a4fff0d" x="78.179683" y="361.077656" style="stroke: #000000; stroke-width: 0.8"/>
      </g>
     </g>
     <g id="text_15">
      <!-- 0 -->
      <g transform="translate(74.998433 375.675312) scale(0.1 -0.1)">
       <use xlink:href="#DejaVuSans-13"/>
      </g>
     </g>
    </g>
    <g id="xtick_7">
     <g id="line2d_37">
      <path d="M 194.134347 361.077656
L 194.134347 254.956236
" clip-path="url(#pd7709520b1)" style="fill: none; stroke: #b0b0b0; stroke-opacity: 0.25; stroke-width: 0.8; stroke-linecap: square"/>
     </g>
     <g id="line2d_38">
      <g>
       <use xlink:href="#m359a4fff0d" x="194.134347" y="361.077656" style="stroke: #000000; stroke-width: 0.8"/>
      </g>
     </g>
     <g id="text_16">
      <!-- 50 -->
      <g transform="translate(187.771847 375.675312) scale(0.1 -0.1)">
       <defs>
        <path id="DejaVuSans-18" d="M 691 4666
L 3169 4666
L 3169 4134
L 1269 4134
L 1269 2991
Q 1406 3038 1543 3061
Q 1681 3084 1819 3084
Q 2600 3084 3056 2656
Q 3513 2228 3513 1497
Q 3513 744 3044 326
Q 2575 -91 1722 -91
Q 1428 -91 1123 -41
Q 819 9 494 109
L 494 744
Q 775 591 1075 516
Q 1375 441 1709 441
Q 2250 441 2565 725
Q 2881 1009 2881 1497
Q 2881 1984 2565 2268
Q 2250 2553 1709 2553
Q 1456 2553 1204 2497
Q 953 2441 691 2322
L 691 4666
z
" transform="scale(0.015625)"/>
       </defs>
       <use xlink:href="#DejaVuSans-18"/>
       <use xlink:href="#DejaVuSans-13" transform="translate(63.625 0)"/>
      </g>
     </g>
    </g>
    <g id="xtick_8">
     <g id="line2d_39">
      <path d="M 310.08901 361.077656
L 310.08901 254.956236
" clip-path="url(#pd7709520b1)" style="fill: none; stroke: #b0b0b0; stroke-opacity: 0.25; stroke-width: 0.8; stroke-linecap: square"/>
     </g>
     <g id="line2d_40">
      <g>
       <use xlink:href="#m359a4fff0d" x="310.08901" y="361.077656" style="stroke: #000000; stroke-width: 0.8"/>
      </g>
     </g>
     <g id="text_17">
      <!-- 100 -->
      <g transform="translate(300.54526 375.675312) scale(0.1 -0.1)">
       <use xlink:href="#DejaVuSans-14"/>
       <use xlink:href="#DejaVuSans-13" transform="translate(63.625 0)"/>
       <use xlink:href="#DejaVuSans-13" transform="translate(127.25 0)"/>
      </g>
     </g>
    </g>
    <g id="xtick_9">
     <g id="line2d_41">
      <path d="M 426.043674 361.077656
L 426.043674 254.956236
" clip-path="url(#pd7709520b1)" style="fill: none; stroke: #b0b0b0; stroke-opacity: 0.25; stroke-width: 0.8; stroke-linecap: square"/>
     </g>
     <g id="line2d_42">
      <g>
       <use xlink:href="#m359a4fff0d" x="426.043674" y="361.077656" style="stroke: #000000; stroke-width: 0.8"/>
      </g>
     </g>
     <g id="text_18">
      <!-- 150 -->
      <g transform="translate(416.499924 375.675312) scale(0.1 -0.1)">
       <use xlink:href="#DejaVuSans-14"/>
       <use xlink:href="#DejaVuSans-18" transform="translate(63.625 0)"/>
       <use xlink:href="#DejaVuSans-13" transform="translate(127.25 0)"/>
      </g>
     </g>
    </g>
    <g id="xtick_10">
     <g id="line2d_43">
      <path d="M 541.998337 361.077656
L 541.998337 254.956236
" clip-path="url(#pd7709520b1)" style="fill: none; stroke: #b0b0b0; stroke-opacity: 0.25; stroke-width: 0.8; stroke-linecap: square"/>
     </g>
     <g id="line2d_44">
      <g>
       <use xlink:href="#m359a4fff0d" x="541.998337" y="361.077656" style="stroke: #000000; stroke-width: 0.8"/>
      </g>
     </g>
     <g id="text_19">
      <!-- 200 -->
      <g transform="translate(532.454587 375.675312) scale(0.1 -0.1)">
       <use xlink:href="#DejaVuSans-15"/>
       <use xlink:href="#DejaVuSans-13" transform="translate(63.625 0)"/>
       <use xlink:href="#DejaVuSans-13" transform="translate(127.25 0)"/>
      </g>
     </g>
    </g>
    <g id="text_20">
     <!-- Elapsed time (s) -->
     <g transform="translate(303.758516 389.676094) scale(0.1 -0.1)">
      <defs>
       <path id="DejaVuSans-28" d="M 628 4666
L 3578 4666
L 3578 4134
L 1259 4134
L 1259 2753
L 3481 2753
L 3481 2222
L 1259 2222
L 1259 531
L 3634 531
L 3634 0
L 628 0
L 628 4666
z
" transform="scale(0.015625)"/>
       <path id="DejaVuSans-4f" d="M 603 4863
L 1178 4863
L 1178 0
L 603 0
L 603 4863
z
" transform="scale(0.015625)"/>
      </defs>
      <use xlink:href="#DejaVuSans-28"/>
      <use xlink:href="#DejaVuSans-4f" transform="translate(63.1875 0)"/>
      <use xlink:href="#DejaVuSans-44" transform="translate(90.96875 0)"/>
      <use xlink:href="#DejaVuSans-53" transform="translate(152.25 0)"/>
      <use xlink:href="#DejaVuSans-56" transform="translate(215.734375 0)"/>
      <use xlink:href="#DejaVuSans-48" transform="translate(267.828125 0)"/>
      <use xlink:href="#DejaVuSans-47" transform="translate(329.359375 0)"/>
      <use xlink:href="#DejaVuSans-3" transform="translate(392.84375 0)"/>
      <use xlink:href="#DejaVuSans-57" transform="translate(424.625 0)"/>
      <use xlink:href="#DejaVuSans-4c" transform="translate(463.828125 0)"/>
      <use xlink:href="#DejaVuSans-50" transform="translate(491.609375 0)"/>
      <use xlink:href="#DejaVuSans-48" transform="translate(589.015625 0)"/>
      <use xlink:href="#DejaVuSans-3" transform="translate(650.546875 0)"/>
      <use xlink:href="#DejaVuSans-b" transform="translate(682.328125 0)"/>
      <use xlink:href="#DejaVuSans-56" transform="translate(721.34375 0)"/>
      <use xlink:href="#DejaVuSans-c" transform="translate(773.4375 0)"/>
     </g>
    </g>
   </g>
   <g id="matplotlib.axis_4">
    <g id="ytick_10">
     <g id="line2d_45">
      <path d="M 51.562344 359.03686
L 637.2 359.03686
" clip-path="url(#pd7709520b1)" style="fill: none; stroke: #b0b0b0; stroke-opacity: 0.25; stroke-width: 0.8; stroke-linecap: square"/>
     </g>
     <g id="line2d_46">
      <g>
       <use xlink:href="#m5b71783edc" x="51.562344" y="359.03686" style="stroke: #000000; stroke-width: 0.8"/>
      </g>
     </g>
     <g id="text_21">
      <!-- 0 -->
      <g transform="translate(38.199844 362.835688) scale(0.1 -0.1)">
       <use xlink:href="#DejaVuSans-13"/>
      </g>
     </g>
    </g>
    <g id="ytick_11">
     <g id="line2d_47">
      <path d="M 51.562344 333.526903
L 637.2 333.526903
" clip-path="url(#pd7709520b1)" style="fill: none; stroke: #b0b0b0; stroke-opacity: 0.25; stroke-width: 0.8; stroke-linecap: square"/>
     </g>
     <g id="line2d_48">
      <g>
       <use xlink:href="#m5b71783edc" x="51.562344" y="333.526903" style="stroke: #000000; stroke-width: 0.8"/>
      </g>
     </g>
     <g id="text_22">
      <!-- 25 -->
      <g transform="translate(31.837344 337.325731) scale(0.1 -0.1)">
       <use xlink:href="#DejaVuSans-15"/>
       <use xlink:href="#DejaVuSans-18" transform="translate(63.625 0)"/>
      </g>
     </g>
    </g>
    <g id="ytick_12">
     <g id="line2d_49">
      <path d="M 51.562344 308.016946
L 637.2 308.016946
" clip-path="url(#pd7709520b1)" style="fill: none; stroke: #b0b0b0; stroke-opacity: 0.25; stroke-width: 0.8; stroke-linecap: square"/>
     </g>
     <g id="line2d_50">
      <g>
       <use xlink:href="#m5b71783edc" x="51.562344" y="308.016946" style="stroke: #000000; stroke-width: 0.8"/>
      </g>
     </g>
     <g id="text_23">
      <!-- 50 -->
      <g transform="translate(31.837344 311.815774) scale(0.1 -0.1)">
       <use xlink:href="#DejaVuSans-18"/>
       <use xlink:href="#DejaVuSans-13" transform="translate(63.625 0)"/>
      </g>
     </g>
    </g>
    <g id="ytick_13">
     <g id="line2d_51">
      <path d="M 51.562344 282.506989
L 637.2 282.506989
" clip-path="url(#pd7709520b1)" style="fill: none; stroke: #b0b0b0; stroke-opacity: 0.25; stroke-width: 0.8; stroke-linecap: square"/>
     </g>
     <g id="line2d_52">
      <g>
       <use xlink:href="#m5b71783edc" x="51.562344" y="282.506989" style="stroke: #000000; stroke-width: 0.8"/>
      </g>
     </g>
     <g id="text_24">
      <!-- 75 -->
      <g transform="translate(31.837344 286.305817) scale(0.1 -0.1)">
       <defs>
        <path id="DejaVuSans-1a" d="M 525 4666
L 3525 4666
L 3525 4397
L 1831 0
L 1172 0
L 2766 4134
L 525 4134
L 525 4666
z
" transform="scale(0.015625)"/>
       </defs>
       <use xlink:href="#DejaVuSans-1a"/>
       <use xlink:href="#DejaVuSans-18" transform="translate(63.625 0)"/>
      </g>
     </g>
    </g>
    <g id="ytick_14">
     <g id="line2d_53">
      <path d="M 51.562344 256.997033
L 637.2 256.997033
" clip-path="url(#pd7709520b1)" style="fill: none; stroke: #b0b0b0; stroke-opacity: 0.25; stroke-width: 0.8; stroke-linecap: square"/>
     </g>
     <g id="line2d_54">
      <g>
       <use xlink:href="#m5b71783edc" x="51.562344" y="256.997033" style="stroke: #000000; stroke-width: 0.8"/>
      </g>
     </g>
     <g id="text_25">
      <!-- 100 -->
      <g transform="translate(25.474844 260.795861) scale(0.1 -0.1)">
       <use xlink:href="#DejaVuSans-14"/>
       <use xlink:href="#DejaVuSans-13" transform="translate(63.625 0)"/>
       <use xlink:href="#DejaVuSans-13" transform="translate(127.25 0)"/>
      </g>
     </g>
    </g>
    <g id="text_26">
     <!-- Duty (%) -->
     <g transform="translate(19.0725 330.196634) rotate(-90) scale(0.1 -0.1)">
      <defs>
       <path id="DejaVuSans-27" d="M 1259 4147
L 1259 519
L 2022 519
Q 2988 519 3436 956
Q 3884 1394 3884 2338
Q 3884 3275 3436 3711
Q 2988 4147 2022 4147
L 1259 4147
z
M 628 4666
L 1925 4666
Q 3281 4666 3915 4102
Q 4550 3538 4550 2338
Q 4550 1131 3912 565
Q 3275 0 1925 0
L 628 0
L 628 4666
z
" transform="scale(0.015625)"/>
       <path id="DejaVuSans-5c" d="M 2059 -325
Q 1816 -950 1584 -1140
Q 1353 -1331 966 -1331
L 506 -1331
L 506 -850
L 844 -850
Q 1081 -850 1212 -737
Q 1344 -625 1503 -206
L 1606 56
L 191 3500
L 800 3500
L 1894 763
L 2988 3500
L 3597 3500
L 2059 -325
z
" transform="scale(0.015625)"/>
       <path id="DejaVuSans-8" d="M 4653 2053
Q 4381 2053 4226 1822
Q 4072 1591 4072 1178
Q 4072 772 4226 539
Q 4381 306 4653 306
Q 4919 306 5073 539
Q 5228 772 5228 1178
Q 5228 1588 5073 1820
Q 4919 2053 4653 2053
z
M 4653 2450
Q 5147 2450 5437 2106
Q 5728 1763 5728 1178
Q 5728 594 5436 251
Q 5144 -91 4653 -91
Q 4153 -91 3862 251
Q 3572 594 3572 1178
Q 3572 1766 3864 2108
Q 4156 2450 4653 2450
z
M 1428 4353
Q 1159 4353 1004 4120
Q 850 3888 850 3481
Q 850 3069 1003 2837
Q 1156 2606 1428 2606
Q 1700 2606 1854 2837
Q 2009 3069 2009 3481
Q 2009 3884 1853 4118
Q 1697 4353 1428 4353
z
M 4250 4750
L 4750 4750
L 1831 -91
L 1331 -91
L 4250 4750
z
M 1428 4750
Q 1922 4750 2215 4408
Q 2509 4066 2509 3481
Q 2509 2891 2217 2550
Q 1925 2209 1428 2209
Q 931 2209 642 2551
Q 353 2894 353 3481
Q 353 4063 643 4406
Q 934 4750 1428 4750
z
" transform="scale(0.015625)"/>
      </defs>
      <use xlink:href="#DejaVuSans-27"/>
      <use xlink:href="#DejaVuSans-58" transform="translate(77 0)"/>
      <use xlink:href="#DejaVuSans-57" transform="translate(140.375 0)"/>
      <use xlink:href="#DejaVuSans-5c" transform="translate(179.578125 0)"/>
      <use xlink:href="#DejaVuSans-3" transform="translate(238.765625 0)"/>
      <use xlink:href="#DejaVuSans-b" transform="translate(270.546875 0)"/>
      <use xlink:href="#DejaVuSans-8" transform="translate(309.5625 0)"/>
      <use xlink:href="#DejaVuSans-c" transform="translate(404.578125 0)"/>
     </g>
    </g>
   </g>
   <g id="line2d_55">
    <path d="M 78.182237 359.03686
L 79.457507 256.997033
L 236.325726 256.997033
L 237.488068 259.274964
L 238.651298 259.274964
L 239.813351 258.482437
L 240.975171 258.482437
L 242.137217 259.614397
L 245.622763 259.679792
L 246.784874 259.296763
L 247.948227 259.296763
L 249.11069 258.588315
L 250.273727 258.588315
L 251.436297 260.109531
L 252.597222 260.109531
L 253.760249 258.997813
L 254.921792 258.997813
L 256.083805 257.608944
L 257.246936 257.608944
L 258.409084 258.758031
L 259.569541 258.758031
L 260.731861 262.202177
L 261.894974 262.202177
L 263.056701 262.015334
L 264.219806 262.015334
L 265.38203 264.361775
L 266.544459 264.361775
L 267.706285 265.109148
L 268.867472 265.109148
L 270.029582 266.197511
L 271.189784 266.197511
L 272.351707 266.944884
L 273.514517 266.944884
L 274.676656 269.190118
L 275.837274 269.190118
L 276.999481 271.97097
L 278.161019 271.97097
L 279.3229 273.607407
L 280.485811 273.607407
L 281.647676 273.912584
L 282.811801 273.912584
L 283.973395 277.107606
L 285.134461 277.107606
L 286.295989 277.758443
L 287.458555 277.758443
L 288.620438 279.285888
L 289.783018 279.285888
L 290.944907 281.09204
L 292.107505 281.09204
L 293.269309 283.055452
L 294.431616 283.055452
L 295.593198 283.749887
L 296.754025 283.749887
L 297.916021 285.507771
L 299.078776 285.507771
L 300.240696 286.161723
L 301.402948 286.161723
L 302.564749 287.96009
L 303.726852 287.96009
L 304.888711 288.073754
L 306.0515 288.073754
L 307.213879 289.012641
L 308.373828 289.012641
L 309.535772 287.819958
L 310.697487 287.819958
L 311.859363 289.081151
L 313.021228 289.081151
L 314.183529 287.958533
L 315.343561 287.958533
L 316.505781 289.560715
L 317.668447 289.560715
L 318.830426 289.837866
L 319.99319 289.837866
L 321.155095 290.916887
L 322.317271 290.916887
L 323.479585 291.106844
L 324.642207 291.106844
L 325.804194 290.536972
L 326.964629 290.536972
L 328.126508 290.375041
L 329.288967 290.375041
L 330.450744 289.366087
L 331.612993 289.366087
L 332.774896 289.769357
L 333.937587 289.769357
L 335.099441 288.665424
L 336.261901 288.665424
L 337.424321 287.436929
L 338.587725 287.436929
L 339.749923 289.300692
L 340.912553 289.300692
L 342.074661 288.581345
L 343.236807 288.581345
L 344.399253 289.647909
L 347.886315 289.638567
L 349.048401 289.084265
L 350.20914 289.084265
L 351.371415 289.384771
L 352.535408 289.384771
L 353.697895 288.249698
L 354.857727 288.249698
L 356.01971 287.289011
L 359.505805 287.329494
L 360.667924 288.15939
L 361.830354 288.15939
L 362.992697 287.97099
L 364.152923 287.97099
L 365.315097 287.354407
L 366.477647 287.354407
L 367.639768 285.957753
L 368.800056 285.957753
L 369.961911 286.962036
L 371.124038 286.962036
L 372.285746 287.703181
L 373.448097 287.703181
L 374.609768 287.461842
L 375.772495 287.461842
L 376.93465 287.868226
L 380.421627 287.785703
L 381.583867 287.55682
L 382.746478 287.55682
L 383.908872 288.680994
L 385.071141 288.680994
L 386.233118 286.395277
L 387.395381 286.395277
L 388.556791 286.653744
L 389.719028 286.653744
L 390.881288 286.312755
L 392.043561 286.312755
L 393.205018 286.932452
L 394.367399 286.932452
L 395.529397 288.433427
L 396.691672 288.433427
L 397.853429 288.691894
L 399.015799 288.691894
L 400.177534 287.644014
L 405.989165 287.659584
L 407.150878 287.964762
L 408.313065 287.964762
L 409.474738 285.939068
L 410.636955 285.939068
L 411.798494 288.213886
L 412.960612 288.213886
L 414.122253 286.456001
L 415.284679 286.456001
L 416.446091 287.477412
L 417.60868 287.477412
L 418.770352 288.998628
L 419.933035 288.998628
L 421.09487 289.878349
L 422.257098 289.878349
L 423.419007 287.974104
L 424.578891 287.974104
L 425.740516 287.544364
L 426.902664 287.544364
L 428.065246 287.327937
L 429.227457 287.327937
L 430.389696 287.119295
L 431.551753 287.119295
L 432.713903 289.289792
L 433.8757 289.289792
L 435.037972 286.775192
L 436.199905 286.775192
L 437.362047 288.165618
L 438.52387 288.165618
L 439.686112 289.210384
L 440.84686 289.210384
L 442.009165 287.415131
L 445.495605 287.482083
L 446.657818 287.664255
L 447.820159 287.664255
L 448.982144 287.494539
L 450.144224 287.494539
L 451.306375 286.753394
L 452.468635 286.753394
L 453.630465 287.298354
L 454.792549 287.298354
L 455.954544 288.262154
L 459.441311 288.202987
L 460.603205 288.062854
L 461.7646 288.062854
L 462.926814 287.777918
L 464.088956 287.777918
L 465.251239 288.651411
L 466.411335 288.651411
L 467.573679 288.062854
L 468.735871 288.062854
L 469.898263 287.818401
L 471.060427 287.818401
L 472.22175 289.028212
L 473.381351 289.028212
L 474.542477 288.311979
L 475.70411 288.311979
L 476.867323 287.232958
L 480.355244 287.139537
L 482.678374 287.120852
L 483.839045 288.311979
L 485.000634 288.311979
L 486.163798 287.343507
L 487.325743 287.343507
L 488.48733 288.825798
L 489.649191 288.825798
L 490.810074 288.148491
L 491.972071 288.148491
L 493.132969 288.783758
L 494.293178 288.783758
L 495.454358 286.826574
L 498.94208 286.800105
L 500.104828 287.393332
L 503.59217 287.327937
L 504.753044 287.717194
L 505.915049 287.717194
L 507.076208 288.824241
L 508.238024 288.824241
L 509.401462 288.279281
L 510.563503 288.279281
L 511.725075 288.782201
L 512.887047 288.782201
L 514.048459 286.98072
L 515.210761 286.98072
L 516.37347 287.273441
L 517.535296 287.273441
L 518.698226 288.617156
L 519.860307 288.617156
L 521.023217 287.200261
L 522.187381 287.200261
L 523.350366 288.268382
L 524.512123 288.268382
L 525.675176 287.748335
L 526.836897 287.748335
L 527.998188 288.511278
L 531.48423 288.534634
L 532.645256 289.216612
L 533.808408 289.216612
L 534.969842 288.307308
L 536.132022 288.307308
L 537.292756 289.116962
L 538.457157 289.116962
L 539.61764 288.494151
L 540.779801 288.494151
L 541.943159 287.893138
L 545.430881 287.96009
L 546.592015 286.927781
L 547.754303 286.927781
L 548.917161 287.690725
L 550.079095 287.690725
L 551.242369 287.997459
L 552.404786 287.997459
L 553.565486 287.228287
L 554.727979 287.228287
L 555.888823 290.023153
L 557.050902 290.023153
L 558.214282 288.179631
L 559.376155 288.179631
L 560.539608 288.427199
L 561.701526 288.427199
L 562.86208 288.730819
L 564.023807 288.730819
L 565.186993 289.056238
L 566.349075 289.056238
L 567.50994 288.293294
L 568.671582 288.293294
L 569.834947 287.553706
L 570.997042 287.553706
L 572.158382 287.863555
L 573.318339 287.863555
L 574.479626 286.294071
L 575.641524 286.294071
L 576.80258 288.271496
L 577.96462 288.271496
L 579.126092 287.930507
L 580.287713 287.930507
L 581.448673 288.375817
L 582.610818 288.375817
L 583.771861 287.796603
L 584.933513 287.796603
L 586.094633 287.4416
L 587.256317 287.4416
L 588.417332 288.221671
L 589.579247 288.221671
L 590.740051 288.93479
L 591.9017 288.93479
L 593.064793 288.391387
L 594.226728 288.391387
L 595.387856 287.611316
L 596.549851 287.611316
L 597.711268 287.788817
L 598.87078 287.788817
L 600.032082 288.215443
L 601.194015 288.215443
L 602.357383 288.100223
L 603.519336 288.100223
L 603.519336 288.100223
" clip-path="url(#pd7709520b1)" style="fill: none; stroke: #1f77b4; stroke-linecap: square"/>
   </g>
   <g id="line2d_56">
    <path d="M 78.182344 359.03686
L 79.45735 256.997033
L 247.972326 256.997033
L 249.133971 258.505793
L 250.297235 256.997033
L 251.460114 261.247719
L 253.78508 256.997033
L 254.948642 258.267567
L 256.111006 256.997033
L 257.271975 257.811358
L 258.434078 259.193999
L 259.596608 259.01027
L 260.758852 256.997033
L 261.921554 260.023895
L 263.083636 258.174146
L 264.247052 258.958888
L 265.409411 258.857681
L 266.571656 257.011046
L 267.733957 257.974846
L 268.894353 257.626072
L 270.056609 260.315059
L 271.217811 260.386682
L 272.380232 261.081117
L 273.542682 263.151964
L 275.867587 263.438457
L 277.029588 263.046086
L 278.19309 267.105258
L 279.355079 265.31779
L 280.516172 266.728457
L 281.678124 269.457927
L 284.003617 271.162873
L 286.328113 273.180781
L 287.490898 273.733526
L 288.65293 274.901297
L 289.81353 275.488297
L 290.975246 275.749877
L 292.137612 277.633881
L 293.299579 278.167942
L 294.460397 279.693829
L 295.622775 278.266034
L 296.786212 280.403834
L 297.948793 280.898969
L 299.110946 283.069466
L 300.273471 281.996673
L 301.435955 284.411624
L 302.598195 284.249693
L 303.760277 286.36258
L 304.922008 286.504269
L 306.084553 287.942963
L 307.246044 286.846815
L 308.409256 287.369977
L 309.572032 287.365306
L 310.733182 289.62611
L 311.893759 287.623772
L 313.057417 288.682551
L 314.219464 287.868226
L 315.379524 288.039499
L 316.541998 288.939461
L 317.702635 290.238022
L 318.864514 290.18664
L 320.02609 291.094388
L 321.188124 289.665036
L 322.348387 290.05585
L 323.510224 289.61054
L 324.673133 291.204937
L 325.835135 288.799329
L 326.997639 290.364142
L 328.15948 291.436934
L 329.324058 289.470408
L 330.485966 290.619494
L 331.646675 290.572783
L 332.808637 290.015367
L 333.971519 290.337672
L 335.133404 291.87913
L 336.295433 290.424866
L 337.457373 290.390611
L 338.619432 289.215055
L 339.781546 291.377767
L 340.942119 289.984227
L 342.103942 291.039892
L 343.266093 290.845263
L 344.428197 289.292906
L 345.590289 289.12319
L 346.752624 288.556432
L 347.91406 289.618325
L 349.076289 289.844094
L 351.400897 290.659977
L 352.562942 288.800886
L 353.725139 289.292906
L 354.885778 289.277336
L 356.047905 288.075311
L 357.21028 289.839423
L 358.372605 288.403843
L 359.535121 288.526849
L 360.697399 289.420583
L 361.857777 288.399172
L 363.020469 286.443545
L 364.181046 287.651799
L 365.343348 289.481307
L 366.505738 289.308477
L 367.668148 287.927393
L 368.82883 287.804388
L 369.991063 288.858496
L 371.153283 286.89664
L 372.315265 288.036385
L 374.639503 287.874454
L 375.801812 286.046503
L 376.963716 288.651411
L 378.125993 287.757677
L 379.287887 287.877568
L 380.449808 287.763905
L 381.612139 287.016532
L 383.934545 287.807502
L 385.096868 287.673597
L 386.259151 287.983446
L 387.421381 286.096328
L 388.583303 288.178074
L 389.745952 287.510109
L 390.90832 288.034828
L 392.070715 287.166006
L 393.232821 288.810228
L 394.395215 288.027043
L 395.557387 286.622603
L 396.717611 286.599248
L 397.880158 285.943739
L 399.042465 287.450942
L 400.204695 287.304582
L 401.366713 286.334553
L 402.529396 286.505826
L 403.691721 287.184691
L 404.854161 286.350124
L 406.016457 287.106839
L 408.341197 288.134478
L 409.503649 287.882239
L 410.666014 286.071416
L 411.827721 287.217388
L 412.990042 285.35674
L 414.152034 287.754563
L 415.314741 286.720696
L 416.476746 286.801662
L 417.639358 289.006413
L 418.801406 286.999404
L 419.963512 287.117738
L 421.125546 288.506607
L 422.288872 289.26488
L 423.451204 287.696953
L 424.613127 287.768576
L 425.776642 287.684497
L 426.936968 287.74055
L 428.099192 288.441212
L 429.259928 288.271496
L 430.421722 288.229456
L 431.583955 287.819958
L 432.746577 289.148103
L 433.909048 288.917663
L 435.071764 287.41046
L 436.234163 288.234127
L 437.396994 287.630001
L 438.559074 287.770133
L 439.721481 288.941018
L 440.883329 289.496877
L 442.04603 289.28045
L 443.208103 288.545533
L 444.370619 288.106451
L 445.532982 288.846039
L 446.695426 288.779087
L 449.017348 286.698898
L 450.179456 288.601586
L 451.341827 289.995126
L 452.503885 288.378931
L 454.828189 289.386328
L 457.152201 287.891581
L 458.314058 288.083096
L 459.476146 287.594189
L 460.637856 289.101392
L 461.800423 290.311203
L 462.962397 288.721477
L 464.124619 287.774804
L 465.287042 288.606257
L 466.449735 289.241524
L 467.612076 288.54709
L 468.774305 287.988117
L 469.936454 288.763517
L 471.099014 288.858496
L 472.26093 289.282007
L 473.422956 287.924279
L 474.586911 288.866281
L 475.748887 289.563829
L 476.912188 286.882627
L 478.074202 288.534634
L 479.237631 287.801274
L 480.399717 289.851879
L 481.563102 288.29018
L 482.722744 287.074142
L 483.885877 289.291349
L 485.04804 286.803219
L 486.211684 288.90832
L 487.373688 288.816456
L 489.699364 286.209991
L 490.862772 287.938292
L 492.025082 289.059352
L 493.186089 288.575117
L 494.347901 289.140318
L 495.511321 289.476636
L 496.673162 288.000573
L 497.834798 286.867057
L 498.995322 289.423697
L 500.15711 288.727705
L 501.317179 289.311591
L 502.480411 288.805557
L 503.643057 286.452887
L 504.806385 289.350516
L 505.970668 286.579007
L 507.133627 288.297966
L 508.295627 289.496877
L 509.45898 288.003687
L 510.620751 288.925448
L 511.784248 288.802443
L 512.946182 287.535022
L 514.107842 287.573948
L 515.271911 288.360247
L 516.432668 288.456782
L 517.59473 289.876792
L 518.756011 287.6409
L 519.918125 287.863555
L 521.081783 288.830469
L 522.243763 289.347402
L 523.408315 288.506607
L 524.570155 288.621827
L 525.733947 288.579788
L 526.895813 287.907152
L 528.059276 288.726148
L 529.221068 289.278893
L 530.384633 289.605869
L 531.546387 287.760791
L 532.709889 289.166787
L 535.034573 287.717194
L 536.194575 287.905594
L 537.358076 289.912604
L 538.520467 288.805557
L 539.68147 289.549816
L 540.843629 288.679437
L 542.006794 288.111122
L 543.167131 289.605869
L 544.330339 286.842144
L 545.49254 288.008358
L 547.817415 289.258652
L 548.980546 288.998628
L 550.143181 288.509721
L 551.304522 287.276555
L 552.466751 289.847208
L 553.628177 288.154719
L 554.790445 288.287066
L 555.953905 287.072585
L 557.116447 287.651799
L 558.278133 287.815287
L 559.440122 288.372703
L 560.603706 288.375817
L 561.765698 289.001742
L 562.927788 287.788817
L 564.089915 288.106451
L 565.251714 288.741719
L 566.413759 288.29018
L 567.575001 286.323654
L 568.736831 288.54709
L 569.898492 286.92311
L 571.060417 289.035997
L 572.223667 288.167175
L 573.385798 287.463399
L 574.549213 289.12319
L 575.711477 288.277724
L 576.874514 288.984615
L 578.036815 287.809059
L 579.197734 287.857327
L 580.360082 287.281226
L 581.521674 289.629224
L 582.684017 289.299135
L 583.845107 287.791931
L 585.007876 287.349736
L 586.170695 288.77753
L 587.332917 287.061685
L 588.494299 289.512447
L 589.654216 289.213498
L 590.817392 289.490649
L 591.979612 288.487923
L 593.142797 287.262542
L 594.305208 288.100223
L 595.468372 288.37426
L 596.630485 288.377374
L 597.791226 288.00213
L 598.954187 287.830857
L 600.117433 287.387104
L 601.279372 287.693839
L 602.443438 289.095164
L 603.606181 288.333777
L 604.767584 287.144208
L 605.929422 288.47391
L 607.09311 287.218945
L 609.418175 287.956976
L 610.580107 289.926617
L 610.580107 289.926617
" clip-path="url(#pd7709520b1)" style="fill: none; stroke: #ff7f0e; stroke-linecap: square"/>
   </g>
   <g id="patch_9">
    <path d="M 51.562344 361.077656
L 51.562344 254.956236
" style="fill: none; stroke: #000000; stroke-width: 0.8; stroke-linejoin: miter; stroke-linecap: square"/>
   </g>
   <g id="patch_10">
    <path d="M 637.2 361.077656
L 637.2 254.956236
" style="fill: none; stroke: #000000; stroke-width: 0.8; stroke-linejoin: miter; stroke-linecap: square"/>
   </g>
   <g id="patch_11">
    <path d="M 51.562344 361.077656
L 637.2 361.077656
" style="fill: none; stroke: #000000; stroke-width: 0.8; stroke-linejoin: miter; stroke-linecap: square"/>
   </g>
   <g id="patch_12">
    <path d="M 51.562344 254.956236
L 637.2 254.956236
" style="fill: none; stroke: #000000; stroke-width: 0.8; stroke-linejoin: miter; stroke-linecap: square"/>
   </g>
  </g>
 </g>
 <defs>
  <clipPath id="p8ed6a0bb0c">
   <rect x="51.562344" y="26.16" width="585.637656" height="212.242841"/>
  </clipPath>
  <clipPath id="pd7709520b1">
   <rect x="51.562344" y="254.956236" width="585.637656" height="106.12142"/>
  </clipPath>
 </defs>
</svg>
