<?xml version="1.0" encoding="utf-8" standalone="no"?>
<!DOCTYPE svg PUBLIC "-//W3C//DTD SVG 1.1//EN"
  "http://www.w3.org/Graphics/SVG/1.1/DTD/svg11.dtd">
<svg xmlns:xlink="http://www.w3.org/1999/xlink" width="648pt" height="403.2pt" viewBox="0 0 648 403.2" xmlns="http://www.w3.org/2000/svg" version="1.1">
 <metadata>
  <rdf:RDF xmlns:dc="http://purl.org/dc/elements/1.1/" xmlns:cc="http://creativecommons.org/ns#" xmlns:rdf="http://www.w3.org/1999/02/22-rdf-syntax-ns#">
   <cc:Work>
    <dc:type rdf:resource="http://purl.org/dc/dcmitype/StillImage"/>
    <dc:format>image/svg+xml</dc:format>
    <dc:creator>
     <cc:Agent>
      <dc:title>Helix</dc:title>
     </cc:Agent>
    </dc:creator>
   </cc:Work>
  </rdf:RDF>
 </metadata>
 <defs>
  <style type="text/css">*{stroke-linejoin: round; stroke-linecap: butt}</style>
 </defs>
 <g id="figure_1">
  <g id="patch_1">
   <path d="M 0 403.2
L 648 403.2
L 648 0
L 0 0
z
" style="fill: #ffffff"/>
  </g>
  <g id="axes_1">
   <g id="patch_2">
    <path d="M 51.562344 238.578706
L 637.2 238.578706
L 637.2 26.16
L 51.562344 26.16
z
" style="fill: #ffffff"/>
   </g>
   <g id="matplotlib.axis_1">
    <g id="xtick_1">
     <g id="line2d_1">
      <path d="M 78.177689 238.578706
L 78.177689 26.16
" clip-path="url(#pd74a4bbff6)" style="fill: none; stroke: #b0b0b0; stroke-opacity: 0.25; stroke-width: 0.8; stroke-linecap: square"/>
     </g>
     <g id="line2d_2">
      <defs>
       <path id="mf8cbbbb7af" d="M 0 0
L 0 3.5
" style="stroke: #000000; stroke-width: 0.8"/>
      </defs>
      <g>
       <use xlink:href="#mf8cbbbb7af" x="78.177689" y="238.578706" style="stroke: #000000; stroke-width: 0.8"/>
      </g>
     </g>
    </g>
    <g id="xtick_2">
     <g id="line2d_3">
      <path d="M 168.207986 238.578706
L 168.207986 26.16
" clip-path="url(#pd74a4bbff6)" style="fill: none; stroke: #b0b0b0; stroke-opacity: 0.25; stroke-width: 0.8; stroke-linecap: square"/>
     </g>
     <g id="line2d_4">
      <g>
       <use xlink:href="#mf8cbbbb7af" x="168.207986" y="238.578706" style="stroke: #000000; stroke-width: 0.8"/>
      </g>
     </g>
    </g>
    <g id="xtick_3">
     <g id="line2d_5">
      <path d="M 258.238284 238.578706
L 258.238284 26.16
" clip-path="url(#pd74a4bbff6)" style="fill: none; stroke: #b0b0b0; stroke-opacity: 0.25; stroke-width: 0.8; stroke-linecap: square"/>
     </g>
     <g id="line2d_6">
      <g>
       <use xlink:href="#mf8cbbbb7af" x="258.238284" y="238.578706" style="stroke: #000000; stroke-width: 0.8"/>
      </g>
     </g>
    </g>
    <g id="xtick_4">
     <g id="line2d_7">
      <path d="M 348.268581 238.578706
L 348.268581 26.16
" clip-path="url(#pd74a4bbff6)" style="fill: none; stroke: #b0b0b0; stroke-opacity: 0.25; stroke-width: 0.8; stroke-linecap: square"/>
     </g>
     <g id="line2d_8">
      <g>
       <use xlink:href="#mf8cbbbb7af" x="348.268581" y="238.578706" style="stroke: #000000; stroke-width: 0.8"/>
      </g>
     </g>
    </g>
    <g id="xtick_5">
     <g id="line2d_9">
      <path d="M 438.298879 238.578706
L 438.298879 26.16
" clip-path="url(#pd74a4bbff6)" style="fill: none; stroke: #b0b0b0; stroke-opacity: 0.25; stroke-width: 0.8; stroke-linecap: square"/>
     </g>
     <g id="line2d_10">
      <g>
       <use xlink:href="#mf8cbbbb7af" x="438.298879" y="238.578706" style="stroke: #000000; stroke-width: 0.8"/>
      </g>
     </g>
    </g>
    <g id="xtick_6">
     <g id="line2d_11">
      <path d="M 528.329176 238.578706
L 528.329176 26.16
" clip-path="url(#pd74a4bbff6)" style="fill: none; stroke: #b0b0b0; stroke-opacity: 0.25; stroke-width: 0.8; stroke-linecap: square"/>
     </g>
     <g id="line2d_12">
      <g>
       <use xlink:href="#mf8cbbbb7af" x="528.329176" y="238.578706" style="stroke: #000000; stroke-width: 0.8"/>
      </g>
     </g>
    </g>
    <g id="xtick_7">
     <g id="line2d_13">
      <path d="M 618.359473 238.578706
L 618.359473 26.16
" clip-path="url(#pd74a4bbff6)" style="fill: none; stroke: #b0b0b0; stroke-opacity: 0.25; stroke-width: 0.8; stroke-linecap: square"/>
     </g>
     <g id="line2d_14">
      <g>
       <use xlink:href="#mf8cbbbb7af" x="618.359473" y="238.578706" style="stroke: #000000; stroke-width: 0.8"/>
      </g>
     </g>
    </g>
   </g>
   <g id="matplotlib.axis_2">
    <g id="ytick_1">
     <g id="line2d_15">
      <path d="M 51.562344 221.041885
L 637.2 221.041885
" clip-path="url(#pd74a4bbff6)" style="fill: none; stroke: #b0b0b0; stroke-opacity: 0.25; stroke-width: 0.8; stroke-linecap: square"/>
     </g>
     <g id="line2d_16">
      <defs>
       <path id="m9bea4c9d3f" d="M 0 0
L -3.5 0
" style="stroke: #000000; stroke-width: 0.8"/>
      </defs>
      <g>
       <use xlink:href="#m9bea4c9d3f" x="51.562344" y="221.041885" style="stroke: #000000; stroke-width: 0.8"/>
      </g>
     </g>
     <g id="text_1">
      <!-- 30 -->
      <g transform="translate(31.837344 224.840713) scale(0.1 -0.1)">
       <defs>
        <path id="DejaVuSans-16" d="M 2597 2516
Q 3050 2419 3304 2112
Q 3559 1806 3559 1356
Q 3559 666 3084 287
Q 2609 -91 1734 -91
Q 1441 -91 1130 -33
Q 819 25 488 141
L 488 750
Q 750 597 1062 519
Q 1375 441 1716 441
Q 2309 441 2620 675
Q 2931 909 2931 1356
Q 2931 1769 2642 2001
Q 2353 2234 1838 2234
L 1294 2234
L 1294 2753
L 1863 2753
Q 2328 2753 2575 2939
Q 2822 3125 2822 3475
Q 2822 3834 2567 4026
Q 2313 4219 1838 4219
Q 1578 4219 1281 4162
Q 984 4106 628 3988
L 628 4550
Q 988 4650 1302 4700
Q 1616 4750 1894 4750
Q 2613 4750 3031 4423
Q 3450 4097 3450 3541
Q 3450 3153 3228 2886
Q 3006 2619 2597 2516
z
" transform="scale(0.015625)"/>
        <path id="DejaVuSans-13" d="M 2034 4250
Q 1547 4250 1301 3770
Q 1056 3291 1056 2328
Q 1056 1369 1301 889
Q 1547 409 2034 409
Q 2525 409 2770 889
Q 3016 1369 3016 2328
Q 3016 3291 2770 3770
Q 2525 4250 2034 4250
z
M 2034 4750
Q 2819 4750 3233 4129
Q 3647 3509 3647 2328
Q 3647 1150 3233 529
Q 2819 -91 2034 -91
Q 1250 -91 836 529
Q 422 1150 422 2328
Q 422 3509 836 4129
Q 1250 4750 2034 4750
z
" transform="scale(0.015625)"/>
       </defs>
       <use xlink:href="#DejaVuSans-16"/>
       <use xlink:href="#DejaVuSans-13" transform="translate(63.625 0)"/>
      </g>
     </g>
    </g>
    <g id="ytick_2">
     <g id="line2d_17">
      <path d="M 51.562344 195.030582
L 637.2 195.030582
" clip-path="url(#pd74a4bbff6)" style="fill: none; stroke: #b0b0b0; stroke-opacity: 0.25; stroke-width: 0.8; stroke-linecap: square"/>
     </g>
     <g id="line2d_18">
      <g>
       <use xlink:href="#m9bea4c9d3f" x="51.562344" y="195.030582" style="stroke: #000000; stroke-width: 0.8"/>
      </g>
     </g>
     <g id="text_2">
      <!-- 40 -->
      <g transform="translate(31.837344 198.82941) scale(0.1 -0.1)">
       <defs>
        <path id="DejaVuSans-17" d="M 2419 4116
L 825 1625
L 2419 1625
L 2419 4116
z
M 2253 4666
L 3047 4666
L 3047 1625
L 3713 1625
L 3713 1100
L 3047 1100
L 3047 0
L 2419 0
L 2419 1100
L 313 1100
L 313 1709
L 2253 4666
z
" transform="scale(0.015625)"/>
       </defs>
       <use xlink:href="#DejaVuSans-17"/>
       <use xlink:href="#DejaVuSans-13" transform="translate(63.625 0)"/>
      </g>
     </g>
    </g>
    <g id="ytick_3">
     <g id="line2d_19">
      <path d="M 51.562344 169.019279
L 637.2 169.019279
" clip-path="url(#pd74a4bbff6)" style="fill: none; stroke: #b0b0b0; stroke-opacity: 0.25; stroke-width: 0.8; stroke-linecap: square"/>
     </g>
     <g id="line2d_20">
      <g>
       <use xlink:href="#m9bea4c9d3f" x="51.562344" y="169.019279" style="stroke: #000000; stroke-width: 0.8"/>
      </g>
     </g>
     <g id="text_3">
      <!-- 50 -->
      <g transform="translate(31.837344 172.818107) scale(0.1 -0.1)">
       <defs>
        <path id="DejaVuSans-18" d="M 691 4666
L 3169 4666
L 3169 4134
L 1269 4134
L 1269 2991
Q 1406 3038 1543 3061
Q 1681 3084 1819 3084
Q 2600 3084 3056 2656
Q 3513 2228 3513 1497
Q 3513 744 3044 326
Q 2575 -91 1722 -91
Q 1428 -91 1123 -41
Q 819 9 494 109
L 494 744
Q 775 591 1075 516
Q 1375 441 1709 441
Q 2250 441 2565 725
Q 2881 1009 2881 1497
Q 2881 1984 2565 2268
Q 2250 2553 1709 2553
Q 1456 2553 1204 2497
Q 953 2441 691 2322
L 691 4666
z
" transform="scale(0.015625)"/>
       </defs>
       <use xlink:href="#DejaVuSans-18"/>
       <use xlink:href="#DejaVuSans-13" transform="translate(63.625 0)"/>
      </g>
     </g>
    </g>
    <g id="ytick_4">
     <g id="line2d_21">
      <path d="M 51.562344 143.007976
L 637.2 143.007976
" clip-path="url(#pd74a4bbff6)" style="fill: none; stroke: #b0b0b0; stroke-opacity: 0.25; stroke-width: 0.8; stroke-linecap: square"/>
     </g>
     <g id="line2d_22">
      <g>
       <use xlink:href="#m9bea4c9d3f" x="51.562344" y="143.007976" style="stroke: #000000; stroke-width: 0.8"/>
      </g>
     </g>
     <g id="text_4">
      <!-- 60 -->
      <g transform="translate(31.837344 146.806804) scale(0.1 -0.1)">
       <defs>
        <path id="DejaVuSans-19" d="M 2113 2584
Q 1688 2584 1439 2293
Q 1191 2003 1191 1497
Q 1191 994 1439 701
Q 1688 409 2113 409
Q 2538 409 2786 701
Q 3034 994 3034 1497
Q 3034 2003 2786 2293
Q 2538 2584 2113 2584
z
M 3366 4563
L 3366 3988
Q 3128 4100 2886 4159
Q 2644 4219 2406 4219
Q 1781 4219 1451 3797
Q 1122 3375 1075 2522
Q 1259 2794 1537 2939
Q 1816 3084 2150 3084
Q 2853 3084 3261 2657
Q 3669 2231 3669 1497
Q 3669 778 3244 343
Q 2819 -91 2113 -91
Q 1303 -91 875 529
Q 447 1150 447 2328
Q 447 3434 972 4092
Q 1497 4750 2381 4750
Q 2619 4750 2861 4703
Q 3103 4656 3366 4563
z
" transform="scale(0.015625)"/>
       </defs>
       <use xlink:href="#DejaVuSans-19"/>
       <use xlink:href="#DejaVuSans-13" transform="translate(63.625 0)"/>
      </g>
     </g>
    </g>
    <g id="ytick_5">
     <g id="line2d_23">
      <path d="M 51.562344 116.996673
L 637.2 116.996673
" clip-path="url(#pd74a4bbff6)" style="fill: none; stroke: #b0b0b0; stroke-opacity: 0.25; stroke-width: 0.8; stroke-linecap: square"/>
     </g>
     <g id="line2d_24">
      <g>
       <use xlink:href="#m9bea4c9d3f" x="51.562344" y="116.996673" style="stroke: #000000; stroke-width: 0.8"/>
      </g>
     </g>
     <g id="text_5">
      <!-- 70 -->
      <g transform="translate(31.837344 120.795501) scale(0.1 -0.1)">
       <defs>
        <path id="DejaVuSans-1a" d="M 525 4666
L 3525 4666
L 3525 4397
L 1831 0
L 1172 0
L 2766 4134
L 525 4134
L 525 4666
z
" transform="scale(0.015625)"/>
       </defs>
       <use xlink:href="#DejaVuSans-1a"/>
       <use xlink:href="#DejaVuSans-13" transform="translate(63.625 0)"/>
      </g>
     </g>
    </g>
    <g id="ytick_6">
     <g id="line2d_25">
      <path d="M 51.562344 90.98537
L 637.2 90.98537
" clip-path="url(#pd74a4bbff6)" style="fill: none; stroke: #b0b0b0; stroke-opacity: 0.25; stroke-width: 0.8; stroke-linecap: square"/>
     </g>
     <g id="line2d_26">
      <g>
       <use xlink:href="#m9bea4c9d3f" x="51.562344" y="90.98537" style="stroke: #000000; stroke-width: 0.8"/>
      </g>
     </g>
     <g id="text_6">
      <!-- 80 -->
      <g transform="translate(31.837344 94.784198) scale(0.1 -0.1)">
       <defs>
        <path id="DejaVuSans-1b" d="M 2034 2216
Q 1584 2216 1326 1975
Q 1069 1734 1069 1313
Q 1069 891 1326 650
Q 1584 409 2034 409
Q 2484 409 2743 651
Q 3003 894 3003 1313
Q 3003 1734 2745 1975
Q 2488 2216 2034 2216
z
M 1403 2484
Q 997 2584 770 2862
Q 544 3141 544 3541
Q 544 4100 942 4425
Q 1341 4750 2034 4750
Q 2731 4750 3128 4425
Q 3525 4100 3525 3541
Q 3525 3141 3298 2862
Q 3072 2584 2669 2484
Q 3125 2378 3379 2068
Q 3634 1759 3634 1313
Q 3634 634 3220 271
Q 2806 -91 2034 -91
Q 1263 -91 848 271
Q 434 634 434 1313
Q 434 1759 690 2068
Q 947 2378 1403 2484
z
M 1172 3481
Q 1172 3119 1398 2916
Q 1625 2713 2034 2713
Q 2441 2713 2670 2916
Q 2900 3119 2900 3481
Q 2900 3844 2670 4047
Q 2441 4250 2034 4250
Q 1625 4250 1398 4047
Q 1172 3844 1172 3481
z
" transform="scale(0.015625)"/>
       </defs>
       <use xlink:href="#DejaVuSans-1b"/>
       <use xlink:href="#DejaVuSans-13" transform="translate(63.625 0)"/>
      </g>
     </g>
    </g>
    <g id="ytick_7">
     <g id="line2d_27">
      <path d="M 51.562344 64.974067
L 637.2 64.974067
" clip-path="url(#pd74a4bbff6)" style="fill: none; stroke: #b0b0b0; stroke-opacity: 0.25; stroke-width: 0.8; stroke-linecap: square"/>
     </g>
     <g id="line2d_28">
      <g>
       <use xlink:href="#m9bea4c9d3f" x="51.562344" y="64.974067" style="stroke: #000000; stroke-width: 0.8"/>
      </g>
     </g>
     <g id="text_7">
      <!-- 90 -->
      <g transform="translate(31.837344 68.772895) scale(0.1 -0.1)">
       <defs>
        <path id="DejaVuSans-1c" d="M 703 97
L 703 672
Q 941 559 1184 500
Q 1428 441 1663 441
Q 2288 441 2617 861
Q 2947 1281 2994 2138
Q 2813 1869 2534 1725
Q 2256 1581 1919 1581
Q 1219 1581 811 2004
Q 403 2428 403 3163
Q 403 3881 828 4315
Q 1253 4750 1959 4750
Q 2769 4750 3195 4129
Q 3622 3509 3622 2328
Q 3622 1225 3098 567
Q 2575 -91 1691 -91
Q 1453 -91 1209 -44
Q 966 3 703 97
z
M 1959 2075
Q 2384 2075 2632 2365
Q 2881 2656 2881 3163
Q 2881 3666 2632 3958
Q 2384 4250 1959 4250
Q 1534 4250 1286 3958
Q 1038 3666 1038 3163
Q 1038 2656 1286 2365
Q 1534 2075 1959 2075
z
" transform="scale(0.015625)"/>
       </defs>
       <use xlink:href="#DejaVuSans-1c"/>
       <use xlink:href="#DejaVuSans-13" transform="translate(63.625 0)"/>
      </g>
     </g>
    </g>
    <g id="ytick_8">
     <g id="line2d_29">
      <path d="M 51.562344 38.962763
L 637.2 38.962763
" clip-path="url(#pd74a4bbff6)" style="fill: none; stroke: #b0b0b0; stroke-opacity: 0.25; stroke-width: 0.8; stroke-linecap: square"/>
     </g>
     <g id="line2d_30">
      <g>
       <use xlink:href="#m9bea4c9d3f" x="51.562344" y="38.962763" style="stroke: #000000; stroke-width: 0.8"/>
      </g>
     </g>
     <g id="text_8">
      <!-- 100 -->
      <g transform="translate(25.474844 42.761592) scale(0.1 -0.1)">
       <defs>
        <path id="DejaVuSans-14" d="M 794 531
L 1825 531
L 1825 4091
L 703 3866
L 703 4441
L 1819 4666
L 2450 4666
L 2450 531
L 3481 531
L 3481 0
L 794 0
L 794 531
z
" transform="scale(0.015625)"/>
       </defs>
       <use xlink:href="#DejaVuSans-14"/>
       <use xlink:href="#DejaVuSans-13" transform="translate(63.625 0)"/>
       <use xlink:href="#DejaVuSans-13" transform="translate(127.25 0)"/>
      </g>
     </g>
    </g>
    <g id="text_9">
     <!-- Temperature (C) -->
     <g transform="translate(19.0725 173.02404) rotate(-90) scale(0.1 -0.1)">
      <defs>
       <path id="DejaVuSans-37" d="M -19 4666
L 3928 4666
L 3928 4134
L 2272 4134
L 2272 0
L 1638 0
L 1638 4134
L -19 4134
L -19 4666
z
" transform="scale(0.015625)"/>
       <path id="DejaVuSans-48" d="M 3597 1894
L 3597 1613
L 953 1613
Q 991 1019 1311 708
Q 1631 397 2203 397
Q 2534 397 2845 478
Q 3156 559 3463 722
L 3463 178
Q 3153 47 2828 -22
Q 2503 -91 2169 -91
Q 1331 -91 842 396
Q 353 884 353 1716
Q 353 2575 817 3079
Q 1281 3584 2069 3584
Q 2775 3584 3186 3129
Q 3597 2675 3597 1894
z
M 3022 2063
Q 3016 2534 2758 2815
Q 2500 3097 2075 3097
Q 1594 3097 1305 2825
Q 1016 2553 972 2059
L 3022 2063
z
" transform="scale(0.015625)"/>
       <path id="DejaVuSans-50" d="M 3328 2828
Q 3544 3216 3844 3400
Q 4144 3584 4550 3584
Q 5097 3584 5394 3201
Q 5691 2819 5691 2113
L 5691 0
L 5113 0
L 5113 2094
Q 5113 2597 4934 2840
Q 4756 3084 4391 3084
Q 3944 3084 3684 2787
Q 3425 2491 3425 1978
L 3425 0
L 2847 0
L 2847 2094
Q 2847 2600 2669 2842
Q 2491 3084 2119 3084
Q 1678 3084 1418 2786
Q 1159 2488 1159 1978
L 1159 0
L 581 0
L 581 3500
L 1159 3500
L 1159 2956
Q 1356 3278 1631 3431
Q 1906 3584 2284 3584
Q 2666 3584 2933 3390
Q 3200 3197 3328 2828
z
" transform="scale(0.015625)"/>
       <path id="DejaVuSans-53" d="M 1159 525
L 1159 -1331
L 581 -1331
L 581 3500
L 1159 3500
L 1159 2969
Q 1341 3281 1617 3432
Q 1894 3584 2278 3584
Q 2916 3584 3314 3078
Q 3713 2572 3713 1747
Q 3713 922 3314 415
Q 2916 -91 2278 -91
Q 1894 -91 1617 61
Q 1341 213 1159 525
z
M 3116 1747
Q 3116 2381 2855 2742
Q 2594 3103 2138 3103
Q 1681 3103 1420 2742
Q 1159 2381 1159 1747
Q 1159 1113 1420 752
Q 1681 391 2138 391
Q 2594 391 2855 752
Q 3116 1113 3116 1747
z
" transform="scale(0.015625)"/>
       <path id="DejaVuSans-55" d="M 2631 2963
Q 2534 3019 2420 3045
Q 2306 3072 2169 3072
Q 1681 3072 1420 2755
Q 1159 2438 1159 1844
L 1159 0
L 581 0
L 581 3500
L 1159 3500
L 1159 2956
Q 1341 3275 1631 3429
Q 1922 3584 2338 3584
Q 2397 3584 2469 3576
Q 2541 3569 2628 3553
L 2631 2963
z
" transform="scale(0.015625)"/>
       <path id="DejaVuSans-44" d="M 2194 1759
Q 1497 1759 1228 1600
Q 959 1441 959 1056
Q 959 750 1161 570
Q 1363 391 1709 391
Q 2188 391 2477 730
Q 2766 1069 2766 1631
L 2766 1759
L 2194 1759
z
M 3341 1997
L 3341 0
L 2766 0
L 2766 531
Q 2569 213 2275 61
Q 1981 -91 1556 -91
Q 1019 -91 701 211
Q 384 513 384 1019
Q 384 1609 779 1909
Q 1175 2209 1959 2209
L 2766 2209
L 2766 2266
Q 2766 2663 2505 2880
Q 2244 3097 1772 3097
Q 1472 3097 1187 3025
Q 903 2953 641 2809
L 641 3341
Q 956 3463 1253 3523
Q 1550 3584 1831 3584
Q 2591 3584 2966 3190
Q 3341 2797 3341 1997
z
" transform="scale(0.015625)"/>
       <path id="DejaVuSans-57" d="M 1172 4494
L 1172 3500
L 2356 3500
L 2356 3053
L 1172 3053
L 1172 1153
Q 1172 725 1289 603
Q 1406 481 1766 481
L 2356 481
L 2356 0
L 1766 0
Q 1100 0 847 248
Q 594 497 594 1153
L 594 3053
L 172 3053
L 172 3500
L 594 3500
L 594 4494
L 1172 4494
z
" transform="scale(0.015625)"/>
       <path id="DejaVuSans-58" d="M 544 1381
L 544 3500
L 1119 3500
L 1119 1403
Q 1119 906 1312 657
Q 1506 409 1894 409
Q 2359 409 2629 706
Q 2900 1003 2900 1516
L 2900 3500
L 3475 3500
L 3475 0
L 2900 0
L 2900 538
Q 2691 219 2414 64
Q 2138 -91 1772 -91
Q 1169 -91 856 284
Q 544 659 544 1381
z
M 1991 3584
L 1991 3584
z
" transform="scale(0.015625)"/>
       <path id="DejaVuSans-3" transform="scale(0.015625)"/>
       <path id="DejaVuSans-b" d="M 1984 4856
Q 1566 4138 1362 3434
Q 1159 2731 1159 2009
Q 1159 1288 1364 580
Q 1569 -128 1984 -844
L 1484 -844
Q 1016 -109 783 600
Q 550 1309 550 2009
Q 550 2706 781 3412
Q 1013 4119 1484 4856
L 1984 4856
z
" transform="scale(0.015625)"/>
       <path id="DejaVuSans-26" d="M 4122 4306
L 4122 3641
Q 3803 3938 3442 4084
Q 3081 4231 2675 4231
Q 1875 4231 1450 3742
Q 1025 3253 1025 2328
Q 1025 1406 1450 917
Q 1875 428 2675 428
Q 3081 428 3442 575
Q 3803 722 4122 1019
L 4122 359
Q 3791 134 3420 21
Q 3050 -91 2638 -91
Q 1578 -91 968 557
Q 359 1206 359 2328
Q 359 3453 968 4101
Q 1578 4750 2638 4750
Q 3056 4750 3426 4639
Q 3797 4528 4122 4306
z
" transform="scale(0.015625)"/>
       <path id="DejaVuSans-c" d="M 513 4856
L 1013 4856
Q 1481 4119 1714 3412
Q 1947 2706 1947 2009
Q 1947 1309 1714 600
Q 1481 -109 1013 -844
L 513 -844
Q 928 -128 1133 580
Q 1338 1288 1338 2009
Q 1338 2731 1133 3434
Q 928 4138 513 4856
z
" transform="scale(0.015625)"/>
      </defs>
      <use xlink:href="#DejaVuSans-37"/>
      <use xlink:href="#DejaVuSans-48" transform="translate(44.09375 0)"/>
      <use xlink:href="#DejaVuSans-50" transform="translate(105.625 0)"/>
      <use xlink:href="#DejaVuSans-53" transform="translate(203.03125 0)"/>
      <use xlink:href="#DejaVuSans-48" transform="translate(266.515625 0)"/>
      <use xlink:href="#DejaVuSans-55" transform="translate(328.046875 0)"/>
      <use xlink:href="#DejaVuSans-44" transform="translate(369.15625 0)"/>
      <use xlink:href="#DejaVuSans-57" transform="translate(430.4375 0)"/>
      <use xlink:href="#DejaVuSans-58" transform="translate(469.640625 0)"/>
      <use xlink:href="#DejaVuSans-55" transform="translate(533.015625 0)"/>
      <use xlink:href="#DejaVuSans-48" transform="translate(571.921875 0)"/>
      <use xlink:href="#DejaVuSans-3" transform="translate(633.453125 0)"/>
      <use xlink:href="#DejaVuSans-b" transform="translate(665.234375 0)"/>
      <use xlink:href="#DejaVuSans-26" transform="translate(704.25 0)"/>
      <use xlink:href="#DejaVuSans-c" transform="translate(774.078125 0)"/>
     </g>
    </g>
   </g>
   <g id="line2d_31">
    <path d="M 78.182237 228.92331
L 80.430429 228.92331
L 82.685457 227.934881
L 84.939483 226.790383
L 87.196555 223.252846
L 89.450683 218.5448
L 91.708519 215.813613
L 93.963457 209.883036
L 96.218987 203.380211
L 98.472785 200.024752
L 102.982567 185.926626
L 105.242223 182.337066
L 109.752487 167.770737
L 112.00636 164.129154
L 116.517159 149.66687
L 118.772391 146.07731
L 123.28343 131.953172
L 125.539617 128.493669
L 130.049437 114.811723
L 132.305404 111.456265
L 136.815891 98.294546
L 139.070487 95.043133
L 143.581107 82.323606
L 145.84144 79.202249
L 150.350939 66.950926
L 152.605435 63.933614
L 154.862481 58.029049
L 157.116544 52.566675
L 159.372853 50.095601
L 161.627249 45.777725
L 163.88355 42.422267
L 166.137363 41.09569
L 168.39396 39.040797
L 170.647923 37.636187
L 172.90435 37.167983
L 175.159532 36.517701
L 177.415314 36.205565
L 193.204761 35.919441
L 199.970572 36.10152
L 202.225206 36.30961
L 204.48051 36.647757
L 206.734908 36.829837
L 211.245765 37.610176
L 218.011988 38.052368
L 222.522545 37.974334
L 227.032276 37.8963
L 231.542115 38.052368
L 233.79818 38.182424
L 238.309885 38.754673
L 247.333746 39.014786
L 258.610566 38.546583
L 263.121336 38.546583
L 272.144801 39.144843
L 281.168513 39.274899
L 285.680464 39.144843
L 294.70378 38.624616
L 301.472499 38.624616
L 303.727642 38.650628
L 310.496855 39.040797
L 317.267071 39.274899
L 324.034893 39.170854
L 333.059255 38.624616
L 337.573952 38.49456
L 342.094565 38.598605
L 344.344958 38.676639
L 351.110421 39.196865
L 355.620328 39.352933
L 360.129557 39.378944
L 366.896316 39.040797
L 373.667199 38.676639
L 378.179433 38.572594
L 382.687623 38.676639
L 384.943113 38.728662
L 389.451795 39.118831
L 398.468951 39.378944
L 405.237085 38.910741
L 409.751176 38.572594
L 414.262501 38.624616
L 423.293764 39.248888
L 427.807411 39.30091
L 443.597717 38.598605
L 448.105989 38.754673
L 454.879994 39.222876
L 459.390899 39.326922
L 461.646628 39.222876
L 463.901478 38.988775
L 468.416348 38.676639
L 472.92905 38.520571
L 475.184089 38.572594
L 484.209309 39.222876
L 488.716217 39.274899
L 493.224382 39.014786
L 502.25241 38.624616
L 509.026077 38.910741
L 513.540378 39.274899
L 520.3125 39.326922
L 522.570929 39.248888
L 527.080885 38.780684
L 533.849024 38.520571
L 536.107691 38.572594
L 545.133347 39.196865
L 549.648383 39.222876
L 563.191288 38.598605
L 565.445557 38.624616
L 576.731257 39.352933
L 581.245104 39.326922
L 583.501419 39.274899
L 590.274285 38.832707
L 594.782417 38.598605
L 599.295428 38.676639
L 606.066599 39.144843
L 610.580107 39.274899
L 610.580107 39.274899
" clip-path="url(#pd74a4bbff6)" style="fill: none; stroke: #1f77b4; stroke-width: 1.35; stroke-linecap: square"/>
   </g>
   <g id="line2d_32">
    <path d="M 78.182438 226.972462
L 80.430931 226.686338
L 82.687485 225.93201
L 84.940597 223.226835
L 87.195572 219.013004
L 89.450467 216.54193
L 91.705874 211.001522
L 93.964906 204.680776
L 96.220198 201.37734
L 100.727497 187.487304
L 102.982758 183.845722
L 107.492693 169.357426
L 109.747615 165.689832
L 114.261481 151.175525
L 116.516841 147.611977
L 121.029391 133.435816
L 123.284315 129.976313
L 127.795338 116.242345
L 130.05045 112.860876
L 134.563931 99.621122
L 136.820247 96.343698
L 141.332496 83.572148
L 143.591101 80.424781
L 148.099253 68.069412
L 150.35444 65.078112
L 152.609849 59.277591
L 154.867051 54.049319
L 157.121729 51.682291
L 159.376513 47.572505
L 161.632377 44.347103
L 163.888087 41.876029
L 166.145668 40.913611
L 168.399985 39.378944
L 170.65289 38.28647
L 172.907594 37.844277
L 175.16582 37.115961
L 177.421099 36.569724
L 179.677992 36.387644
L 184.189572 35.867418
L 190.954053 35.841407
L 195.466587 36.049497
L 197.722138 36.283599
L 202.233844 36.569724
L 211.259323 37.246017
L 215.772225 37.532142
L 218.0278 37.714221
L 222.544046 37.922311
L 229.314004 38.28647
L 236.085366 38.49456
L 256.39066 38.858718
L 272.18267 38.936752
L 281.208543 38.936752
L 292.488407 38.962763
L 606.046433 38.962763
L 606.046433 38.962763
" clip-path="url(#pd74a4bbff6)" style="fill: none; stroke: #ff7f0e; stroke-width: 1.35; stroke-linecap: square"/>
   </g>
   <g id="line2d_33">
    <path d="M 51.562344 38.962763
L 637.2 38.962763
" clip-path="url(#pd74a4bbff6)" style="fill: none; stroke-dasharray: 2.96,1.28; stroke-dashoffset: 0; stroke: #333333; stroke-width: 0.8"/>
   </g>
   <g id="patch_3">
    <path d="M 51.562344 238.578706
L 51.562344 26.16
" style="fill: none; stroke: #000000; stroke-width: 0.8; stroke-linejoin: miter; stroke-linecap: square"/>
   </g>
   <g id="patch_4">
    <path d="M 637.2 238.578706
L 637.2 26.16
" style="fill: none; stroke: #000000; stroke-width: 0.8; stroke-linejoin: miter; stroke-linecap: square"/>
   </g>
   <g id="patch_5">
    <path d="M 51.562344 238.578706
L 637.2 238.578706
" style="fill: none; stroke: #000000; stroke-width: 0.8; stroke-linejoin: miter; stroke-linecap: square"/>
   </g>
   <g id="patch_6">
    <path d="M 51.562344 26.16
L 637.2 26.16
" style="fill: none; stroke: #000000; stroke-width: 0.8; stroke-linejoin: miter; stroke-linecap: square"/>
   </g>
   <g id="text_10">
    <!-- Hotend 100 C step: host PID vs MCU PID -->
    <g transform="translate(223.243047 20.16) scale(0.12 -0.12)">
     <defs>
      <path id="DejaVuSans-2b" d="M 628 4666
L 1259 4666
L 1259 2753
L 3553 2753
L 3553 4666
L 4184 4666
L 4184 0
L 3553 0
L 3553 2222
L 1259 2222
L 1259 0
L 628 0
L 628 4666
z
" transform="scale(0.015625)"/>
      <path id="DejaVuSans-52" d="M 1959 3097
Q 1497 3097 1228 2736
Q 959 2375 959 1747
Q 959 1119 1226 758
Q 1494 397 1959 397
Q 2419 397 2687 759
Q 2956 1122 2956 1747
Q 2956 2369 2687 2733
Q 2419 3097 1959 3097
z
M 1959 3584
Q 2709 3584 3137 3096
Q 3566 2609 3566 1747
Q 3566 888 3137 398
Q 2709 -91 1959 -91
Q 1206 -91 779 398
Q 353 888 353 1747
Q 353 2609 779 3096
Q 1206 3584 1959 3584
z
" transform="scale(0.015625)"/>
      <path id="DejaVuSans-51" d="M 3513 2113
L 3513 0
L 2938 0
L 2938 2094
Q 2938 2591 2744 2837
Q 2550 3084 2163 3084
Q 1697 3084 1428 2787
Q 1159 2491 1159 1978
L 1159 0
L 581 0
L 581 3500
L 1159 3500
L 1159 2956
Q 1366 3272 1645 3428
Q 1925 3584 2291 3584
Q 2894 3584 3203 3211
Q 3513 2838 3513 2113
z
" transform="scale(0.015625)"/>
      <path id="DejaVuSans-47" d="M 2906 2969
L 2906 4863
L 3481 4863
L 3481 0
L 2906 0
L 2906 525
Q 2725 213 2448 61
Q 2172 -91 1784 -91
Q 1150 -91 751 415
Q 353 922 353 1747
Q 353 2572 751 3078
Q 1150 3584 1784 3584
Q 2172 3584 2448 3432
Q 2725 3281 2906 2969
z
M 947 1747
Q 947 1113 1208 752
Q 1469 391 1925 391
Q 2381 391 2643 752
Q 2906 1113 2906 1747
Q 2906 2381 2643 2742
Q 2381 3103 1925 3103
Q 1469 3103 1208 2742
Q 947 2381 947 1747
z
" transform="scale(0.015625)"/>
      <path id="DejaVuSans-56" d="M 2834 3397
L 2834 2853
Q 2591 2978 2328 3040
Q 2066 3103 1784 3103
Q 1356 3103 1142 2972
Q 928 2841 928 2578
Q 928 2378 1081 2264
Q 1234 2150 1697 2047
L 1894 2003
Q 2506 1872 2764 1633
Q 3022 1394 3022 966
Q 3022 478 2636 193
Q 2250 -91 1575 -91
Q 1294 -91 989 -36
Q 684 19 347 128
L 347 722
Q 666 556 975 473
Q 1284 391 1588 391
Q 1994 391 2212 530
Q 2431 669 2431 922
Q 2431 1156 2273 1281
Q 2116 1406 1581 1522
L 1381 1569
Q 847 1681 609 1914
Q 372 2147 372 2553
Q 372 3047 722 3315
Q 1072 3584 1716 3584
Q 2034 3584 2315 3537
Q 2597 3491 2834 3397
z
" transform="scale(0.015625)"/>
      <path id="DejaVuSans-1d" d="M 750 794
L 1409 794
L 1409 0
L 750 0
L 750 794
z
M 750 3309
L 1409 3309
L 1409 2516
L 750 2516
L 750 3309
z
" transform="scale(0.015625)"/>
      <path id="DejaVuSans-4b" d="M 3513 2113
L 3513 0
L 2938 0
L 2938 2094
Q 2938 2591 2744 2837
Q 2550 3084 2163 3084
Q 1697 3084 1428 2787
Q 1159 2491 1159 1978
L 1159 0
L 581 0
L 581 4863
L 1159 4863
L 1159 2956
Q 1366 3272 1645 3428
Q 1925 3584 2291 3584
Q 2894 3584 3203 3211
Q 3513 2838 3513 2113
z
" transform="scale(0.015625)"/>
      <path id="DejaVuSans-33" d="M 1259 4147
L 1259 2394
L 2053 2394
Q 2494 2394 2734 2622
Q 2975 2850 2975 3272
Q 2975 3691 2734 3919
Q 2494 4147 2053 4147
L 1259 4147
z
M 628 4666
L 2053 4666
Q 2838 4666 3239 4311
Q 3641 3956 3641 3272
Q 3641 2581 3239 2228
Q 2838 1875 2053 1875
L 1259 1875
L 1259 0
L 628 0
L 628 4666
z
" transform="scale(0.015625)"/>
      <path id="DejaVuSans-2c" d="M 628 4666
L 1259 4666
L 1259 0
L 628 0
L 628 4666
z
" transform="scale(0.015625)"/>
      <path id="DejaVuSans-27" d="M 1259 4147
L 1259 519
L 2022 519
Q 2988 519 3436 956
Q 3884 1394 3884 2338
Q 3884 3275 3436 3711
Q 2988 4147 2022 4147
L 1259 4147
z
M 628 4666
L 1925 4666
Q 3281 4666 3915 4102
Q 4550 3538 4550 2338
Q 4550 1131 3912 565
Q 3275 0 1925 0
L 628 0
L 628 4666
z
" transform="scale(0.015625)"/>
      <path id="DejaVuSans-59" d="M 191 3500
L 800 3500
L 1894 563
L 2988 3500
L 3597 3500
L 2284 0
L 1503 0
L 191 3500
z
" transform="scale(0.015625)"/>
      <path id="DejaVuSans-30" d="M 628 4666
L 1569 4666
L 2759 1491
L 3956 4666
L 4897 4666
L 4897 0
L 4281 0
L 4281 4097
L 3078 897
L 2444 897
L 1241 4097
L 1241 0
L 628 0
L 628 4666
z
" transform="scale(0.015625)"/>
      <path id="DejaVuSans-38" d="M 556 4666
L 1191 4666
L 1191 1831
Q 1191 1081 1462 751
Q 1734 422 2344 422
Q 2950 422 3222 751
Q 3494 1081 3494 1831
L 3494 4666
L 4128 4666
L 4128 1753
Q 4128 841 3676 375
Q 3225 -91 2344 -91
Q 1459 -91 1007 375
Q 556 841 556 1753
L 556 4666
z
" transform="scale(0.015625)"/>
     </defs>
     <use xlink:href="#DejaVuSans-2b"/>
     <use xlink:href="#DejaVuSans-52" transform="translate(75.203125 0)"/>
     <use xlink:href="#DejaVuSans-57" transform="translate(136.390625 0)"/>
     <use xlink:href="#DejaVuSans-48" transform="translate(175.59375 0)"/>
     <use xlink:href="#DejaVuSans-51" transform="translate(237.125 0)"/>
     <use xlink:href="#DejaVuSans-47" transform="translate(300.5 0)"/>
     <use xlink:href="#DejaVuSans-3" transform="translate(363.984375 0)"/>
     <use xlink:href="#DejaVuSans-14" transform="translate(395.765625 0)"/>
     <use xlink:href="#DejaVuSans-13" transform="translate(459.390625 0)"/>
     <use xlink:href="#DejaVuSans-13" transform="translate(523.015625 0)"/>
     <use xlink:href="#DejaVuSans-3" transform="translate(586.640625 0)"/>
     <use xlink:href="#DejaVuSans-26" transform="translate(618.421875 0)"/>
     <use xlink:href="#DejaVuSans-3" transform="translate(688.25 0)"/>
     <use xlink:href="#DejaVuSans-56" transform="translate(720.03125 0)"/>
     <use xlink:href="#DejaVuSans-57" transform="translate(772.125 0)"/>
     <use xlink:href="#DejaVuSans-48" transform="translate(811.328125 0)"/>
     <use xlink:href="#DejaVuSans-53" transform="translate(872.859375 0)"/>
     <use xlink:href="#DejaVuSans-1d" transform="translate(936.34375 0)"/>
     <use xlink:href="#DejaVuSans-3" transform="translate(970.03125 0)"/>
     <use xlink:href="#DejaVuSans-4b" transform="translate(1001.8125 0)"/>
     <use xlink:href="#DejaVuSans-52" transform="translate(1065.1875 0)"/>
     <use xlink:href="#DejaVuSans-56" transform="translate(1126.375 0)"/>
     <use xlink:href="#DejaVuSans-57" transform="translate(1178.46875 0)"/>
     <use xlink:href="#DejaVuSans-3" transform="translate(1217.671875 0)"/>
     <use xlink:href="#DejaVuSans-33" transform="translate(1249.453125 0)"/>
     <use xlink:href="#DejaVuSans-2c" transform="translate(1309.75 0)"/>
     <use xlink:href="#DejaVuSans-27" transform="translate(1339.25 0)"/>
     <use xlink:href="#DejaVuSans-3" transform="translate(1416.25 0)"/>
     <use xlink:href="#DejaVuSans-59" transform="translate(1448.03125 0)"/>
     <use xlink:href="#DejaVuSans-56" transform="translate(1507.21875 0)"/>
     <use xlink:href="#DejaVuSans-3" transform="translate(1559.3125 0)"/>
     <use xlink:href="#DejaVuSans-30" transform="translate(1591.09375 0)"/>
     <use xlink:href="#DejaVuSans-26" transform="translate(1677.375 0)"/>
     <use xlink:href="#DejaVuSans-38" transform="translate(1747.203125 0)"/>
     <use xlink:href="#DejaVuSans-3" transform="translate(1820.390625 0)"/>
     <use xlink:href="#DejaVuSans-33" transform="translate(1852.171875 0)"/>
     <use xlink:href="#DejaVuSans-2c" transform="translate(1912.46875 0)"/>
     <use xlink:href="#DejaVuSans-27" transform="translate(1941.96875 0)"/>
    </g>
   </g>
   <g id="legend_1">
    <g id="patch_7">
     <path d="M 509.725 233.578706
L 630.2 233.578706
Q 632.2 233.578706 632.2 231.578706
L 632.2 187.576362
Q 632.2 185.576362 630.2 185.576362
L 509.725 185.576362
Q 507.725 185.576362 507.725 187.576362
L 507.725 231.578706
Q 507.725 233.578706 509.725 233.578706
z
" style="fill: #ffffff; opacity: 0.8; stroke: #cccccc; stroke-linejoin: miter"/>
    </g>
    <g id="line2d_34">
     <path d="M 511.725 193.6748
L 521.725 193.6748
L 531.725 193.6748
" style="fill: none; stroke: #1f77b4; stroke-width: 1.35; stroke-linecap: square"/>
    </g>
    <g id="text_11">
     <!-- legacy host -->
     <g transform="translate(539.725 197.1748) scale(0.1 -0.1)">
      <defs>
       <path id="DejaVuSans-4f" d="M 603 4863
L 1178 4863
L 1178 0
L 603 0
L 603 4863
z
" transform="scale(0.015625)"/>
       <path id="DejaVuSans-4a" d="M 2906 1791
Q 2906 2416 2648 2759
Q 2391 3103 1925 3103
Q 1463 3103 1205 2759
Q 947 2416 947 1791
Q 947 1169 1205 825
Q 1463 481 1925 481
Q 2391 481 2648 825
Q 2906 1169 2906 1791
z
M 3481 434
Q 3481 -459 3084 -895
Q 2688 -1331 1869 -1331
Q 1566 -1331 1297 -1286
Q 1028 -1241 775 -1147
L 775 -588
Q 1028 -725 1275 -790
Q 1522 -856 1778 -856
Q 2344 -856 2625 -561
Q 2906 -266 2906 331
L 2906 616
Q 2728 306 2450 153
Q 2172 0 1784 0
Q 1141 0 747 490
Q 353 981 353 1791
Q 353 2603 747 3093
Q 1141 3584 1784 3584
Q 2172 3584 2450 3431
Q 2728 3278 2906 2969
L 2906 3500
L 3481 3500
L 3481 434
z
" transform="scale(0.015625)"/>
       <path id="DejaVuSans-46" d="M 3122 3366
L 3122 2828
Q 2878 2963 2633 3030
Q 2388 3097 2138 3097
Q 1578 3097 1268 2742
Q 959 2388 959 1747
Q 959 1106 1268 751
Q 1578 397 2138 397
Q 2388 397 2633 464
Q 2878 531 3122 666
L 3122 134
Q 2881 22 2623 -34
Q 2366 -91 2075 -91
Q 1284 -91 818 406
Q 353 903 353 1747
Q 353 2603 823 3093
Q 1294 3584 2113 3584
Q 2378 3584 2631 3529
Q 2884 3475 3122 3366
z
" transform="scale(0.015625)"/>
       <path id="DejaVuSans-5c" d="M 2059 -325
Q 1816 -950 1584 -1140
Q 1353 -1331 966 -1331
L 506 -1331
L 506 -850
L 844 -850
Q 1081 -850 1212 -737
Q 1344 -625 1503 -206
L 1606 56
L 191 3500
L 800 3500
L 1894 763
L 2988 3500
L 3597 3500
L 2059 -325
z
" transform="scale(0.015625)"/>
      </defs>
      <use xlink:href="#DejaVuSans-4f"/>
      <use xlink:href="#DejaVuSans-48" transform="translate(27.78125 0)"/>
      <use xlink:href="#DejaVuSans-4a" transform="translate(89.3125 0)"/>
      <use xlink:href="#DejaVuSans-44" transform="translate(152.796875 0)"/>
      <use xlink:href="#DejaVuSans-46" transform="translate(214.078125 0)"/>
      <use xlink:href="#DejaVuSans-5c" transform="translate(269.0625 0)"/>
      <use xlink:href="#DejaVuSans-3" transform="translate(328.25 0)"/>
      <use xlink:href="#DejaVuSans-4b" transform="translate(360.03125 0)"/>
      <use xlink:href="#DejaVuSans-52" transform="translate(423.40625 0)"/>
      <use xlink:href="#DejaVuSans-56" transform="translate(484.59375 0)"/>
      <use xlink:href="#DejaVuSans-57" transform="translate(536.6875 0)"/>
     </g>
    </g>
    <g id="line2d_35">
     <path d="M 511.725 208.675581
L 521.725 208.675581
L 531.725 208.675581
" style="fill: none; stroke: #ff7f0e; stroke-width: 1.35; stroke-linecap: square"/>
    </g>
    <g id="text_12">
     <!-- MCU autonomous -->
     <g transform="translate(539.725 212.175581) scale(0.1 -0.1)">
      <use xlink:href="#DejaVuSans-30"/>
      <use xlink:href="#DejaVuSans-26" transform="translate(86.28125 0)"/>
      <use xlink:href="#DejaVuSans-38" transform="translate(156.109375 0)"/>
      <use xlink:href="#DejaVuSans-3" transform="translate(229.296875 0)"/>
      <use xlink:href="#DejaVuSans-44" transform="translate(261.078125 0)"/>
      <use xlink:href="#DejaVuSans-58" transform="translate(322.359375 0)"/>
      <use xlink:href="#DejaVuSans-57" transform="translate(385.734375 0)"/>
      <use xlink:href="#DejaVuSans-52" transform="translate(424.9375 0)"/>
      <use xlink:href="#DejaVuSans-51" transform="translate(486.125 0)"/>
      <use xlink:href="#DejaVuSans-52" transform="translate(549.5 0)"/>
      <use xlink:href="#DejaVuSans-50" transform="translate(610.6875 0)"/>
      <use xlink:href="#DejaVuSans-52" transform="translate(708.09375 0)"/>
      <use xlink:href="#DejaVuSans-58" transform="translate(769.28125 0)"/>
      <use xlink:href="#DejaVuSans-56" transform="translate(832.65625 0)"/>
     </g>
    </g>
    <g id="line2d_36">
     <path d="M 511.725 223.676362
L 521.725 223.676362
L 531.725 223.676362
" style="fill: none; stroke-dasharray: 2.96,1.28; stroke-dashoffset: 0; stroke: #333333; stroke-width: 0.8"/>
    </g>
    <g id="text_13">
     <!-- target -->
     <g transform="translate(539.725 227.176362) scale(0.1 -0.1)">
      <use xlink:href="#DejaVuSans-57"/>
      <use xlink:href="#DejaVuSans-44" transform="translate(39.203125 0)"/>
      <use xlink:href="#DejaVuSans-55" transform="translate(100.484375 0)"/>
      <use xlink:href="#DejaVuSans-4a" transform="translate(139.84375 0)"/>
      <use xlink:href="#DejaVuSans-48" transform="translate(203.328125 0)"/>
      <use xlink:href="#DejaVuSans-57" transform="translate(264.859375 0)"/>
     </g>
    </g>
   </g>
  </g>
  <g id="axes_2">
   <g id="patch_8">
    <path d="M 51.562344 361.077656
L 637.2 361.077656
L 637.2 254.868303
L 51.562344 254.868303
z
" style="fill: #ffffff"/>
   </g>
   <g id="matplotlib.axis_3">
    <g id="xtick_8">
     <g id="line2d_37">
      <path d="M 78.177689 361.077656
L 78.177689 254.868303
" clip-path="url(#pa217570838)" style="fill: none; stroke: #b0b0b0; stroke-opacity: 0.25; stroke-width: 0.8; stroke-linecap: square"/>
     </g>
     <g id="line2d_38">
      <g>
       <use xlink:href="#mf8cbbbb7af" x="78.177689" y="361.077656" style="stroke: #000000; stroke-width: 0.8"/>
      </g>
     </g>
     <g id="text_14">
      <!-- 0 -->
      <g transform="translate(74.996439 375.675313) scale(0.1 -0.1)">
       <use xlink:href="#DejaVuSans-13"/>
      </g>
     </g>
    </g>
    <g id="xtick_9">
     <g id="line2d_39">
      <path d="M 168.207986 361.077656
L 168.207986 254.868303
" clip-path="url(#pa217570838)" style="fill: none; stroke: #b0b0b0; stroke-opacity: 0.25; stroke-width: 0.8; stroke-linecap: square"/>
     </g>
     <g id="line2d_40">
      <g>
       <use xlink:href="#mf8cbbbb7af" x="168.207986" y="361.077656" style="stroke: #000000; stroke-width: 0.8"/>
      </g>
     </g>
     <g id="text_15">
      <!-- 20 -->
      <g transform="translate(161.845486 375.675313) scale(0.1 -0.1)">
       <defs>
        <path id="DejaVuSans-15" d="M 1228 531
L 3431 531
L 3431 0
L 469 0
L 469 531
Q 828 903 1448 1529
Q 2069 2156 2228 2338
Q 2531 2678 2651 2914
Q 2772 3150 2772 3378
Q 2772 3750 2511 3984
Q 2250 4219 1831 4219
Q 1534 4219 1204 4116
Q 875 4013 500 3803
L 500 4441
Q 881 4594 1212 4672
Q 1544 4750 1819 4750
Q 2544 4750 2975 4387
Q 3406 4025 3406 3419
Q 3406 3131 3298 2873
Q 3191 2616 2906 2266
Q 2828 2175 2409 1742
Q 1991 1309 1228 531
z
" transform="scale(0.015625)"/>
       </defs>
       <use xlink:href="#DejaVuSans-15"/>
       <use xlink:href="#DejaVuSans-13" transform="translate(63.625 0)"/>
      </g>
     </g>
    </g>
    <g id="xtick_10">
     <g id="line2d_41">
      <path d="M 258.238284 361.077656
L 258.238284 254.868303
" clip-path="url(#pa217570838)" style="fill: none; stroke: #b0b0b0; stroke-opacity: 0.25; stroke-width: 0.8; stroke-linecap: square"/>
     </g>
     <g id="line2d_42">
      <g>
       <use xlink:href="#mf8cbbbb7af" x="258.238284" y="361.077656" style="stroke: #000000; stroke-width: 0.8"/>
      </g>
     </g>
     <g id="text_16">
      <!-- 40 -->
      <g transform="translate(251.875784 375.675313) scale(0.1 -0.1)">
       <use xlink:href="#DejaVuSans-17"/>
       <use xlink:href="#DejaVuSans-13" transform="translate(63.625 0)"/>
      </g>
     </g>
    </g>
    <g id="xtick_11">
     <g id="line2d_43">
      <path d="M 348.268581 361.077656
L 348.268581 254.868303
" clip-path="url(#pa217570838)" style="fill: none; stroke: #b0b0b0; stroke-opacity: 0.25; stroke-width: 0.8; stroke-linecap: square"/>
     </g>
     <g id="line2d_44">
      <g>
       <use xlink:href="#mf8cbbbb7af" x="348.268581" y="361.077656" style="stroke: #000000; stroke-width: 0.8"/>
      </g>
     </g>
     <g id="text_17">
      <!-- 60 -->
      <g transform="translate(341.906081 375.675313) scale(0.1 -0.1)">
       <use xlink:href="#DejaVuSans-19"/>
       <use xlink:href="#DejaVuSans-13" transform="translate(63.625 0)"/>
      </g>
     </g>
    </g>
    <g id="xtick_12">
     <g id="line2d_45">
      <path d="M 438.298879 361.077656
L 438.298879 254.868303
" clip-path="url(#pa217570838)" style="fill: none; stroke: #b0b0b0; stroke-opacity: 0.25; stroke-width: 0.8; stroke-linecap: square"/>
     </g>
     <g id="line2d_46">
      <g>
       <use xlink:href="#mf8cbbbb7af" x="438.298879" y="361.077656" style="stroke: #000000; stroke-width: 0.8"/>
      </g>
     </g>
     <g id="text_18">
      <!-- 80 -->
      <g transform="translate(431.936379 375.675313) scale(0.1 -0.1)">
       <use xlink:href="#DejaVuSans-1b"/>
       <use xlink:href="#DejaVuSans-13" transform="translate(63.625 0)"/>
      </g>
     </g>
    </g>
    <g id="xtick_13">
     <g id="line2d_47">
      <path d="M 528.329176 361.077656
L 528.329176 254.868303
" clip-path="url(#pa217570838)" style="fill: none; stroke: #b0b0b0; stroke-opacity: 0.25; stroke-width: 0.8; stroke-linecap: square"/>
     </g>
     <g id="line2d_48">
      <g>
       <use xlink:href="#mf8cbbbb7af" x="528.329176" y="361.077656" style="stroke: #000000; stroke-width: 0.8"/>
      </g>
     </g>
     <g id="text_19">
      <!-- 100 -->
      <g transform="translate(518.785426 375.675313) scale(0.1 -0.1)">
       <use xlink:href="#DejaVuSans-14"/>
       <use xlink:href="#DejaVuSans-13" transform="translate(63.625 0)"/>
       <use xlink:href="#DejaVuSans-13" transform="translate(127.25 0)"/>
      </g>
     </g>
    </g>
    <g id="xtick_14">
     <g id="line2d_49">
      <path d="M 618.359473 361.077656
L 618.359473 254.868303
" clip-path="url(#pa217570838)" style="fill: none; stroke: #b0b0b0; stroke-opacity: 0.25; stroke-width: 0.8; stroke-linecap: square"/>
     </g>
     <g id="line2d_50">
      <g>
       <use xlink:href="#mf8cbbbb7af" x="618.359473" y="361.077656" style="stroke: #000000; stroke-width: 0.8"/>
      </g>
     </g>
     <g id="text_20">
      <!-- 120 -->
      <g transform="translate(608.815723 375.675313) scale(0.1 -0.1)">
       <use xlink:href="#DejaVuSans-14"/>
       <use xlink:href="#DejaVuSans-15" transform="translate(63.625 0)"/>
       <use xlink:href="#DejaVuSans-13" transform="translate(127.25 0)"/>
      </g>
     </g>
    </g>
    <g id="text_21">
     <!-- Elapsed time (s) -->
     <g transform="translate(303.758516 389.676094) scale(0.1 -0.1)">
      <defs>
       <path id="DejaVuSans-28" d="M 628 4666
L 3578 4666
L 3578 4134
L 1259 4134
L 1259 2753
L 3481 2753
L 3481 2222
L 1259 2222
L 1259 531
L 3634 531
L 3634 0
L 628 0
L 628 4666
z
" transform="scale(0.015625)"/>
       <path id="DejaVuSans-4c" d="M 603 3500
L 1178 3500
L 1178 0
L 603 0
L 603 3500
z
M 603 4863
L 1178 4863
L 1178 4134
L 603 4134
L 603 4863
z
" transform="scale(0.015625)"/>
      </defs>
      <use xlink:href="#DejaVuSans-28"/>
      <use xlink:href="#DejaVuSans-4f" transform="translate(63.1875 0)"/>
      <use xlink:href="#DejaVuSans-44" transform="translate(90.96875 0)"/>
      <use xlink:href="#DejaVuSans-53" transform="translate(152.25 0)"/>
      <use xlink:href="#DejaVuSans-56" transform="translate(215.734375 0)"/>
      <use xlink:href="#DejaVuSans-48" transform="translate(267.828125 0)"/>
      <use xlink:href="#DejaVuSans-47" transform="translate(329.359375 0)"/>
      <use xlink:href="#DejaVuSans-3" transform="translate(392.84375 0)"/>
      <use xlink:href="#DejaVuSans-57" transform="translate(424.625 0)"/>
      <use xlink:href="#DejaVuSans-4c" transform="translate(463.828125 0)"/>
      <use xlink:href="#DejaVuSans-50" transform="translate(491.609375 0)"/>
      <use xlink:href="#DejaVuSans-48" transform="translate(589.015625 0)"/>
      <use xlink:href="#DejaVuSans-3" transform="translate(650.546875 0)"/>
      <use xlink:href="#DejaVuSans-b" transform="translate(682.328125 0)"/>
      <use xlink:href="#DejaVuSans-56" transform="translate(721.34375 0)"/>
      <use xlink:href="#DejaVuSans-c" transform="translate(773.4375 0)"/>
     </g>
    </g>
   </g>
   <g id="matplotlib.axis_4">
    <g id="ytick_9">
     <g id="line2d_51">
      <path d="M 51.562344 359.035169
L 637.2 359.035169
" clip-path="url(#pa217570838)" style="fill: none; stroke: #b0b0b0; stroke-opacity: 0.25; stroke-width: 0.8; stroke-linecap: square"/>
     </g>
     <g id="line2d_52">
      <g>
       <use xlink:href="#m9bea4c9d3f" x="51.562344" y="359.035169" style="stroke: #000000; stroke-width: 0.8"/>
      </g>
     </g>
     <g id="text_22">
      <!-- 0 -->
      <g transform="translate(38.199844 362.833997) scale(0.1 -0.1)">
       <use xlink:href="#DejaVuSans-13"/>
      </g>
     </g>
    </g>
    <g id="ytick_10">
     <g id="line2d_53">
      <path d="M 51.562344 333.504074
L 637.2 333.504074
" clip-path="url(#pa217570838)" style="fill: none; stroke: #b0b0b0; stroke-opacity: 0.25; stroke-width: 0.8; stroke-linecap: square"/>
     </g>
     <g id="line2d_54">
      <g>
       <use xlink:href="#m9bea4c9d3f" x="51.562344" y="333.504074" style="stroke: #000000; stroke-width: 0.8"/>
      </g>
     </g>
     <g id="text_23">
      <!-- 25 -->
      <g transform="translate(31.837344 337.302902) scale(0.1 -0.1)">
       <use xlink:href="#DejaVuSans-15"/>
       <use xlink:href="#DejaVuSans-18" transform="translate(63.625 0)"/>
      </g>
     </g>
    </g>
    <g id="ytick_11">
     <g id="line2d_55">
      <path d="M 51.562344 307.97298
L 637.2 307.97298
" clip-path="url(#pa217570838)" style="fill: none; stroke: #b0b0b0; stroke-opacity: 0.25; stroke-width: 0.8; stroke-linecap: square"/>
     </g>
     <g id="line2d_56">
      <g>
       <use xlink:href="#m9bea4c9d3f" x="51.562344" y="307.97298" style="stroke: #000000; stroke-width: 0.8"/>
      </g>
     </g>
     <g id="text_24">
      <!-- 50 -->
      <g transform="translate(31.837344 311.771808) scale(0.1 -0.1)">
       <use xlink:href="#DejaVuSans-18"/>
       <use xlink:href="#DejaVuSans-13" transform="translate(63.625 0)"/>
      </g>
     </g>
    </g>
    <g id="ytick_12">
     <g id="line2d_57">
      <path d="M 51.562344 282.441885
L 637.2 282.441885
" clip-path="url(#pa217570838)" style="fill: none; stroke: #b0b0b0; stroke-opacity: 0.25; stroke-width: 0.8; stroke-linecap: square"/>
     </g>
     <g id="line2d_58">
      <g>
       <use xlink:href="#m9bea4c9d3f" x="51.562344" y="282.441885" style="stroke: #000000; stroke-width: 0.8"/>
      </g>
     </g>
     <g id="text_25">
      <!-- 75 -->
      <g transform="translate(31.837344 286.240713) scale(0.1 -0.1)">
       <use xlink:href="#DejaVuSans-1a"/>
       <use xlink:href="#DejaVuSans-18" transform="translate(63.625 0)"/>
      </g>
     </g>
    </g>
    <g id="ytick_13">
     <g id="line2d_59">
      <path d="M 51.562344 256.910791
L 637.2 256.910791
" clip-path="url(#pa217570838)" style="fill: none; stroke: #b0b0b0; stroke-opacity: 0.25; stroke-width: 0.8; stroke-linecap: square"/>
     </g>
     <g id="line2d_60">
      <g>
       <use xlink:href="#m9bea4c9d3f" x="51.562344" y="256.910791" style="stroke: #000000; stroke-width: 0.8"/>
      </g>
     </g>
     <g id="text_26">
      <!-- 100 -->
      <g transform="translate(25.474844 260.709619) scale(0.1 -0.1)">
       <use xlink:href="#DejaVuSans-14"/>
       <use xlink:href="#DejaVuSans-13" transform="translate(63.625 0)"/>
       <use xlink:href="#DejaVuSans-13" transform="translate(127.25 0)"/>
      </g>
     </g>
    </g>
    <g id="text_27">
     <!-- Duty (%) -->
     <g transform="translate(19.0725 330.152667) rotate(-90) scale(0.1 -0.1)">
      <defs>
       <path id="DejaVuSans-8" d="M 4653 2053
Q 4381 2053 4226 1822
Q 4072 1591 4072 1178
Q 4072 772 4226 539
Q 4381 306 4653 306
Q 4919 306 5073 539
Q 5228 772 5228 1178
Q 5228 1588 5073 1820
Q 4919 2053 4653 2053
z
M 4653 2450
Q 5147 2450 5437 2106
Q 5728 1763 5728 1178
Q 5728 594 5436 251
Q 5144 -91 4653 -91
Q 4153 -91 3862 251
Q 3572 594 3572 1178
Q 3572 1766 3864 2108
Q 4156 2450 4653 2450
z
M 1428 4353
Q 1159 4353 1004 4120
Q 850 3888 850 3481
Q 850 3069 1003 2837
Q 1156 2606 1428 2606
Q 1700 2606 1854 2837
Q 2009 3069 2009 3481
Q 2009 3884 1853 4118
Q 1697 4353 1428 4353
z
M 4250 4750
L 4750 4750
L 1831 -91
L 1331 -91
L 4250 4750
z
M 1428 4750
Q 1922 4750 2215 4408
Q 2509 4066 2509 3481
Q 2509 2891 2217 2550
Q 1925 2209 1428 2209
Q 931 2209 642 2551
Q 353 2894 353 3481
Q 353 4063 643 4406
Q 934 4750 1428 4750
z
" transform="scale(0.015625)"/>
      </defs>
      <use xlink:href="#DejaVuSans-27"/>
      <use xlink:href="#DejaVuSans-58" transform="translate(77 0)"/>
      <use xlink:href="#DejaVuSans-57" transform="translate(140.375 0)"/>
      <use xlink:href="#DejaVuSans-5c" transform="translate(179.578125 0)"/>
      <use xlink:href="#DejaVuSans-3" transform="translate(238.765625 0)"/>
      <use xlink:href="#DejaVuSans-b" transform="translate(270.546875 0)"/>
      <use xlink:href="#DejaVuSans-8" transform="translate(309.5625 0)"/>
      <use xlink:href="#DejaVuSans-c" transform="translate(404.578125 0)"/>
     </g>
    </g>
   </g>
   <g id="line2d_61">
    <path d="M 78.182237 256.910791
L 148.094965 256.910791
L 150.350939 286.958178
L 152.605435 301.177535
L 154.862481 329.525339
L 157.116544 349.687908
L 159.372853 355.661616
L 168.39396 355.661616
L 170.647923 354.779117
L 172.90435 348.151763
L 175.159532 348.151763
L 177.415314 342.900564
L 186.436663 342.900564
L 188.692846 346.082098
L 193.204761 346.082098
L 195.460293 351.221459
L 202.225206 351.221459
L 204.48051 344.112556
L 208.98976 344.112556
L 211.245765 338.76538
L 215.756801 338.76538
L 218.011988 346.069658
L 222.522545 346.069658
L 224.778055 351.685547
L 229.288028 351.685547
L 231.542115 345.816669
L 233.79818 345.816669
L 236.052869 340.370953
L 245.07746 340.370953
L 247.333746 344.636552
L 254.099752 344.636552
L 256.355179 350.024994
L 263.121336 350.024994
L 265.377031 344.343821
L 274.400662 344.343821
L 276.656439 341.076919
L 283.424198 341.076919
L 285.680464 346.881012
L 294.70378 346.881012
L 296.959798 349.478442
L 303.727642 349.478442
L 305.983204 344.046381
L 312.753025 344.046381
L 315.011813 341.307661
L 324.034893 341.307661
L 326.289012 346.869791
L 333.059255 346.869791
L 335.315568 350.950194
L 342.094565 350.950194
L 344.344958 344.117745
L 353.367293 344.117745
L 355.620328 341.255344
L 362.385608 341.255344
L 364.640557 346.612675
L 373.667199 346.612675
L 375.92446 350.228588
L 382.687623 350.228588
L 384.943113 344.797735
L 389.451795 344.797735
L 391.705159 339.473484
L 398.468951 339.473484
L 400.722982 347.144799
L 405.237085 347.144799
L 407.492768 352.541881
L 412.006664 352.541881
L 414.262501 346.769177
L 416.519196 346.769177
L 418.778846 341.18516
L 427.807411 341.18516
L 430.063028 345.277245
L 434.570426 345.277245
L 436.829504 350.847251
L 445.850646 350.847251
L 448.105989 344.793167
L 450.365194 344.793167
L 452.620672 339.273228
L 459.390899 339.273228
L 461.646628 346.989713
L 466.157631 346.989713
L 468.416348 352.492681
L 472.92905 352.492681
L 475.184089 346.415874
L 477.439382 346.415874
L 479.694122 340.26507
L 488.716217 340.26507
L 490.969889 345.642043
L 493.224382 345.642043
L 495.483583 350.80787
L 504.511284 350.80787
L 506.766155 345.258465
L 511.280384 345.258465
L 513.540378 339.656505
L 520.3125 339.656505
L 522.570929 347.313175
L 524.82789 347.313175
L 527.080885 352.622635
L 533.849024 352.622635
L 536.107691 346.597159
L 538.363329 346.597159
L 540.623212 340.976135
L 549.648383 340.976135
L 551.902933 346.705136
L 556.417477 346.705136
L 558.677203 352.034044
L 565.445557 352.034044
L 567.704206 346.582146
L 569.958786 346.582146
L 572.217362 341.165968
L 578.986215 341.165968
L 581.245104 345.034814
L 585.760527 345.034814
L 588.016212 350.767186
L 597.037311 350.767186
L 599.295428 346.320817
L 601.551749 346.320817
L 603.810425 340.606951
L 610.580107 340.606951
L 610.580107 340.606951
" clip-path="url(#pa217570838)" style="fill: none; stroke: #1f77b4; stroke-linecap: square"/>
   </g>
   <g id="line2d_62">
    <path d="M 78.182438 256.910791
L 143.591101 256.910791
L 145.845533 260.54323
L 148.099253 260.54323
L 150.35444 298.168821
L 152.609849 298.168821
L 154.867051 338.971823
L 157.121729 338.971823
L 159.376513 351.54745
L 161.632377 351.54745
L 163.888087 350.411436
L 166.145668 350.411436
L 168.399985 344.958881
L 170.65289 344.958881
L 172.907594 344.268546
L 175.16582 344.268546
L 177.421099 345.134971
L 179.677992 345.134971
L 181.932543 347.46154
L 184.189572 347.46154
L 186.446031 347.34155
L 188.698919 347.34155
L 190.954053 348.426139
L 193.211609 348.426139
L 195.466587 346.595115
L 197.722138 346.595115
L 199.976952 346.043471
L 202.233844 346.043471
L 204.489579 346.869379
L 206.748419 346.869379
L 209.003147 345.761415
L 211.259323 345.761415
L 213.515095 345.889197
L 215.772225 345.889197
L 218.0278 345.532342
L 224.801104 345.5526
L 229.314004 345.658566
L 231.569295 345.26587
L 233.829152 345.26587
L 236.085366 346.297476
L 238.340971 346.297476
L 240.596774 344.636309
L 242.853055 344.636309
L 245.108229 345.957763
L 247.36579 345.957763
L 249.621515 345.75674
L 251.877673 345.75674
L 254.133483 345.039914
L 256.39066 345.039914
L 258.645474 345.512084
L 260.902543 345.512084
L 263.158024 344.463336
L 265.414555 344.463336
L 267.669376 344.929273
L 269.92732 344.929273
L 272.18267 346.635631
L 274.439645 346.635631
L 276.695574 346.210211
L 278.953414 346.210211
L 281.208543 344.849799
L 283.46603 344.849799
L 285.722819 345.222237
L 301.50914 345.314178
L 303.765447 346.835096
L 306.022426 346.835096
L 308.279099 344.949531
L 310.534637 344.949531
L 312.789633 345.321969
L 324.066725 345.41391
L 326.321643 346.780555
L 328.577321 346.780555
L 330.833066 345.021214
L 333.092511 345.021214
L 335.348608 345.393652
L 337.605486 345.393652
L 339.860747 345.58065
L 342.118748 345.58065
L 344.374959 345.733365
L 360.167378 345.733365
L 362.422665 347.252725
L 364.681104 347.252725
L 366.937079 345.27522
L 369.196873 345.27522
L 371.452776 345.646099
L 382.736392 345.646099
L 384.992161 345.493384
L 391.762879 345.527667
L 394.018993 345.713107
L 400.789157 345.713107
L 403.044667 347.232467
L 405.300627 347.232467
L 407.555542 345.346902
L 409.812923 345.346902
L 412.067207 345.812839
L 432.361704 345.812839
L 434.617088 347.179484
L 436.875193 347.179484
L 439.129383 345.879847
L 463.945276 345.879847
L 466.200187 345.513642
L 468.452886 345.513642
L 470.708391 345.88608
L 472.964377 345.88608
L 475.219732 344.704875
L 477.475786 344.704875
L 479.732698 346.191511
L 509.050193 346.098012
L 511.304271 344.578652
L 513.56153 344.578652
L 515.817305 346.124503
L 606.046433 346.032562
L 606.046433 346.032562
" clip-path="url(#pa217570838)" style="fill: none; stroke: #ff7f0e; stroke-linecap: square"/>
   </g>
   <g id="patch_9">
    <path d="M 51.562344 361.077656
L 51.562344 254.868303
" style="fill: none; stroke: #000000; stroke-width: 0.8; stroke-linejoin: miter; stroke-linecap: square"/>
   </g>
   <g id="patch_10">
    <path d="M 637.2 361.077656
L 637.2 254.868303
" style="fill: none; stroke: #000000; stroke-width: 0.8; stroke-linejoin: miter; stroke-linecap: square"/>
   </g>
   <g id="patch_11">
    <path d="M 51.562344 361.077656
L 637.2 361.077656
" style="fill: none; stroke: #000000; stroke-width: 0.8; stroke-linejoin: miter; stroke-linecap: square"/>
   </g>
   <g id="patch_12">
    <path d="M 51.562344 254.868303
L 637.2 254.868303
" style="fill: none; stroke: #000000; stroke-width: 0.8; stroke-linejoin: miter; stroke-linecap: square"/>
   </g>
  </g>
 </g>
 <defs>
  <clipPath id="pd74a4bbff6">
   <rect x="51.562344" y="26.16" width="585.637656" height="212.418706"/>
  </clipPath>
  <clipPath id="pa217570838">
   <rect x="51.562344" y="254.868303" width="585.637656" height="106.209353"/>
  </clipPath>
 </defs>
</svg>
