<svg xmlns="http://www.w3.org/2000/svg" width="920" height="570" viewBox="0 0 920 570">
<rect width="100%" height="100%" fill="#fff"/>
<style>text{font-family:system-ui,sans-serif;fill:#17202a}.axis{stroke:#5d6d7e;stroke-width:1}.grid{stroke:#d5d8dc;stroke-width:1}.raw{fill:none;stroke:#2471a3;stroke-width:1.5}.fit{fill:none;stroke:#c0392b;stroke-width:2}.power{fill:none;stroke:#7d3c98;stroke-width:1.5}</style>
<text x="460" y="25" text-anchor="middle" font-size="18" font-weight="600">Hotend thermal response - 260 C, 30 s period</text>
<rect x="405.86" y="48" width="490.14" height="322" fill="#eaf2f8"/>
<line class="axis" x1="78" y1="370" x2="896" y2="370"/>
<line class="axis" x1="78" y1="48" x2="78" y2="370"/>
<line class="axis" x1="78" y1="522" x2="896" y2="522"/>
<line class="axis" x1="78" y1="414" x2="78" y2="522"/>
<line class="grid" x1="78" y1="48.00" x2="896" y2="48.00"/>
<text x="70" y="52.00" text-anchor="end" font-size="12">261.32</text>
<line class="grid" x1="78" y1="128.50" x2="896" y2="128.50"/>
<text x="70" y="132.50" text-anchor="end" font-size="12">260.83</text>
<line class="grid" x1="78" y1="209.00" x2="896" y2="209.00"/>
<text x="70" y="213.00" text-anchor="end" font-size="12">260.34</text>
<line class="grid" x1="78" y1="289.50" x2="896" y2="289.50"/>
<text x="70" y="293.50" text-anchor="end" font-size="12">259.84</text>
<line class="grid" x1="78" y1="370.00" x2="896" y2="370.00"/>
<text x="70" y="374.00" text-anchor="end" font-size="12">259.35</text>
<line class="grid" x1="78.00" y1="48" x2="78.00" y2="370"/>
<text x="78.00" y="550" text-anchor="middle" font-size="12">0</text>
<line class="grid" x1="241.60" y1="48" x2="241.60" y2="370"/>
<text x="241.60" y="550" text-anchor="middle" font-size="12">30</text>
<line class="grid" x1="405.20" y1="48" x2="405.20" y2="370"/>
<text x="405.20" y="550" text-anchor="middle" font-size="12">60</text>
<line class="grid" x1="568.80" y1="48" x2="568.80" y2="370"/>
<text x="568.80" y="550" text-anchor="middle" font-size="12">90</text>
<line class="grid" x1="732.40" y1="48" x2="732.40" y2="370"/>
<text x="732.40" y="550" text-anchor="middle" font-size="12">120</text>
<line class="grid" x1="896.00" y1="48" x2="896.00" y2="370"/>
<text x="896.00" y="550" text-anchor="middle" font-size="12">150</text>
<polyline class="raw" points="78.00,257.90 79.64,277.81 81.28,297.68 82.92,301.65 84.56,313.54 86.20,313.54 87.84,329.38 89.47,337.28 91.11,329.38 92.75,333.33 94.39,337.28 96.03,337.28 97.67,333.33 99.31,337.28 100.95,329.38 102.59,321.46 104.23,325.42 105.87,329.38 107.51,325.42 109.15,321.46 110.79,317.50 112.42,309.58 114.06,305.62 115.70,305.62 117.34,293.71 118.98,293.71 120.62,281.79 122.26,285.77 123.90,281.79 125.54,265.87 127.18,265.87 128.82,257.90 130.46,257.90 132.10,261.89 133.74,245.93 135.37,253.91 137.01,245.93 138.65,237.94 140.29,233.95 141.93,237.94 143.57,217.94 145.21,217.94 146.85,229.95 148.49,217.94 150.13,209.93 151.77,205.92 153.41,205.92 155.05,197.89 156.69,201.91 158.32,201.91 159.96,193.88 161.60,189.86 163.24,193.88 164.88,185.84 166.52,185.84 168.16,185.84 169.80,189.86 171.44,181.82 173.08,181.82 174.72,185.84 176.36,185.84 178.00,189.86 179.64,189.86 181.27,197.89 182.91,197.89 184.55,193.88 186.19,193.88 187.83,201.91 189.47,201.91 191.11,205.92 192.75,201.91 194.39,201.91 196.03,213.94 197.67,205.92 199.31,217.94 200.95,213.94 202.59,225.95 204.22,221.95 205.86,221.95 207.50,225.95 209.14,237.94 210.78,237.94 212.42,245.93 214.06,253.91 215.70,241.94 217.34,249.92 218.98,253.91 220.62,257.90 222.26,261.89 223.90,265.87 225.54,277.81 227.17,273.83 228.81,273.83 230.45,285.77 232.09,281.79 233.73,281.79 235.37,289.74 237.01,285.77 238.65,285.77 240.29,281.79 241.93,289.74 243.57,293.71 245.21,297.68 246.85,293.71 248.48,297.68 250.12,293.71 251.76,297.68 253.40,293.71 255.04,293.71 256.68,285.77 258.32,285.77 259.96,285.77 261.60,285.77 263.24,285.77 264.88,281.79 266.52,281.79 268.16,277.81 269.80,269.85 271.43,265.87 273.07,269.85 274.71,257.90 276.35,261.89 277.99,257.90 279.63,253.91 281.27,245.93 282.91,245.93 284.55,241.94 286.19,237.94 287.83,233.95 289.47,221.95 291.11,221.95 292.75,213.94 294.38,213.94 296.02,217.94 297.66,205.92 299.30,197.89 300.94,205.92 302.58,193.88 304.22,185.84 305.86,185.84 307.50,173.78 309.14,177.80 310.78,169.75 312.42,169.75 314.06,169.75 315.70,161.69 317.33,161.69 318.97,157.66 320.61,161.69 322.25,153.63 323.89,153.63 325.53,165.72 327.17,149.59 328.81,145.56 330.45,137.48 332.09,145.56 333.73,141.52 335.37,153.63 337.01,149.59 338.65,149.59 340.28,145.56 341.92,157.66 343.56,149.59 345.20,153.63 346.84,161.69 348.48,153.63 350.12,161.69 351.76,157.66 353.40,153.63 355.04,161.69 356.68,165.72 358.32,161.69 359.96,173.78 361.60,181.82 363.23,165.72 364.87,185.84 366.51,177.80 368.15,185.84 369.79,185.84 371.43,181.82 373.07,185.84 374.71,193.88 376.35,193.88 377.99,201.91 379.63,201.91 381.27,201.91 382.91,209.93 384.55,209.93 386.18,213.94 387.82,221.95 389.46,233.95 391.10,237.94 392.74,225.95 394.38,229.95 396.02,245.93 397.66,237.94 399.30,233.95 400.94,245.93 402.58,241.94 404.22,245.93 405.86,237.94 407.49,249.92 409.13,241.94 410.77,249.92 412.41,253.91 414.05,257.90 415.69,249.92 417.33,245.93 418.97,253.91 420.61,257.90 422.25,257.90 423.89,253.91 425.53,253.91 427.17,245.93 428.81,241.94 430.44,237.94 432.08,241.94 433.72,233.95 435.36,233.95 437.00,233.95 438.64,225.95 440.28,229.95 441.92,217.94 443.56,209.93 445.20,209.93 446.84,209.93 448.48,201.91 450.12,209.93 451.76,193.88 453.39,193.88 455.03,193.88 456.67,185.84 458.31,185.84 459.95,177.80 461.59,169.75 463.23,173.78 464.87,165.72 466.51,165.72 468.15,157.66 469.79,157.66 471.43,161.69 473.07,149.59 474.71,149.59 476.34,141.52 477.98,141.52 479.62,133.44 481.26,137.48 482.90,129.39 484.54,129.39 486.18,129.39 487.82,121.30 489.46,129.39 491.10,121.30 492.74,129.39 494.38,113.20 496.02,125.35 497.66,129.39 499.29,121.30 500.93,125.35 502.57,125.35 504.21,121.30 505.85,117.25 507.49,129.39 509.13,117.25 510.77,129.39 512.41,125.35 514.05,125.35 515.69,133.44 517.33,137.48 518.97,137.48 520.61,137.48 522.24,141.52 523.88,153.63 525.52,137.48 527.16,153.63 528.80,149.59 530.44,161.69 532.08,157.66 533.72,161.69 535.36,169.75 537.00,173.78 538.64,177.80 540.28,169.75 541.92,177.80 543.56,181.82 545.19,185.84 546.83,189.86 548.47,177.80 550.11,189.86 551.75,185.84 553.39,201.91 555.03,197.89 556.67,197.89 558.31,209.93 559.95,213.94 561.59,209.93 563.23,221.95 564.87,221.95 566.51,225.95 568.14,229.95 569.78,221.95 571.42,229.95 573.06,221.95 574.70,225.95 576.34,229.95 577.98,237.94 579.62,221.95 581.26,245.93 582.90,225.95 584.54,229.95 586.18,229.95 587.82,229.95 589.45,221.95 591.09,225.95 592.73,225.95 594.37,221.95 596.01,225.95 597.65,217.94 599.29,213.94 600.93,205.92 602.57,201.91 604.21,193.88 605.85,197.89 607.49,205.92 609.13,189.86 610.77,189.86 612.40,189.86 614.04,173.78 615.68,177.80 617.32,169.75 618.96,173.78 620.60,169.75 622.24,165.72 623.88,161.69 625.52,161.69 627.16,153.63 628.80,141.52 630.44,145.56 632.08,149.59 633.72,137.48 635.35,133.44 636.99,129.39 638.63,121.30 640.27,121.30 641.91,129.39 643.55,125.35 645.19,117.25 646.83,109.14 648.47,117.25 650.11,109.14 651.75,113.20 653.39,109.14 655.03,117.25 656.67,109.14 658.30,109.14 659.94,117.25 661.58,113.20 663.22,113.20 664.86,113.20 666.50,117.25 668.14,109.14 669.78,113.20 671.42,109.14 673.06,109.14 674.70,101.03 676.34,109.14 677.98,125.35 679.62,117.25 681.25,121.30 682.89,125.35 684.53,133.44 686.17,133.44 687.81,129.39 689.45,137.48 691.09,141.52 692.73,145.56 694.37,149.59 696.01,149.59 697.65,153.63 699.29,157.66 700.93,161.69 702.57,177.80 704.20,165.72 705.84,173.78 707.48,169.75 709.12,181.82 710.76,177.80 712.40,177.80 714.04,177.80 715.68,185.84 717.32,197.89 718.96,201.91 720.60,197.89 722.24,205.92 723.88,213.94 725.51,205.92 727.15,209.93 728.79,213.94 730.43,221.95 732.07,213.94 733.71,217.94 735.35,217.94 736.99,217.94 738.63,221.95 740.27,225.95 741.91,217.94 743.55,229.95 745.19,217.94 746.83,221.95 748.46,209.93 750.10,213.94 751.74,217.94 753.38,209.93 755.02,209.93 756.66,205.92 758.30,213.94 759.94,201.91 761.58,193.88 763.22,193.88 764.86,185.84 766.50,189.86 768.14,185.84 769.78,185.84 771.41,173.78 773.05,169.75 774.69,177.80 776.33,157.66 777.97,165.72 779.61,157.66 781.25,157.66 782.89,153.63 784.53,149.59 786.17,149.59 787.81,137.48 789.45,137.48 791.09,133.44 792.73,129.39 794.36,129.39 796.00,129.39 797.64,125.35 799.28,109.14 800.92,113.20 802.56,105.09 804.20,96.97 805.84,105.09 807.48,101.03 809.12,101.03 810.76,101.03 812.40,109.14 814.04,109.14 815.68,92.91 817.31,92.91 818.95,84.78 820.59,88.85 822.23,80.72 823.87,80.72 825.51,84.78 827.15,84.78 828.79,92.91 830.43,88.85 832.07,80.72 833.71,80.72 835.35,84.78 836.99,84.78 838.63,92.91 840.26,92.91 841.90,92.91 843.54,88.85 845.18,101.03 846.82,96.97 848.46,109.14 850.10,105.09 851.74,113.20 853.38,117.25 855.02,113.20 856.66,117.25 858.30,133.44 859.94,133.44 861.58,125.35 863.21,133.44 864.85,137.48 866.49,141.52 868.13,149.59 869.77,137.48 871.41,153.63 873.05,157.66 874.69,161.69 876.33,169.75 877.97,173.78 879.61,169.75 881.25,161.69 882.89,173.78 884.53,177.80 886.16,181.82 887.80,189.86 889.44,181.82 891.08,185.84 892.72,189.86 894.36,185.84 896.00,197.89"/>
<polyline class="fit" points="405.86,246.53 407.49,247.64 409.13,248.52 410.77,249.17 412.41,249.60 414.05,249.78 415.69,249.74 417.33,249.46 418.97,248.94 420.61,248.19 422.25,247.21 423.89,246.00 425.53,244.57 427.17,242.91 428.81,241.05 430.44,238.97 432.08,236.70 433.72,234.24 435.36,231.59 437.00,228.78 438.64,225.80 440.28,222.67 441.92,219.40 443.56,216.01 445.20,212.50 446.84,208.89 448.48,205.20 450.12,201.43 451.76,197.60 453.39,193.73 455.03,189.83 456.67,185.91 458.31,181.99 459.95,178.08 461.59,174.21 463.23,170.38 464.87,166.60 466.51,162.90 468.15,159.29 469.79,155.77 471.43,152.37 473.07,149.09 474.71,145.95 476.34,142.96 477.98,140.14 479.62,137.48 481.26,135.00 482.90,132.72 484.54,130.63 486.18,128.75 487.82,127.08 489.46,125.63 491.10,124.40 492.74,123.41 494.38,122.64 496.02,122.11 497.66,121.81 499.29,121.74 500.93,121.92 502.57,122.32 504.21,122.96 505.85,123.83 507.49,124.91 509.13,126.22 510.77,127.75 512.41,129.47 514.05,131.40 515.69,133.52 517.33,135.82 518.97,138.29 520.61,140.93 522.24,143.71 523.88,146.63 525.52,149.68 527.16,152.85 528.80,156.11 530.44,159.46 532.08,162.89 533.72,166.37 535.36,169.90 537.00,173.46 538.64,177.03 540.28,180.60 541.92,184.16 543.56,187.69 545.19,191.18 546.83,194.61 548.47,197.97 550.11,201.24 551.75,204.41 553.39,207.47 555.03,210.40 556.67,213.19 558.31,215.84 559.95,218.32 561.59,220.63 563.23,222.76 564.87,224.71 566.51,226.45 568.14,227.98 569.78,229.31 571.42,230.41 573.06,231.29 574.70,231.95 576.34,232.37 577.98,232.56 579.62,232.51 581.26,232.23 582.90,231.71 584.54,230.96 586.18,229.98 587.82,228.77 589.45,227.33 591.09,225.68 592.73,223.81 594.37,221.74 596.01,219.47 597.65,217.00 599.29,214.36 600.93,211.54 602.57,208.56 604.21,205.44 605.85,202.17 607.49,198.77 609.13,195.27 610.77,191.66 612.40,187.96 614.04,184.19 615.68,180.36 617.32,176.49 618.96,172.59 620.60,168.67 622.24,164.75 623.88,160.85 625.52,156.97 627.16,153.14 628.80,149.37 630.44,145.66 632.08,142.05 633.72,138.53 635.35,135.13 636.99,131.86 638.63,128.72 640.27,125.73 641.91,122.90 643.55,120.24 645.19,117.77 646.83,115.48 648.47,113.40 650.11,111.52 651.75,109.85 653.39,108.40 655.03,107.17 656.67,106.18 658.30,105.41 659.94,104.88 661.58,104.58 663.22,104.52 664.86,104.69 666.50,105.10 668.14,105.73 669.78,106.60 671.42,107.69 673.06,109.00 674.70,110.52 676.34,112.25 677.98,114.18 679.62,116.30 681.25,118.60 682.89,121.07 684.53,123.71 686.17,126.49 687.81,129.41 689.45,132.46 691.09,135.63 692.73,138.89 694.37,142.24 696.01,145.67 697.65,149.15 699.29,152.68 700.93,156.24 702.57,159.81 704.20,163.39 705.84,166.95 707.48,170.48 709.12,173.96 710.76,177.39 712.40,180.75 714.04,184.02 715.68,187.19 717.32,190.25 718.96,193.18 720.60,195.97 722.24,198.62 723.88,201.10 725.51,203.41 727.15,205.54 728.79,207.48 730.43,209.23 732.07,210.76 733.71,212.08 735.35,213.19 736.99,214.07 738.63,214.72 740.27,215.14 741.91,215.33 743.55,215.28 745.19,215.00 746.83,214.48 748.46,213.73 750.10,212.75 751.74,211.54 753.38,210.10 755.02,208.45 756.66,206.58 758.30,204.51 759.94,202.23 761.58,199.77 763.22,197.13 764.86,194.31 766.50,191.33 768.14,188.20 769.78,184.93 771.41,181.54 773.05,178.03 774.69,174.42 776.33,170.72 777.97,166.95 779.61,163.13 781.25,159.25 782.89,155.35 784.53,151.43 786.17,147.51 787.81,143.61 789.45,139.73 791.09,135.90 792.73,132.13 794.36,128.43 796.00,124.81 797.64,121.30 799.28,117.90 800.92,114.62 802.56,111.48 804.20,108.49 805.84,105.67 807.48,103.01 809.12,100.53 810.76,98.25 812.40,96.16 814.04,94.28 815.68,92.62 817.31,91.17 818.95,89.94 820.59,88.95 822.23,88.18 823.87,87.65 825.51,87.35 827.15,87.29 828.79,87.46 830.43,87.87 832.07,88.51 833.71,89.38 835.35,90.47 836.99,91.78 838.63,93.30 840.26,95.03 841.90,96.96 843.54,99.08 845.18,101.38 846.82,103.85 848.46,106.49 850.10,109.27 851.74,112.20 853.38,115.25 855.02,118.41 856.66,121.67 858.30,125.03 859.94,128.45 861.58,131.93 863.21,135.46 864.85,139.02 866.49,142.60 868.13,146.17 869.77,149.73 871.41,153.26 873.05,156.75 874.69,160.18 876.33,163.53 877.97,166.80 879.61,169.97 881.25,173.03 882.89,175.96 884.53,178.75 886.16,181.40 887.80,183.88 889.44,186.19 891.08,188.32 892.72,190.26 894.36,192.00 896.00,193.54"/>
<polyline class="power" points="78.00,468.00 79.64,465.39 81.28,462.79 82.92,460.22 84.56,457.67 86.20,455.16 87.84,452.71 89.47,450.31 91.11,447.99 92.75,445.74 94.39,443.58 96.03,441.52 97.67,439.56 99.31,437.72 100.95,435.99 102.59,434.39 104.23,432.93 105.87,431.60 107.51,430.41 109.15,429.38 110.79,428.49 112.42,427.77 114.06,427.20 115.70,426.79 117.34,426.54 118.98,426.46 120.62,426.54 122.26,426.79 123.90,427.20 125.54,427.77 127.18,428.50 128.82,429.38 130.46,430.42 132.10,431.60 133.74,432.93 135.37,434.40 137.01,436.00 138.65,437.72 140.29,439.57 141.93,441.52 143.57,443.59 145.21,445.75 146.85,447.99 148.49,450.32 150.13,452.71 151.77,455.17 153.41,457.67 155.05,460.22 156.69,462.80 158.32,465.40 159.96,468.00 161.60,470.61 163.24,473.21 164.88,475.79 166.52,478.33 168.16,480.84 169.80,483.30 171.44,485.69 173.08,488.02 174.72,490.26 176.36,492.42 178.00,494.48 179.64,496.44 181.27,498.28 182.91,500.01 184.55,501.61 186.19,503.07 187.83,504.40 189.47,505.59 191.11,506.62 192.75,507.51 194.39,508.23 196.03,508.80 197.67,509.21 199.31,509.46 200.95,509.54 202.59,509.46 204.22,509.21 205.86,508.80 207.50,508.23 209.14,507.50 210.78,506.62 212.42,505.58 214.06,504.40 215.70,503.07 217.34,501.60 218.98,500.00 220.62,498.28 222.26,496.43 223.90,494.47 225.54,492.41 227.17,490.25 228.81,488.01 230.45,485.68 232.09,483.28 233.73,480.83 235.37,478.32 237.01,475.78 238.65,473.20 240.29,470.60 241.93,467.99 243.57,465.38 245.21,462.79 246.85,460.21 248.48,457.66 250.12,455.16 251.76,452.70 253.40,450.31 255.04,447.98 256.68,445.74 258.32,443.58 259.96,441.52 261.60,439.56 263.24,437.71 264.88,435.99 266.52,434.39 268.16,432.92 269.80,431.60 271.43,430.41 273.07,429.38 274.71,428.49 276.35,427.76 277.99,427.20 279.63,426.79 281.27,426.54 282.91,426.46 284.55,426.54 286.19,426.79 287.83,427.20 289.47,427.77 291.11,428.50 292.75,429.38 294.38,430.42 296.02,431.60 297.66,432.93 299.30,434.40 300.94,436.00 302.58,437.73 304.22,439.57 305.86,441.53 307.50,443.59 309.14,445.75 310.78,448.00 312.42,450.32 314.06,452.72 315.70,455.17 317.33,457.68 318.97,460.23 320.61,462.80 322.25,465.40 323.89,468.01 325.53,470.62 327.17,473.22 328.81,475.79 330.45,478.34 332.09,480.85 333.73,483.30 335.37,485.70 337.01,488.02 338.65,490.27 340.28,492.43 341.92,494.49 343.56,496.44 345.20,498.29 346.84,500.01 348.48,501.61 350.12,503.08 351.76,504.41 353.40,505.59 355.04,506.63 356.68,507.51 358.32,508.24 359.96,508.81 361.60,509.21 363.23,509.46 364.87,509.54 366.51,509.46 368.15,509.21 369.79,508.80 371.43,508.23 373.07,507.50 374.71,506.62 376.35,505.58 377.99,504.39 379.63,503.06 381.27,501.60 382.91,500.00 384.55,498.27 386.18,496.43 387.82,494.47 389.46,492.40 391.10,490.25 392.74,488.00 394.38,485.67 396.02,483.28 397.66,480.82 399.30,478.32 400.94,475.77 402.58,473.19 404.22,470.59 405.86,467.99 407.49,465.38 409.13,462.78 410.77,460.20 412.41,457.66 414.05,455.15 415.69,452.69 417.33,450.30 418.97,447.98 420.61,445.73 422.25,443.57 423.89,441.51 425.53,439.55 427.17,437.71 428.81,435.98 430.44,434.39 432.08,432.92 433.72,431.59 435.36,430.41 437.00,429.37 438.64,428.49 440.28,427.76 441.92,427.19 443.56,426.79 445.20,426.54 446.84,426.46 448.48,426.54 450.12,426.79 451.76,427.20 453.39,427.77 455.03,428.50 456.67,429.38 458.31,430.42 459.95,431.61 461.59,432.94 463.23,434.40 464.87,436.01 466.51,437.73 468.15,439.58 469.79,441.54 471.43,443.60 473.07,445.76 474.71,448.00 476.34,450.33 477.98,452.73 479.62,455.18 481.26,457.69 482.90,460.23 484.54,462.81 486.18,465.41 487.82,468.02 489.46,470.63 491.10,473.22 492.74,475.80 494.38,478.35 496.02,480.85 497.66,483.31 499.29,485.70 500.93,488.03 502.57,490.27 504.21,492.43 505.85,494.49 507.49,496.45 509.13,498.29 510.77,500.02 512.41,501.62 514.05,503.08 515.69,504.41 517.33,505.59 518.97,506.63 520.61,507.51 522.24,508.24 523.88,508.81 525.52,509.21 527.16,509.46 528.80,509.54 530.44,509.46 532.08,509.21 533.72,508.80 535.36,508.23 537.00,507.50 538.64,506.61 540.28,505.58 541.92,504.39 543.56,503.06 545.19,501.59 546.83,499.99 548.47,498.27 550.11,496.42 551.75,494.46 553.39,492.40 555.03,490.24 556.67,487.99 558.31,485.67 559.95,483.27 561.59,480.82 563.23,478.31 564.87,475.76 566.51,473.18 568.14,470.59 569.78,467.98 571.42,465.37 573.06,462.77 574.70,460.19 576.34,457.65 577.98,455.14 579.62,452.69 581.26,450.29 582.90,447.97 584.54,445.72 586.18,443.57 587.82,441.50 589.45,439.55 591.09,437.70 592.73,435.98 594.37,434.38 596.01,432.92 597.65,431.59 599.29,430.40 600.93,429.37 602.57,428.49 604.21,427.76 605.85,427.19 607.49,426.79 609.13,426.54 610.77,426.46 612.40,426.55 614.04,426.79 615.68,427.20 617.32,427.77 618.96,428.50 620.60,429.39 622.24,430.43 623.88,431.61 625.52,432.94 627.16,434.41 628.80,436.01 630.44,437.74 632.08,439.58 633.72,441.54 635.35,443.60 636.99,445.76 638.63,448.01 640.27,450.34 641.91,452.73 643.55,455.19 645.19,457.69 646.83,460.24 648.47,462.82 650.11,465.42 651.75,468.03 653.39,470.63 655.03,473.23 656.67,475.81 658.30,478.36 659.94,480.86 661.58,483.32 663.22,485.71 664.86,488.03 666.50,490.28 668.14,492.44 669.78,494.50 671.42,496.45 673.06,498.30 674.70,500.02 676.34,501.62 677.98,503.09 679.62,504.41 681.25,505.60 682.89,506.63 684.53,507.51 686.17,508.24 687.81,508.81 689.45,509.21 691.09,509.46 692.73,509.54 694.37,509.45 696.01,509.21 697.65,508.80 699.29,508.23 700.93,507.50 702.57,506.61 704.20,505.57 705.84,504.39 707.48,503.06 709.12,501.59 710.76,499.99 712.40,498.26 714.04,496.41 715.68,494.46 717.32,492.39 718.96,490.23 720.60,487.99 722.24,485.66 723.88,483.26 725.51,480.81 727.15,478.30 728.79,475.76 730.43,473.18 732.07,470.58 733.71,467.97 735.35,465.36 736.99,462.76 738.63,460.19 740.27,457.64 741.91,455.14 743.55,452.68 745.19,450.29 746.83,447.96 748.46,445.72 750.10,443.56 751.74,441.50 753.38,439.54 755.02,437.70 756.66,435.97 758.30,434.38 759.94,432.91 761.58,431.58 763.22,430.40 764.86,429.37 766.50,428.49 768.14,427.76 769.78,427.19 771.41,426.79 773.05,426.54 774.69,426.46 776.33,426.55 777.97,426.79 779.61,427.20 781.25,427.77 782.89,428.50 784.53,429.39 786.17,430.43 787.81,431.61 789.45,432.94 791.09,434.41 792.73,436.01 794.36,437.74 796.00,439.59 797.64,441.55 799.28,443.61 800.92,445.77 802.56,448.02 804.20,450.34 805.84,452.74 807.48,455.19 809.12,457.70 810.76,460.25 812.40,462.83 814.04,465.42 815.68,468.03 817.31,470.64 818.95,473.24 820.59,475.82 822.23,478.36 823.87,480.87 825.51,483.32 827.15,485.72 828.79,488.04 830.43,490.29 832.07,492.44 833.71,494.50 835.35,496.46 836.99,498.30 838.63,500.03 840.26,501.63 841.90,503.09 843.54,504.42 845.18,505.60 846.82,506.63 848.46,507.52 850.10,508.24 851.74,508.81 853.38,509.22 855.02,509.46 856.66,509.54 858.30,509.45 859.94,509.21 861.58,508.80 863.21,508.22 864.85,507.49 866.49,506.61 868.13,505.57 869.77,504.38 871.41,503.05 873.05,501.58 874.69,499.98 876.33,498.26 877.97,496.41 879.61,494.45 881.25,492.39 882.89,490.23 884.53,487.98 886.16,485.65 887.80,483.26 889.44,480.80 891.08,478.30 892.72,475.75 894.36,473.17 896.00,470.57"/>
<text x="20" y="209" transform="rotate(-90 20 209)" text-anchor="middle" font-size="13">Temperature (C)</text>
<text x="20" y="468" transform="rotate(-90 20 468)" text-anchor="middle" font-size="13">PWM duty</text>
<text x="487" y="568" text-anchor="middle" font-size="13">Time (s)</text>
<line x1="78" y1="35" x2="103" y2="35" class="raw"/><text x="109" y="39" font-size="12">temperature</text>
<line x1="203" y1="35" x2="228" y2="35" class="fit"/><text x="234" y="39" font-size="12">detrended fit</text>
<text x="378" y="39" font-size="12">shaded = measured</text>
</svg>
