<svg xmlns="http://www.w3.org/2000/svg" width="920" height="570" viewBox="0 0 920 570">
<rect width="100%" height="100%" fill="#fff"/>
<style>text{font-family:system-ui,sans-serif;fill:#17202a}.axis{stroke:#5d6d7e;stroke-width:1}.grid{stroke:#d5d8dc;stroke-width:1}.raw{fill:none;stroke:#2471a3;stroke-width:1.5}.fit{fill:none;stroke:#c0392b;stroke-width:2}.power{fill:none;stroke:#7d3c98;stroke-width:1.5}</style>
<text x="460" y="25" text-anchor="middle" font-size="18" font-weight="600">Hotend thermal response - 100 C, 60 s period</text>
<rect x="351.12" y="48" width="544.88" height="322" fill="#eaf2f8"/>
<line class="axis" x1="78" y1="370" x2="896" y2="370"/>
<line class="axis" x1="78" y1="48" x2="78" y2="370"/>
<line class="axis" x1="78" y1="522" x2="896" y2="522"/>
<line class="axis" x1="78" y1="414" x2="78" y2="522"/>
<line class="grid" x1="78" y1="48.00" x2="896" y2="48.00"/>
<text x="70" y="52.00" text-anchor="end" font-size="12">107.56</text>
<line class="grid" x1="78" y1="128.50" x2="896" y2="128.50"/>
<text x="70" y="132.50" text-anchor="end" font-size="12">105.45</text>
<line class="grid" x1="78" y1="209.00" x2="896" y2="209.00"/>
<text x="70" y="213.00" text-anchor="end" font-size="12">103.33</text>
<line class="grid" x1="78" y1="289.50" x2="896" y2="289.50"/>
<text x="70" y="293.50" text-anchor="end" font-size="12">101.21</text>
<line class="grid" x1="78" y1="370.00" x2="896" y2="370.00"/>
<text x="70" y="374.00" text-anchor="end" font-size="12">99.10</text>
<line class="grid" x1="78.00" y1="48" x2="78.00" y2="370"/>
<text x="78.00" y="550" text-anchor="middle" font-size="12">0</text>
<line class="grid" x1="241.60" y1="48" x2="241.60" y2="370"/>
<text x="241.60" y="550" text-anchor="middle" font-size="12">36</text>
<line class="grid" x1="405.20" y1="48" x2="405.20" y2="370"/>
<text x="405.20" y="550" text-anchor="middle" font-size="12">72</text>
<line class="grid" x1="568.80" y1="48" x2="568.80" y2="370"/>
<text x="568.80" y="550" text-anchor="middle" font-size="12">108</text>
<line class="grid" x1="732.40" y1="48" x2="732.40" y2="370"/>
<text x="732.40" y="550" text-anchor="middle" font-size="12">144</text>
<line class="grid" x1="896.00" y1="48" x2="896.00" y2="370"/>
<text x="896.00" y="550" text-anchor="middle" font-size="12">180</text>
<polyline class="raw" points="78.00,347.79 79.37,346.75 80.73,345.87 82.10,344.43 83.46,343.23 84.83,342.35 86.19,341.06 87.56,340.02 88.92,338.74 90.29,337.70 91.66,336.50 93.02,335.30 94.39,334.02 95.75,332.73 97.12,331.69 98.48,330.33 99.85,328.97 101.22,327.61 102.58,326.57 103.95,324.97 105.31,323.45 106.68,322.01 108.04,320.33 109.41,319.05 110.77,317.44 112.14,316.00 113.51,314.32 114.87,312.64 116.24,310.88 117.60,309.28 118.97,307.44 120.33,305.84 121.70,304.08 123.07,302.32 124.43,300.64 125.80,298.80 127.16,296.96 128.53,294.88 129.89,293.20 131.26,291.20 132.62,289.36 133.99,287.52 135.36,285.68 136.72,283.76 138.09,281.85 139.45,279.85 140.82,277.85 142.18,276.01 143.55,273.85 144.91,272.01 146.28,270.01 147.65,267.85 149.01,266.01 150.38,264.02 151.74,262.02 153.11,260.02 154.47,258.10 155.84,256.02 157.21,254.10 158.57,252.11 159.94,250.27 161.30,248.19 162.67,246.27 164.03,244.43 165.40,242.51 166.76,240.68 168.13,238.92 169.50,237.00 170.86,235.40 172.23,233.48 173.59,231.81 174.96,229.97 176.32,228.29 177.69,226.61 179.06,225.09 180.42,223.49 181.79,221.66 183.15,220.38 184.52,218.70 185.88,217.02 187.25,215.82 188.61,214.22 189.98,212.86 191.35,211.35 192.71,209.99 194.08,208.71 195.44,207.51 196.81,206.31 198.17,204.95 199.54,203.75 200.90,202.64 202.27,201.52 203.64,200.48 205.00,199.68 206.37,198.56 207.73,197.68 209.10,196.72 210.46,195.92 211.83,195.20 213.20,194.24 214.56,193.68 215.93,192.88 217.29,192.25 218.66,191.77 220.02,191.21 221.39,190.73 222.75,189.85 224.12,189.69 225.49,189.37 226.85,188.97 228.22,188.65 229.58,188.49 230.95,188.25 232.31,188.01 233.68,187.93 235.05,187.77 236.41,187.53 237.78,187.61 239.14,187.61 240.51,187.69 241.87,187.85 243.24,187.93 244.60,188.17 245.97,188.49 247.34,188.57 248.70,188.89 250.07,188.89 251.43,189.53 252.80,189.85 254.16,190.33 255.53,190.89 256.89,191.29 258.26,191.69 259.63,192.25 260.99,192.72 262.36,193.20 263.72,193.76 265.09,194.40 266.45,195.12 267.82,195.76 269.19,196.40 270.55,196.96 271.92,197.76 273.28,198.24 274.65,199.20 276.01,199.76 277.38,200.56 278.74,201.36 280.11,202.24 281.48,202.88 282.84,203.75 284.21,204.47 285.57,205.19 286.94,206.15 288.30,206.95 289.67,207.99 291.04,208.71 292.40,209.51 293.77,210.31 295.13,211.03 296.50,212.07 297.86,212.63 299.23,213.50 300.59,214.38 301.96,215.42 303.33,216.06 304.69,216.78 306.06,217.50 307.42,218.22 308.79,218.94 310.15,219.66 311.52,220.22 312.88,220.70 314.25,221.26 315.62,221.98 316.98,222.53 318.35,223.25 319.71,223.73 321.08,224.13 322.44,224.93 323.81,225.01 325.18,225.81 326.54,226.21 327.91,226.45 329.27,226.85 330.64,227.17 332.00,227.25 333.37,227.41 334.73,227.57 336.10,227.73 337.47,227.73 338.83,227.89 340.20,227.89 341.56,227.89 342.93,227.89 344.29,227.89 345.66,227.73 347.02,227.57 348.39,227.01 349.76,227.25 351.12,226.77 352.49,226.61 353.85,226.29 355.22,225.81 356.58,225.41 357.95,225.01 359.32,224.45 360.68,223.89 362.05,223.17 363.41,222.61 364.78,221.98 366.14,221.10 367.51,220.38 368.87,219.66 370.24,218.86 371.61,217.74 372.97,217.02 374.34,215.90 375.70,214.94 377.07,213.98 378.43,212.94 379.80,211.91 381.17,210.79 382.53,209.67 383.90,208.31 385.26,207.19 386.63,206.15 387.99,204.63 389.36,203.35 390.72,202.08 392.09,200.80 393.46,199.44 394.82,197.92 396.19,196.56 397.55,195.04 398.92,193.60 400.28,192.09 401.65,190.65 403.01,189.21 404.38,187.77 405.75,186.01 407.11,184.41 408.48,182.81 409.84,181.37 411.21,179.70 412.57,178.10 413.94,176.42 415.31,174.98 416.67,173.22 418.04,171.78 419.40,169.94 420.77,168.66 422.13,166.83 423.50,165.31 424.86,163.71 426.23,161.95 427.60,160.43 428.96,158.91 430.33,157.47 431.69,155.95 433.06,154.11 434.42,152.59 435.79,151.07 437.16,149.87 438.52,148.03 439.89,146.51 441.25,145.07 442.62,143.64 443.98,142.12 445.35,140.60 446.71,139.40 448.08,137.96 449.45,136.68 450.81,135.32 452.18,134.12 453.54,132.68 454.91,131.48 456.27,130.20 457.64,129.00 459.00,127.55 460.37,126.43 461.74,125.31 463.10,124.35 464.47,123.23 465.83,122.27 467.20,121.31 468.56,120.19 469.93,119.39 471.30,118.59 472.66,117.71 474.03,116.91 475.39,116.19 476.76,115.55 478.12,114.83 479.49,114.03 480.85,113.55 482.22,112.91 483.59,112.43 484.95,111.95 486.32,111.23 487.68,110.99 489.05,110.59 490.41,110.35 491.78,110.19 493.15,109.79 494.51,109.55 495.88,109.15 497.24,109.23 498.61,109.23 499.97,108.91 501.34,109.07 502.70,108.83 504.07,109.15 505.44,109.39 506.80,109.55 508.17,109.79 509.53,109.95 510.90,110.19 512.26,110.43 513.63,110.83 515.00,111.47 516.36,111.87 517.73,112.35 519.09,112.91 520.46,113.23 521.82,113.95 523.19,114.51 524.55,114.91 525.92,115.39 527.29,116.03 528.65,116.75 530.02,117.63 531.38,118.43 532.75,119.07 534.11,119.95 535.48,121.07 536.84,121.47 538.21,122.51 539.58,123.31 540.94,124.43 542.31,125.31 543.67,126.19 545.04,127.23 546.40,128.04 547.77,129.08 549.14,130.12 550.50,131.16 551.87,132.04 553.23,133.00 554.60,134.04 555.96,135.08 557.33,136.04 558.69,137.24 560.06,138.36 561.43,139.56 562.79,140.44 564.16,141.48 565.52,142.52 566.89,143.56 568.25,144.60 569.62,145.79 570.99,146.75 572.35,147.87 573.72,148.67 575.08,149.79 576.45,150.83 577.81,151.63 579.18,152.67 580.54,153.47 581.91,154.51 583.28,155.63 584.64,156.43 586.01,157.47 587.37,158.27 588.74,159.07 590.10,160.03 591.47,160.59 592.83,161.31 594.20,162.11 595.57,162.75 596.93,163.39 598.30,164.27 599.66,164.83 601.03,165.39 602.39,165.95 603.76,166.43 605.13,166.91 606.49,167.23 607.86,167.71 609.22,168.18 610.59,168.58 611.95,168.82 613.32,169.06 614.68,169.22 616.05,169.38 617.42,169.86 618.78,169.78 620.15,170.02 621.51,170.02 622.88,169.86 624.24,169.94 625.61,169.86 626.97,169.62 628.34,169.62 629.71,169.38 631.07,169.06 632.44,168.98 633.80,168.50 635.17,167.86 636.53,167.63 637.90,167.31 639.27,166.75 640.63,166.19 642.00,165.79 643.36,165.15 644.73,164.43 646.09,163.71 647.46,162.99 648.82,162.43 650.19,161.71 651.56,160.83 652.92,159.79 654.29,158.99 655.65,158.03 657.02,157.07 658.38,155.95 659.75,154.99 661.12,154.11 662.48,152.91 663.85,151.79 665.21,150.83 666.58,149.23 667.94,148.43 669.31,147.07 670.67,146.03 672.04,144.60 673.41,143.48 674.77,142.28 676.14,140.92 677.50,139.64 678.87,138.20 680.23,136.92 681.60,135.56 682.96,134.28 684.33,132.84 685.70,131.56 687.06,130.20 688.43,128.76 689.79,127.07 691.16,125.79 692.52,124.51 693.89,123.07 695.26,121.55 696.62,120.11 697.99,118.67 699.35,117.15 700.72,115.63 702.08,114.35 703.45,112.75 704.81,111.39 706.18,109.95 707.55,108.67 708.91,107.14 710.28,105.86 711.64,104.34 713.01,103.14 714.37,101.62 715.74,100.50 717.11,98.98 718.47,97.77 719.84,96.33 721.20,95.13 722.57,94.09 723.93,92.81 725.30,91.53 726.66,90.24 728.03,89.04 729.40,88.08 730.76,86.80 732.13,85.92 733.49,84.40 734.86,83.43 736.22,82.31 737.59,81.35 738.95,80.55 740.32,79.75 741.69,78.70 743.05,78.06 744.42,77.10 745.78,76.38 747.15,75.74 748.51,75.10 749.88,74.46 751.25,73.81 752.61,73.25 753.98,72.85 755.34,72.37 756.71,71.97 758.07,71.73 759.44,71.25 760.80,71.09 762.17,70.85 763.54,70.53 764.90,70.37 766.27,70.45 767.63,70.21 769.00,70.37 770.36,70.37 771.73,70.37 773.10,70.37 774.46,70.53 775.83,70.77 777.19,70.69 778.56,70.93 779.92,71.25 781.29,71.33 782.65,71.65 784.02,71.89 785.39,72.29 786.75,72.85 788.12,73.25 789.48,73.65 790.85,74.06 792.21,74.70 793.58,75.42 794.94,76.06 796.31,76.70 797.68,77.66 799.04,78.38 800.41,79.11 801.77,79.75 803.14,80.47 804.50,81.35 805.87,82.15 807.24,82.95 808.60,84.15 809.97,85.04 811.33,86.00 812.70,87.04 814.06,88.08 815.43,89.04 816.79,90.16 818.16,91.45 819.53,92.41 820.89,93.61 822.26,94.97 823.62,95.85 824.99,97.13 826.35,98.01 827.72,99.22 829.09,100.18 830.45,101.46 831.82,102.66 833.18,103.78 834.55,104.74 835.91,105.86 837.28,107.06 838.64,108.18 840.01,109.23 841.38,110.35 842.74,111.55 844.11,112.75 845.47,113.87 846.84,114.83 848.20,116.03 849.57,117.15 850.93,118.11 852.30,118.99 853.67,119.79 855.03,121.15 856.40,122.11 857.76,122.91 859.13,124.03 860.49,124.83 861.86,125.71 863.23,126.51 864.59,127.39 865.96,128.20 867.32,129.08 868.69,129.64 870.05,130.52 871.42,131.32 872.78,131.96 874.15,132.44 875.52,133.16 876.88,133.56 878.25,134.36 879.61,134.60 880.98,135.16 882.34,135.48 883.71,135.88 885.08,136.28 886.44,136.60 887.81,136.92 889.17,137.08 890.54,137.08 891.90,137.40 893.27,137.40 894.63,137.56 896.00,137.64"/>
<polyline class="fit" points="351.12,216.64 352.49,216.56 353.85,216.43 355.22,216.26 356.58,216.05 357.95,215.80 359.32,215.51 360.68,215.17 362.05,214.80 363.41,214.38 364.78,213.92 366.14,213.42 367.51,212.88 368.87,212.29 370.24,211.67 371.61,211.01 372.97,210.31 374.34,209.57 375.70,208.80 377.07,207.98 378.43,207.13 379.80,206.24 381.17,205.32 382.53,204.36 383.90,203.37 385.26,202.34 386.63,201.28 387.99,200.19 389.36,199.07 390.72,197.92 392.09,196.74 393.46,195.53 394.82,194.29 396.19,193.03 397.55,191.74 398.92,190.43 400.28,189.10 401.65,187.74 403.01,186.37 404.38,184.97 405.75,183.56 407.11,182.12 408.48,180.68 409.84,179.21 411.21,177.74 412.57,176.25 413.94,174.75 415.31,173.24 416.67,171.73 418.04,170.20 419.40,168.67 420.77,167.14 422.13,165.60 423.50,164.06 424.86,162.52 426.23,160.98 427.60,159.44 428.96,157.91 430.33,156.38 431.69,154.85 433.06,153.34 434.42,151.83 435.79,150.33 437.16,148.84 438.52,147.37 439.89,145.91 441.25,144.46 442.62,143.03 443.98,141.62 445.35,140.23 446.71,138.85 448.08,137.50 449.45,136.17 450.81,134.86 452.18,133.57 453.54,132.31 454.91,131.08 456.27,129.87 457.64,128.69 459.00,127.55 460.37,126.43 461.74,125.34 463.10,124.28 464.47,123.26 465.83,122.27 467.20,121.32 468.56,120.40 469.93,119.51 471.30,118.66 472.66,117.85 474.03,117.08 475.39,116.34 476.76,115.65 478.12,114.99 479.49,114.37 480.85,113.79 482.22,113.26 483.59,112.76 484.95,112.30 486.32,111.89 487.68,111.52 489.05,111.18 490.41,110.89 491.78,110.65 493.15,110.44 494.51,110.28 495.88,110.15 497.24,110.07 498.61,110.03 499.97,110.04 501.34,110.08 502.70,110.16 504.07,110.29 505.44,110.46 506.80,110.66 508.17,110.91 509.53,111.19 510.90,111.51 512.26,111.87 513.63,112.27 515.00,112.71 516.36,113.18 517.73,113.69 519.09,114.23 520.46,114.81 521.82,115.42 523.19,116.06 524.55,116.74 525.92,117.44 527.29,118.18 528.65,118.94 530.02,119.73 531.38,120.55 532.75,121.40 534.11,122.27 535.48,123.17 536.84,124.08 538.21,125.02 539.58,125.98 540.94,126.96 542.31,127.96 543.67,128.98 545.04,130.01 546.40,131.06 547.77,132.12 549.14,133.19 550.50,134.27 551.87,135.36 553.23,136.46 554.60,137.57 555.96,138.69 557.33,139.81 558.69,140.93 560.06,142.05 561.43,143.18 562.79,144.30 564.16,145.42 565.52,146.54 566.89,147.65 568.25,148.76 569.62,149.86 570.99,150.95 572.35,152.03 573.72,153.11 575.08,154.16 576.45,155.21 577.81,156.24 579.18,157.25 580.54,158.25 581.91,159.23 583.28,160.19 584.64,161.12 586.01,162.04 587.37,162.93 588.74,163.80 590.10,164.64 591.47,165.46 592.83,166.25 594.20,167.01 595.57,167.75 596.93,168.45 598.30,169.12 599.66,169.76 601.03,170.37 602.39,170.94 603.76,171.48 605.13,171.98 606.49,172.45 607.86,172.88 609.22,173.28 610.59,173.64 611.95,173.96 613.32,174.24 614.68,174.48 616.05,174.68 617.42,174.84 618.78,174.96 620.15,175.04 621.51,175.08 622.88,175.08 624.24,175.04 625.61,174.95 626.97,174.83 628.34,174.66 629.71,174.45 631.07,174.20 632.44,173.90 633.80,173.57 635.17,173.19 636.53,172.77 637.90,172.31 639.27,171.81 640.63,171.27 642.00,170.69 643.36,170.07 644.73,169.40 646.09,168.70 647.46,167.96 648.82,167.19 650.19,166.37 651.56,165.52 652.92,164.63 654.29,163.71 655.65,162.75 657.02,161.76 658.38,160.73 659.75,159.67 661.12,158.58 662.48,157.46 663.85,156.31 665.21,155.13 666.58,153.92 667.94,152.68 669.31,151.42 670.67,150.13 672.04,148.82 673.41,147.49 674.77,146.13 676.14,144.76 677.50,143.36 678.87,141.94 680.23,140.51 681.60,139.07 682.96,137.60 684.33,136.13 685.70,134.64 687.06,133.14 688.43,131.63 689.79,130.11 691.16,128.59 692.52,127.06 693.89,125.52 695.26,123.99 696.62,122.45 697.99,120.91 699.35,119.37 700.72,117.83 702.08,116.30 703.45,114.77 704.81,113.24 706.18,111.73 707.55,110.22 708.91,108.72 710.28,107.23 711.64,105.76 713.01,104.30 714.37,102.85 715.74,101.42 717.11,100.01 718.47,98.61 719.84,97.24 721.20,95.89 722.57,94.55 723.93,93.25 725.30,91.96 726.66,90.70 728.03,89.47 729.40,88.26 730.76,87.08 732.13,85.94 733.49,84.82 734.86,83.73 736.22,82.67 737.59,81.65 738.95,80.66 740.32,79.71 741.69,78.79 743.05,77.90 744.42,77.05 745.78,76.24 747.15,75.47 748.51,74.74 749.88,74.04 751.25,73.38 752.61,72.76 753.98,72.19 755.34,71.65 756.71,71.15 758.07,70.70 759.44,70.28 760.80,69.91 762.17,69.58 763.54,69.29 764.90,69.04 766.27,68.84 767.63,68.67 769.00,68.55 770.36,68.47 771.73,68.43 773.10,68.43 774.46,68.48 775.83,68.56 777.19,68.69 778.56,68.85 779.92,69.06 781.29,69.30 782.65,69.59 784.02,69.91 785.39,70.27 786.75,70.67 788.12,71.11 789.48,71.58 790.85,72.09 792.21,72.63 793.58,73.21 794.94,73.82 796.31,74.46 797.68,75.14 799.04,75.84 800.41,76.58 801.77,77.34 803.14,78.13 804.50,78.95 805.87,79.80 807.24,80.67 808.60,81.57 809.97,82.49 811.33,83.43 812.70,84.39 814.06,85.37 815.43,86.36 816.79,87.38 818.16,88.41 819.53,89.46 820.89,90.52 822.26,91.59 823.62,92.67 824.99,93.77 826.35,94.87 827.72,95.98 829.09,97.09 830.45,98.21 831.82,99.33 833.18,100.45 834.55,101.58 835.91,102.70 837.28,103.82 838.64,104.94 840.01,106.06 841.38,107.16 842.74,108.26 844.11,109.35 845.47,110.44 846.84,111.51 848.20,112.57 849.57,113.61 850.93,114.64 852.30,115.65 853.67,116.65 855.03,117.63 856.40,118.59 857.76,119.53 859.13,120.44 860.49,121.33 861.86,122.20 863.23,123.05 864.59,123.86 865.96,124.65 867.32,125.41 868.69,126.15 870.05,126.85 871.42,127.52 872.78,128.16 874.15,128.77 875.52,129.34 876.88,129.88 878.25,130.38 879.61,130.85 880.98,131.28 882.34,131.68 883.71,132.03 885.08,132.35 886.44,132.63 887.81,132.87 889.17,133.08 890.54,133.24 891.90,133.36 893.27,133.44 894.63,133.48 896.00,133.48"/>
<polyline class="power" points="78.00,468.00 79.37,466.70 80.73,465.39 82.10,464.09 83.46,462.79 84.83,461.50 86.19,460.22 87.56,458.94 88.92,457.67 90.29,456.41 91.66,455.16 93.02,453.93 94.39,452.71 95.75,451.50 97.12,450.31 98.48,449.14 99.85,447.99 101.22,446.85 102.58,445.74 103.95,444.65 105.31,443.58 106.68,442.54 108.04,441.52 109.41,440.53 110.77,439.56 112.14,438.63 113.51,437.72 114.87,436.84 116.24,435.99 117.60,435.18 118.97,434.39 120.33,433.64 121.70,432.93 123.07,432.25 124.43,431.60 125.80,430.99 127.16,430.41 128.53,429.88 129.89,429.38 131.26,428.92 132.62,428.49 133.99,428.11 135.36,427.77 136.72,427.46 138.09,427.20 139.45,426.97 140.82,426.79 142.18,426.65 143.55,426.54 144.91,426.48 146.28,426.46 147.65,426.48 149.01,426.54 150.38,426.65 151.74,426.79 153.11,426.97 154.47,427.20 155.84,427.46 157.21,427.77 158.57,428.11 159.94,428.50 161.30,428.92 162.67,429.38 164.03,429.88 165.40,430.42 166.76,430.99 168.13,431.60 169.50,432.25 170.86,432.93 172.23,433.65 173.59,434.40 174.96,435.18 176.32,436.00 177.69,436.84 179.06,437.72 180.42,438.63 181.79,439.57 183.15,440.53 184.52,441.52 185.88,442.54 187.25,443.59 188.61,444.65 189.98,445.75 191.35,446.86 192.71,447.99 194.08,449.14 195.44,450.32 196.81,451.51 198.17,452.71 199.54,453.93 200.90,455.17 202.27,456.41 203.64,457.67 205.00,458.94 206.37,460.22 207.73,461.51 209.10,462.80 210.46,464.09 211.83,465.40 213.20,466.70 214.56,468.00 215.93,469.31 217.29,470.61 218.66,471.91 220.02,473.21 221.39,474.50 222.75,475.79 224.12,477.06 225.49,478.33 226.85,479.59 228.22,480.84 229.58,482.07 230.95,483.29 232.31,484.50 233.68,485.69 235.05,486.86 236.41,488.01 237.78,489.15 239.14,490.26 240.51,491.35 241.87,492.42 243.24,493.46 244.60,494.48 245.97,495.47 247.34,496.44 248.70,497.38 250.07,498.28 251.43,499.16 252.80,500.01 254.16,500.82 255.53,501.61 256.89,502.36 258.26,503.07 259.63,503.76 260.99,504.40 262.36,505.01 263.72,505.59 265.09,506.12 266.45,506.62 267.82,507.08 269.19,507.51 270.55,507.89 271.92,508.23 273.28,508.54 274.65,508.80 276.01,509.03 277.38,509.21 278.74,509.35 280.11,509.46 281.48,509.52 282.84,509.54 284.21,509.52 285.57,509.46 286.94,509.35 288.30,509.21 289.67,509.03 291.04,508.80 292.40,508.54 293.77,508.23 295.13,507.89 296.50,507.50 297.86,507.08 299.23,506.62 300.59,506.12 301.96,505.58 303.33,505.01 304.69,504.40 306.06,503.75 307.42,503.07 308.79,502.35 310.15,501.60 311.52,500.82 312.88,500.00 314.25,499.15 315.62,498.28 316.98,497.37 318.35,496.43 319.71,495.47 321.08,494.47 322.44,493.45 323.81,492.41 325.18,491.34 326.54,490.25 327.91,489.14 329.27,488.01 330.64,486.85 332.00,485.68 333.37,484.49 334.73,483.29 336.10,482.06 337.47,480.83 338.83,479.58 340.20,478.32 341.56,477.05 342.93,475.78 344.29,474.49 345.66,473.20 347.02,471.90 348.39,470.60 349.76,469.30 351.12,467.99 352.49,466.69 353.85,465.38 355.22,464.08 356.58,462.79 357.95,461.49 359.32,460.21 360.68,458.93 362.05,457.66 363.41,456.40 364.78,455.16 366.14,453.92 367.51,452.70 368.87,451.50 370.24,450.31 371.61,449.14 372.97,447.98 374.34,446.85 375.70,445.74 377.07,444.65 378.43,443.58 379.80,442.53 381.17,441.52 382.53,440.52 383.90,439.56 385.26,438.62 386.63,437.71 387.99,436.84 389.36,435.99 390.72,435.17 392.09,434.39 393.46,433.64 394.82,432.92 396.19,432.24 397.55,431.60 398.92,430.99 400.28,430.41 401.65,429.87 403.01,429.38 404.38,428.91 405.75,428.49 407.11,428.11 408.48,427.76 409.84,427.46 411.21,427.20 412.57,426.97 413.94,426.79 415.31,426.65 416.67,426.54 418.04,426.48 419.40,426.46 420.77,426.48 422.13,426.54 423.50,426.65 424.86,426.79 426.23,426.97 427.60,427.20 428.96,427.46 430.33,427.77 431.69,428.11 433.06,428.50 434.42,428.92 435.79,429.38 437.16,429.88 438.52,430.42 439.89,430.99 441.25,431.60 442.62,432.25 443.98,432.93 445.35,433.65 446.71,434.40 448.08,435.18 449.45,436.00 450.81,436.85 452.18,437.73 453.54,438.63 454.91,439.57 456.27,440.54 457.64,441.53 459.00,442.55 460.37,443.59 461.74,444.66 463.10,445.75 464.47,446.86 465.83,448.00 467.20,449.15 468.56,450.32 469.93,451.51 471.30,452.72 472.66,453.94 474.03,455.17 475.39,456.42 476.76,457.68 478.12,458.95 479.49,460.23 480.85,461.51 482.22,462.80 483.59,464.10 484.95,465.40 486.32,466.71 487.68,468.01 489.05,469.32 490.41,470.62 491.78,471.92 493.15,473.22 494.51,474.51 495.88,475.79 497.24,477.07 498.61,478.34 499.97,479.60 501.34,480.85 502.70,482.08 504.07,483.30 505.44,484.51 506.80,485.70 508.17,486.87 509.53,488.02 510.90,489.15 512.26,490.27 513.63,491.36 515.00,492.42 516.36,493.47 517.73,494.49 519.09,495.48 520.46,496.44 521.82,497.38 523.19,498.29 524.55,499.17 525.92,500.01 527.29,500.83 528.65,501.61 530.02,502.36 531.38,503.08 532.75,503.76 534.11,504.41 535.48,505.02 536.84,505.59 538.21,506.13 539.58,506.63 540.94,507.09 542.31,507.51 543.67,507.89 545.04,508.24 546.40,508.54 547.77,508.80 549.14,509.03 550.50,509.21 551.87,509.36 553.23,509.46 554.60,509.52 555.96,509.54 557.33,509.52 558.69,509.46 560.06,509.35 561.43,509.21 562.79,509.03 564.16,508.80 565.52,508.54 566.89,508.23 568.25,507.89 569.62,507.50 570.99,507.08 572.35,506.62 573.72,506.12 575.08,505.58 576.45,505.01 577.81,504.39 579.18,503.75 580.54,503.07 581.91,502.35 583.28,501.60 584.64,500.81 586.01,500.00 587.37,499.15 588.74,498.27 590.10,497.36 591.47,496.43 592.83,495.46 594.20,494.47 595.57,493.45 596.93,492.40 598.30,491.34 599.66,490.25 601.03,489.13 602.39,488.00 603.76,486.85 605.13,485.67 606.49,484.48 607.86,483.28 609.22,482.06 610.59,480.82 611.95,479.58 613.32,478.32 614.68,477.05 616.05,475.77 617.42,474.48 618.78,473.19 620.15,471.90 621.51,470.59 622.88,469.29 624.24,467.99 625.61,466.68 626.97,465.38 628.34,464.08 629.71,462.78 631.07,461.49 632.44,460.20 633.80,458.92 635.17,457.66 636.53,456.40 637.90,455.15 639.27,453.92 640.63,452.70 642.00,451.49 643.36,450.30 644.73,449.13 646.09,447.98 647.46,446.84 648.82,445.73 650.19,444.64 651.56,443.57 652.92,442.53 654.29,441.51 655.65,440.52 657.02,439.55 658.38,438.62 659.75,437.71 661.12,436.83 662.48,435.98 663.85,435.17 665.21,434.39 666.58,433.64 667.94,432.92 669.31,432.24 670.67,431.59 672.04,430.98 673.41,430.41 674.77,429.87 676.14,429.37 677.50,428.91 678.87,428.49 680.23,428.11 681.60,427.76 682.96,427.46 684.33,427.19 685.70,426.97 687.06,426.79 688.43,426.64 689.79,426.54 691.16,426.48 692.52,426.46 693.89,426.48 695.26,426.54 696.62,426.65 697.99,426.79 699.35,426.98 700.72,427.20 702.08,427.47 703.45,427.77 704.81,428.12 706.18,428.50 707.55,428.92 708.91,429.38 710.28,429.88 711.64,430.42 713.01,431.00 714.37,431.61 715.74,432.25 717.11,432.94 718.47,433.65 719.84,434.40 721.20,435.19 722.57,436.00 723.93,436.85 725.30,437.73 726.66,438.64 728.03,439.58 729.40,440.54 730.76,441.54 732.13,442.55 733.49,443.60 734.86,444.67 736.22,445.76 737.59,446.87 738.95,448.00 740.32,449.16 741.69,450.33 743.05,451.52 744.42,452.72 745.78,453.95 747.15,455.18 748.51,456.43 749.88,457.69 751.25,458.96 752.61,460.23 753.98,461.52 755.34,462.81 756.71,464.11 758.07,465.41 759.44,466.71 760.80,468.02 762.17,469.32 763.54,470.63 764.90,471.93 766.27,473.22 767.63,474.52 769.00,475.80 770.36,477.08 771.73,478.35 773.10,479.61 774.46,480.85 775.83,482.09 777.19,483.31 778.56,484.51 779.92,485.70 781.29,486.87 782.65,488.03 784.02,489.16 785.39,490.27 786.75,491.36 788.12,492.43 789.48,493.47 790.85,494.49 792.21,495.48 793.58,496.45 794.94,497.39 796.31,498.29 797.68,499.17 799.04,500.02 800.41,500.83 801.77,501.62 803.14,502.37 804.50,503.08 805.87,503.76 807.24,504.41 808.60,505.02 809.97,505.59 811.33,506.13 812.70,506.63 814.06,507.09 815.43,507.51 816.79,507.89 818.16,508.24 819.53,508.54 820.89,508.81 822.26,509.03 823.62,509.21 824.99,509.36 826.35,509.46 827.72,509.52 829.09,509.54 830.45,509.52 831.82,509.46 833.18,509.35 834.55,509.21 835.91,509.02 837.28,508.80 838.64,508.53 840.01,508.23 841.38,507.88 842.74,507.50 844.11,507.08 845.47,506.61 846.84,506.11 848.20,505.58 849.57,505.00 850.93,504.39 852.30,503.74 853.67,503.06 855.03,502.34 856.40,501.59 857.76,500.81 859.13,499.99 860.49,499.14 861.86,498.27 863.23,497.36 864.59,496.42 865.96,495.45 867.32,494.46 868.69,493.44 870.05,492.40 871.42,491.33 872.78,490.24 874.15,489.13 875.52,487.99 876.88,486.84 878.25,485.67 879.61,484.48 880.98,483.27 882.34,482.05 883.71,480.82 885.08,479.57 886.44,478.31 887.81,477.04 889.17,475.76 890.54,474.48 891.90,473.19 893.27,471.89 894.63,470.59 896.00,469.28"/>
<text x="20" y="209" transform="rotate(-90 20 209)" text-anchor="middle" font-size="13">Temperature (C)</text>
<text x="20" y="468" transform="rotate(-90 20 468)" text-anchor="middle" font-size="13">PWM duty</text>
<text x="487" y="568" text-anchor="middle" font-size="13">Time (s)</text>
<line x1="78" y1="35" x2="103" y2="35" class="raw"/><text x="109" y="39" font-size="12">temperature</text>
<line x1="203" y1="35" x2="228" y2="35" class="fit"/><text x="234" y="39" font-size="12">detrended fit</text>
<text x="378" y="39" font-size="12">shaded = measured</text>
</svg>
