<svg xmlns="http://www.w3.org/2000/svg" width="920" height="570" viewBox="0 0 920 570">
<rect width="100%" height="100%" fill="#fff"/>
<style>text{font-family:system-ui,sans-serif;fill:#17202a}.axis{stroke:#5d6d7e;stroke-width:1}.grid{stroke:#d5d8dc;stroke-width:1}.raw{fill:none;stroke:#2471a3;stroke-width:1.5}.fit{fill:none;stroke:#c0392b;stroke-width:2}.power{fill:none;stroke:#7d3c98;stroke-width:1.5}</style>
<text x="460" y="25" text-anchor="middle" font-size="18" font-weight="600">Hotend thermal response - 100 C, 30 s period, shift 7</text>
<rect x="405.86" y="48" width="490.14" height="322" fill="#eaf2f8"/>
<line class="axis" x1="78" y1="370" x2="896" y2="370"/>
<line class="axis" x1="78" y1="48" x2="78" y2="370"/>
<line class="axis" x1="78" y1="522" x2="896" y2="522"/>
<line class="axis" x1="78" y1="414" x2="78" y2="522"/>
<line class="grid" x1="78" y1="48.00" x2="896" y2="48.00"/>
<text x="70" y="52.00" text-anchor="end" font-size="12">102.35</text>
<line class="grid" x1="78" y1="128.50" x2="896" y2="128.50"/>
<text x="70" y="132.50" text-anchor="end" font-size="12">101.68</text>
<line class="grid" x1="78" y1="209.00" x2="896" y2="209.00"/>
<text x="70" y="213.00" text-anchor="end" font-size="12">101.01</text>
<line class="grid" x1="78" y1="289.50" x2="896" y2="289.50"/>
<text x="70" y="293.50" text-anchor="end" font-size="12">100.33</text>
<line class="grid" x1="78" y1="370.00" x2="896" y2="370.00"/>
<text x="70" y="374.00" text-anchor="end" font-size="12">99.66</text>
<line class="grid" x1="78.00" y1="48" x2="78.00" y2="370"/>
<text x="78.00" y="550" text-anchor="middle" font-size="12">0</text>
<line class="grid" x1="241.60" y1="48" x2="241.60" y2="370"/>
<text x="241.60" y="550" text-anchor="middle" font-size="12">30</text>
<line class="grid" x1="405.20" y1="48" x2="405.20" y2="370"/>
<text x="405.20" y="550" text-anchor="middle" font-size="12">60</text>
<line class="grid" x1="568.80" y1="48" x2="568.80" y2="370"/>
<text x="568.80" y="550" text-anchor="middle" font-size="12">90</text>
<line class="grid" x1="732.40" y1="48" x2="732.40" y2="370"/>
<text x="732.40" y="550" text-anchor="middle" font-size="12">120</text>
<line class="grid" x1="896.00" y1="48" x2="896.00" y2="370"/>
<text x="896.00" y="550" text-anchor="middle" font-size="12">150</text>
<polyline class="raw" points="78.00,313.77 79.64,313.77 81.28,313.77 82.92,317.80 84.56,317.80 86.20,317.80 87.84,321.84 89.47,321.84 91.11,321.84 92.75,321.84 94.39,321.84 96.03,321.84 97.67,321.84 99.31,321.84 100.95,317.80 102.59,317.80 104.23,317.80 105.87,317.80 107.51,313.77 109.15,313.77 110.79,309.73 112.42,309.73 114.06,305.70 115.70,301.67 117.34,301.67 118.98,297.63 120.62,293.60 122.26,293.60 123.90,289.56 125.54,285.53 127.18,281.50 128.82,277.47 130.46,273.43 132.10,269.40 133.74,269.40 135.37,265.37 137.01,261.34 138.65,257.30 140.29,253.27 141.93,253.27 143.57,249.24 145.21,245.21 146.85,245.21 148.49,241.18 150.13,237.14 151.77,237.14 153.41,237.14 155.05,233.11 156.69,233.11 158.32,229.08 159.96,229.08 161.60,229.08 163.24,225.05 164.88,225.05 166.52,225.05 168.16,225.05 169.80,225.05 171.44,225.05 173.08,225.05 174.72,229.08 176.36,229.08 178.00,229.08 179.64,229.08 181.27,233.11 182.91,233.11 184.55,237.14 186.19,237.14 187.83,241.18 189.47,245.21 191.11,245.21 192.75,249.24 194.39,253.27 196.03,257.30 197.67,257.30 199.31,261.34 200.95,265.37 202.59,269.40 204.22,273.43 205.86,277.47 207.50,281.50 209.14,285.53 210.78,289.56 212.42,293.60 214.06,297.63 215.70,301.67 217.34,305.70 218.98,309.73 220.62,313.77 222.26,313.77 223.90,317.80 225.54,321.84 227.17,325.87 228.81,325.87 230.45,329.91 232.09,333.94 233.73,333.94 235.37,337.98 237.01,337.98 238.65,342.01 240.29,342.01 241.93,346.05 243.57,346.05 245.21,346.05 246.85,346.05 248.48,346.05 250.12,346.05 251.76,346.05 253.40,346.05 255.04,346.05 256.68,346.05 258.32,346.05 259.96,342.01 261.60,342.01 263.24,337.98 264.88,337.98 266.52,333.94 268.16,333.94 269.80,329.91 271.43,329.91 273.07,325.87 274.71,321.84 276.35,317.80 277.99,313.77 279.63,309.73 281.27,305.70 282.91,301.67 284.55,297.63 286.19,293.60 287.83,289.56 289.47,285.53 291.11,281.50 292.75,277.47 294.38,273.43 296.02,269.40 297.66,265.37 299.30,261.34 300.94,257.30 302.58,253.27 304.22,245.21 305.86,245.21 307.50,241.18 309.14,237.14 310.78,233.11 312.42,229.08 314.06,225.05 315.70,221.02 317.33,216.99 318.97,216.99 320.61,212.96 322.25,212.96 323.89,208.93 325.53,208.93 327.17,204.90 328.81,204.90 330.45,204.90 332.09,200.87 333.73,200.87 335.37,200.87 337.01,200.87 338.65,200.87 340.28,200.87 341.92,200.87 343.56,204.90 345.20,204.90 346.84,204.90 348.48,204.90 350.12,208.93 351.76,208.93 353.40,212.96 355.04,212.96 356.68,216.99 358.32,221.02 359.96,221.02 361.60,225.05 363.23,229.08 364.87,233.11 366.51,233.11 368.15,237.14 369.79,241.18 371.43,245.21 373.07,249.24 374.71,253.27 376.35,257.30 377.99,257.30 379.63,261.34 381.27,265.37 382.91,269.40 384.55,273.43 386.18,273.43 387.82,277.47 389.46,281.50 391.10,285.53 392.74,285.53 394.38,289.56 396.02,289.56 397.66,293.60 399.30,293.60 400.94,297.63 402.58,297.63 404.22,301.67 405.86,301.67 407.49,301.67 409.13,301.67 410.77,301.67 412.41,301.67 414.05,305.70 415.69,305.70 417.33,301.67 418.97,301.67 420.61,301.67 422.25,301.67 423.89,297.63 425.53,297.63 427.17,293.60 428.81,293.60 430.44,289.56 432.08,289.56 433.72,285.53 435.36,281.50 437.00,277.47 438.64,273.43 440.28,273.43 441.92,269.40 443.56,265.37 445.20,261.34 446.84,257.30 448.48,253.27 450.12,245.21 451.76,241.18 453.39,237.14 455.03,233.11 456.67,229.08 458.31,225.05 459.95,221.02 461.59,216.99 463.23,212.96 464.87,208.93 466.51,200.87 468.15,196.84 469.79,196.84 471.43,192.81 473.07,188.78 474.71,184.75 476.34,180.72 477.98,176.69 479.62,172.66 481.26,168.63 482.90,168.63 484.54,164.60 486.18,160.57 487.82,160.57 489.46,160.57 491.10,156.54 492.74,156.54 494.38,156.54 496.02,152.51 497.66,152.51 499.29,152.51 500.93,152.51 502.57,152.51 504.21,152.51 505.85,152.51 507.49,152.51 509.13,156.54 510.77,156.54 512.41,156.54 514.05,160.57 515.69,160.57 517.33,164.60 518.97,164.60 520.61,168.63 522.24,172.66 523.88,172.66 525.52,176.69 527.16,180.72 528.80,184.75 530.44,184.75 532.08,188.78 533.72,192.81 535.36,196.84 537.00,196.84 538.64,200.87 540.28,204.90 541.92,208.93 543.56,212.96 545.19,216.99 546.83,221.02 548.47,221.02 550.11,225.05 551.75,229.08 553.39,233.11 555.03,233.11 556.67,237.14 558.31,241.18 559.95,241.18 561.59,245.21 563.23,245.21 564.87,249.24 566.51,249.24 568.14,249.24 569.78,253.27 571.42,253.27 573.06,253.27 574.70,253.27 576.34,253.27 577.98,253.27 579.62,253.27 581.26,253.27 582.90,253.27 584.54,253.27 586.18,249.24 587.82,249.24 589.45,245.21 591.09,245.21 592.73,245.21 594.37,241.18 596.01,241.18 597.65,237.14 599.29,233.11 600.93,229.08 602.57,225.05 604.21,221.02 605.85,216.99 607.49,216.99 609.13,208.93 610.77,208.93 612.40,200.87 614.04,200.87 615.68,196.84 617.32,188.78 618.96,184.75 620.60,180.72 622.24,176.69 623.88,172.66 625.52,168.63 627.16,164.60 628.80,160.57 630.44,156.54 632.08,152.51 633.72,148.48 635.35,144.46 636.99,140.43 638.63,136.40 640.27,132.37 641.91,128.34 643.55,124.31 645.19,124.31 646.83,120.28 648.47,116.26 650.11,116.26 651.75,112.23 653.39,108.20 655.03,108.20 656.67,108.20 658.30,108.20 659.94,108.20 661.58,104.17 663.22,104.17 664.86,104.17 666.50,104.17 668.14,104.17 669.78,104.17 671.42,104.17 673.06,108.20 674.70,108.20 676.34,112.23 677.98,112.23 679.62,116.26 681.25,116.26 682.89,120.28 684.53,124.31 686.17,124.31 687.81,128.34 689.45,132.37 691.09,132.37 692.73,136.40 694.37,140.43 696.01,144.46 697.65,148.48 699.29,148.48 700.93,152.51 702.57,156.54 704.20,160.57 705.84,164.60 707.48,168.63 709.12,172.66 710.76,176.69 712.40,180.72 714.04,184.75 715.68,184.75 717.32,188.78 718.96,192.81 720.60,192.81 722.24,196.84 723.88,200.87 725.52,200.87 727.15,204.90 728.79,208.93 730.43,208.93 732.07,208.93 733.71,212.96 735.35,212.96 736.99,212.96 738.63,212.96 740.27,216.99 741.91,212.96 743.55,212.96 745.19,212.96 746.83,212.96 748.46,212.96 750.10,212.96 751.74,208.93 753.38,208.93 755.02,204.90 756.66,204.90 758.30,200.87 759.94,200.87 761.58,196.84 763.22,192.81 764.86,192.81 766.50,188.78 768.14,184.75 769.78,180.72 771.41,176.69 773.05,172.66 774.69,168.63 776.33,164.60 777.97,160.57 779.61,156.54 781.25,152.51 782.89,148.48 784.53,144.46 786.17,140.43 787.81,136.40 789.45,132.37 791.09,128.34 792.73,124.31 794.36,120.28 796.00,116.26 797.64,112.23 799.28,108.20 800.92,104.17 802.56,100.14 804.20,100.14 805.84,96.12 807.48,92.09 809.12,88.06 810.76,88.06 812.40,84.03 814.04,84.03 815.68,80.01 817.31,80.01 818.95,80.01 820.59,75.98 822.23,75.98 823.87,75.98 825.51,71.95 827.15,71.95 828.79,75.98 830.43,75.98 832.07,75.98 833.71,75.98 835.35,75.98 836.99,75.98 838.63,75.98 840.26,80.01 841.90,80.01 843.54,84.03 845.18,84.03 846.82,88.06 848.46,92.09 850.10,92.09 851.74,96.12 853.38,100.14 855.02,104.17 856.66,104.17 858.30,108.20 859.94,112.23 861.58,116.26 863.21,120.28 864.85,124.31 866.49,128.34 868.13,132.37 869.77,136.40 871.41,136.40 873.05,140.43 874.69,144.46 876.33,148.48 877.97,152.51 879.61,156.54 881.25,156.54 882.89,160.57 884.53,164.60 886.16,168.63 887.80,168.63 889.44,172.66 891.08,172.66 892.72,176.69 894.36,176.69 896.00,180.72"/>
<polyline class="fit" points="405.86,295.34 407.49,296.36 409.13,297.14 410.77,297.68 412.41,297.97 414.05,298.02 415.69,297.82 417.33,297.37 418.97,296.68 420.61,295.73 422.25,294.54 423.89,293.11 425.53,291.43 427.17,289.53 428.81,287.39 430.44,285.04 432.08,282.47 433.72,279.70 435.36,276.73 437.00,273.58 438.64,270.25 440.28,266.76 441.92,263.12 443.56,259.34 445.20,255.44 446.84,251.42 448.48,247.31 450.12,243.12 451.76,238.86 453.39,234.55 455.03,230.20 456.67,225.83 458.31,221.46 459.95,217.10 461.59,212.76 463.23,208.47 464.87,204.23 466.51,200.06 468.15,195.99 469.79,192.01 471.43,188.15 473.07,184.42 474.71,180.83 476.34,177.39 477.98,174.12 479.62,171.03 481.26,168.13 482.90,165.43 484.54,162.94 486.18,160.66 487.82,158.60 489.46,156.78 491.10,155.19 492.74,153.84 494.38,152.73 496.02,151.87 497.66,151.26 499.29,150.90 500.93,150.79 502.57,150.92 504.21,151.31 505.85,151.93 507.49,152.79 509.13,153.89 510.77,155.21 512.41,156.76 514.05,158.52 515.69,160.48 517.33,162.64 518.97,164.98 520.61,167.50 522.24,170.18 523.88,173.01 525.52,175.98 527.16,179.07 528.80,182.28 530.44,185.58 532.08,188.96 533.72,192.41 535.36,195.91 537.00,199.45 538.64,203.01 540.28,206.57 541.92,210.12 543.56,213.65 545.19,217.13 546.83,220.56 548.47,223.92 550.11,227.18 551.75,230.35 553.39,233.40 555.03,236.32 556.67,239.10 558.31,241.73 559.95,244.19 561.59,246.47 563.23,248.56 564.87,250.45 566.51,252.13 568.14,253.60 569.78,254.85 571.42,255.86 573.06,256.64 574.70,257.18 576.34,257.47 577.98,257.52 579.62,257.32 581.26,256.87 582.90,256.18 584.54,255.23 586.18,254.04 587.82,252.60 589.45,250.93 591.09,249.02 592.73,246.89 594.37,244.53 596.01,241.97 597.65,239.19 599.29,236.22 600.93,233.07 602.57,229.74 604.21,226.25 605.85,222.61 607.49,218.83 609.13,214.93 610.77,210.91 612.40,206.80 614.04,202.61 615.68,198.35 617.32,194.04 618.96,189.69 620.60,185.33 622.24,180.95 623.88,176.59 625.52,172.25 627.16,167.96 628.80,163.72 630.44,159.56 632.08,155.48 633.72,151.50 635.35,147.64 636.99,143.91 638.63,140.32 640.27,136.88 641.91,133.62 643.55,130.53 645.19,127.63 646.83,124.93 648.47,122.43 650.11,120.15 651.75,118.10 653.39,116.27 655.03,114.69 656.67,113.34 658.30,112.23 659.94,111.37 661.58,110.76 663.22,110.40 664.86,110.29 666.50,110.43 668.14,110.81 669.78,111.43 671.42,112.30 673.06,113.39 674.70,114.72 676.34,116.27 677.98,118.02 679.62,119.99 681.25,122.15 682.89,124.49 684.53,127.01 686.17,129.69 687.81,132.52 689.45,135.49 691.09,138.58 692.73,141.79 694.37,145.09 696.01,148.47 697.65,151.92 699.29,155.42 700.93,158.96 702.57,162.52 704.20,166.08 705.84,169.63 707.48,173.16 709.12,176.64 710.76,180.07 712.40,183.43 714.04,186.70 715.68,189.86 717.32,192.91 718.96,195.83 720.60,198.61 722.24,201.24 723.88,203.69 725.52,205.97 727.15,208.06 728.79,209.96 730.43,211.64 732.07,213.11 733.71,214.35 735.35,215.36 736.99,216.14 738.63,216.68 740.27,216.98 741.91,217.03 743.55,216.82 745.19,216.37 746.83,215.68 748.46,214.73 750.10,213.54 751.74,212.10 753.38,210.43 755.02,208.52 756.66,206.39 758.30,204.03 759.94,201.46 761.58,198.69 763.22,195.72 764.86,192.56 766.50,189.24 768.14,185.75 769.78,182.10 771.41,178.32 773.05,174.42 774.69,170.41 776.33,166.29 777.97,162.10 779.61,157.84 781.25,153.53 782.89,149.18 784.53,144.82 786.17,140.44 787.81,136.08 789.45,131.74 791.09,127.45 792.73,123.21 794.36,119.05 796.00,114.97 797.64,110.99 799.28,107.13 800.92,103.40 802.56,99.81 804.20,96.38 805.84,93.11 807.48,90.02 809.12,87.12 810.76,84.42 812.40,81.93 814.04,79.65 815.68,77.60 817.31,75.77 818.95,74.18 820.59,72.84 822.23,71.73 823.87,70.87 825.51,70.26 827.15,69.90 828.79,69.79 830.43,69.93 832.07,70.31 833.71,70.94 835.35,71.80 836.99,72.90 838.63,74.23 840.26,75.77 841.90,77.53 843.54,79.49 845.18,81.65 846.82,84.00 848.46,86.52 850.10,89.20 851.74,92.03 853.38,95.00 855.02,98.09 856.66,101.30 858.30,104.60 859.94,107.98 861.58,111.43 863.21,114.93 864.85,118.47 866.49,122.03 868.13,125.59 869.77,129.14 871.41,132.67 873.05,136.16 874.69,139.58 876.33,142.94 877.97,146.21 879.61,149.37 881.25,152.42 882.89,155.34 884.53,158.12 886.16,160.75 887.80,163.20 889.44,165.48 891.08,167.57 892.72,169.46 894.36,171.14 896.00,172.61"/>
<polyline class="power" points="78.00,468.00 79.64,465.39 81.28,462.79 82.92,460.22 84.56,457.67 86.20,455.16 87.84,452.71 89.47,450.31 91.11,447.99 92.75,445.74 94.39,443.58 96.03,441.52 97.67,439.56 99.31,437.72 100.95,435.99 102.59,434.39 104.23,432.93 105.87,431.60 107.51,430.41 109.15,429.38 110.79,428.49 112.42,427.77 114.06,427.20 115.70,426.79 117.34,426.54 118.98,426.46 120.62,426.54 122.26,426.79 123.90,427.20 125.54,427.77 127.18,428.50 128.82,429.38 130.46,430.42 132.10,431.60 133.74,432.93 135.37,434.40 137.01,436.00 138.65,437.72 140.29,439.57 141.93,441.52 143.57,443.59 145.21,445.74 146.85,447.99 148.49,450.32 150.13,452.71 151.77,455.17 153.41,457.67 155.05,460.22 156.69,462.80 158.32,465.40 159.96,468.00 161.60,470.61 163.24,473.21 164.88,475.79 166.52,478.33 168.16,480.84 169.80,483.29 171.44,485.69 173.08,488.01 174.72,490.26 176.36,492.42 178.00,494.48 179.64,496.44 181.27,498.28 182.91,500.01 184.55,501.61 186.19,503.07 187.83,504.40 189.47,505.59 191.11,506.62 192.75,507.51 194.39,508.23 196.03,508.80 197.67,509.21 199.31,509.46 200.95,509.54 202.59,509.46 204.22,509.21 205.86,508.80 207.50,508.23 209.14,507.50 210.78,506.62 212.42,505.58 214.06,504.40 215.70,503.07 217.34,501.60 218.98,500.00 220.62,498.28 222.26,496.43 223.90,494.47 225.54,492.41 227.17,490.25 228.81,488.01 230.45,485.68 232.09,483.29 233.73,480.83 235.37,478.32 237.01,475.78 238.65,473.20 240.29,470.60 241.93,467.99 243.57,465.38 245.21,462.79 246.85,460.21 248.48,457.66 250.12,455.16 251.76,452.70 253.40,450.31 255.04,447.98 256.68,445.74 258.32,443.58 259.96,441.52 261.60,439.56 263.24,437.71 264.88,435.99 266.52,434.39 268.16,432.92 269.80,431.60 271.43,430.41 273.07,429.38 274.71,428.49 276.35,427.76 277.99,427.20 279.63,426.79 281.27,426.54 282.91,426.46 284.55,426.54 286.19,426.79 287.83,427.20 289.47,427.77 291.11,428.50 292.75,429.38 294.38,430.42 296.02,431.60 297.66,432.93 299.30,434.40 300.94,436.00 302.58,437.73 304.22,439.57 305.86,441.53 307.50,443.59 309.14,445.75 310.78,448.00 312.42,450.32 314.06,452.72 315.70,455.17 317.33,457.68 318.97,460.23 320.61,462.80 322.25,465.40 323.89,468.01 325.53,470.62 327.17,473.22 328.81,475.79 330.45,478.34 332.09,480.85 333.73,483.30 335.37,485.70 337.01,488.02 338.65,490.27 340.28,492.42 341.92,494.49 343.56,496.44 345.20,498.29 346.84,500.01 348.48,501.61 350.12,503.08 351.76,504.41 353.40,505.59 355.04,506.63 356.68,507.51 358.32,508.24 359.96,508.80 361.60,509.21 363.23,509.46 364.87,509.54 366.51,509.46 368.15,509.21 369.79,508.80 371.43,508.23 373.07,507.50 374.71,506.62 376.35,505.58 377.99,504.39 379.63,503.07 381.27,501.60 382.91,500.00 384.55,498.27 386.18,496.43 387.82,494.47 389.46,492.41 391.10,490.25 392.74,488.00 394.38,485.67 396.02,483.28 397.66,480.82 399.30,478.32 400.94,475.77 402.58,473.19 404.22,470.59 405.86,467.99 407.49,465.38 409.13,462.78 410.77,460.20 412.41,457.66 414.05,455.15 415.69,452.70 417.33,450.30 418.97,447.98 420.61,445.73 422.25,443.57 423.89,441.51 425.53,439.55 427.17,437.71 428.81,435.98 430.44,434.39 432.08,432.92 433.72,431.59 435.36,430.41 437.00,429.37 438.64,428.49 440.28,427.76 441.92,427.19 443.56,426.79 445.20,426.54 446.84,426.46 448.48,426.54 450.12,426.79 451.76,427.20 453.39,427.77 455.03,428.50 456.67,429.38 458.31,430.42 459.95,431.61 461.59,432.94 463.23,434.40 464.87,436.00 466.51,437.73 468.15,439.58 469.79,441.54 471.43,443.60 473.07,445.76 474.71,448.00 476.34,450.33 477.98,452.72 479.62,455.18 481.26,457.69 482.90,460.23 484.54,462.81 486.18,465.41 487.82,468.02 489.46,470.63 491.10,473.22 492.74,475.80 494.38,478.35 496.02,480.85 497.66,483.31 499.29,485.70 500.93,488.03 502.57,490.27 504.21,492.43 505.85,494.49 507.49,496.45 509.13,498.29 510.77,500.02 512.41,501.62 514.05,503.08 515.69,504.41 517.33,505.59 518.97,506.63 520.61,507.51 522.24,508.24 523.88,508.81 525.52,509.21 527.16,509.46 528.80,509.54 530.44,509.46 532.08,509.21 533.72,508.80 535.36,508.23 537.00,507.50 538.64,506.61 540.28,505.58 541.92,504.39 543.56,503.06 545.19,501.59 546.83,499.99 548.47,498.27 550.11,496.42 551.75,494.46 553.39,492.40 555.03,490.24 556.67,487.99 558.31,485.67 559.95,483.27 561.59,480.82 563.23,478.31 564.87,475.76 566.51,473.19 568.14,470.59 569.78,467.98 571.42,465.37 573.06,462.77 574.70,460.20 576.34,457.65 577.98,455.14 579.62,452.69 581.26,450.29 582.90,447.97 584.54,445.72 586.18,443.57 587.82,441.51 589.45,439.55 591.09,437.70 592.73,435.98 594.37,434.38 596.01,432.92 597.65,431.59 599.29,430.41 600.93,429.37 602.57,428.49 604.21,427.76 605.85,427.19 607.49,426.79 609.13,426.54 610.77,426.46 612.40,426.54 614.04,426.79 615.68,427.20 617.32,427.77 618.96,428.50 620.60,429.39 622.24,430.42 623.88,431.61 625.52,432.94 627.16,434.41 628.80,436.01 630.44,437.74 632.08,439.58 633.72,441.54 635.35,443.60 636.99,445.76 638.63,448.01 640.27,450.34 641.91,452.73 643.55,455.19 645.19,457.69 646.83,460.24 648.47,462.82 650.11,465.42 651.75,468.02 653.39,470.63 655.03,473.23 656.67,475.81 658.30,478.35 659.94,480.86 661.58,483.31 663.22,485.71 664.86,488.03 666.50,490.28 668.14,492.44 669.78,494.50 671.42,496.45 673.06,498.30 674.70,500.02 676.34,501.62 677.98,503.09 679.62,504.41 681.25,505.60 682.89,506.63 684.53,507.51 686.17,508.24 687.81,508.81 689.45,509.21 691.09,509.46 692.73,509.54 694.37,509.45 696.01,509.21 697.65,508.80 699.29,508.23 700.93,507.50 702.57,506.61 704.20,505.57 705.84,504.39 707.48,503.06 709.12,501.59 710.76,499.99 712.40,498.26 714.04,496.42 715.68,494.46 717.32,492.39 718.96,490.23 720.60,487.99 722.24,485.66 723.88,483.27 725.52,480.81 727.15,478.30 728.79,475.76 730.43,473.18 732.07,470.58 733.71,467.97 735.35,465.36 736.99,462.77 738.63,460.19 740.27,457.64 741.91,455.14 743.55,452.68 745.19,450.29 746.83,447.96 748.46,445.72 750.10,443.56 751.74,441.50 753.38,439.54 755.02,437.70 756.66,435.98 758.30,434.38 759.94,432.91 761.58,431.59 763.22,430.40 764.86,429.37 766.50,428.49 768.14,427.76 769.78,427.19 771.41,426.79 773.05,426.54 774.69,426.46 776.33,426.55 777.97,426.79 779.61,427.20 781.25,427.77 782.89,428.50 784.53,429.39 786.17,430.43 787.81,431.61 789.45,432.94 791.09,434.41 792.73,436.01 794.36,437.74 796.00,439.59 797.64,441.55 799.28,443.61 800.92,445.77 802.56,448.02 804.20,450.34 805.84,452.74 807.48,455.19 809.12,457.70 810.76,460.25 812.40,462.82 814.04,465.42 815.68,468.03 817.31,470.64 818.95,473.24 820.59,475.81 822.23,478.36 823.87,480.87 825.51,483.32 827.15,485.72 828.79,488.04 830.43,490.28 832.07,492.44 833.71,494.50 835.35,496.46 836.99,498.30 838.63,500.03 840.26,501.62 841.90,503.09 843.54,504.42 845.18,505.60 846.82,506.63 848.46,507.52 850.10,508.24 851.74,508.81 853.38,509.22 855.02,509.46 856.66,509.54 858.30,509.45 859.94,509.21 861.58,508.80 863.21,508.23 864.85,507.50 866.49,506.61 868.13,505.57 869.77,504.38 871.41,503.05 873.05,501.59 874.69,499.98 876.33,498.26 877.97,496.41 879.61,494.45 881.25,492.39 882.89,490.23 884.53,487.98 886.16,485.66 887.80,483.26 889.44,480.80 891.08,478.30 892.72,475.75 894.36,473.17 896.00,470.57"/>
<text x="20" y="209" transform="rotate(-90 20 209)" text-anchor="middle" font-size="13">Temperature (C)</text>
<text x="20" y="468" transform="rotate(-90 20 468)" text-anchor="middle" font-size="13">PWM duty</text>
<text x="487" y="568" text-anchor="middle" font-size="13">Time (s)</text>
<line x1="78" y1="35" x2="103" y2="35" class="raw"/><text x="109" y="39" font-size="12">temperature</text>
<line x1="203" y1="35" x2="228" y2="35" class="fit"/><text x="234" y="39" font-size="12">detrended fit</text>
<text x="378" y="39" font-size="12">shaded = measured</text>
</svg>
