<svg xmlns="http://www.w3.org/2000/svg" width="920" height="570" viewBox="0 0 920 570">
<rect width="100%" height="100%" fill="#fff"/>
<style>text{font-family:system-ui,sans-serif;fill:#17202a}.axis{stroke:#5d6d7e;stroke-width:1}.grid{stroke:#d5d8dc;stroke-width:1}.raw{fill:none;stroke:#2471a3;stroke-width:1.5}.fit{fill:none;stroke:#c0392b;stroke-width:2}.power{fill:none;stroke:#7d3c98;stroke-width:1.5}</style>
<text x="460" y="25" text-anchor="middle" font-size="18" font-weight="600">Hotend thermal response - 200 C, 60 s period</text>
<rect x="351.12" y="48" width="544.88" height="322" fill="#eaf2f8"/>
<line class="axis" x1="78" y1="370" x2="896" y2="370"/>
<line class="axis" x1="78" y1="48" x2="78" y2="370"/>
<line class="axis" x1="78" y1="522" x2="896" y2="522"/>
<line class="axis" x1="78" y1="414" x2="78" y2="522"/>
<line class="grid" x1="78" y1="48.00" x2="896" y2="48.00"/>
<text x="70" y="52.00" text-anchor="end" font-size="12">201.26</text>
<line class="grid" x1="78" y1="128.50" x2="896" y2="128.50"/>
<text x="70" y="132.50" text-anchor="end" font-size="12">199.58</text>
<line class="grid" x1="78" y1="209.00" x2="896" y2="209.00"/>
<text x="70" y="213.00" text-anchor="end" font-size="12">197.90</text>
<line class="grid" x1="78" y1="289.50" x2="896" y2="289.50"/>
<text x="70" y="293.50" text-anchor="end" font-size="12">196.22</text>
<line class="grid" x1="78" y1="370.00" x2="896" y2="370.00"/>
<text x="70" y="374.00" text-anchor="end" font-size="12">194.54</text>
<line class="grid" x1="78.00" y1="48" x2="78.00" y2="370"/>
<text x="78.00" y="550" text-anchor="middle" font-size="12">0</text>
<line class="grid" x1="241.60" y1="48" x2="241.60" y2="370"/>
<text x="241.60" y="550" text-anchor="middle" font-size="12">36</text>
<line class="grid" x1="405.20" y1="48" x2="405.20" y2="370"/>
<text x="405.20" y="550" text-anchor="middle" font-size="12">72</text>
<line class="grid" x1="568.80" y1="48" x2="568.80" y2="370"/>
<text x="568.80" y="550" text-anchor="middle" font-size="12">108</text>
<line class="grid" x1="732.40" y1="48" x2="732.40" y2="370"/>
<text x="732.40" y="550" text-anchor="middle" font-size="12">144</text>
<line class="grid" x1="896.00" y1="48" x2="896.00" y2="370"/>
<text x="896.00" y="550" text-anchor="middle" font-size="12">180</text>
<polyline class="raw" points="78.00,70.21 79.37,72.83 80.73,75.07 82.10,77.68 83.46,79.17 84.83,81.41 86.19,82.90 87.56,85.50 88.92,86.99 90.29,89.22 91.66,90.71 93.02,92.56 94.39,94.42 95.75,95.16 97.12,97.75 98.48,98.49 99.85,101.08 101.22,101.82 102.58,103.29 103.95,103.66 105.31,106.25 106.68,106.25 108.04,107.35 109.41,108.83 110.77,109.20 112.14,110.30 113.51,111.41 114.87,111.77 116.24,113.61 117.60,113.25 118.97,113.98 120.33,114.72 121.70,115.45 123.07,115.08 124.43,116.19 125.80,116.19 127.16,116.19 128.53,116.19 129.89,117.29 131.26,116.92 132.62,117.29 133.99,117.66 135.36,118.39 136.72,118.39 138.09,117.66 139.45,118.02 140.82,118.02 142.18,117.66 143.55,118.39 144.91,117.66 146.28,118.39 147.65,118.76 149.01,118.02 150.38,119.12 151.74,118.39 153.11,117.66 154.47,116.92 155.84,118.02 157.21,117.29 158.57,116.55 159.94,116.55 161.30,115.82 162.67,115.08 164.03,114.72 165.40,114.72 166.76,116.19 168.13,115.45 169.50,114.35 170.86,113.98 172.23,113.98 173.59,113.61 174.96,113.61 176.32,113.61 177.69,113.98 179.06,114.35 180.42,113.61 181.79,113.25 183.15,113.61 184.52,114.35 185.88,112.51 187.25,112.51 188.61,113.25 189.98,113.98 191.35,113.98 192.71,112.88 194.08,114.35 195.44,113.98 196.81,115.82 198.17,114.35 199.54,115.82 200.90,115.82 202.27,116.19 203.64,116.19 205.00,116.92 206.37,117.29 207.73,117.66 209.10,117.66 210.46,118.76 211.83,119.86 213.20,119.86 214.56,120.59 215.93,122.06 217.29,122.42 218.66,123.16 220.02,124.62 221.39,124.62 222.75,125.35 224.12,126.82 225.49,127.91 226.85,129.01 228.22,130.11 229.58,131.57 230.95,133.03 232.31,134.12 233.68,135.22 235.05,136.31 236.41,138.13 237.78,139.22 239.14,141.40 240.51,142.13 241.87,143.95 243.24,145.76 244.60,147.22 245.97,149.03 247.34,150.48 248.70,151.20 250.07,153.38 251.43,154.82 252.80,156.99 254.16,158.80 255.53,160.24 256.89,161.68 258.26,163.49 259.63,165.65 260.99,168.17 262.36,169.96 263.72,172.12 265.09,174.27 266.45,176.07 267.82,177.86 269.19,180.72 270.55,181.44 271.92,183.59 273.28,186.80 274.65,188.58 276.01,190.01 277.38,191.79 278.74,194.64 280.11,195.71 281.48,198.55 282.84,201.04 284.21,203.17 285.57,206.36 286.94,207.42 288.30,209.90 289.67,211.66 291.04,213.78 292.40,216.61 293.77,217.66 295.13,219.43 296.50,221.54 297.86,224.00 299.23,225.76 300.59,227.16 301.96,229.97 303.33,232.78 304.69,234.18 306.06,236.28 307.42,238.38 308.79,240.82 310.15,242.57 311.52,243.96 312.88,245.01 314.25,247.10 315.62,249.19 316.98,250.93 318.35,252.32 319.71,254.06 321.08,255.80 322.44,256.84 323.81,258.92 325.18,260.65 326.54,261.69 327.91,262.73 329.27,264.46 330.64,265.50 332.00,267.23 333.37,268.26 334.73,269.30 336.10,270.68 337.47,272.40 338.83,272.75 340.20,274.82 341.56,275.50 342.93,275.85 344.29,275.85 345.66,277.57 347.03,278.95 348.39,278.95 349.76,280.67 351.12,280.32 352.49,280.67 353.85,281.70 355.22,281.70 356.58,281.70 357.95,282.38 359.32,282.73 360.68,283.07 362.05,283.07 363.41,283.07 364.78,283.41 366.14,284.10 367.51,283.07 368.87,282.73 370.24,282.38 371.61,281.70 372.97,281.70 374.34,282.38 375.70,282.38 377.07,281.70 378.43,280.67 379.80,279.63 381.17,279.29 382.53,278.60 383.90,278.95 385.26,276.88 386.63,276.54 387.99,275.16 389.36,274.82 390.72,273.78 392.09,273.09 393.46,273.09 394.82,272.40 396.19,271.37 397.55,269.30 398.92,268.61 400.28,267.92 401.65,266.88 403.02,265.84 404.38,265.15 405.75,263.77 407.11,263.42 408.48,262.04 409.84,260.30 411.21,258.92 412.57,257.88 413.94,256.49 415.31,255.80 416.67,254.41 418.04,253.71 419.40,252.32 420.77,250.93 422.13,249.89 423.50,248.15 424.86,248.15 426.23,246.41 427.60,245.01 428.96,244.31 430.33,242.92 431.69,241.87 433.06,240.12 434.42,238.73 435.79,238.03 437.16,236.63 438.52,235.58 439.89,234.53 441.25,233.13 442.62,232.78 443.98,231.38 445.35,229.62 446.71,229.27 448.08,228.57 449.45,227.16 450.81,225.41 452.18,224.71 453.54,224.35 454.91,222.59 456.27,222.95 457.64,221.19 459.01,221.54 460.37,219.78 461.74,219.07 463.10,219.07 464.47,218.37 465.83,218.02 467.20,217.31 468.56,216.96 469.93,215.20 471.30,215.20 472.66,214.49 474.03,214.84 475.39,215.20 476.76,214.49 478.12,215.20 479.49,215.55 480.85,214.14 482.22,214.49 483.59,214.49 484.95,213.78 486.32,214.84 487.68,214.84 489.05,214.84 490.41,214.49 491.78,214.84 493.15,215.20 494.51,215.20 495.88,215.55 497.24,216.61 498.61,216.96 499.97,217.66 501.34,218.02 502.70,218.37 504.07,218.72 505.44,219.43 506.80,220.48 508.17,221.54 509.53,222.95 510.90,222.95 512.26,223.65 513.63,225.76 514.99,226.11 516.36,227.52 517.73,228.57 519.09,229.62 520.46,231.02 521.82,232.08 523.19,233.13 524.55,233.48 525.92,235.93 527.29,236.63 528.65,238.73 530.02,240.47 531.38,241.17 532.75,241.87 534.11,245.36 535.48,245.71 536.84,248.15 538.21,249.19 539.58,250.24 540.94,252.32 542.31,254.41 543.67,255.80 545.04,257.53 546.40,257.88 547.77,259.61 549.14,262.04 550.50,263.42 551.87,265.84 553.23,266.53 554.60,268.95 555.96,272.06 557.33,272.75 558.69,274.82 560.06,277.23 561.43,278.60 562.79,280.32 564.16,282.38 565.52,284.10 566.89,286.50 568.25,287.87 569.62,289.24 570.98,291.30 572.35,293.69 573.72,295.74 575.08,296.08 576.45,298.13 577.81,299.50 579.18,301.88 580.54,303.24 581.91,304.95 583.28,306.99 584.64,307.67 586.01,309.71 587.37,310.05 588.74,312.42 590.10,313.78 591.47,315.81 592.83,316.49 594.20,316.83 595.57,318.18 596.93,319.87 598.30,321.57 599.66,322.58 601.03,323.93 602.39,323.93 603.76,324.94 605.13,326.63 606.49,327.31 607.86,327.31 609.22,328.65 610.59,329.33 611.95,330.00 613.32,330.68 614.68,331.35 616.05,332.02 617.42,332.70 618.78,333.71 620.15,333.71 621.51,333.37 622.88,334.38 624.24,334.38 625.61,334.38 626.97,335.72 628.34,335.72 629.71,335.72 631.07,335.72 632.44,335.05 633.80,334.38 635.17,335.39 636.53,335.05 637.90,335.39 639.27,335.72 640.63,334.38 642.00,334.38 643.36,334.38 644.73,333.71 646.09,332.70 647.46,332.36 648.82,331.01 650.19,331.01 651.56,331.01 652.92,330.34 654.29,329.33 655.65,328.32 657.02,326.97 658.38,326.97 659.75,325.28 661.12,323.93 662.48,323.59 663.85,321.90 665.21,320.89 666.58,320.21 667.94,319.54 669.31,318.52 670.67,317.51 672.04,315.81 673.41,314.12 674.77,313.10 676.14,311.74 677.50,310.39 678.87,309.37 680.23,308.35 681.60,306.99 682.96,305.29 684.33,303.24 685.70,302.22 687.06,301.20 688.43,299.50 689.79,298.13 691.16,297.45 692.52,295.74 693.89,293.69 695.26,292.32 696.62,290.27 697.99,289.24 699.35,287.87 700.72,286.16 702.08,285.47 703.45,283.76 704.81,281.01 706.18,281.01 707.55,278.60 708.91,277.57 710.28,276.88 711.64,274.82 713.01,273.09 714.37,271.71 715.74,271.02 717.11,268.95 718.47,267.57 719.84,266.53 721.20,264.81 722.57,263.77 723.93,262.04 725.30,260.65 726.66,259.27 728.03,259.27 729.40,258.22 730.76,257.18 732.13,256.14 733.49,255.45 734.86,254.06 736.22,253.36 737.59,252.67 738.95,252.32 740.32,250.58 741.69,250.24 743.05,249.54 744.42,248.50 745.78,248.15 747.15,247.45 748.51,247.10 749.88,247.45 751.25,246.75 752.61,246.41 753.98,245.36 755.34,245.01 756.71,244.31 758.07,244.66 759.44,243.27 760.80,243.96 762.17,243.62 763.54,244.31 764.90,244.31 766.27,243.96 767.63,243.96 769.00,243.27 770.36,245.01 771.73,245.36 773.10,246.06 774.46,246.06 775.83,246.06 777.19,246.41 778.56,247.10 779.92,247.45 781.29,248.15 782.65,248.84 784.02,249.89 785.39,250.58 786.75,250.93 788.12,252.32 789.48,253.71 790.85,254.41 792.21,255.10 793.58,255.45 794.94,257.18 796.31,258.22 797.68,258.22 799.04,259.96 800.41,261.34 801.77,262.73 803.14,264.11 804.50,265.50 805.87,266.53 807.24,267.57 808.60,269.64 809.97,271.02 811.33,272.75 812.70,273.44 814.06,275.50 815.43,277.23 816.79,279.29 818.16,278.95 819.53,281.70 820.89,282.73 822.26,284.10 823.62,286.16 824.99,287.87 826.35,289.24 827.72,290.61 829.09,292.32 830.45,293.35 831.82,295.06 833.18,296.42 834.55,298.81 835.91,300.52 837.28,301.20 838.64,303.24 840.01,304.61 841.38,306.65 842.74,308.01 844.11,309.71 845.47,310.72 846.84,312.08 848.20,314.46 849.57,315.47 850.93,316.83 852.30,318.18 853.67,319.54 855.03,320.21 856.40,322.24 857.76,325.28 859.13,325.62 860.49,326.63 861.86,328.32 863.23,328.99 864.59,330.68 865.96,331.69 867.32,333.37 868.69,333.71 870.05,334.71 871.42,336.39 872.78,337.40 874.15,338.41 875.52,338.75 876.88,339.42 878.25,340.76 879.61,341.09 880.98,343.11 882.34,342.10 883.71,343.78 885.08,344.11 886.44,344.45 887.81,345.12 889.17,345.45 890.54,346.45 891.90,346.79 893.27,346.12 894.63,347.79 896.00,347.79"/>
<polyline class="fit" points="351.12,293.51 352.49,293.77 353.85,293.98 355.22,294.14 356.58,294.25 357.95,294.32 359.32,294.34 360.68,294.31 362.05,294.23 363.41,294.11 364.78,293.94 366.14,293.72 367.51,293.46 368.87,293.16 370.24,292.80 371.61,292.41 372.97,291.97 374.34,291.48 375.70,290.96 377.07,290.39 378.43,289.78 379.80,289.13 381.17,288.44 382.53,287.71 383.90,286.94 385.26,286.14 386.63,285.30 387.99,284.42 389.36,283.52 390.72,282.57 392.09,281.60 393.46,280.59 394.82,279.56 396.19,278.49 397.55,277.40 398.92,276.28 400.28,275.14 401.65,273.98 403.02,272.79 404.38,271.58 405.75,270.35 407.11,269.10 408.48,267.84 409.84,266.56 411.21,265.27 412.57,263.96 413.94,262.64 415.31,261.32 416.67,259.98 418.04,258.64 419.40,257.29 420.77,255.94 422.13,254.59 423.50,253.24 424.86,251.88 426.23,250.53 427.60,249.19 428.96,247.84 430.33,246.51 431.69,245.18 433.06,243.86 434.42,242.56 435.79,241.26 437.16,239.98 438.52,238.72 439.89,237.47 441.25,236.24 442.62,235.03 443.98,233.84 445.35,232.68 446.71,231.53 448.08,230.41 449.45,229.32 450.81,228.26 452.18,227.22 453.54,226.21 454.91,225.24 456.27,224.29 457.64,223.38 459.01,222.50 460.37,221.66 461.74,220.86 463.10,220.09 464.47,219.36 465.83,218.67 467.20,218.01 468.56,217.40 469.93,216.83 471.30,216.30 472.66,215.82 474.03,215.38 475.39,214.98 476.76,214.62 478.12,214.31 479.49,214.05 480.85,213.83 482.22,213.66 483.59,213.54 484.95,213.46 486.32,213.43 487.68,213.45 489.05,213.51 490.41,213.62 491.78,213.78 493.15,213.99 494.51,214.24 495.88,214.54 497.24,214.89 498.61,215.28 499.97,215.73 501.34,216.22 502.70,216.75 504.07,217.33 505.44,217.96 506.80,218.63 508.17,219.35 509.53,220.11 510.90,220.91 512.26,221.76 513.63,222.64 514.99,223.57 516.36,224.54 517.73,225.55 519.09,226.60 520.46,227.69 521.82,228.81 523.19,229.97 524.55,231.17 525.92,232.40 527.29,233.66 528.65,234.95 530.02,236.28 531.38,237.63 532.75,239.02 534.11,240.43 535.48,241.87 536.84,243.33 538.21,244.81 539.58,246.32 540.94,247.85 542.31,249.40 543.67,250.97 545.04,252.55 546.40,254.15 547.77,255.76 549.14,257.39 550.50,259.02 551.87,260.67 553.23,262.32 554.60,263.99 555.96,265.65 557.33,267.32 558.69,268.99 560.06,270.67 561.43,272.34 562.79,274.01 564.16,275.68 565.52,277.34 566.89,278.99 568.25,280.64 569.62,282.28 570.98,283.90 572.35,285.52 573.72,287.12 575.08,288.70 576.45,290.27 577.81,291.82 579.18,293.35 580.54,294.86 581.91,296.34 583.28,297.81 584.64,299.24 586.01,300.66 587.37,302.04 588.74,303.40 590.10,304.72 591.47,306.02 592.83,307.28 594.20,308.51 595.57,309.71 596.93,310.87 598.30,312.00 599.66,313.08 601.03,314.14 602.39,315.15 603.76,316.12 605.13,317.05 606.49,317.94 607.86,318.79 609.22,319.59 610.59,320.35 611.95,321.07 613.32,321.74 614.68,322.37 616.05,322.96 617.42,323.49 618.78,323.98 620.15,324.43 621.51,324.83 622.88,325.18 624.24,325.48 625.61,325.73 626.97,325.94 628.34,326.10 629.71,326.22 631.07,326.28 632.44,326.30 633.80,326.27 635.17,326.20 636.53,326.07 637.90,325.90 639.27,325.69 640.63,325.43 642.00,325.12 643.36,324.77 644.73,324.37 646.09,323.93 647.46,323.45 648.82,322.92 650.19,322.35 651.56,321.74 652.92,321.09 654.29,320.40 655.65,319.67 657.02,318.90 658.38,318.10 659.75,317.26 661.12,316.38 662.48,315.47 663.85,314.53 665.21,313.56 666.58,312.55 667.94,311.51 669.31,310.45 670.67,309.36 672.04,308.24 673.41,307.10 674.77,305.93 676.14,304.74 677.50,303.54 678.87,302.31 680.23,301.06 681.60,299.80 682.96,298.52 684.33,297.22 685.70,295.92 687.06,294.60 688.43,293.27 689.79,291.94 691.16,290.60 692.52,289.25 693.89,287.90 695.26,286.55 696.62,285.19 697.99,283.84 699.35,282.49 700.72,281.14 702.08,279.80 703.45,278.46 704.81,277.14 706.18,275.82 707.55,274.51 708.91,273.22 710.28,271.94 711.64,270.68 713.01,269.43 714.37,268.20 715.74,266.99 717.11,265.80 718.47,264.63 719.84,263.49 721.20,262.37 722.57,261.28 723.93,260.21 725.30,259.18 726.66,258.17 728.03,257.19 729.40,256.25 730.76,255.34 732.13,254.46 733.49,253.62 734.86,252.82 736.22,252.05 737.59,251.32 738.95,250.63 740.32,249.97 741.69,249.36 743.05,248.79 744.42,248.26 745.78,247.78 747.15,247.34 748.51,246.94 749.88,246.59 751.25,246.28 752.61,246.01 753.98,245.80 755.34,245.63 756.71,245.50 758.07,245.42 759.44,245.39 760.80,245.41 762.17,245.47 763.54,245.58 764.90,245.74 766.27,245.95 767.63,246.20 769.00,246.51 770.36,246.85 771.73,247.25 773.10,247.69 774.46,248.18 775.83,248.72 777.19,249.30 778.56,249.93 779.92,250.60 781.29,251.31 782.65,252.07 784.02,252.88 785.39,253.72 786.75,254.61 788.12,255.54 789.48,256.51 790.85,257.52 792.21,258.57 793.58,259.66 794.94,260.78 796.31,261.94 797.68,263.14 799.04,264.37 800.41,265.63 801.77,266.92 803.14,268.25 804.50,269.61 805.87,270.99 807.24,272.40 808.60,273.84 809.97,275.30 811.33,276.79 812.70,278.29 814.06,279.82 815.43,281.37 816.79,282.94 818.16,284.52 819.53,286.12 820.89,287.73 822.26,289.36 823.62,291.00 824.99,292.64 826.35,294.30 827.72,295.96 829.09,297.62 830.45,299.30 831.82,300.97 833.18,302.64 834.55,304.31 835.91,305.98 837.28,307.65 838.64,309.31 840.01,310.97 841.38,312.61 842.74,314.25 844.11,315.88 845.47,317.49 846.84,319.09 848.20,320.67 849.57,322.24 850.93,323.79 852.30,325.32 853.67,326.83 855.03,328.31 856.40,329.78 857.76,331.22 859.13,332.63 860.49,334.01 861.86,335.37 863.23,336.69 864.59,337.99 865.96,339.25 867.32,340.48 868.69,341.68 870.05,342.84 871.42,343.97 872.78,345.05 874.15,346.10 875.52,347.12 876.88,348.09 878.25,349.02 879.61,349.91 880.98,350.75 882.34,351.56 883.71,352.32 885.08,353.04 886.44,353.71 887.81,354.34 889.17,354.92 890.54,355.46 891.90,355.95 893.27,356.39 894.63,356.79 896.00,357.14"/>
<polyline class="power" points="78.00,468.00 79.37,466.70 80.73,465.39 82.10,464.09 83.46,462.79 84.83,461.50 86.19,460.22 87.56,458.94 88.92,457.67 90.29,456.41 91.66,455.16 93.02,453.93 94.39,452.71 95.75,451.50 97.12,450.31 98.48,449.14 99.85,447.99 101.22,446.85 102.58,445.74 103.95,444.65 105.31,443.58 106.68,442.54 108.04,441.52 109.41,440.53 110.77,439.56 112.14,438.63 113.51,437.72 114.87,436.84 116.24,435.99 117.60,435.18 118.97,434.39 120.33,433.64 121.70,432.93 123.07,432.25 124.43,431.60 125.80,430.99 127.16,430.41 128.53,429.88 129.89,429.38 131.26,428.92 132.62,428.49 133.99,428.11 135.36,427.77 136.72,427.46 138.09,427.20 139.45,426.97 140.82,426.79 142.18,426.65 143.55,426.54 144.91,426.48 146.28,426.46 147.65,426.48 149.01,426.54 150.38,426.65 151.74,426.79 153.11,426.97 154.47,427.20 155.84,427.46 157.21,427.77 158.57,428.11 159.94,428.50 161.30,428.92 162.67,429.38 164.03,429.88 165.40,430.42 166.76,430.99 168.13,431.60 169.50,432.25 170.86,432.93 172.23,433.65 173.59,434.40 174.96,435.18 176.32,436.00 177.69,436.84 179.06,437.72 180.42,438.63 181.79,439.57 183.15,440.53 184.52,441.52 185.88,442.54 187.25,443.59 188.61,444.65 189.98,445.75 191.35,446.86 192.71,447.99 194.08,449.14 195.44,450.32 196.81,451.51 198.17,452.71 199.54,453.93 200.90,455.17 202.27,456.41 203.64,457.67 205.00,458.94 206.37,460.22 207.73,461.51 209.10,462.80 210.46,464.09 211.83,465.40 213.20,466.70 214.56,468.00 215.93,469.31 217.29,470.61 218.66,471.91 220.02,473.21 221.39,474.50 222.75,475.79 224.12,477.07 225.49,478.33 226.85,479.59 228.22,480.84 229.58,482.07 230.95,483.30 232.31,484.50 233.68,485.69 235.05,486.86 236.41,488.01 237.78,489.15 239.14,490.26 240.51,491.35 241.87,492.42 243.24,493.46 244.60,494.48 245.97,495.47 247.34,496.44 248.70,497.38 250.07,498.28 251.43,499.16 252.80,500.01 254.16,500.82 255.53,501.61 256.89,502.36 258.26,503.07 259.63,503.76 260.99,504.40 262.36,505.01 263.72,505.59 265.09,506.12 266.45,506.62 267.82,507.08 269.19,507.51 270.55,507.89 271.92,508.23 273.28,508.54 274.65,508.80 276.01,509.03 277.38,509.21 278.74,509.35 280.11,509.46 281.48,509.52 282.84,509.54 284.21,509.52 285.57,509.46 286.94,509.35 288.30,509.21 289.67,509.03 291.04,508.80 292.40,508.54 293.77,508.23 295.13,507.89 296.50,507.50 297.86,507.08 299.23,506.62 300.59,506.12 301.96,505.58 303.33,505.01 304.69,504.40 306.06,503.75 307.42,503.07 308.79,502.35 310.15,501.60 311.52,500.82 312.88,500.00 314.25,499.15 315.62,498.28 316.98,497.37 318.35,496.43 319.71,495.47 321.08,494.47 322.44,493.45 323.81,492.41 325.18,491.34 326.54,490.25 327.91,489.14 329.27,488.01 330.64,486.85 332.00,485.68 333.37,484.49 334.73,483.29 336.10,482.06 337.47,480.83 338.83,479.58 340.20,478.32 341.56,477.05 342.93,475.78 344.29,474.49 345.66,473.20 347.03,471.90 348.39,470.60 349.76,469.30 351.12,467.99 352.49,466.69 353.85,465.38 355.22,464.08 356.58,462.79 357.95,461.49 359.32,460.21 360.68,458.93 362.05,457.66 363.41,456.40 364.78,455.16 366.14,453.92 367.51,452.70 368.87,451.50 370.24,450.31 371.61,449.13 372.97,447.98 374.34,446.85 375.70,445.74 377.07,444.65 378.43,443.58 379.80,442.53 381.17,441.52 382.53,440.52 383.90,439.56 385.26,438.62 386.63,437.71 387.99,436.84 389.36,435.99 390.72,435.17 392.09,434.39 393.46,433.64 394.82,432.92 396.19,432.24 397.55,431.60 398.92,430.99 400.28,430.41 401.65,429.87 403.02,429.38 404.38,428.91 405.75,428.49 407.11,428.11 408.48,427.76 409.84,427.46 411.21,427.20 412.57,426.97 413.94,426.79 415.31,426.65 416.67,426.54 418.04,426.48 419.40,426.46 420.77,426.48 422.13,426.54 423.50,426.65 424.86,426.79 426.23,426.97 427.60,427.20 428.96,427.46 430.33,427.77 431.69,428.11 433.06,428.50 434.42,428.92 435.79,429.38 437.16,429.88 438.52,430.42 439.89,430.99 441.25,431.60 442.62,432.25 443.98,432.93 445.35,433.65 446.71,434.40 448.08,435.18 449.45,436.00 450.81,436.85 452.18,437.73 453.54,438.63 454.91,439.57 456.27,440.54 457.64,441.53 459.01,442.55 460.37,443.59 461.74,444.66 463.10,445.75 464.47,446.86 465.83,448.00 467.20,449.15 468.56,450.32 469.93,451.51 471.30,452.72 472.66,453.94 474.03,455.17 475.39,456.42 476.76,457.68 478.12,458.95 479.49,460.23 480.85,461.51 482.22,462.80 483.59,464.10 484.95,465.40 486.32,466.71 487.68,468.01 489.05,469.32 490.41,470.62 491.78,471.92 493.15,473.22 494.51,474.51 495.88,475.79 497.24,477.07 498.61,478.34 499.97,479.60 501.34,480.85 502.70,482.08 504.07,483.30 505.44,484.51 506.80,485.70 508.17,486.87 509.53,488.02 510.90,489.15 512.26,490.27 513.63,491.36 514.99,492.43 516.36,493.47 517.73,494.49 519.09,495.48 520.46,496.44 521.82,497.38 523.19,498.29 524.55,499.17 525.92,500.01 527.29,500.83 528.65,501.61 530.02,502.36 531.38,503.08 532.75,503.76 534.11,504.41 535.48,505.02 536.84,505.59 538.21,506.13 539.58,506.63 540.94,507.09 542.31,507.51 543.67,507.89 545.04,508.24 546.40,508.54 547.77,508.81 549.14,509.03 550.50,509.21 551.87,509.36 553.23,509.46 554.60,509.52 555.96,509.54 557.33,509.52 558.69,509.46 560.06,509.35 561.43,509.21 562.79,509.03 564.16,508.80 565.52,508.54 566.89,508.23 568.25,507.89 569.62,507.50 570.98,507.08 572.35,506.62 573.72,506.12 575.08,505.58 576.45,505.01 577.81,504.39 579.18,503.75 580.54,503.06 581.91,502.35 583.28,501.60 584.64,500.81 586.01,500.00 587.37,499.15 588.74,498.27 590.10,497.36 591.47,496.43 592.83,495.46 594.20,494.47 595.57,493.45 596.93,492.40 598.30,491.34 599.66,490.25 601.03,489.13 602.39,488.00 603.76,486.85 605.13,485.67 606.49,484.48 607.86,483.28 609.22,482.06 610.59,480.82 611.95,479.58 613.32,478.32 614.68,477.05 616.05,475.77 617.42,474.48 618.78,473.19 620.15,471.89 621.51,470.59 622.88,469.29 624.24,467.99 625.61,466.68 626.97,465.38 628.34,464.08 629.71,462.78 631.07,461.49 632.44,460.20 633.80,458.92 635.17,457.66 636.53,456.40 637.90,455.15 639.27,453.92 640.63,452.69 642.00,451.49 643.36,450.30 644.73,449.13 646.09,447.98 647.46,446.84 648.82,445.73 650.19,444.64 651.56,443.57 652.92,442.53 654.29,441.51 655.65,440.52 657.02,439.55 658.38,438.62 659.75,437.71 661.12,436.83 662.48,435.98 663.85,435.17 665.21,434.39 666.58,433.64 667.94,432.92 669.31,432.24 670.67,431.59 672.04,430.98 673.41,430.41 674.77,429.87 676.14,429.37 677.50,428.91 678.87,428.49 680.23,428.11 681.60,427.76 682.96,427.46 684.33,427.19 685.70,426.97 687.06,426.79 688.43,426.64 689.79,426.54 691.16,426.48 692.52,426.46 693.89,426.48 695.26,426.54 696.62,426.65 697.99,426.79 699.35,426.98 700.72,427.20 702.08,427.47 703.45,427.77 704.81,428.12 706.18,428.50 707.55,428.92 708.91,429.38 710.28,429.88 711.64,430.42 713.01,431.00 714.37,431.61 715.74,432.25 717.11,432.94 718.47,433.65 719.84,434.40 721.20,435.19 722.57,436.00 723.93,436.85 725.30,437.73 726.66,438.64 728.03,439.58 729.40,440.54 730.76,441.54 732.13,442.55 733.49,443.60 734.86,444.67 736.22,445.76 737.59,446.87 738.95,448.00 740.32,449.16 741.69,450.33 743.05,451.52 744.42,452.73 745.78,453.95 747.15,455.18 748.51,456.43 749.88,457.69 751.25,458.96 752.61,460.23 753.98,461.52 755.34,462.81 756.71,464.11 758.07,465.41 759.44,466.71 760.80,468.02 762.17,469.32 763.54,470.63 764.90,471.93 766.27,473.22 767.63,474.52 769.00,475.80 770.36,477.08 771.73,478.35 773.10,479.61 774.46,480.85 775.83,482.09 777.19,483.31 778.56,484.51 779.92,485.70 781.29,486.87 782.65,488.03 784.02,489.16 785.39,490.27 786.75,491.36 788.12,492.43 789.48,493.47 790.85,494.49 792.21,495.48 793.58,496.45 794.94,497.39 796.31,498.29 797.68,499.17 799.04,500.02 800.41,500.83 801.77,501.62 803.14,502.37 804.50,503.08 805.87,503.76 807.24,504.41 808.60,505.02 809.97,505.59 811.33,506.13 812.70,506.63 814.06,507.09 815.43,507.51 816.79,507.89 818.16,508.24 819.53,508.54 820.89,508.81 822.26,509.03 823.62,509.21 824.99,509.36 826.35,509.46 827.72,509.52 829.09,509.54 830.45,509.52 831.82,509.46 833.18,509.35 834.55,509.21 835.91,509.02 837.28,508.80 838.64,508.53 840.01,508.23 841.38,507.88 842.74,507.50 844.11,507.08 845.47,506.61 846.84,506.11 848.20,505.58 849.57,505.00 850.93,504.39 852.30,503.74 853.67,503.06 855.03,502.34 856.40,501.59 857.76,500.81 859.13,499.99 860.49,499.14 861.86,498.27 863.23,497.36 864.59,496.42 865.96,495.45 867.32,494.46 868.69,493.44 870.05,492.40 871.42,491.33 872.78,490.24 874.15,489.13 875.52,487.99 876.88,486.84 878.25,485.67 879.61,484.48 880.98,483.27 882.34,482.05 883.71,480.82 885.08,479.57 886.44,478.31 887.81,477.04 889.17,475.76 890.54,474.48 891.90,473.18 893.27,471.89 894.63,470.59 896.00,469.28"/>
<text x="20" y="209" transform="rotate(-90 20 209)" text-anchor="middle" font-size="13">Temperature (C)</text>
<text x="20" y="468" transform="rotate(-90 20 468)" text-anchor="middle" font-size="13">PWM duty</text>
<text x="487" y="568" text-anchor="middle" font-size="13">Time (s)</text>
<line x1="78" y1="35" x2="103" y2="35" class="raw"/><text x="109" y="39" font-size="12">temperature</text>
<line x1="203" y1="35" x2="228" y2="35" class="fit"/><text x="234" y="39" font-size="12">detrended fit</text>
<text x="378" y="39" font-size="12">shaded = measured</text>
</svg>
