<svg xmlns="http://www.w3.org/2000/svg" viewBox="0 0 120 120" role="img" aria-label="HELIX">
  <defs>
    <linearGradient id="hxf" x1="24" y1="14" x2="98" y2="108" gradientUnits="userSpaceOnUse">
      <stop offset="0" stop-color="#7df3e0"/><stop offset="0.55" stop-color="#3ae0c9"/><stop offset="1" stop-color="#12a794"/>
    </linearGradient>
  </defs>
  <rect x="0" y="0" width="120" height="120" rx="26" fill="#0a0e14"/>
  <g fill="none" stroke-linecap="round" stroke-linejoin="round">
    <g stroke="#3ae0c9" stroke-opacity="0.32" stroke-width="6.5">
      <path d="M60.0 12.5 L63.6 13.0 L67.2 13.5 L70.7 14.1 L74.1 14.8 L77.3 15.6 L80.3 16.5 L83.1 17.4 L85.6 18.4 L87.9 19.5 L89.8 20.6 L91.4 21.7 L92.6 22.9 L93.4 24.1 L93.9 25.3 L94.0 26.5"/>
      <path d="M26.2 38.0 L26.7 37.7 L27.6 37.3 L28.9 37.0 L30.5 36.7 L32.5 36.4 L34.8 36.2 L37.4 36.1 L40.2 36.0 L43.2 36.0 L46.5 36.0 L49.9 36.2 L53.4 36.4 L57.0 36.7 L60.6 37.1 L64.3 37.5 L67.8 38.1 L71.3 38.8 L74.7 39.5 L77.9 40.3 L80.8 41.1 L83.6 42.1 L86.1 43.1 L88.2 44.1 L90.1 45.2 L91.6 46.4 L92.8 47.6 L93.5 48.8 L93.9 50.0 L94.0 51.2"/>
      <path d="M26.0 62.9 L26.2 62.5 L26.8 62.1 L27.8 61.7 L29.1 61.4 L30.8 61.1 L32.9 60.9 L35.2 60.7 L37.8 60.5 L40.7 60.5 L43.8 60.5 L47.1 60.5 L50.5 60.7 L54.0 60.9 L57.7 61.2 L61.3 61.7 L64.9 62.1 L68.5 62.7 L71.9 63.4 L75.2 64.1 L78.4 64.9 L81.3 65.8 L84.0 66.8 L86.5 67.8 L88.6 68.8 L90.4 69.9 L91.8 71.1 L92.9 72.3 L93.6 73.5 L94.0 74.7 L93.9 75.9"/>
      <path d="M26.0 87.3 L26.3 86.9 L27.0 86.5 L28.0 86.2 L29.4 85.9 L31.2 85.6 L33.3 85.3 L35.7 85.2 L38.3 85.0 L41.2 85.0 L44.4 85.0 L47.7 85.1 L51.1 85.2 L54.7 85.5 L58.3 85.8 L61.9 86.2 L65.5 86.7 L69.1 87.3 L72.5 88.0 L75.8 88.7 L78.9 89.6 L81.8 90.5 L84.5 91.4 L86.9 92.5 L88.9 93.5 L90.7 94.6 L92.1 95.8 L93.1 97.0 L93.7 98.2 L94.0 99.4 L93.9 100.6"/>
    </g>
    <g stroke="url(#hxf)" stroke-width="8.5">
      <path d="M94.0 26.5 L93.7 27.7 L93.0 28.9 L91.9 30.1 L90.5 31.2 L88.7 32.3 L86.6 33.4 L84.2 34.4 L81.5 35.4 L78.6 36.3 L75.4 37.1 L72.1 37.8 L68.7 38.5 L65.1 39.1 L61.5 39.6 L57.9 40.0 L54.3 40.3 L50.7 40.5 L47.3 40.7 L44.0 40.8 L40.9 40.8 L38.0 40.7 L35.4 40.6 L33.0 40.4 L31.0 40.1 L29.2 39.9 L27.9 39.5 L26.9 39.2 L26.2 38.8 L26.0 38.4 L26.2 38.0"/>
      <path d="M94.0 51.2 L93.6 52.4 L92.8 53.6 L91.7 54.8 L90.2 55.9 L88.4 57.0 L86.2 58.1 L83.7 59.1 L81.0 60.1 L78.0 60.9 L74.9 61.7 L71.5 62.5 L68.0 63.1 L64.5 63.7 L60.9 64.1 L57.2 64.5 L53.6 64.9 L50.1 65.1 L46.7 65.2 L43.4 65.3 L40.4 65.3 L37.5 65.2 L34.9 65.0 L32.6 64.8 L30.6 64.6 L29.0 64.3 L27.7 64.0 L26.7 63.6 L26.2 63.2 L26.0 62.9"/>
      <path d="M93.9 75.9 L93.5 77.1 L92.6 78.3 L91.5 79.5 L89.9 80.6 L88.0 81.7 L85.8 82.8 L83.3 83.8 L80.5 84.7 L77.5 85.6 L74.3 86.4 L70.9 87.1 L67.4 87.7 L63.8 88.3 L60.2 88.7 L56.6 89.1 L53.0 89.4 L49.5 89.6 L46.1 89.7 L42.9 89.8 L39.8 89.8 L37.0 89.7 L34.5 89.5 L32.2 89.3 L30.3 89.0 L28.7 88.7 L27.5 88.4 L26.6 88.0 L26.1 87.7 L26.0 87.3"/>
      <path d="M93.9 100.6 L93.4 101.8 L92.5 103.0 L91.2 104.2 L89.6 105.3 L87.6 106.4 L85.4 107.5 L82.8 108.4 L80.0 109.4"/>
    </g>
  </g>
</svg>
