<svg xmlns="http://www.w3.org/2000/svg" viewBox="0 0 120 120" role="img" aria-label="HELIX">
  <defs>
    <linearGradient id="hxf" x1="24" y1="18" x2="96" y2="104" gradientUnits="userSpaceOnUse">
      <stop offset="0" stop-color="#7df3e0"/>
      <stop offset="0.55" stop-color="#3ae0c9"/>
      <stop offset="1" stop-color="#12a794"/>
    </linearGradient>
  </defs>
  <rect x="0" y="0" width="120" height="120" rx="26" fill="#0a0e14"/>
  <line x1="60" y1="20" x2="60" y2="100" stroke="#3ae0c9" stroke-opacity="0.20" stroke-width="2.5"/>
  <g fill="none" stroke-linecap="round">
    <g stroke="#3ae0c9" stroke-opacity="0.30" stroke-width="7">
      <path d="M30 30 A30 10 0 0 0 90 30"/>
      <path d="M30 50 A30 10 0 0 0 90 50"/>
      <path d="M30 70 A30 10 0 0 0 90 70"/>
      <path d="M30 90 A30 10 0 0 0 90 90"/>
    </g>
    <g stroke="url(#hxf)" stroke-width="9">
      <path d="M30 30 A30 10 0 0 1 90 30"/>
      <path d="M30 50 A30 10 0 0 1 90 50"/>
      <path d="M30 70 A30 10 0 0 1 90 70"/>
      <path d="M30 90 A30 10 0 0 1 90 90"/>
    </g>
  </g>
</svg>
