<svg xmlns="http://www.w3.org/2000/svg" viewBox="0 0 236 96" fill="none" role="img" aria-label="HELIX">
  <defs>
    <linearGradient id="hxc" x1="18" y1="20" x2="230" y2="76" gradientUnits="userSpaceOnUse">
      <stop offset="0" stop-color="#7df3e0"/><stop offset="0.5" stop-color="#3ae0c9"/><stop offset="1" stop-color="#12a794"/>
    </linearGradient>
  </defs>
  <g fill="none" stroke-linecap="round" stroke-linejoin="round">
    <g stroke="#2bb9a6" stroke-opacity="0.42" stroke-width="5">
      <path d="M12.0 48.0 L12.7 50.4 L13.4 52.8 L14.2 55.1 L15.1 57.4 L16.0 59.6 L17.0 61.7 L18.0 63.7 L19.1 65.5 L20.3 67.2 L21.5 68.7 L22.7 70.1 L24.0 71.3 L25.3 72.2 L26.7 73.0 L28.0 73.6 L29.4 73.9 L30.8 74.0 L32.1 73.9"/>
      <path d="M52.1 22.1 L52.0 22.4 L52.0 23.0 L51.9 23.8 L51.8 24.7 L51.8 25.9 L51.9 27.3 L51.9 28.8 L52.0 30.5 L52.2 32.3 L52.4 34.3 L52.7 36.4 L53.0 38.6 L53.4 40.9 L53.9 43.2 L54.4 45.6 L55.0 48.0 L55.7 50.4 L56.4 52.8 L57.2 55.1 L58.1 57.4 L59.0 59.6 L60.0 61.7 L61.0 63.7 L62.1 65.5 L63.3 67.2 L64.5 68.7 L65.7 70.1 L67.0 71.3 L68.3 72.2 L69.7 73.0 L71.0 73.6 L72.4 73.9 L73.7 74.0 L75.1 73.9"/>
      <path d="M95.1 22.1 L95.0 22.4 L95.0 23.0 L94.9 23.8 L94.8 24.7 L94.8 25.9 L94.9 27.3 L94.9 28.8 L95.0 30.5 L95.2 32.3 L95.4 34.3 L95.7 36.4 L96.0 38.6 L96.4 40.9 L96.9 43.2 L97.4 45.6 L98.0 48.0 L98.7 50.4 L99.4 52.8 L100.2 55.1 L101.1 57.4 L102.0 59.6 L103.0 61.7 L104.0 63.7 L105.1 65.5 L106.3 67.2 L107.5 68.7 L108.7 70.1 L110.0 71.3 L111.3 72.2 L112.7 73.0 L114.0 73.6 L115.4 73.9 L116.8 74.0 L118.1 73.9"/>
      <path d="M138.2 22.0 L138.1 22.1 L138.0 22.4 L138.0 23.0 L137.9 23.8 L137.8 24.7 L137.8 25.9 L137.9 27.3 L137.9 28.8 L138.0 30.5 L138.2 32.3 L138.4 34.3 L138.7 36.4 L139.0 38.6 L139.4 40.9 L139.9 43.2 L140.4 45.6 L141.0 48.0 L141.7 50.4 L142.4 52.8 L143.2 55.1 L144.1 57.4 L145.0 59.6 L146.0 61.7 L147.0 63.7 L148.1 65.5 L149.3 67.2 L150.5 68.7 L151.7 70.1 L153.0 71.3 L154.3 72.2 L155.7 73.0 L157.0 73.6 L158.4 73.9 L159.7 74.0 L161.1 73.9"/>
      <path d="M181.3 22.0 L181.1 22.1 L181.0 22.4 L181.0 23.0 L180.9 23.8 L180.8 24.7 L180.8 25.9 L180.9 27.3 L180.9 28.8 L181.0 30.5 L181.2 32.3 L181.4 34.3 L181.7 36.4 L182.0 38.6 L182.4 40.9 L182.9 43.2 L183.4 45.6 L184.0 48.0 L184.7 50.4 L185.4 52.8 L186.2 55.1 L187.1 57.4 L188.0 59.6 L189.0 61.7 L190.0 63.7 L191.1 65.5 L192.3 67.2 L193.5 68.7 L194.7 70.1 L196.0 71.3 L197.3 72.2 L198.7 73.0 L200.0 73.6 L201.4 73.9 L202.7 74.0 L204.1 73.9"/>
      <path d="M224.1 22.1 L224.0 22.4 L224.0 23.0 L223.9 23.8 L223.8 24.7 L223.8 25.9 L223.9 27.3 L223.9 28.8 L224.0 30.5 L224.2 32.3 L224.4 34.3 L224.7 36.4 L225.0 38.6 L225.4 40.9 L225.9 43.2 L226.4 45.6 L227.0 48.0"/>
    </g>
    <g stroke="url(#hxc)" stroke-width="7">
      <path d="M32.1 73.9 L33.5 73.6 L34.8 73.0 L36.2 72.2 L37.5 71.3 L38.8 70.1 L40.0 68.7 L41.2 67.2 L42.4 65.5 L43.5 63.7 L44.5 61.7 L45.5 59.6 L46.4 57.4 L47.3 55.1 L48.1 52.8 L48.8 50.4 L49.5 48.0 L50.1 45.6 L50.6 43.2 L51.1 40.9 L51.5 38.6 L51.8 36.4 L52.1 34.3 L52.3 32.3 L52.5 30.5 L52.6 28.8 L52.6 27.3 L52.7 25.9 L52.7 24.7 L52.6 23.8 L52.5 23.0 L52.5 22.4 L52.4 22.1 L52.2 22.0 L52.1 22.1"/>
      <path d="M75.1 73.9 L76.5 73.6 L77.8 73.0 L79.2 72.2 L80.5 71.3 L81.8 70.1 L83.0 68.7 L84.2 67.2 L85.4 65.5 L86.5 63.7 L87.5 61.7 L88.5 59.6 L89.4 57.4 L90.3 55.1 L91.1 52.8 L91.8 50.4 L92.5 48.0 L93.1 45.6 L93.6 43.2 L94.1 40.9 L94.5 38.6 L94.8 36.4 L95.1 34.3 L95.3 32.3 L95.5 30.5 L95.6 28.8 L95.6 27.3 L95.7 25.9 L95.7 24.7 L95.6 23.8 L95.5 23.0 L95.5 22.4 L95.4 22.1 L95.2 22.0 L95.1 22.1"/>
      <path d="M118.1 73.9 L119.5 73.6 L120.8 73.0 L122.2 72.2 L123.5 71.3 L124.8 70.1 L126.0 68.7 L127.2 67.2 L128.4 65.5 L129.5 63.7 L130.5 61.7 L131.5 59.6 L132.4 57.4 L133.3 55.1 L134.1 52.8 L134.8 50.4 L135.5 48.0 L136.1 45.6 L136.6 43.2 L137.1 40.9 L137.5 38.6 L137.8 36.4 L138.1 34.3 L138.3 32.3 L138.5 30.5 L138.6 28.8 L138.6 27.3 L138.7 25.9 L138.7 24.7 L138.6 23.8 L138.5 23.0 L138.5 22.4 L138.4 22.1 L138.2 22.0"/>
      <path d="M161.1 73.9 L162.5 73.6 L163.8 73.0 L165.2 72.2 L166.5 71.3 L167.8 70.1 L169.0 68.7 L170.2 67.2 L171.4 65.5 L172.5 63.7 L173.5 61.7 L174.5 59.6 L175.4 57.4 L176.3 55.1 L177.1 52.8 L177.8 50.4 L178.5 48.0 L179.1 45.6 L179.6 43.2 L180.1 40.9 L180.5 38.6 L180.8 36.4 L181.1 34.3 L181.3 32.3 L181.5 30.5 L181.6 28.8 L181.6 27.3 L181.7 25.9 L181.7 24.7 L181.6 23.8 L181.5 23.0 L181.5 22.4 L181.4 22.1 L181.3 22.0"/>
      <path d="M204.1 73.9 L205.5 73.6 L206.8 73.0 L208.2 72.2 L209.5 71.3 L210.8 70.1 L212.0 68.7 L213.2 67.2 L214.4 65.5 L215.5 63.7 L216.5 61.7 L217.5 59.6 L218.4 57.4 L219.3 55.1 L220.1 52.8 L220.8 50.4 L221.5 48.0 L222.1 45.6 L222.6 43.2 L223.1 40.9 L223.5 38.6 L223.8 36.4 L224.1 34.3 L224.3 32.3 L224.5 30.5 L224.6 28.8 L224.6 27.3 L224.7 25.9 L224.7 24.7 L224.6 23.8 L224.5 23.0 L224.5 22.4 L224.4 22.1 L224.3 22.0 L224.1 22.1"/>
    </g>
    <g stroke="#0a0e14" stroke-opacity="0.85" stroke-width="14">
      <path d="M56 28 L56 68"/>
      <path d="M82 28 L82 68"/>
      <path d="M56 48 L82 48"/>
      <path d="M96 28 L96 68"/>
      <path d="M96 28 L118 28"/>
      <path d="M96 48 L114 48"/>
      <path d="M96 68 L118 68"/>
      <path d="M128 28 L128 68"/>
      <path d="M128 68 L150 68"/>
      <path d="M168 28 L168 68"/>
      <path d="M158 28 L178 28"/>
      <path d="M158 68 L178 68"/>
      <path d="M188 28 L214 68"/>
      <path d="M214 28 L188 68"/>
    </g>
    <g stroke="#ffffff" stroke-width="8.5">
      <path d="M56 28 L56 68"/>
      <path d="M82 28 L82 68"/>
      <path d="M56 48 L82 48"/>
      <path d="M96 28 L96 68"/>
      <path d="M96 28 L118 28"/>
      <path d="M96 48 L114 48"/>
      <path d="M96 68 L118 68"/>
      <path d="M128 28 L128 68"/>
      <path d="M128 68 L150 68"/>
      <path d="M168 28 L168 68"/>
      <path d="M158 28 L178 28"/>
      <path d="M158 68 L178 68"/>
      <path d="M188 28 L214 68"/>
      <path d="M214 28 L188 68"/>
    </g>
  </g>
</svg>
