<svg xmlns="http://www.w3.org/2000/svg" viewBox="0 0 240 96" fill="none" role="img" aria-label="HELIX">
  <defs>
    <linearGradient id="hxc" x1="20" y1="20" x2="230" y2="76" gradientUnits="userSpaceOnUse">
      <stop offset="0" stop-color="#7df3e0"/><stop offset="0.5" stop-color="#3ae0c9"/><stop offset="1" stop-color="#12a794"/>
    </linearGradient>
  </defs>
  <g fill="none" stroke-linecap="round" stroke-linejoin="round">
    <!-- back strands: behind the wordmark -->
    <g stroke="#2bb9a6" stroke-opacity="0.45" stroke-width="5">
      <path d="M14.0 48.0 L14.7 50.4"/>
      <path d="M55.7 47.3 L56.3 45.0 L56.9 42.6 L57.5 40.3 L58.0 38.1 L58.4 35.9 L58.8 33.8 L59.1 31.9 L59.4 30.0 L59.6 28.3 L59.8 26.8 L59.9 25.4 L60.0 24.2 L60.1 23.2 L60.1 22.3 L60.2 21.7 L60.2 21.3 L60.2 21.0 L60.2 21.0 L60.2 21.2 L60.3 21.6 L60.3 22.2 L60.3 23.0 L60.4 24.0 L60.5 25.2 L60.6 26.6 L60.8 28.1 L61.0 29.8 L61.3 31.6 L61.6 33.5 L62.0 35.6 L62.4 37.7 L62.9 40.0 L63.4 42.3 L64.0 44.6 L64.7 47.0 L65.4 49.4"/>
      <path d="M107.0 46.0 L107.6 43.6 L108.2 41.3 L108.7 39.0 L109.2 36.8 L109.6 34.7 L109.9 32.7 L110.2 30.8 L110.4 29.0 L110.6 27.4 L110.8 26.0 L110.9 24.7 L111.0 23.6 L111.1 22.7 L111.1 21.9 L111.1 21.4 L111.2 21.1 L111.2 21.0 L111.2 21.1 L111.2 21.4 L111.2 21.9 L111.3 22.7 L111.3 23.6 L111.4 24.7 L111.5 26.0 L111.7 27.4 L111.9 29.0 L112.1 30.8 L112.4 32.7 L112.8 34.7 L113.2 36.8 L113.6 39.0 L114.1 41.3 L114.7 43.6 L115.3 46.0 L116.0 48.3"/>
      <path d="M157.7 47.0 L158.3 44.6 L158.9 42.3 L159.5 40.0 L159.9 37.7 L160.4 35.6 L160.7 33.5 L161.0 31.6 L161.3 29.8 L161.5 28.1 L161.7 26.6 L161.8 25.2 L161.9 24.0 L162.0 23.0 L162.0 22.2 L162.1 21.6 L162.1 21.2 L162.1 21.0 L162.1 21.0 L162.1 21.3 L162.2 21.7 L162.2 22.3 L162.2 23.2 L162.3 24.2 L162.4 25.4 L162.6 26.8 L162.8 28.3 L163.0 30.0 L163.2 31.9 L163.6 33.8 L163.9 35.9 L164.4 38.1 L164.8 40.3 L165.4 42.6 L166.0 45.0 L166.7 47.3 L167.4 49.7"/>
      <path d="M209.0 45.6 L209.6 43.3 L210.2 41.0 L210.7 38.7 L211.1 36.5 L211.5 34.4 L211.9 32.4 L212.1 30.5 L212.4 28.8 L212.6 27.2 L212.7 25.8 L212.8 24.5 L212.9 23.4 L213.0 22.5 L213.0 21.8 L213.0 21.4 L213.1 21.1 L213.1 21.0 L213.1 21.1 L213.1 21.5 L213.1 22.0 L213.2 22.8 L213.2 23.7 L213.3 24.8 L213.5 26.2 L213.6 27.6 L213.8 29.3 L214.1 31.1 L214.4 33.0 L214.7 35.0 L215.1 37.1 L215.6 39.3 L216.1 41.6 L216.7 43.9 L217.3 46.3 L218.0 48.7"/>
    </g>
    <!-- HELIX, threaded through the coil -->
    <g stroke="#0d9488" stroke-width="8">
      <path d="M58 30 L58 66"/>
      <path d="M84 30 L84 66"/>
      <path d="M58 48 L84 48"/>
      <path d="M98 30 L98 66"/>
      <path d="M98 30 L120 30"/>
      <path d="M98 48 L116 48"/>
      <path d="M98 66 L120 66"/>
      <path d="M130 30 L130 66"/>
      <path d="M130 66 L152 66"/>
      <path d="M170 30 L170 66"/>
      <path d="M160 30 L180 30"/>
      <path d="M160 66 L180 66"/>
      <path d="M190 30 L216 66"/>
      <path d="M216 30 L190 66"/>
    </g>
    <!-- front strands: over the wordmark -->
    <g stroke="url(#hxc)" stroke-width="7">
      <path d="M14.7 50.4 L15.6 52.7 L16.4 55.0 L17.3 57.3 L18.3 59.5 L19.4 61.6 L20.5 63.6 L21.6 65.5 L22.8 67.2 L24.0 68.8 L25.3 70.2 L26.6 71.5 L28.0 72.6 L29.3 73.5 L30.7 74.2 L32.1 74.6 L33.5 74.9 L34.9 75.0 L36.4 74.9 L37.8 74.5 L39.2 74.0 L40.5 73.2 L41.9 72.3 L43.2 71.2 L44.5 69.8 L45.8 68.4 L47.0 66.7 L48.2 64.9 L49.3 63.0 L50.4 61.0 L51.4 58.9 L52.4 56.7 L53.3 54.4 L54.2 52.1 L55.0 49.7 L55.7 47.3"/>
      <path d="M65.4 49.4 L66.1 51.7 L67.0 54.1 L67.9 56.3 L68.9 58.6 L69.9 60.7 L70.9 62.8 L72.1 64.7 L73.2 66.5 L74.5 68.1 L75.7 69.6 L77.0 71.0 L78.3 72.1 L79.7 73.1 L81.1 73.9 L82.5 74.5 L83.9 74.8 L85.3 75.0 L86.7 74.9 L88.1 74.7 L89.5 74.2 L90.9 73.6 L92.3 72.7 L93.6 71.7 L94.9 70.4 L96.2 69.0 L97.5 67.4 L98.7 65.7 L99.8 63.9 L100.9 61.9 L102.0 59.8 L102.9 57.6 L103.9 55.4 L104.8 53.1 L105.6 50.7 L106.3 48.3 L107.0 46.0"/>
      <path d="M116.0 48.3 L116.8 50.7 L117.6 53.1 L118.5 55.4 L119.4 57.6 L120.4 59.8 L121.4 61.9 L122.5 63.9 L123.7 65.7 L124.9 67.4 L126.1 69.0 L127.4 70.4 L128.7 71.7 L130.1 72.7 L131.4 73.6 L132.8 74.2 L134.2 74.7 L135.6 74.9 L137.0 75.0 L138.5 74.8 L139.9 74.5 L141.3 73.9 L142.6 73.1 L144.0 72.1 L145.3 71.0 L146.6 69.6 L147.9 68.1 L149.1 66.5 L150.3 64.7 L151.4 62.8 L152.5 60.7 L153.5 58.6 L154.4 56.3 L155.3 54.1 L156.2 51.7 L157.0 49.4 L157.7 47.0"/>
      <path d="M167.4 49.7 L168.2 52.1 L169.0 54.4 L169.9 56.7 L170.9 58.9 L171.9 61.0 L173.0 63.0 L174.1 64.9 L175.3 66.7 L176.5 68.4 L177.8 69.8 L179.1 71.2 L180.4 72.3 L181.8 73.2 L183.2 74.0 L184.6 74.5 L186.0 74.9 L187.4 75.0 L188.8 74.9 L190.2 74.6 L191.6 74.2 L193.0 73.5 L194.4 72.6 L195.7 71.5 L197.0 70.2 L198.3 68.8 L199.5 67.2 L200.7 65.5 L201.9 63.6 L203.0 61.6 L204.0 59.5 L205.0 57.3 L205.9 55.0 L206.8 52.7 L207.6 50.4 L208.3 48.0 L209.0 45.6"/>
      <path d="M218.0 48.7 L218.8 51.0 L219.6 53.4 L220.5 55.7 L221.4 57.9 L222.4 60.1 L223.5 62.2 L224.6 64.1 L225.8 66.0 L227.0 67.7 L228.2 69.2 L229.5 70.6 L230.8 71.8 L232.2 72.8 L233.5 73.7"/>
    </g>
  </g>
</svg>
