<svg xmlns="http://www.w3.org/2000/svg" width="1080" height="720" viewBox="0 0 1080 720" role="img" aria-labelledby="title desc">
<title id="title">Repeatability of interrupt versus polling endstop response</title>
<desc id="desc">Scatter plots compare edge-to-stop latency and physical overrun for interrupt and polling detection at twenty and three millimeters per second.</desc>
<rect width="1080" height="720" fill="#f5f7f8"/>
<text x="540" y="36" font-size="25" font-weight="700" text-anchor="middle" fill="#16343d">Same switch edge: bounded ISR vs sampling phase</text>
<text x="540" y="61" font-size="14" font-weight="400" text-anchor="middle" fill="#53636a">32 physical contacts per mode; horizontal bars are means</text>
<rect x="35" y="82" width="495" height="535" rx="10" fill="#ffffff" stroke="#d8e0e3"/>
<text x="55" y="112" font-size="18" font-weight="700" text-anchor="start" fill="#263238">Timing: edge to trajectory halt</text>
<line x1="100" y1="547.00" x2="510" y2="547.00" stroke="#e5eaec" stroke-width="1"/>
<text x="91" y="552.0" font-size="12" font-weight="400" text-anchor="end" fill="#53636a">0</text>
<line x1="100" y1="465.00" x2="510" y2="465.00" stroke="#e5eaec" stroke-width="1"/>
<text x="91" y="470.0" font-size="12" font-weight="400" text-anchor="end" fill="#53636a">100</text>
<line x1="100" y1="383.00" x2="510" y2="383.00" stroke="#e5eaec" stroke-width="1"/>
<text x="91" y="388.0" font-size="12" font-weight="400" text-anchor="end" fill="#53636a">200</text>
<line x1="100" y1="301.00" x2="510" y2="301.00" stroke="#e5eaec" stroke-width="1"/>
<text x="91" y="306.0" font-size="12" font-weight="400" text-anchor="end" fill="#53636a">300</text>
<line x1="100" y1="219.00" x2="510" y2="219.00" stroke="#e5eaec" stroke-width="1"/>
<text x="91" y="224.0" font-size="12" font-weight="400" text-anchor="end" fill="#53636a">400</text>
<line x1="100" y1="137.00" x2="510" y2="137.00" stroke="#e5eaec" stroke-width="1"/>
<text x="91" y="142.0" font-size="12" font-weight="400" text-anchor="end" fill="#53636a">500</text>
<line x1="100" y1="137" x2="100" y2="547" stroke="#607078" stroke-width="1.5"/>
<line x1="100" y1="547" x2="510" y2="547" stroke="#607078" stroke-width="1.5"/>
<circle cx="136.85" cy="528.07" r="3.5" fill="#087f8c" fill-opacity="0.62"/>
<circle cx="149.45" cy="528.07" r="3.5" fill="#087f8c" fill-opacity="0.62"/>
<circle cx="162.05" cy="528.00" r="3.5" fill="#087f8c" fill-opacity="0.62"/>
<circle cx="144.05" cy="528.07" r="3.5" fill="#087f8c" fill-opacity="0.62"/>
<circle cx="156.65" cy="528.07" r="3.5" fill="#087f8c" fill-opacity="0.62"/>
<circle cx="138.65" cy="528.07" r="3.5" fill="#087f8c" fill-opacity="0.62"/>
<circle cx="151.25" cy="528.07" r="3.5" fill="#087f8c" fill-opacity="0.62"/>
<circle cx="163.85" cy="528.00" r="3.5" fill="#087f8c" fill-opacity="0.62"/>
<circle cx="145.85" cy="528.07" r="3.5" fill="#087f8c" fill-opacity="0.62"/>
<circle cx="158.45" cy="528.00" r="3.5" fill="#087f8c" fill-opacity="0.62"/>
<circle cx="140.45" cy="528.07" r="3.5" fill="#087f8c" fill-opacity="0.62"/>
<circle cx="153.05" cy="528.07" r="3.5" fill="#087f8c" fill-opacity="0.62"/>
<circle cx="165.65" cy="528.00" r="3.5" fill="#087f8c" fill-opacity="0.62"/>
<circle cx="147.65" cy="528.07" r="3.5" fill="#087f8c" fill-opacity="0.62"/>
<circle cx="160.25" cy="528.00" r="3.5" fill="#087f8c" fill-opacity="0.62"/>
<circle cx="142.25" cy="528.00" r="3.5" fill="#087f8c" fill-opacity="0.62"/>
<line x1="126.25" y1="528.05" x2="176.25" y2="528.05" stroke="#087f8c" stroke-width="5"/>
<text x="151.25" y="571" font-size="13" font-weight="700" text-anchor="middle" fill="#087f8c">ISR</text>
<text x="151.25" y="588" font-size="11" font-weight="400" text-anchor="middle" fill="#53636a">20 mm/s</text>
<text x="151.25" y="609" font-size="11" font-weight="600" text-anchor="middle" fill="#263238">mean 23.11</text>
<circle cx="239.35" cy="474.16" r="3.5" fill="#e76f51" fill-opacity="0.62"/>
<circle cx="251.95" cy="467.87" r="3.5" fill="#e76f51" fill-opacity="0.62"/>
<circle cx="264.55" cy="497.66" r="3.5" fill="#e76f51" fill-opacity="0.62"/>
<circle cx="246.55" cy="466.84" r="3.5" fill="#e76f51" fill-opacity="0.62"/>
<circle cx="259.15" cy="464.86" r="3.5" fill="#e76f51" fill-opacity="0.62"/>
<circle cx="241.15" cy="465.96" r="3.5" fill="#e76f51" fill-opacity="0.62"/>
<circle cx="253.75" cy="471.29" r="3.5" fill="#e76f51" fill-opacity="0.62"/>
<circle cx="266.35" cy="461.72" r="3.5" fill="#e76f51" fill-opacity="0.62"/>
<circle cx="248.35" cy="465.34" r="3.5" fill="#e76f51" fill-opacity="0.62"/>
<circle cx="260.95" cy="496.37" r="3.5" fill="#e76f51" fill-opacity="0.62"/>
<circle cx="242.95" cy="490.21" r="3.5" fill="#e76f51" fill-opacity="0.62"/>
<circle cx="255.55" cy="487.69" r="3.5" fill="#e76f51" fill-opacity="0.62"/>
<circle cx="268.15" cy="500.67" r="3.5" fill="#e76f51" fill-opacity="0.62"/>
<circle cx="250.15" cy="507.16" r="3.5" fill="#e76f51" fill-opacity="0.62"/>
<circle cx="262.75" cy="477.92" r="3.5" fill="#e76f51" fill-opacity="0.62"/>
<circle cx="244.75" cy="504.63" r="3.5" fill="#e76f51" fill-opacity="0.62"/>
<line x1="228.75" y1="481.27" x2="278.75" y2="481.27" stroke="#e76f51" stroke-width="5"/>
<text x="253.75" y="571" font-size="13" font-weight="700" text-anchor="middle" fill="#e76f51">poll</text>
<text x="253.75" y="588" font-size="11" font-weight="400" text-anchor="middle" fill="#53636a">20 mm/s</text>
<text x="253.75" y="609" font-size="11" font-weight="600" text-anchor="middle" fill="#263238">mean 80.16</text>
<circle cx="341.85" cy="528.07" r="3.5" fill="#087f8c" fill-opacity="0.62"/>
<circle cx="354.45" cy="528.00" r="3.5" fill="#087f8c" fill-opacity="0.62"/>
<circle cx="367.05" cy="528.00" r="3.5" fill="#087f8c" fill-opacity="0.62"/>
<circle cx="349.05" cy="528.07" r="3.5" fill="#087f8c" fill-opacity="0.62"/>
<circle cx="361.65" cy="528.00" r="3.5" fill="#087f8c" fill-opacity="0.62"/>
<circle cx="343.65" cy="528.07" r="3.5" fill="#087f8c" fill-opacity="0.62"/>
<circle cx="356.25" cy="528.00" r="3.5" fill="#087f8c" fill-opacity="0.62"/>
<circle cx="368.85" cy="528.07" r="3.5" fill="#087f8c" fill-opacity="0.62"/>
<circle cx="350.85" cy="528.00" r="3.5" fill="#087f8c" fill-opacity="0.62"/>
<circle cx="363.45" cy="528.07" r="3.5" fill="#087f8c" fill-opacity="0.62"/>
<circle cx="345.45" cy="528.00" r="3.5" fill="#087f8c" fill-opacity="0.62"/>
<circle cx="358.05" cy="528.00" r="3.5" fill="#087f8c" fill-opacity="0.62"/>
<circle cx="370.65" cy="527.93" r="3.5" fill="#087f8c" fill-opacity="0.62"/>
<circle cx="352.65" cy="528.00" r="3.5" fill="#087f8c" fill-opacity="0.62"/>
<circle cx="365.25" cy="528.07" r="3.5" fill="#087f8c" fill-opacity="0.62"/>
<circle cx="347.25" cy="528.00" r="3.5" fill="#087f8c" fill-opacity="0.62"/>
<line x1="331.25" y1="528.02" x2="381.25" y2="528.02" stroke="#087f8c" stroke-width="5"/>
<text x="356.25" y="571" font-size="13" font-weight="700" text-anchor="middle" fill="#087f8c">ISR</text>
<text x="356.25" y="588" font-size="11" font-weight="400" text-anchor="middle" fill="#53636a">3 mm/s</text>
<text x="356.25" y="609" font-size="11" font-weight="600" text-anchor="middle" fill="#263238">mean 23.14</text>
<circle cx="444.35" cy="374.94" r="3.5" fill="#e76f51" fill-opacity="0.62"/>
<circle cx="456.95" cy="487.41" r="3.5" fill="#e76f51" fill-opacity="0.62"/>
<circle cx="469.55" cy="335.24" r="3.5" fill="#e76f51" fill-opacity="0.62"/>
<circle cx="451.55" cy="195.77" r="3.5" fill="#e76f51" fill-opacity="0.62"/>
<circle cx="464.15" cy="439.99" r="3.5" fill="#e76f51" fill-opacity="0.62"/>
<circle cx="446.15" cy="324.99" r="3.5" fill="#e76f51" fill-opacity="0.62"/>
<circle cx="458.75" cy="262.39" r="3.5" fill="#e76f51" fill-opacity="0.62"/>
<circle cx="471.35" cy="306.53" r="3.5" fill="#e76f51" fill-opacity="0.62"/>
<circle cx="453.35" cy="248.72" r="3.5" fill="#e76f51" fill-opacity="0.62"/>
<circle cx="465.95" cy="502.24" r="3.5" fill="#e76f51" fill-opacity="0.62"/>
<circle cx="447.95" cy="471.63" r="3.5" fill="#e76f51" fill-opacity="0.62"/>
<circle cx="460.55" cy="231.98" r="3.5" fill="#e76f51" fill-opacity="0.62"/>
<circle cx="473.15" cy="175.13" r="3.5" fill="#e76f51" fill-opacity="0.62"/>
<circle cx="455.15" cy="343.44" r="3.5" fill="#e76f51" fill-opacity="0.62"/>
<circle cx="467.75" cy="204.85" r="3.5" fill="#e76f51" fill-opacity="0.62"/>
<circle cx="449.75" cy="327.79" r="3.5" fill="#e76f51" fill-opacity="0.62"/>
<line x1="433.75" y1="327.06" x2="483.75" y2="327.06" stroke="#e76f51" stroke-width="5"/>
<text x="458.75" y="571" font-size="13" font-weight="700" text-anchor="middle" fill="#e76f51">poll</text>
<text x="458.75" y="588" font-size="11" font-weight="400" text-anchor="middle" fill="#53636a">3 mm/s</text>
<text x="458.75" y="609" font-size="11" font-weight="600" text-anchor="middle" fill="#263238">mean 268.21</text>
<text x="53" y="342.0" font-size="12" font-weight="600" text-anchor="middle" fill="#53636a" transform="rotate(-90 53 342.0)">latency (microseconds)</text>
<rect x="550" y="82" width="495" height="535" rx="10" fill="#ffffff" stroke="#d8e0e3"/>
<text x="570" y="112" font-size="18" font-weight="700" text-anchor="start" fill="#263238">Motion after contact</text>
<line x1="615" y1="547.00" x2="1025" y2="547.00" stroke="#e5eaec" stroke-width="1"/>
<text x="606" y="552.0" font-size="12" font-weight="400" text-anchor="end" fill="#53636a">0</text>
<line x1="615" y1="453.82" x2="1025" y2="453.82" stroke="#e5eaec" stroke-width="1"/>
<text x="606" y="458.8181818181818" font-size="12" font-weight="400" text-anchor="end" fill="#53636a">0.5</text>
<line x1="615" y1="360.64" x2="1025" y2="360.64" stroke="#e5eaec" stroke-width="1"/>
<text x="606" y="365.6363636363636" font-size="12" font-weight="400" text-anchor="end" fill="#53636a">1</text>
<line x1="615" y1="267.45" x2="1025" y2="267.45" stroke="#e5eaec" stroke-width="1"/>
<text x="606" y="272.4545454545455" font-size="12" font-weight="400" text-anchor="end" fill="#53636a">1.5</text>
<line x1="615" y1="174.27" x2="1025" y2="174.27" stroke="#e5eaec" stroke-width="1"/>
<text x="606" y="179.27272727272728" font-size="12" font-weight="400" text-anchor="end" fill="#53636a">2</text>
<line x1="615" y1="137" x2="615" y2="547" stroke="#607078" stroke-width="1.5"/>
<line x1="615" y1="547" x2="1025" y2="547" stroke="#607078" stroke-width="1.5"/>
<circle cx="651.85" cy="460.96" r="3.5" fill="#087f8c" fill-opacity="0.62"/>
<circle cx="664.45" cy="460.96" r="3.5" fill="#087f8c" fill-opacity="0.62"/>
<circle cx="677.05" cy="460.65" r="3.5" fill="#087f8c" fill-opacity="0.62"/>
<circle cx="659.05" cy="460.96" r="3.5" fill="#087f8c" fill-opacity="0.62"/>
<circle cx="671.65" cy="460.96" r="3.5" fill="#087f8c" fill-opacity="0.62"/>
<circle cx="653.65" cy="460.96" r="3.5" fill="#087f8c" fill-opacity="0.62"/>
<circle cx="666.25" cy="460.96" r="3.5" fill="#087f8c" fill-opacity="0.62"/>
<circle cx="678.85" cy="460.65" r="3.5" fill="#087f8c" fill-opacity="0.62"/>
<circle cx="660.85" cy="460.96" r="3.5" fill="#087f8c" fill-opacity="0.62"/>
<circle cx="673.45" cy="460.65" r="3.5" fill="#087f8c" fill-opacity="0.62"/>
<circle cx="655.45" cy="460.96" r="3.5" fill="#087f8c" fill-opacity="0.62"/>
<circle cx="668.05" cy="460.96" r="3.5" fill="#087f8c" fill-opacity="0.62"/>
<circle cx="680.65" cy="460.65" r="3.5" fill="#087f8c" fill-opacity="0.62"/>
<circle cx="662.65" cy="460.96" r="3.5" fill="#087f8c" fill-opacity="0.62"/>
<circle cx="675.25" cy="460.65" r="3.5" fill="#087f8c" fill-opacity="0.62"/>
<circle cx="657.25" cy="460.65" r="3.5" fill="#087f8c" fill-opacity="0.62"/>
<line x1="641.25" y1="460.85" x2="691.25" y2="460.85" stroke="#087f8c" stroke-width="5"/>
<text x="666.25" y="571" font-size="13" font-weight="700" text-anchor="middle" fill="#087f8c">ISR</text>
<text x="666.25" y="588" font-size="11" font-weight="400" text-anchor="middle" fill="#53636a">20 mm/s</text>
<text x="666.25" y="609" font-size="11" font-weight="600" text-anchor="middle" fill="#263238">mean 0.46</text>
<circle cx="754.35" cy="215.89" r="3.5" fill="#e76f51" fill-opacity="0.62"/>
<circle cx="766.95" cy="187.32" r="3.5" fill="#e76f51" fill-opacity="0.62"/>
<circle cx="779.55" cy="322.74" r="3.5" fill="#e76f51" fill-opacity="0.62"/>
<circle cx="761.55" cy="182.66" r="3.5" fill="#e76f51" fill-opacity="0.62"/>
<circle cx="774.15" cy="173.65" r="3.5" fill="#e76f51" fill-opacity="0.62"/>
<circle cx="756.15" cy="178.62" r="3.5" fill="#e76f51" fill-opacity="0.62"/>
<circle cx="768.75" cy="202.85" r="3.5" fill="#e76f51" fill-opacity="0.62"/>
<circle cx="781.35" cy="159.36" r="3.5" fill="#e76f51" fill-opacity="0.62"/>
<circle cx="763.35" cy="175.83" r="3.5" fill="#e76f51" fill-opacity="0.62"/>
<circle cx="775.95" cy="316.84" r="3.5" fill="#e76f51" fill-opacity="0.62"/>
<circle cx="757.95" cy="288.89" r="3.5" fill="#e76f51" fill-opacity="0.62"/>
<circle cx="770.55" cy="277.39" r="3.5" fill="#e76f51" fill-opacity="0.62"/>
<circle cx="783.15" cy="336.41" r="3.5" fill="#e76f51" fill-opacity="0.62"/>
<circle cx="765.15" cy="365.92" r="3.5" fill="#e76f51" fill-opacity="0.62"/>
<circle cx="777.75" cy="232.98" r="3.5" fill="#e76f51" fill-opacity="0.62"/>
<circle cx="759.75" cy="354.42" r="3.5" fill="#e76f51" fill-opacity="0.62"/>
<line x1="743.75" y1="248.24" x2="793.75" y2="248.24" stroke="#e76f51" stroke-width="5"/>
<text x="768.75" y="571" font-size="13" font-weight="700" text-anchor="middle" fill="#e76f51">poll</text>
<text x="768.75" y="588" font-size="11" font-weight="400" text-anchor="middle" fill="#53636a">20 mm/s</text>
<text x="768.75" y="609" font-size="11" font-weight="600" text-anchor="middle" fill="#263238">mean 1.60</text>
<circle cx="856.85" cy="534.09" r="3.5" fill="#087f8c" fill-opacity="0.62"/>
<circle cx="869.45" cy="534.05" r="3.5" fill="#087f8c" fill-opacity="0.62"/>
<circle cx="882.05" cy="534.05" r="3.5" fill="#087f8c" fill-opacity="0.62"/>
<circle cx="864.05" cy="534.09" r="3.5" fill="#087f8c" fill-opacity="0.62"/>
<circle cx="876.65" cy="534.05" r="3.5" fill="#087f8c" fill-opacity="0.62"/>
<circle cx="858.65" cy="534.09" r="3.5" fill="#087f8c" fill-opacity="0.62"/>
<circle cx="871.25" cy="534.05" r="3.5" fill="#087f8c" fill-opacity="0.62"/>
<circle cx="883.85" cy="534.09" r="3.5" fill="#087f8c" fill-opacity="0.62"/>
<circle cx="865.85" cy="534.05" r="3.5" fill="#087f8c" fill-opacity="0.62"/>
<circle cx="878.45" cy="534.09" r="3.5" fill="#087f8c" fill-opacity="0.62"/>
<circle cx="860.45" cy="534.05" r="3.5" fill="#087f8c" fill-opacity="0.62"/>
<circle cx="873.05" cy="534.05" r="3.5" fill="#087f8c" fill-opacity="0.62"/>
<circle cx="885.65" cy="534.00" r="3.5" fill="#087f8c" fill-opacity="0.62"/>
<circle cx="867.65" cy="534.05" r="3.5" fill="#087f8c" fill-opacity="0.62"/>
<circle cx="880.25" cy="534.09" r="3.5" fill="#087f8c" fill-opacity="0.62"/>
<circle cx="862.25" cy="534.05" r="3.5" fill="#087f8c" fill-opacity="0.62"/>
<line x1="846.25" y1="534.06" x2="896.25" y2="534.06" stroke="#087f8c" stroke-width="5"/>
<text x="871.25" y="571" font-size="13" font-weight="700" text-anchor="middle" fill="#087f8c">ISR</text>
<text x="871.25" y="588" font-size="11" font-weight="400" text-anchor="middle" fill="#53636a">3 mm/s</text>
<text x="871.25" y="609" font-size="11" font-weight="600" text-anchor="middle" fill="#263238">mean 0.07</text>
<circle cx="959.35" cy="429.68" r="3.5" fill="#e76f51" fill-opacity="0.62"/>
<circle cx="971.95" cy="506.37" r="3.5" fill="#e76f51" fill-opacity="0.62"/>
<circle cx="984.55" cy="402.61" r="3.5" fill="#e76f51" fill-opacity="0.62"/>
<circle cx="966.55" cy="307.52" r="3.5" fill="#e76f51" fill-opacity="0.62"/>
<circle cx="979.15" cy="474.04" r="3.5" fill="#e76f51" fill-opacity="0.62"/>
<circle cx="961.15" cy="395.63" r="3.5" fill="#e76f51" fill-opacity="0.62"/>
<circle cx="973.75" cy="352.95" r="3.5" fill="#e76f51" fill-opacity="0.62"/>
<circle cx="986.35" cy="383.05" r="3.5" fill="#e76f51" fill-opacity="0.62"/>
<circle cx="968.35" cy="343.63" r="3.5" fill="#e76f51" fill-opacity="0.62"/>
<circle cx="980.95" cy="516.48" r="3.5" fill="#e76f51" fill-opacity="0.62"/>
<circle cx="962.95" cy="495.61" r="3.5" fill="#e76f51" fill-opacity="0.62"/>
<circle cx="975.55" cy="332.22" r="3.5" fill="#e76f51" fill-opacity="0.62"/>
<circle cx="988.15" cy="293.45" r="3.5" fill="#e76f51" fill-opacity="0.62"/>
<circle cx="970.15" cy="408.21" r="3.5" fill="#e76f51" fill-opacity="0.62"/>
<circle cx="982.75" cy="313.72" r="3.5" fill="#e76f51" fill-opacity="0.62"/>
<circle cx="964.75" cy="397.54" r="3.5" fill="#e76f51" fill-opacity="0.62"/>
<line x1="948.75" y1="397.04" x2="998.75" y2="397.04" stroke="#e76f51" stroke-width="5"/>
<text x="973.75" y="571" font-size="13" font-weight="700" text-anchor="middle" fill="#e76f51">poll</text>
<text x="973.75" y="588" font-size="11" font-weight="400" text-anchor="middle" fill="#53636a">3 mm/s</text>
<text x="973.75" y="609" font-size="11" font-weight="600" text-anchor="middle" fill="#263238">mean 0.80</text>
<text x="568" y="342.0" font-size="12" font-weight="600" text-anchor="middle" fill="#53636a" transform="rotate(-90 568 342.0)">overrun (micrometers)</text>
<circle cx="365" cy="661" r="5" fill="#087f8c"/>
<text x="378" y="666" font-size="13" font-weight="600" text-anchor="start" fill="#263238">active GPIO ISR</text>
<circle cx="535" cy="661" r="5" fill="#e76f51"/>
<text x="548" y="666" font-size="13" font-weight="600" text-anchor="start" fill="#263238">legacy poller + passive edge timestamp</text>
<text x="540" y="697" font-size="13" font-weight="500" text-anchor="middle" fill="#3d4e55">Both modes stopped every run; the ISR result is the narrow distribution, not merely the smaller mean.</text>
</svg>
