<svg xmlns="http://www.w3.org/2000/svg" viewBox="0 0 1300 640" role="img">
<title>Direct sync line and USB clock-map error</title>
<desc>Physical edge-fit residual compared with USB mapping error.</desc>
<rect width="100%" height="100%" fill="#ffffff"/>
<style>text{font-family:Inter,system-ui,sans-serif;fill:#0f172a}.title{font-size:22px;font-weight:700}.subtitle{font-size:13px;fill:#64748b}.axis{font-size:12px;fill:#64748b}.legend{font-size:12px}</style>
<text x="70.00" y="38.00" class="title" text-anchor="start">A shared edge exposes the USB mapping error directly</text>
<text x="70.00" y="61.00" class="subtitle" text-anchor="start">Pico GPIO24 drives EBB36 PB8; the secondary timestamps the edge in its EXTI interrupt</text>
<line x1="90.00" y1="485.00" x2="790.00" y2="485.00" stroke="#dbe4ee" stroke-width="1.00" opacity="1.000"/>
<text x="78.00" y="489.00" class="axis" text-anchor="end">-5</text>
<line x1="90.00" y1="445.00" x2="790.00" y2="445.00" stroke="#dbe4ee" stroke-width="1.00" opacity="1.000"/>
<text x="78.00" y="449.00" class="axis" text-anchor="end">-4</text>
<line x1="90.00" y1="405.00" x2="790.00" y2="405.00" stroke="#dbe4ee" stroke-width="1.00" opacity="1.000"/>
<text x="78.00" y="409.00" class="axis" text-anchor="end">-3</text>
<line x1="90.00" y1="365.00" x2="790.00" y2="365.00" stroke="#dbe4ee" stroke-width="1.00" opacity="1.000"/>
<text x="78.00" y="369.00" class="axis" text-anchor="end">-2</text>
<line x1="90.00" y1="325.00" x2="790.00" y2="325.00" stroke="#dbe4ee" stroke-width="1.00" opacity="1.000"/>
<text x="78.00" y="329.00" class="axis" text-anchor="end">-1</text>
<line x1="90.00" y1="285.00" x2="790.00" y2="285.00" stroke="#dbe4ee" stroke-width="1.00" opacity="1.000"/>
<text x="78.00" y="289.00" class="axis" text-anchor="end">0</text>
<line x1="90.00" y1="245.00" x2="790.00" y2="245.00" stroke="#dbe4ee" stroke-width="1.00" opacity="1.000"/>
<text x="78.00" y="249.00" class="axis" text-anchor="end">1</text>
<line x1="90.00" y1="205.00" x2="790.00" y2="205.00" stroke="#dbe4ee" stroke-width="1.00" opacity="1.000"/>
<text x="78.00" y="209.00" class="axis" text-anchor="end">2</text>
<line x1="90.00" y1="165.00" x2="790.00" y2="165.00" stroke="#dbe4ee" stroke-width="1.00" opacity="1.000"/>
<text x="78.00" y="169.00" class="axis" text-anchor="end">3</text>
<line x1="90.00" y1="125.00" x2="790.00" y2="125.00" stroke="#dbe4ee" stroke-width="1.00" opacity="1.000"/>
<text x="78.00" y="129.00" class="axis" text-anchor="end">4</text>
<line x1="90.00" y1="285.00" x2="790.00" y2="285.00" stroke="#475569" stroke-width="1.50" opacity="1.000"/>
<line x1="90.00" y1="105.00" x2="90.00" y2="485.00" stroke="#dbe4ee" stroke-width="1.00" opacity="1.000"/>
<text x="90.00" y="508.00" class="axis" text-anchor="middle">1</text>
<line x1="186.55" y1="105.00" x2="186.55" y2="485.00" stroke="#dbe4ee" stroke-width="1.00" opacity="1.000"/>
<text x="186.55" y="508.00" class="axis" text-anchor="middle">5</text>
<line x1="307.24" y1="105.00" x2="307.24" y2="485.00" stroke="#dbe4ee" stroke-width="1.00" opacity="1.000"/>
<text x="307.24" y="508.00" class="axis" text-anchor="middle">10</text>
<line x1="427.93" y1="105.00" x2="427.93" y2="485.00" stroke="#dbe4ee" stroke-width="1.00" opacity="1.000"/>
<text x="427.93" y="508.00" class="axis" text-anchor="middle">15</text>
<line x1="548.62" y1="105.00" x2="548.62" y2="485.00" stroke="#dbe4ee" stroke-width="1.00" opacity="1.000"/>
<text x="548.62" y="508.00" class="axis" text-anchor="middle">20</text>
<line x1="669.31" y1="105.00" x2="669.31" y2="485.00" stroke="#dbe4ee" stroke-width="1.00" opacity="1.000"/>
<text x="669.31" y="508.00" class="axis" text-anchor="middle">25</text>
<line x1="790.00" y1="105.00" x2="790.00" y2="485.00" stroke="#dbe4ee" stroke-width="1.00" opacity="1.000"/>
<text x="790.00" y="508.00" class="axis" text-anchor="middle">30</text>
<polyline points="90.00,273.12 114.14,265.00 138.28,256.88 162.41,249.38 186.55,241.88 210.69,233.12 234.83,226.88 258.97,220.00 283.10,212.50 307.24,205.00 331.38,198.75 355.52,193.75 379.66,188.12 403.79,182.50 427.93,177.50 452.07,173.75 476.21,171.25 500.34,166.88 524.48,163.75 548.62,159.38 572.76,156.25 596.90,152.50 621.03,148.12 645.17,145.00 669.31,141.25 693.45,137.50 717.59,133.75 741.72,131.88 765.86,130.00 790.00,127.50" fill="none" stroke="#2563eb" stroke-width="2.40" stroke-linejoin="round" stroke-linecap="round" opacity="1.000"/>
<circle cx="90.00" cy="273.12" r="2.20" fill="#2563eb" stroke="none" stroke-width="1.00"/>
<circle cx="114.14" cy="265.00" r="2.20" fill="#2563eb" stroke="none" stroke-width="1.00"/>
<circle cx="138.28" cy="256.88" r="2.20" fill="#2563eb" stroke="none" stroke-width="1.00"/>
<circle cx="162.41" cy="249.38" r="2.20" fill="#2563eb" stroke="none" stroke-width="1.00"/>
<circle cx="186.55" cy="241.88" r="2.20" fill="#2563eb" stroke="none" stroke-width="1.00"/>
<circle cx="210.69" cy="233.12" r="2.20" fill="#2563eb" stroke="none" stroke-width="1.00"/>
<circle cx="234.83" cy="226.88" r="2.20" fill="#2563eb" stroke="none" stroke-width="1.00"/>
<circle cx="258.97" cy="220.00" r="2.20" fill="#2563eb" stroke="none" stroke-width="1.00"/>
<circle cx="283.10" cy="212.50" r="2.20" fill="#2563eb" stroke="none" stroke-width="1.00"/>
<circle cx="307.24" cy="205.00" r="2.20" fill="#2563eb" stroke="none" stroke-width="1.00"/>
<circle cx="331.38" cy="198.75" r="2.20" fill="#2563eb" stroke="none" stroke-width="1.00"/>
<circle cx="355.52" cy="193.75" r="2.20" fill="#2563eb" stroke="none" stroke-width="1.00"/>
<circle cx="379.66" cy="188.12" r="2.20" fill="#2563eb" stroke="none" stroke-width="1.00"/>
<circle cx="403.79" cy="182.50" r="2.20" fill="#2563eb" stroke="none" stroke-width="1.00"/>
<circle cx="427.93" cy="177.50" r="2.20" fill="#2563eb" stroke="none" stroke-width="1.00"/>
<circle cx="452.07" cy="173.75" r="2.20" fill="#2563eb" stroke="none" stroke-width="1.00"/>
<circle cx="476.21" cy="171.25" r="2.20" fill="#2563eb" stroke="none" stroke-width="1.00"/>
<circle cx="500.34" cy="166.88" r="2.20" fill="#2563eb" stroke="none" stroke-width="1.00"/>
<circle cx="524.48" cy="163.75" r="2.20" fill="#2563eb" stroke="none" stroke-width="1.00"/>
<circle cx="548.62" cy="159.38" r="2.20" fill="#2563eb" stroke="none" stroke-width="1.00"/>
<circle cx="572.76" cy="156.25" r="2.20" fill="#2563eb" stroke="none" stroke-width="1.00"/>
<circle cx="596.90" cy="152.50" r="2.20" fill="#2563eb" stroke="none" stroke-width="1.00"/>
<circle cx="621.03" cy="148.12" r="2.20" fill="#2563eb" stroke="none" stroke-width="1.00"/>
<circle cx="645.17" cy="145.00" r="2.20" fill="#2563eb" stroke="none" stroke-width="1.00"/>
<circle cx="669.31" cy="141.25" r="2.20" fill="#2563eb" stroke="none" stroke-width="1.00"/>
<circle cx="693.45" cy="137.50" r="2.20" fill="#2563eb" stroke="none" stroke-width="1.00"/>
<circle cx="717.59" cy="133.75" r="2.20" fill="#2563eb" stroke="none" stroke-width="1.00"/>
<circle cx="741.72" cy="131.88" r="2.20" fill="#2563eb" stroke="none" stroke-width="1.00"/>
<circle cx="765.86" cy="130.00" r="2.20" fill="#2563eb" stroke="none" stroke-width="1.00"/>
<circle cx="790.00" cy="127.50" r="2.20" fill="#2563eb" stroke="none" stroke-width="1.00"/>
<polyline points="90.00,272.50 114.14,266.88 138.28,260.62 162.41,255.00 186.55,251.25 210.69,247.50 234.83,243.75 258.97,239.38 283.10,238.12 307.24,236.25 331.38,234.38 355.52,232.50 379.66,231.25 403.79,230.00 427.93,228.12 452.07,227.50 476.21,226.25 500.34,225.62 524.48,225.00 548.62,223.75 572.76,223.12 596.90,222.50 621.03,221.88 645.17,220.62 669.31,220.00 693.45,220.00 717.59,220.00 741.72,218.75 765.86,218.75 790.00,218.75" fill="none" stroke="#059669" stroke-width="2.40" stroke-linejoin="round" stroke-linecap="round" opacity="1.000"/>
<circle cx="90.00" cy="272.50" r="2.20" fill="#059669" stroke="none" stroke-width="1.00"/>
<circle cx="114.14" cy="266.88" r="2.20" fill="#059669" stroke="none" stroke-width="1.00"/>
<circle cx="138.28" cy="260.62" r="2.20" fill="#059669" stroke="none" stroke-width="1.00"/>
<circle cx="162.41" cy="255.00" r="2.20" fill="#059669" stroke="none" stroke-width="1.00"/>
<circle cx="186.55" cy="251.25" r="2.20" fill="#059669" stroke="none" stroke-width="1.00"/>
<circle cx="210.69" cy="247.50" r="2.20" fill="#059669" stroke="none" stroke-width="1.00"/>
<circle cx="234.83" cy="243.75" r="2.20" fill="#059669" stroke="none" stroke-width="1.00"/>
<circle cx="258.97" cy="239.38" r="2.20" fill="#059669" stroke="none" stroke-width="1.00"/>
<circle cx="283.10" cy="238.12" r="2.20" fill="#059669" stroke="none" stroke-width="1.00"/>
<circle cx="307.24" cy="236.25" r="2.20" fill="#059669" stroke="none" stroke-width="1.00"/>
<circle cx="331.38" cy="234.38" r="2.20" fill="#059669" stroke="none" stroke-width="1.00"/>
<circle cx="355.52" cy="232.50" r="2.20" fill="#059669" stroke="none" stroke-width="1.00"/>
<circle cx="379.66" cy="231.25" r="2.20" fill="#059669" stroke="none" stroke-width="1.00"/>
<circle cx="403.79" cy="230.00" r="2.20" fill="#059669" stroke="none" stroke-width="1.00"/>
<circle cx="427.93" cy="228.12" r="2.20" fill="#059669" stroke="none" stroke-width="1.00"/>
<circle cx="452.07" cy="227.50" r="2.20" fill="#059669" stroke="none" stroke-width="1.00"/>
<circle cx="476.21" cy="226.25" r="2.20" fill="#059669" stroke="none" stroke-width="1.00"/>
<circle cx="500.34" cy="225.62" r="2.20" fill="#059669" stroke="none" stroke-width="1.00"/>
<circle cx="524.48" cy="225.00" r="2.20" fill="#059669" stroke="none" stroke-width="1.00"/>
<circle cx="548.62" cy="223.75" r="2.20" fill="#059669" stroke="none" stroke-width="1.00"/>
<circle cx="572.76" cy="223.12" r="2.20" fill="#059669" stroke="none" stroke-width="1.00"/>
<circle cx="596.90" cy="222.50" r="2.20" fill="#059669" stroke="none" stroke-width="1.00"/>
<circle cx="621.03" cy="221.88" r="2.20" fill="#059669" stroke="none" stroke-width="1.00"/>
<circle cx="645.17" cy="220.62" r="2.20" fill="#059669" stroke="none" stroke-width="1.00"/>
<circle cx="669.31" cy="220.00" r="2.20" fill="#059669" stroke="none" stroke-width="1.00"/>
<circle cx="693.45" cy="220.00" r="2.20" fill="#059669" stroke="none" stroke-width="1.00"/>
<circle cx="717.59" cy="220.00" r="2.20" fill="#059669" stroke="none" stroke-width="1.00"/>
<circle cx="741.72" cy="218.75" r="2.20" fill="#059669" stroke="none" stroke-width="1.00"/>
<circle cx="765.86" cy="218.75" r="2.20" fill="#059669" stroke="none" stroke-width="1.00"/>
<circle cx="790.00" cy="218.75" r="2.20" fill="#059669" stroke="none" stroke-width="1.00"/>
<polyline points="90.00,462.50 114.14,463.75 138.28,463.75 162.41,463.75 186.55,464.38 210.69,464.38 234.83,464.38 258.97,465.00 283.10,464.38 307.24,463.12 331.38,460.62 355.52,458.12 379.66,455.62 403.79,452.50 427.93,450.00 452.07,447.50 476.21,444.38 500.34,440.62 524.48,436.88 548.62,433.12 572.76,429.38 596.90,425.00 621.03,421.25 645.17,416.88 669.31,412.50 693.45,408.12 717.59,403.12 741.72,399.38 765.86,394.38 790.00,390.00" fill="none" stroke="#7c3aed" stroke-width="2.40" stroke-linejoin="round" stroke-linecap="round" opacity="1.000"/>
<circle cx="90.00" cy="462.50" r="2.20" fill="#7c3aed" stroke="none" stroke-width="1.00"/>
<circle cx="114.14" cy="463.75" r="2.20" fill="#7c3aed" stroke="none" stroke-width="1.00"/>
<circle cx="138.28" cy="463.75" r="2.20" fill="#7c3aed" stroke="none" stroke-width="1.00"/>
<circle cx="162.41" cy="463.75" r="2.20" fill="#7c3aed" stroke="none" stroke-width="1.00"/>
<circle cx="186.55" cy="464.38" r="2.20" fill="#7c3aed" stroke="none" stroke-width="1.00"/>
<circle cx="210.69" cy="464.38" r="2.20" fill="#7c3aed" stroke="none" stroke-width="1.00"/>
<circle cx="234.83" cy="464.38" r="2.20" fill="#7c3aed" stroke="none" stroke-width="1.00"/>
<circle cx="258.97" cy="465.00" r="2.20" fill="#7c3aed" stroke="none" stroke-width="1.00"/>
<circle cx="283.10" cy="464.38" r="2.20" fill="#7c3aed" stroke="none" stroke-width="1.00"/>
<circle cx="307.24" cy="463.12" r="2.20" fill="#7c3aed" stroke="none" stroke-width="1.00"/>
<circle cx="331.38" cy="460.62" r="2.20" fill="#7c3aed" stroke="none" stroke-width="1.00"/>
<circle cx="355.52" cy="458.12" r="2.20" fill="#7c3aed" stroke="none" stroke-width="1.00"/>
<circle cx="379.66" cy="455.62" r="2.20" fill="#7c3aed" stroke="none" stroke-width="1.00"/>
<circle cx="403.79" cy="452.50" r="2.20" fill="#7c3aed" stroke="none" stroke-width="1.00"/>
<circle cx="427.93" cy="450.00" r="2.20" fill="#7c3aed" stroke="none" stroke-width="1.00"/>
<circle cx="452.07" cy="447.50" r="2.20" fill="#7c3aed" stroke="none" stroke-width="1.00"/>
<circle cx="476.21" cy="444.38" r="2.20" fill="#7c3aed" stroke="none" stroke-width="1.00"/>
<circle cx="500.34" cy="440.62" r="2.20" fill="#7c3aed" stroke="none" stroke-width="1.00"/>
<circle cx="524.48" cy="436.88" r="2.20" fill="#7c3aed" stroke="none" stroke-width="1.00"/>
<circle cx="548.62" cy="433.12" r="2.20" fill="#7c3aed" stroke="none" stroke-width="1.00"/>
<circle cx="572.76" cy="429.38" r="2.20" fill="#7c3aed" stroke="none" stroke-width="1.00"/>
<circle cx="596.90" cy="425.00" r="2.20" fill="#7c3aed" stroke="none" stroke-width="1.00"/>
<circle cx="621.03" cy="421.25" r="2.20" fill="#7c3aed" stroke="none" stroke-width="1.00"/>
<circle cx="645.17" cy="416.88" r="2.20" fill="#7c3aed" stroke="none" stroke-width="1.00"/>
<circle cx="669.31" cy="412.50" r="2.20" fill="#7c3aed" stroke="none" stroke-width="1.00"/>
<circle cx="693.45" cy="408.12" r="2.20" fill="#7c3aed" stroke="none" stroke-width="1.00"/>
<circle cx="717.59" cy="403.12" r="2.20" fill="#7c3aed" stroke="none" stroke-width="1.00"/>
<circle cx="741.72" cy="399.38" r="2.20" fill="#7c3aed" stroke="none" stroke-width="1.00"/>
<circle cx="765.86" cy="394.38" r="2.20" fill="#7c3aed" stroke="none" stroke-width="1.00"/>
<circle cx="790.00" cy="390.00" r="2.20" fill="#7c3aed" stroke="none" stroke-width="1.00"/>
<text x="440.00" y="582.00" class="axis" text-anchor="middle">Captured edge</text>
<text x="25.00" y="295.00" class="axis" text-anchor="middle" transform="rotate(-90 25.00 295.00)">USB-map prediction error (µs)</text>
<text x="965.00" y="116.00" class="axis" text-anchor="start" font-weight="700">Measured variation</text>
<text x="965.00" y="140.00" class="subtitle" text-anchor="start">Population σ, logarithmic scale</text>
<line x1="965.00" y1="174.00" x2="965.00" y2="459.00" stroke="#dbe4ee" stroke-width="1.00" opacity="1.000"/>
<text x="965.00" y="481.00" class="axis" text-anchor="middle">0.001</text>
<line x1="1030.00" y1="174.00" x2="1030.00" y2="459.00" stroke="#dbe4ee" stroke-width="1.00" opacity="1.000"/>
<text x="1030.00" y="481.00" class="axis" text-anchor="middle">0.01</text>
<line x1="1095.00" y1="174.00" x2="1095.00" y2="459.00" stroke="#dbe4ee" stroke-width="1.00" opacity="1.000"/>
<text x="1095.00" y="481.00" class="axis" text-anchor="middle">0.1</text>
<line x1="1160.00" y1="174.00" x2="1160.00" y2="459.00" stroke="#dbe4ee" stroke-width="1.00" opacity="1.000"/>
<text x="1160.00" y="481.00" class="axis" text-anchor="middle">1</text>
<line x1="1225.00" y1="174.00" x2="1225.00" y2="459.00" stroke="#dbe4ee" stroke-width="1.00" opacity="1.000"/>
<text x="1225.00" y="481.00" class="axis" text-anchor="middle">10</text>
<text x="957.00" y="203.00" class="legend" text-anchor="end">Run 1 physical fit</text>
<line x1="965.00" y1="199.00" x2="1017.23" y2="199.00" stroke="#2563eb" stroke-width="9.00" opacity="1.000"/>
<circle cx="1017.23" cy="199.00" r="5.00" fill="#2563eb" stroke="none" stroke-width="1.00"/>
<text x="1026.23" y="203.00" class="legend" text-anchor="start">0.0064 µs</text>
<text x="957.00" y="246.00" class="legend" text-anchor="end">Run 1 USB map</text>
<line x1="965.00" y1="242.00" x2="1162.19" y2="242.00" stroke="#ea580c" stroke-width="9.00" opacity="1.000"/>
<circle cx="1162.19" cy="242.00" r="5.00" fill="#ea580c" stroke="none" stroke-width="1.00"/>
<text x="1171.19" y="246.00" class="legend" text-anchor="start">1.0805 µs</text>
<text x="957.00" y="289.00" class="legend" text-anchor="end">Run 2 physical fit</text>
<line x1="965.00" y1="285.00" x2="1012.01" y2="285.00" stroke="#059669" stroke-width="9.00" opacity="1.000"/>
<circle cx="1012.01" cy="285.00" r="5.00" fill="#059669" stroke="none" stroke-width="1.00"/>
<text x="1021.01" y="289.00" class="legend" text-anchor="start">0.0053 µs</text>
<text x="957.00" y="332.00" class="legend" text-anchor="end">Run 2 USB map</text>
<line x1="965.00" y1="328.00" x2="1132.01" y2="328.00" stroke="#ea580c" stroke-width="9.00" opacity="1.000"/>
<circle cx="1132.01" cy="328.00" r="5.00" fill="#ea580c" stroke="none" stroke-width="1.00"/>
<text x="1141.01" y="332.00" class="legend" text-anchor="start">0.3710 µs</text>
<text x="957.00" y="375.00" class="legend" text-anchor="end">Run 3 physical fit</text>
<line x1="965.00" y1="371.00" x2="1005.02" y2="371.00" stroke="#7c3aed" stroke-width="9.00" opacity="1.000"/>
<circle cx="1005.02" cy="371.00" r="5.00" fill="#7c3aed" stroke="none" stroke-width="1.00"/>
<text x="1014.02" y="375.00" class="legend" text-anchor="start">0.0041 µs</text>
<text x="957.00" y="418.00" class="legend" text-anchor="end">Run 3 USB map</text>
<line x1="965.00" y1="414.00" x2="1145.92" y2="414.00" stroke="#ea580c" stroke-width="9.00" opacity="1.000"/>
<circle cx="1145.92" cy="414.00" r="5.00" fill="#ea580c" stroke="none" stroke-width="1.00"/>
<text x="1154.92" y="418.00" class="legend" text-anchor="start">0.6072 µs</text>
<text x="965.00" y="525.00" class="legend" text-anchor="start" font-weight="700">Physical residual is 70–170× smaller</text>
<text x="965.00" y="547.00" class="legend" text-anchor="start">than the USB-map σ in these runs.</text>
</svg>
