<svg xmlns="http://www.w3.org/2000/svg" viewBox="0 0 1100 620" role="img">
<title>Helix and original Klipper physical skew</title>
<desc>Logic-analyzer edge skew by captured sample after restart.</desc>
<rect width="100%" height="100%" fill="#ffffff"/>
<style>text{font-family:Inter,system-ui,sans-serif;fill:#0f172a}.title{font-size:22px;font-weight:700}.subtitle{font-size:13px;fill:#64748b}.axis{font-size:12px;fill:#64748b}.legend{font-size:12px}</style>
<text x="70.00" y="38.00" class="title" text-anchor="start">Physical skew after restart</text>
<text x="70.00" y="61.00" class="subtitle" text-anchor="start">Same Pico GPIO24 / EBB36 PB8 rig at 24 MHz; green band is the original ±10 µs design objective</text>
<rect x="95.00" y="299.76" width="720.00" height="204.76" fill="#dcfce7" stroke="none" stroke-width="1.00" opacity="1.000" rx="0.00"/>
<line x1="95.00" y1="504.52" x2="815.00" y2="504.52" stroke="#dbe4ee" stroke-width="1.00" opacity="1.000"/>
<text x="83.00" y="508.52" class="axis" text-anchor="end">-10</text>
<line x1="95.00" y1="453.33" x2="815.00" y2="453.33" stroke="#dbe4ee" stroke-width="1.00" opacity="1.000"/>
<text x="83.00" y="457.33" class="axis" text-anchor="end">-5</text>
<line x1="95.00" y1="402.14" x2="815.00" y2="402.14" stroke="#dbe4ee" stroke-width="1.00" opacity="1.000"/>
<text x="83.00" y="406.14" class="axis" text-anchor="end">0</text>
<line x1="95.00" y1="350.95" x2="815.00" y2="350.95" stroke="#dbe4ee" stroke-width="1.00" opacity="1.000"/>
<text x="83.00" y="354.95" class="axis" text-anchor="end">5</text>
<line x1="95.00" y1="299.76" x2="815.00" y2="299.76" stroke="#dbe4ee" stroke-width="1.00" opacity="1.000"/>
<text x="83.00" y="303.76" class="axis" text-anchor="end">10</text>
<line x1="95.00" y1="248.57" x2="815.00" y2="248.57" stroke="#dbe4ee" stroke-width="1.00" opacity="1.000"/>
<text x="83.00" y="252.57" class="axis" text-anchor="end">15</text>
<line x1="95.00" y1="197.38" x2="815.00" y2="197.38" stroke="#dbe4ee" stroke-width="1.00" opacity="1.000"/>
<text x="83.00" y="201.38" class="axis" text-anchor="end">20</text>
<line x1="95.00" y1="146.19" x2="815.00" y2="146.19" stroke="#dbe4ee" stroke-width="1.00" opacity="1.000"/>
<text x="83.00" y="150.19" class="axis" text-anchor="end">25</text>
<line x1="95.00" y1="95.00" x2="815.00" y2="95.00" stroke="#dbe4ee" stroke-width="1.00" opacity="1.000"/>
<text x="83.00" y="99.00" class="axis" text-anchor="end">30</text>
<line x1="95.00" y1="95.00" x2="95.00" y2="525.00" stroke="#dbe4ee" stroke-width="1.00" opacity="1.000"/>
<text x="95.00" y="547.00" class="axis" text-anchor="middle">1</text>
<line x1="194.31" y1="95.00" x2="194.31" y2="525.00" stroke="#dbe4ee" stroke-width="1.00" opacity="1.000"/>
<text x="194.31" y="547.00" class="axis" text-anchor="middle">5</text>
<line x1="318.45" y1="95.00" x2="318.45" y2="525.00" stroke="#dbe4ee" stroke-width="1.00" opacity="1.000"/>
<text x="318.45" y="547.00" class="axis" text-anchor="middle">10</text>
<line x1="442.59" y1="95.00" x2="442.59" y2="525.00" stroke="#dbe4ee" stroke-width="1.00" opacity="1.000"/>
<text x="442.59" y="547.00" class="axis" text-anchor="middle">15</text>
<line x1="566.72" y1="95.00" x2="566.72" y2="525.00" stroke="#dbe4ee" stroke-width="1.00" opacity="1.000"/>
<text x="566.72" y="547.00" class="axis" text-anchor="middle">20</text>
<line x1="690.86" y1="95.00" x2="690.86" y2="525.00" stroke="#dbe4ee" stroke-width="1.00" opacity="1.000"/>
<text x="690.86" y="547.00" class="axis" text-anchor="middle">25</text>
<line x1="815.00" y1="95.00" x2="815.00" y2="525.00" stroke="#dbe4ee" stroke-width="1.00" opacity="1.000"/>
<text x="815.00" y="547.00" class="axis" text-anchor="middle">30</text>
<line x1="95.00" y1="402.14" x2="815.00" y2="402.14" stroke="#475569" stroke-width="1.50" opacity="1.000"/>
<text x="455.00" y="572.00" class="axis" text-anchor="middle">Successful captured edge</text>
<text x="25.00" y="310.00" class="axis" text-anchor="middle" transform="rotate(-90 25.00 310.00)">Pico minus EBB36 edge skew (µs)</text>
<polyline points="95.00,432.43 119.83,434.56 144.66,435.42 169.48,434.56 194.31,420.06 219.14,406.41 243.97,392.33 268.79,379.53 293.62,373.99 318.45,370.15 343.28,368.87 368.10,368.44 392.93,371.86 417.76,377.83 442.59,386.79 467.41,378.68 492.24,374.84 517.07,371.86 541.90,370.58 566.72,365.46 591.55,367.16 616.38,366.31 641.21,364.18 666.03,359.48 690.86,359.48 715.69,359.06 740.52,366.74 765.34,368.02 790.17,371.43 815.00,373.99" fill="none" stroke="#2563eb" stroke-width="1.80" stroke-linejoin="round" stroke-linecap="round" opacity="0.950"/>
<circle cx="95.00" cy="432.43" r="2.20" fill="#2563eb" stroke="none" stroke-width="1.00"/>
<circle cx="119.83" cy="434.56" r="2.20" fill="#2563eb" stroke="none" stroke-width="1.00"/>
<circle cx="144.66" cy="435.42" r="2.20" fill="#2563eb" stroke="none" stroke-width="1.00"/>
<circle cx="169.48" cy="434.56" r="2.20" fill="#2563eb" stroke="none" stroke-width="1.00"/>
<circle cx="194.31" cy="420.06" r="2.20" fill="#2563eb" stroke="none" stroke-width="1.00"/>
<circle cx="219.14" cy="406.41" r="2.20" fill="#2563eb" stroke="none" stroke-width="1.00"/>
<circle cx="243.97" cy="392.33" r="2.20" fill="#2563eb" stroke="none" stroke-width="1.00"/>
<circle cx="268.79" cy="379.53" r="2.20" fill="#2563eb" stroke="none" stroke-width="1.00"/>
<circle cx="293.62" cy="373.99" r="2.20" fill="#2563eb" stroke="none" stroke-width="1.00"/>
<circle cx="318.45" cy="370.15" r="2.20" fill="#2563eb" stroke="none" stroke-width="1.00"/>
<circle cx="343.28" cy="368.87" r="2.20" fill="#2563eb" stroke="none" stroke-width="1.00"/>
<circle cx="368.10" cy="368.44" r="2.20" fill="#2563eb" stroke="none" stroke-width="1.00"/>
<circle cx="392.93" cy="371.86" r="2.20" fill="#2563eb" stroke="none" stroke-width="1.00"/>
<circle cx="417.76" cy="377.83" r="2.20" fill="#2563eb" stroke="none" stroke-width="1.00"/>
<circle cx="442.59" cy="386.79" r="2.20" fill="#2563eb" stroke="none" stroke-width="1.00"/>
<circle cx="467.41" cy="378.68" r="2.20" fill="#2563eb" stroke="none" stroke-width="1.00"/>
<circle cx="492.24" cy="374.84" r="2.20" fill="#2563eb" stroke="none" stroke-width="1.00"/>
<circle cx="517.07" cy="371.86" r="2.20" fill="#2563eb" stroke="none" stroke-width="1.00"/>
<circle cx="541.90" cy="370.58" r="2.20" fill="#2563eb" stroke="none" stroke-width="1.00"/>
<circle cx="566.72" cy="365.46" r="2.20" fill="#2563eb" stroke="none" stroke-width="1.00"/>
<circle cx="591.55" cy="367.16" r="2.20" fill="#2563eb" stroke="none" stroke-width="1.00"/>
<circle cx="616.38" cy="366.31" r="2.20" fill="#2563eb" stroke="none" stroke-width="1.00"/>
<circle cx="641.21" cy="364.18" r="2.20" fill="#2563eb" stroke="none" stroke-width="1.00"/>
<circle cx="666.03" cy="359.48" r="2.20" fill="#2563eb" stroke="none" stroke-width="1.00"/>
<circle cx="690.86" cy="359.48" r="2.20" fill="#2563eb" stroke="none" stroke-width="1.00"/>
<circle cx="715.69" cy="359.06" r="2.20" fill="#2563eb" stroke="none" stroke-width="1.00"/>
<circle cx="740.52" cy="366.74" r="2.20" fill="#2563eb" stroke="none" stroke-width="1.00"/>
<circle cx="765.34" cy="368.02" r="2.20" fill="#2563eb" stroke="none" stroke-width="1.00"/>
<circle cx="790.17" cy="371.43" r="2.20" fill="#2563eb" stroke="none" stroke-width="1.00"/>
<circle cx="815.00" cy="373.99" r="2.20" fill="#2563eb" stroke="none" stroke-width="1.00"/>
<polyline points="95.00,436.70 119.83,423.47 144.66,413.23 169.48,411.53 194.31,420.49 219.14,427.31 243.97,425.61 268.79,404.28 293.62,390.20 318.45,389.77 343.28,391.05 368.10,379.96 392.93,368.44 417.76,371.43 442.59,370.15 467.41,368.02 492.24,365.03 517.07,403.00 541.90,411.10 566.72,414.09" fill="none" stroke="#0891b2" stroke-width="1.80" stroke-linejoin="round" stroke-linecap="round" opacity="0.950"/>
<circle cx="95.00" cy="436.70" r="2.20" fill="#0891b2" stroke="none" stroke-width="1.00"/>
<circle cx="119.83" cy="423.47" r="2.20" fill="#0891b2" stroke="none" stroke-width="1.00"/>
<circle cx="144.66" cy="413.23" r="2.20" fill="#0891b2" stroke="none" stroke-width="1.00"/>
<circle cx="169.48" cy="411.53" r="2.20" fill="#0891b2" stroke="none" stroke-width="1.00"/>
<circle cx="194.31" cy="420.49" r="2.20" fill="#0891b2" stroke="none" stroke-width="1.00"/>
<circle cx="219.14" cy="427.31" r="2.20" fill="#0891b2" stroke="none" stroke-width="1.00"/>
<circle cx="243.97" cy="425.61" r="2.20" fill="#0891b2" stroke="none" stroke-width="1.00"/>
<circle cx="268.79" cy="404.28" r="2.20" fill="#0891b2" stroke="none" stroke-width="1.00"/>
<circle cx="293.62" cy="390.20" r="2.20" fill="#0891b2" stroke="none" stroke-width="1.00"/>
<circle cx="318.45" cy="389.77" r="2.20" fill="#0891b2" stroke="none" stroke-width="1.00"/>
<circle cx="343.28" cy="391.05" r="2.20" fill="#0891b2" stroke="none" stroke-width="1.00"/>
<circle cx="368.10" cy="379.96" r="2.20" fill="#0891b2" stroke="none" stroke-width="1.00"/>
<circle cx="392.93" cy="368.44" r="2.20" fill="#0891b2" stroke="none" stroke-width="1.00"/>
<circle cx="417.76" cy="371.43" r="2.20" fill="#0891b2" stroke="none" stroke-width="1.00"/>
<circle cx="442.59" cy="370.15" r="2.20" fill="#0891b2" stroke="none" stroke-width="1.00"/>
<circle cx="467.41" cy="368.02" r="2.20" fill="#0891b2" stroke="none" stroke-width="1.00"/>
<circle cx="492.24" cy="365.03" r="2.20" fill="#0891b2" stroke="none" stroke-width="1.00"/>
<circle cx="517.07" cy="403.00" r="2.20" fill="#0891b2" stroke="none" stroke-width="1.00"/>
<circle cx="541.90" cy="411.10" r="2.20" fill="#0891b2" stroke="none" stroke-width="1.00"/>
<circle cx="566.72" cy="414.09" r="2.20" fill="#0891b2" stroke="none" stroke-width="1.00"/>
<polyline points="95.00,396.60 119.83,390.62 144.66,390.62 169.48,388.07 194.31,391.05 219.14,394.89 243.97,379.11 268.79,372.71 293.62,369.72 318.45,368.87 343.28,374.84 368.10,392.33 392.93,412.81 417.76,414.09 442.59,425.18 467.41,432.43 492.24,450.35 517.07,443.52 541.90,437.55 566.72,415.37" fill="none" stroke="#7c3aed" stroke-width="1.80" stroke-linejoin="round" stroke-linecap="round" opacity="0.950"/>
<circle cx="95.00" cy="396.60" r="2.20" fill="#7c3aed" stroke="none" stroke-width="1.00"/>
<circle cx="119.83" cy="390.62" r="2.20" fill="#7c3aed" stroke="none" stroke-width="1.00"/>
<circle cx="144.66" cy="390.62" r="2.20" fill="#7c3aed" stroke="none" stroke-width="1.00"/>
<circle cx="169.48" cy="388.07" r="2.20" fill="#7c3aed" stroke="none" stroke-width="1.00"/>
<circle cx="194.31" cy="391.05" r="2.20" fill="#7c3aed" stroke="none" stroke-width="1.00"/>
<circle cx="219.14" cy="394.89" r="2.20" fill="#7c3aed" stroke="none" stroke-width="1.00"/>
<circle cx="243.97" cy="379.11" r="2.20" fill="#7c3aed" stroke="none" stroke-width="1.00"/>
<circle cx="268.79" cy="372.71" r="2.20" fill="#7c3aed" stroke="none" stroke-width="1.00"/>
<circle cx="293.62" cy="369.72" r="2.20" fill="#7c3aed" stroke="none" stroke-width="1.00"/>
<circle cx="318.45" cy="368.87" r="2.20" fill="#7c3aed" stroke="none" stroke-width="1.00"/>
<circle cx="343.28" cy="374.84" r="2.20" fill="#7c3aed" stroke="none" stroke-width="1.00"/>
<circle cx="368.10" cy="392.33" r="2.20" fill="#7c3aed" stroke="none" stroke-width="1.00"/>
<circle cx="392.93" cy="412.81" r="2.20" fill="#7c3aed" stroke="none" stroke-width="1.00"/>
<circle cx="417.76" cy="414.09" r="2.20" fill="#7c3aed" stroke="none" stroke-width="1.00"/>
<circle cx="442.59" cy="425.18" r="2.20" fill="#7c3aed" stroke="none" stroke-width="1.00"/>
<circle cx="467.41" cy="432.43" r="2.20" fill="#7c3aed" stroke="none" stroke-width="1.00"/>
<circle cx="492.24" cy="450.35" r="2.20" fill="#7c3aed" stroke="none" stroke-width="1.00"/>
<circle cx="517.07" cy="443.52" r="2.20" fill="#7c3aed" stroke="none" stroke-width="1.00"/>
<circle cx="541.90" cy="437.55" r="2.20" fill="#7c3aed" stroke="none" stroke-width="1.00"/>
<circle cx="566.72" cy="415.37" r="2.20" fill="#7c3aed" stroke="none" stroke-width="1.00"/>
<polyline points="95.00,455.04 119.83,421.34 144.66,408.54 169.48,405.98 194.31,403.85 219.14,400.44 243.97,399.58 268.79,397.02 293.62,392.76 318.45,388.07 343.28,385.08 368.10,381.67 392.93,378.68 417.76,373.99 442.59,368.44 467.41,373.56 492.24,376.55 517.07,354.37 541.90,307.44 566.72,290.80" fill="none" stroke="#059669" stroke-width="1.80" stroke-linejoin="round" stroke-linecap="round" opacity="0.950"/>
<circle cx="95.00" cy="455.04" r="2.20" fill="#059669" stroke="none" stroke-width="1.00"/>
<circle cx="119.83" cy="421.34" r="2.20" fill="#059669" stroke="none" stroke-width="1.00"/>
<circle cx="144.66" cy="408.54" r="2.20" fill="#059669" stroke="none" stroke-width="1.00"/>
<circle cx="169.48" cy="405.98" r="2.20" fill="#059669" stroke="none" stroke-width="1.00"/>
<circle cx="194.31" cy="403.85" r="2.20" fill="#059669" stroke="none" stroke-width="1.00"/>
<circle cx="219.14" cy="400.44" r="2.20" fill="#059669" stroke="none" stroke-width="1.00"/>
<circle cx="243.97" cy="399.58" r="2.20" fill="#059669" stroke="none" stroke-width="1.00"/>
<circle cx="268.79" cy="397.02" r="2.20" fill="#059669" stroke="none" stroke-width="1.00"/>
<circle cx="293.62" cy="392.76" r="2.20" fill="#059669" stroke="none" stroke-width="1.00"/>
<circle cx="318.45" cy="388.07" r="2.20" fill="#059669" stroke="none" stroke-width="1.00"/>
<circle cx="343.28" cy="385.08" r="2.20" fill="#059669" stroke="none" stroke-width="1.00"/>
<circle cx="368.10" cy="381.67" r="2.20" fill="#059669" stroke="none" stroke-width="1.00"/>
<circle cx="392.93" cy="378.68" r="2.20" fill="#059669" stroke="none" stroke-width="1.00"/>
<circle cx="417.76" cy="373.99" r="2.20" fill="#059669" stroke="none" stroke-width="1.00"/>
<circle cx="442.59" cy="368.44" r="2.20" fill="#059669" stroke="none" stroke-width="1.00"/>
<circle cx="467.41" cy="373.56" r="2.20" fill="#059669" stroke="none" stroke-width="1.00"/>
<circle cx="492.24" cy="376.55" r="2.20" fill="#059669" stroke="none" stroke-width="1.00"/>
<circle cx="517.07" cy="354.37" r="2.20" fill="#059669" stroke="none" stroke-width="1.00"/>
<circle cx="541.90" cy="307.44" r="2.20" fill="#059669" stroke="none" stroke-width="1.00"/>
<circle cx="566.72" cy="290.80" r="2.20" fill="#059669" stroke="none" stroke-width="1.00"/>
<polyline points="95.00,129.13 119.83,139.79 144.66,170.51 169.48,181.60 194.31,190.56 219.14,248.14 243.97,266.06 268.79,287.82 293.62,321.52 318.45,330.05 343.28,321.09 368.10,326.21 392.93,330.90 417.76,329.62 442.59,332.61 467.41,342.42 492.24,348.39 517.07,354.79 541.90,363.32 566.72,371.43 591.55,382.95 616.38,383.80 641.21,386.79 666.03,386.79 690.86,385.08 715.69,385.51 740.52,383.37 765.34,383.37 790.17,370.58 815.00,363.32" fill="none" stroke="#ea580c" stroke-width="2.20" stroke-linejoin="round" stroke-linecap="round" opacity="0.950" stroke-dasharray="7 4"/>
<circle cx="95.00" cy="129.13" r="2.20" fill="#ea580c" stroke="none" stroke-width="1.00"/>
<circle cx="119.83" cy="139.79" r="2.20" fill="#ea580c" stroke="none" stroke-width="1.00"/>
<circle cx="144.66" cy="170.51" r="2.20" fill="#ea580c" stroke="none" stroke-width="1.00"/>
<circle cx="169.48" cy="181.60" r="2.20" fill="#ea580c" stroke="none" stroke-width="1.00"/>
<circle cx="194.31" cy="190.56" r="2.20" fill="#ea580c" stroke="none" stroke-width="1.00"/>
<circle cx="219.14" cy="248.14" r="2.20" fill="#ea580c" stroke="none" stroke-width="1.00"/>
<circle cx="243.97" cy="266.06" r="2.20" fill="#ea580c" stroke="none" stroke-width="1.00"/>
<circle cx="268.79" cy="287.82" r="2.20" fill="#ea580c" stroke="none" stroke-width="1.00"/>
<circle cx="293.62" cy="321.52" r="2.20" fill="#ea580c" stroke="none" stroke-width="1.00"/>
<circle cx="318.45" cy="330.05" r="2.20" fill="#ea580c" stroke="none" stroke-width="1.00"/>
<circle cx="343.28" cy="321.09" r="2.20" fill="#ea580c" stroke="none" stroke-width="1.00"/>
<circle cx="368.10" cy="326.21" r="2.20" fill="#ea580c" stroke="none" stroke-width="1.00"/>
<circle cx="392.93" cy="330.90" r="2.20" fill="#ea580c" stroke="none" stroke-width="1.00"/>
<circle cx="417.76" cy="329.62" r="2.20" fill="#ea580c" stroke="none" stroke-width="1.00"/>
<circle cx="442.59" cy="332.61" r="2.20" fill="#ea580c" stroke="none" stroke-width="1.00"/>
<circle cx="467.41" cy="342.42" r="2.20" fill="#ea580c" stroke="none" stroke-width="1.00"/>
<circle cx="492.24" cy="348.39" r="2.20" fill="#ea580c" stroke="none" stroke-width="1.00"/>
<circle cx="517.07" cy="354.79" r="2.20" fill="#ea580c" stroke="none" stroke-width="1.00"/>
<circle cx="541.90" cy="363.32" r="2.20" fill="#ea580c" stroke="none" stroke-width="1.00"/>
<circle cx="566.72" cy="371.43" r="2.20" fill="#ea580c" stroke="none" stroke-width="1.00"/>
<circle cx="591.55" cy="382.95" r="2.20" fill="#ea580c" stroke="none" stroke-width="1.00"/>
<circle cx="616.38" cy="383.80" r="2.20" fill="#ea580c" stroke="none" stroke-width="1.00"/>
<circle cx="641.21" cy="386.79" r="2.20" fill="#ea580c" stroke="none" stroke-width="1.00"/>
<circle cx="666.03" cy="386.79" r="2.20" fill="#ea580c" stroke="none" stroke-width="1.00"/>
<circle cx="690.86" cy="385.08" r="2.20" fill="#ea580c" stroke="none" stroke-width="1.00"/>
<circle cx="715.69" cy="385.51" r="2.20" fill="#ea580c" stroke="none" stroke-width="1.00"/>
<circle cx="740.52" cy="383.37" r="2.20" fill="#ea580c" stroke="none" stroke-width="1.00"/>
<circle cx="765.34" cy="383.37" r="2.20" fill="#ea580c" stroke="none" stroke-width="1.00"/>
<circle cx="790.17" cy="370.58" r="2.20" fill="#ea580c" stroke="none" stroke-width="1.00"/>
<circle cx="815.00" cy="363.32" r="2.20" fill="#ea580c" stroke="none" stroke-width="1.00"/>
<line x1="845.00" y1="112.00" x2="875.00" y2="112.00" stroke="#2563eb" stroke-width="3.00" opacity="1.000"/>
<text x="885.00" y="116.00" class="legend" text-anchor="start">Helix RR session 1</text>
<line x1="845.00" y1="141.00" x2="875.00" y2="141.00" stroke="#0891b2" stroke-width="3.00" opacity="1.000"/>
<text x="885.00" y="145.00" class="legend" text-anchor="start">Helix RR session 2</text>
<line x1="845.00" y1="170.00" x2="875.00" y2="170.00" stroke="#7c3aed" stroke-width="3.00" opacity="1.000"/>
<text x="885.00" y="174.00" class="legend" text-anchor="start">Helix RR session 3</text>
<line x1="845.00" y1="199.00" x2="875.00" y2="199.00" stroke="#059669" stroke-width="3.00" opacity="1.000"/>
<text x="885.00" y="203.00" class="legend" text-anchor="start">Helix RR session 4</text>
<line x1="845.00" y1="228.00" x2="875.00" y2="228.00" stroke="#ea580c" stroke-width="3.00" opacity="1.000" stroke-dasharray="7 4"/>
<text x="885.00" y="232.00" class="legend" text-anchor="start">Original Klipper comparator</text>
<text x="845.00" y="295.00" class="axis" text-anchor="start" font-weight="700">Interpretation</text>
<text x="845.00" y="322.00" class="legend" text-anchor="start">Helix pooled: +1.12 µs mean</text>
<text x="845.00" y="342.00" class="legend" text-anchor="start">2.75 µs population σ</text>
<text x="845.00" y="362.00" class="legend" text-anchor="start">−5.17 to +10.88 µs observed</text>
<text x="845.00" y="382.00" class="legend" text-anchor="start"></text>
<text x="845.00" y="402.00" class="legend" text-anchor="start">Original Klipper: +8.36 µs mean</text>
<text x="845.00" y="422.00" class="legend" text-anchor="start">7.60 µs population σ</text>
<text x="845.00" y="442.00" class="legend" text-anchor="start">+1.50 to +26.67 µs observed</text>
<text x="845.00" y="462.00" class="legend" text-anchor="start"></text>
<text x="845.00" y="482.00" class="legend" text-anchor="start">Both mappings settle statistically;</text>
<text x="845.00" y="502.00" class="legend" text-anchor="start">neither exposes a hard USB bound.</text>
</svg>
