<svg xmlns="http://www.w3.org/2000/svg" viewBox="0 0 1350 620" role="img">
<title>Clock skew translated to path phase</title>
<desc>Path distance corresponding to time skew over print speed.</desc>
<rect width="100%" height="100%" fill="#ffffff"/>
<style>text{font-family:Inter,system-ui,sans-serif;fill:#0f172a}.title{font-size:22px;font-weight:700}.subtitle{font-size:13px;fill:#64748b}.axis{font-size:12px;fill:#64748b}.legend{font-size:12px}</style>
<text x="70.00" y="38.00" class="title" text-anchor="start">What the timing numbers mean along a printed path</text>
<text x="70.00" y="61.00" class="subtitle" text-anchor="start">Distance = speed × |skew|. This is a phase shift, not cumulative position or extrusion loss.</text>
<line x1="95.00" y1="100.00" x2="95.00" y2="520.00" stroke="#dbe4ee" stroke-width="1.00" opacity="1.000"/>
<text x="95.00" y="543.00" class="axis" text-anchor="middle">0</text>
<line x1="239.00" y1="100.00" x2="239.00" y2="520.00" stroke="#dbe4ee" stroke-width="1.00" opacity="1.000"/>
<text x="239.00" y="543.00" class="axis" text-anchor="middle">100</text>
<line x1="383.00" y1="100.00" x2="383.00" y2="520.00" stroke="#dbe4ee" stroke-width="1.00" opacity="1.000"/>
<text x="383.00" y="543.00" class="axis" text-anchor="middle">200</text>
<line x1="527.00" y1="100.00" x2="527.00" y2="520.00" stroke="#dbe4ee" stroke-width="1.00" opacity="1.000"/>
<text x="527.00" y="543.00" class="axis" text-anchor="middle">300</text>
<line x1="671.00" y1="100.00" x2="671.00" y2="520.00" stroke="#dbe4ee" stroke-width="1.00" opacity="1.000"/>
<text x="671.00" y="543.00" class="axis" text-anchor="middle">400</text>
<line x1="815.00" y1="100.00" x2="815.00" y2="520.00" stroke="#dbe4ee" stroke-width="1.00" opacity="1.000"/>
<text x="815.00" y="543.00" class="axis" text-anchor="middle">500</text>
<line x1="95.00" y1="520.00" x2="815.00" y2="520.00" stroke="#dbe4ee" stroke-width="1.00" opacity="1.000"/>
<text x="83.00" y="524.00" class="axis" text-anchor="end">0.000</text>
<line x1="95.00" y1="478.00" x2="815.00" y2="478.00" stroke="#dbe4ee" stroke-width="1.00" opacity="1.000"/>
<text x="83.00" y="482.00" class="axis" text-anchor="end">0.005</text>
<line x1="95.00" y1="436.00" x2="815.00" y2="436.00" stroke="#dbe4ee" stroke-width="1.00" opacity="1.000"/>
<text x="83.00" y="440.00" class="axis" text-anchor="end">0.010</text>
<line x1="95.00" y1="394.00" x2="815.00" y2="394.00" stroke="#dbe4ee" stroke-width="1.00" opacity="1.000"/>
<text x="83.00" y="398.00" class="axis" text-anchor="end">0.015</text>
<line x1="95.00" y1="352.00" x2="815.00" y2="352.00" stroke="#dbe4ee" stroke-width="1.00" opacity="1.000"/>
<text x="83.00" y="356.00" class="axis" text-anchor="end">0.020</text>
<line x1="95.00" y1="310.00" x2="815.00" y2="310.00" stroke="#dbe4ee" stroke-width="1.00" opacity="1.000"/>
<text x="83.00" y="314.00" class="axis" text-anchor="end">0.025</text>
<line x1="95.00" y1="268.00" x2="815.00" y2="268.00" stroke="#dbe4ee" stroke-width="1.00" opacity="1.000"/>
<text x="83.00" y="272.00" class="axis" text-anchor="end">0.030</text>
<line x1="95.00" y1="226.00" x2="815.00" y2="226.00" stroke="#dbe4ee" stroke-width="1.00" opacity="1.000"/>
<text x="83.00" y="230.00" class="axis" text-anchor="end">0.035</text>
<line x1="95.00" y1="184.00" x2="815.00" y2="184.00" stroke="#dbe4ee" stroke-width="1.00" opacity="1.000"/>
<text x="83.00" y="188.00" class="axis" text-anchor="end">0.040</text>
<line x1="95.00" y1="142.00" x2="815.00" y2="142.00" stroke="#dbe4ee" stroke-width="1.00" opacity="1.000"/>
<text x="83.00" y="146.00" class="axis" text-anchor="end">0.045</text>
<line x1="95.00" y1="100.00" x2="815.00" y2="100.00" stroke="#dbe4ee" stroke-width="1.00" opacity="1.000"/>
<text x="83.00" y="104.00" class="axis" text-anchor="end">0.050</text>
<text x="455.00" y="572.00" class="axis" text-anchor="middle">Toolhead speed (mm/s)</text>
<text x="24.00" y="310.00" class="axis" text-anchor="middle" transform="rotate(-90 24.00 310.00)">Equivalent path-phase distance (mm)</text>
<polyline points="95.00,520.00 109.40,519.91 123.80,519.81 138.20,519.72 152.60,519.62 167.00,519.53 181.40,519.43 195.80,519.34 210.20,519.25 224.60,519.15 239.00,519.06 253.40,518.96 267.80,518.87 282.20,518.78 296.60,518.68 311.00,518.59 325.40,518.49 339.80,518.40 354.20,518.30 368.60,518.21 383.00,518.12 397.40,518.02 411.80,517.93 426.20,517.83 440.60,517.74 455.00,517.64 469.40,517.55 483.80,517.46 498.20,517.36 512.60,517.27 527.00,517.17 541.40,517.08 555.80,516.98 570.20,516.89 584.60,516.80 599.00,516.70 613.40,516.61 627.80,516.51 642.20,516.42 656.60,516.33 671.00,516.23 685.40,516.14 699.80,516.04 714.20,515.95 728.60,515.85 743.00,515.76 757.40,515.67 771.80,515.57 786.20,515.48 800.60,515.38 815.00,515.29" fill="none" stroke="#2563eb" stroke-width="2.40" stroke-linejoin="round" stroke-linecap="round" opacity="1.000"/>
<polyline points="95.00,520.00 109.40,519.77 123.80,519.54 138.20,519.31 152.60,519.08 167.00,518.84 181.40,518.61 195.80,518.38 210.20,518.15 224.60,517.92 239.00,517.69 253.40,517.46 267.80,517.23 282.20,517.00 296.60,516.76 311.00,516.53 325.40,516.30 339.80,516.07 354.20,515.84 368.60,515.61 383.00,515.38 397.40,515.15 411.80,514.92 426.20,514.68 440.60,514.45 455.00,514.22 469.40,513.99 483.80,513.76 498.20,513.53 512.60,513.30 527.00,513.07 541.40,512.84 555.80,512.60 570.20,512.37 584.60,512.14 599.00,511.91 613.40,511.68 627.80,511.45 642.20,511.22 656.60,510.99 671.00,510.76 685.40,510.52 699.80,510.29 714.20,510.06 728.60,509.83 743.00,509.60 757.40,509.37 771.80,509.14 786.20,508.91 800.60,508.68 815.00,508.44" fill="none" stroke="#0891b2" stroke-width="2.40" stroke-linejoin="round" stroke-linecap="round" opacity="1.000"/>
<polyline points="95.00,520.00 109.40,519.09 123.80,518.17 138.20,517.26 152.60,516.35 167.00,515.43 181.40,514.52 195.80,513.61 210.20,512.69 224.60,511.78 239.00,510.87 253.40,509.95 267.80,509.04 282.20,508.12 296.60,507.21 311.00,506.30 325.40,505.38 339.80,504.47 354.20,503.56 368.60,502.64 383.00,501.73 397.40,500.82 411.80,499.90 426.20,498.99 440.60,498.08 455.00,497.16 469.40,496.25 483.80,495.34 498.20,494.42 512.60,493.51 527.00,492.59 541.40,491.68 555.80,490.77 570.20,489.85 584.60,488.94 599.00,488.03 613.40,487.11 627.80,486.20 642.20,485.29 656.60,484.37 671.00,483.46 685.40,482.55 699.80,481.63 714.20,480.72 728.60,479.81 743.00,478.89 757.40,477.98 771.80,477.07 786.20,476.15 800.60,475.24 815.00,474.33" fill="none" stroke="#059669" stroke-width="2.40" stroke-linejoin="round" stroke-linecap="round" opacity="1.000"/>
<polyline points="95.00,520.00 109.40,517.76 123.80,515.52 138.20,513.28 152.60,511.04 167.00,508.80 181.40,506.56 195.80,504.32 210.20,502.08 224.60,499.84 239.00,497.60 253.40,495.36 267.80,493.12 282.20,490.88 296.60,488.64 311.00,486.40 325.40,484.16 339.80,481.92 354.20,479.68 368.60,477.44 383.00,475.20 397.40,472.96 411.80,470.72 426.20,468.48 440.60,466.24 455.00,464.00 469.40,461.76 483.80,459.52 498.20,457.28 512.60,455.04 527.00,452.80 541.40,450.56 555.80,448.32 570.20,446.08 584.60,443.84 599.00,441.60 613.40,439.36 627.80,437.12 642.20,434.88 656.60,432.64 671.00,430.40 685.40,428.16 699.80,425.92 714.20,423.68 728.60,421.44 743.00,419.20 757.40,416.96 771.80,414.72 786.20,412.48 800.60,410.24 815.00,408.00" fill="none" stroke="#ea580c" stroke-width="2.40" stroke-linejoin="round" stroke-linecap="round" opacity="1.000" stroke-dasharray="7 4"/>
<polyline points="95.00,520.00 109.40,515.06 123.80,510.12 138.20,505.18 152.60,500.25 167.00,495.31 181.40,490.37 195.80,485.43 210.20,480.49 224.60,475.55 239.00,470.61 253.40,465.68 267.80,460.74 282.20,455.80 296.60,450.86 311.00,445.92 325.40,440.98 339.80,436.05 354.20,431.11 368.60,426.17 383.00,421.23 397.40,416.29 411.80,411.35 426.20,406.41 440.60,401.48 455.00,396.54 469.40,391.60 483.80,386.66 498.20,381.72 512.60,376.78 527.00,371.84 541.40,366.91 555.80,361.97 570.20,357.03 584.60,352.09 599.00,347.15 613.40,342.21 627.80,337.28 642.20,332.34 656.60,327.40 671.00,322.46 685.40,317.52 699.80,312.58 714.20,307.64 728.60,302.71 743.00,297.77 757.40,292.83 771.80,287.89 786.20,282.95 800.60,278.01 815.00,273.07" fill="none" stroke="#7c3aed" stroke-width="2.40" stroke-linejoin="round" stroke-linecap="round" opacity="1.000" stroke-dasharray="7 4"/>
<polyline points="95.00,520.00 109.40,512.61 123.80,505.22 138.20,497.82 152.60,490.43 167.00,483.04 181.40,475.65 195.80,468.26 210.20,460.86 224.60,453.47 239.00,446.08 253.40,438.69 267.80,431.30 282.20,423.90 296.60,416.51 311.00,409.12 325.40,401.73 339.80,394.34 354.20,386.94 368.60,379.55 383.00,372.16 397.40,364.77 411.80,357.38 426.20,349.98 440.60,342.59 455.00,335.20 469.40,327.81 483.80,320.42 498.20,313.02 512.60,305.63 527.00,298.24 541.40,290.85 555.80,283.46 570.20,276.06 584.60,268.67 599.00,261.28 613.40,253.89 627.80,246.50 642.20,239.10 656.60,231.71 671.00,224.32 685.40,216.93 699.80,209.54 714.20,202.14 728.60,194.75 743.00,187.36 757.40,179.97 771.80,172.58 786.20,165.18 800.60,157.79 815.00,150.40" fill="none" stroke="#dc2626" stroke-width="2.40" stroke-linejoin="round" stroke-linecap="round" opacity="1.000" stroke-dasharray="3 4"/>
<line x1="842.00" y1="118.00" x2="870.00" y2="118.00" stroke="#2563eb" stroke-width="3.00" opacity="1.000"/>
<text x="880.00" y="122.00" class="legend" text-anchor="start">Helix pooled mean: 1.12 µs</text>
<line x1="842.00" y1="154.00" x2="870.00" y2="154.00" stroke="#0891b2" stroke-width="3.00" opacity="1.000"/>
<text x="880.00" y="158.00" class="legend" text-anchor="start">Helix pooled 1σ: 2.75 µs</text>
<line x1="842.00" y1="190.00" x2="870.00" y2="190.00" stroke="#059669" stroke-width="3.00" opacity="1.000"/>
<text x="880.00" y="194.00" class="legend" text-anchor="start">Helix observed maximum: 10.88 µs</text>
<line x1="842.00" y1="226.00" x2="870.00" y2="226.00" stroke="#ea580c" stroke-width="3.00" opacity="1.000" stroke-dasharray="7 4"/>
<text x="880.00" y="230.00" class="legend" text-anchor="start">Original Klipper maximum: 26.67 µs</text>
<line x1="842.00" y1="262.00" x2="870.00" y2="262.00" stroke="#7c3aed" stroke-width="3.00" opacity="1.000" stroke-dasharray="7 4"/>
<text x="880.00" y="266.00" class="legend" text-anchor="start">Largest measured campaign bias: 58.79 µs</text>
<line x1="842.00" y1="298.00" x2="870.00" y2="298.00" stroke="#dc2626" stroke-width="3.00" opacity="1.000" stroke-dasharray="3 4"/>
<text x="880.00" y="302.00" class="legend" text-anchor="start">Symmetry-free RTT envelope example: 88 µs</text>
<rect x="842.00" y="360.00" width="225.00" height="112.00" fill="#f8fafc" stroke="#dbe4ee" stroke-width="1.00" opacity="1.000" rx="8.00"/>
<text x="855.00" y="384.00" class="axis" text-anchor="start" font-weight="700">At 300 mm/s</text>
<text x="855.00" y="408.00" class="legend" text-anchor="start">Helix mean: 0.00034 mm</text>
<text x="855.00" y="430.00" class="legend" text-anchor="start">Helix max: 0.00326 mm</text>
<text x="855.00" y="452.00" class="legend" text-anchor="start">58.79 µs bias: 0.01764 mm</text>
</svg>
