<svg xmlns="http://www.w3.org/2000/svg" viewBox="0 0 1350 560" role="img">
<title>Cross-MCU skew distributions</title>
<desc>Observed range, population standard deviation, and mean.</desc>
<rect width="100%" height="100%" fill="#ffffff"/>
<style>text{font-family:Inter,system-ui,sans-serif;fill:#0f172a}.title{font-size:22px;font-weight:700}.subtitle{font-size:13px;fill:#64748b}.axis{font-size:12px;fill:#64748b}.legend{font-size:12px}</style>
<text x="70.00" y="38.00" class="title" text-anchor="start">Measured skew: center, variation, and tails</text>
<text x="70.00" y="61.00" class="subtitle" text-anchor="start">Thin line = observed range; thick line = mean ±1σ; dot = mean. These are measurements, not guaranteed limits.</text>
<rect x="595.38" y="105.00" width="106.15" height="340.00" fill="#dcfce7" stroke="none" stroke-width="1.00" opacity="1.000" rx="0.00"/>
<line x1="330.00" y1="105.00" x2="330.00" y2="445.00" stroke="#dbe4ee" stroke-width="1.00" opacity="1.000"/>
<text x="330.00" y="470.00" class="axis" text-anchor="middle">-60</text>
<line x1="383.08" y1="105.00" x2="383.08" y2="445.00" stroke="#dbe4ee" stroke-width="1.00" opacity="1.000"/>
<text x="383.08" y="470.00" class="axis" text-anchor="middle">-50</text>
<line x1="436.15" y1="105.00" x2="436.15" y2="445.00" stroke="#dbe4ee" stroke-width="1.00" opacity="1.000"/>
<text x="436.15" y="470.00" class="axis" text-anchor="middle">-40</text>
<line x1="489.23" y1="105.00" x2="489.23" y2="445.00" stroke="#dbe4ee" stroke-width="1.00" opacity="1.000"/>
<text x="489.23" y="470.00" class="axis" text-anchor="middle">-30</text>
<line x1="542.31" y1="105.00" x2="542.31" y2="445.00" stroke="#dbe4ee" stroke-width="1.00" opacity="1.000"/>
<text x="542.31" y="470.00" class="axis" text-anchor="middle">-20</text>
<line x1="595.38" y1="105.00" x2="595.38" y2="445.00" stroke="#dbe4ee" stroke-width="1.00" opacity="1.000"/>
<text x="595.38" y="470.00" class="axis" text-anchor="middle">-10</text>
<line x1="648.46" y1="105.00" x2="648.46" y2="445.00" stroke="#dbe4ee" stroke-width="1.00" opacity="1.000"/>
<text x="648.46" y="470.00" class="axis" text-anchor="middle">0</text>
<line x1="701.54" y1="105.00" x2="701.54" y2="445.00" stroke="#dbe4ee" stroke-width="1.00" opacity="1.000"/>
<text x="701.54" y="470.00" class="axis" text-anchor="middle">10</text>
<line x1="754.62" y1="105.00" x2="754.62" y2="445.00" stroke="#dbe4ee" stroke-width="1.00" opacity="1.000"/>
<text x="754.62" y="470.00" class="axis" text-anchor="middle">20</text>
<line x1="807.69" y1="105.00" x2="807.69" y2="445.00" stroke="#dbe4ee" stroke-width="1.00" opacity="1.000"/>
<text x="807.69" y="470.00" class="axis" text-anchor="middle">30</text>
<line x1="860.77" y1="105.00" x2="860.77" y2="445.00" stroke="#dbe4ee" stroke-width="1.00" opacity="1.000"/>
<text x="860.77" y="470.00" class="axis" text-anchor="middle">40</text>
<line x1="913.85" y1="105.00" x2="913.85" y2="445.00" stroke="#dbe4ee" stroke-width="1.00" opacity="1.000"/>
<text x="913.85" y="470.00" class="axis" text-anchor="middle">50</text>
<line x1="966.92" y1="105.00" x2="966.92" y2="445.00" stroke="#dbe4ee" stroke-width="1.00" opacity="1.000"/>
<text x="966.92" y="470.00" class="axis" text-anchor="middle">60</text>
<line x1="1020.00" y1="105.00" x2="1020.00" y2="445.00" stroke="#dbe4ee" stroke-width="1.00" opacity="1.000"/>
<text x="1020.00" y="470.00" class="axis" text-anchor="middle">70</text>
<line x1="648.46" y1="105.00" x2="648.46" y2="445.00" stroke="#475569" stroke-width="1.50" opacity="1.000"/>
<text x="312.00" y="164.00" class="axis" text-anchor="end">Helix robust + SCHED_RR (4 sessions)</text>
<line x1="621.04" y1="160.00" x2="706.18" y2="160.00" stroke="#2563eb" stroke-width="2.00" opacity="0.650"/>
<line x1="639.81" y1="160.00" x2="669.02" y2="160.00" stroke="#2563eb" stroke-width="10.00" opacity="1.000"/>
<circle cx="654.42" cy="160.00" r="6.00" fill="#ffffff" stroke="#2563eb" stroke-width="3.00"/>
<text x="1034.00" y="164.00" class="legend" text-anchor="start">μ=+1.12  σ=2.75  n=90</text>
<text x="312.00" y="242.00" class="axis" text-anchor="end">Original Klipper print_time</text>
<line x1="656.42" y1="238.00" x2="790.00" y2="238.00" stroke="#ea580c" stroke-width="2.00" opacity="0.650"/>
<line x1="652.50" y1="238.00" x2="733.13" y2="238.00" stroke="#ea580c" stroke-width="10.00" opacity="1.000"/>
<circle cx="692.82" cy="238.00" r="6.00" fill="#ffffff" stroke="#ea580c" stroke-width="3.00"/>
<text x="1034.00" y="242.00" class="legend" text-anchor="start">μ=+8.36  σ=7.60  n=30</text>
<text x="312.00" y="320.00" class="axis" text-anchor="end">Helix adverse SCHED_OTHER startup</text>
<line x1="396.35" y1="316.00" x2="597.82" y2="316.00" stroke="#dc2626" stroke-width="2.00" opacity="0.650"/>
<line x1="506.63" y1="316.00" x2="618.64" y2="316.00" stroke="#dc2626" stroke-width="10.00" opacity="1.000"/>
<circle cx="562.64" cy="316.00" r="6.00" fill="#ffffff" stroke="#dc2626" stroke-width="3.00"/>
<text x="1034.00" y="320.00" class="legend" text-anchor="start">μ=-16.17  σ=10.55  n=12</text>
<text x="312.00" y="398.00" class="axis" text-anchor="end">Rejected freeze-biased experiment</text>
<line x1="951.44" y1="394.00" x2="960.51" y2="394.00" stroke="#7c3aed" stroke-width="2.00" opacity="0.650"/>
<line x1="953.62" y1="394.00" x2="960.13" y2="394.00" stroke="#7c3aed" stroke-width="10.00" opacity="1.000"/>
<circle cx="956.87" cy="394.00" r="6.00" fill="#ffffff" stroke="#7c3aed" stroke-width="3.00"/>
<text x="1034.00" y="398.00" class="legend" text-anchor="start">μ=+58.11  σ=0.61  n=20</text>
<text x="675.00" y="512.00" class="axis" text-anchor="middle">Physical edge skew (µs)</text>
</svg>
